<svg xmlns="http://www.w3.org/2000/svg" xml:space="preserve" width="180.857" height="180.859" viewBox="0 0 153.027 443.54"><path d="M225.288 312.858V200.284c0-6.028-4.885-10.925-10.92-10.925H101.794c-6.027 0-10.924 4.897-10.924 10.925v112.574c0 6.035 4.897 10.92 10.924 10.92H214.37c6.034 0 10.919-4.885 10.919-10.92z" style="fill:#fff;fill-rule:evenodd;stroke:#000;stroke-width:.59989232;stroke-miterlimit:4;stroke-opacity:1;stroke-dasharray:none" transform="translate(-440.477 -617.33)scale(3.27047)"/><path d="M223.408 312.718a9.04 9.04 0 0 1-9.046 9.045h-112.57c-4.992 0-9.038-4.046-9.038-9.045V200.15a9.04 9.04 0 0 1 9.038-9.04h112.57c5 0 9.046 4.048 9.046 9.04z" style="fill:#000;fill-rule:evenodd;stroke:none" transform="translate(-440.477 -617.33)scale(3.27047)"/><path d="M220.081 312.718V200.15a5.72 5.72 0 0 0-5.719-5.713h-112.57a5.717 5.717 0 0 0-5.711 5.713v112.57a5.72 5.72 0 0 0 5.71 5.718h112.571a5.72 5.72 0 0 0 5.72-5.719" style="fill:#fff;fill-rule:evenodd;stroke:none" transform="translate(-440.477 -617.33)scale(3.27047)"/><path d="M116.475 214.965c22.933-22.927 60.111-22.927 83.045 0 22.927 22.934 22.927 60.112 0 83.046-22.934 22.927-60.112 22.927-83.045 0-22.927-22.934-22.927-60.112 0-83.046" style="fill:#017863;fill-opacity:1;fill-rule:evenodd;stroke:none" transform="translate(-440.477 -617.33)scale(3.27047)"/><path d="M157.998 209.95c-25.703 0-46.538 20.836-46.538 46.538s20.835 46.537 46.538 46.537c25.7 0 46.537-20.836 46.537-46.537 0-25.702-20.837-46.537-46.537-46.537" style="fill:#fff;fill-rule:evenodd;stroke:none" transform="translate(-440.477 -617.33)scale(3.27047)"/><path d="M162.634 262.077v-23.161l-6.157 1.832a2.18 2.18 0 0 1-2.348-.596 2.17 2.17 0 0 1-.201-2.654l14.148-20.57 14.486 20.393a2.12 2.12 0 0 1-.011 2.536 2.12 2.12 0 0 1-2.316.741l-6.341-1.777v53.448h-11.26v-10.685a19.065 19.065 0 0 0-21.278-15.384l1.996 6.723a2.257 2.257 0 0 1-3.427 2.455l-20.695-14.21 20.62-14.702a2.23 2.23 0 0 1 2.742.038 2.24 2.24 0 0 1 .766 2.317l-2.09 6.785a27.83 27.83 0 0 1 21.366 6.471" style="fill:#000;fill-rule:evenodd;stroke:none" transform="translate(-440.477 -617.33)scale(3.27047)"/></svg>