<svg xmlns="http://www.w3.org/2000/svg" xml:space="preserve" width="179.961" height="179.96" viewBox="0 0 152.269 441.336"><path d="M87.773 316.374v-112.01c0-5.999 4.862-10.871 10.865-10.871H210.65c5.998 0 10.87 4.872 10.87 10.87v112.011c0 6.005-4.872 10.865-10.87 10.865H98.638a10.86 10.86 0 0 1-10.865-10.865z" style="fill:#fff;fill-rule:evenodd;stroke:#000;stroke-opacity:1;stroke-width:.59989233;stroke-miterlimit:4;stroke-dasharray:none" transform="translate(-429.633 -630.85)scale(3.27047)"/><path d="M89.25 316.719a9.04 9.04 0 0 0 9.045 9.045h112.57c4.992 0 9.038-4.046 9.038-9.045v-112.57a9.04 9.04 0 0 0-9.037-9.039H98.296c-5 0-9.046 4.046-9.046 9.039z" style="fill:#000;fill-rule:evenodd;stroke:none" transform="translate(-429.633 -630.85)scale(3.27047)"/><path d="M92.576 316.719v-112.57a5.72 5.72 0 0 1 5.72-5.712h112.57c3.15 0 5.71 2.56 5.71 5.712v112.57a5.717 5.717 0 0 1-5.71 5.717H98.295a5.72 5.72 0 0 1-5.72-5.717" style="fill:#fff;fill-rule:evenodd;stroke:none" transform="translate(-429.633 -630.85)scale(3.27047)"/><path d="M196.185 218.828c-22.934-22.928-60.115-22.928-83.05 0-22.928 22.935-22.928 60.115 0 83.05 22.935 22.927 60.116 22.927 83.05 0 22.928-22.935 22.928-60.115 0-83.05" style="fill:#c0111e;fill-rule:evenodd;stroke:none;fill-opacity:1" transform="translate(-429.633 -630.85)scale(3.27047)"/><path d="M187.564 227.45c17.247 17.245 18.13 44.666 2.634 62.953l-65.589-65.588c18.283-15.491 45.703-14.612 62.955 2.634m-2.891 68.451c-18.287 15.495-45.714 14.622-62.96-2.629-17.252-17.245-18.129-44.679-2.628-62.96z" style="fill:#fff;fill-rule:evenodd;stroke:none" transform="translate(-429.633 -630.85)scale(3.27047)"/><path d="M138.899 239.11a17.36 17.36 0 0 1 14.512-7.744c9.46.013 17.165 7.596 17.352 17.05v22.551l11.69 11.69.007-34.279h.007c-.033-15.97-13.009-28.92-29.01-28.92-9.338 0-17.648 4.408-22.95 11.253zm-2.851 8.165-9.613-9.613a29 29 0 0 0-2.066 10.694l.018 22.334-6.344-2.27a2.795 2.795 0 0 0-3.022.71 2.78 2.78 0 0 0-.473 3.147l15.607 22.34 15.727-22.334a2.78 2.78 0 0 0-.321-3.017 2.78 2.78 0 0 0-3.005-.896l-6.541 2.347-.005-22.361c0-.36.017-.72.039-1.081zm46.323 46.323-11.684-11.685-.005 12.866h11.69z" style="fill:#000;fill-rule:evenodd;stroke:none" transform="translate(-429.633 -630.85)scale(3.27047)"/></svg>