<svg xmlns="http://www.w3.org/2000/svg" xml:space="preserve" width="179.961" height="179.96" viewBox="0 0 152.269 441.336"><path d="M225.679 313.235a10.86 10.86 0 0 1-10.865 10.865H102.803c-5.998 0-10.87-4.86-10.87-10.865v-112.01c0-5.999 4.872-10.871 10.87-10.871h112.011c6.004 0 10.865 4.872 10.865 10.87z" style="fill:#fff;fill-rule:evenodd;stroke:#000;stroke-opacity:1;stroke-width:.59989233;stroke-miterlimit:4;stroke-dasharray:none" transform="translate(-443.235 -620.585)scale(3.27047)"/><path d="M224.068 313.444V200.875a9.04 9.04 0 0 0-9.045-9.039h-112.57a9.04 9.04 0 0 0-9.039 9.04v112.568a9.04 9.04 0 0 0 9.04 9.045h112.57a9.04 9.04 0 0 0 9.044-9.045" style="fill:#000;fill-rule:evenodd;stroke:none" transform="translate(-443.235 -620.585)scale(3.27047)"/><path d="M220.741 313.444a5.72 5.72 0 0 1-5.718 5.719h-112.57a5.72 5.72 0 0 1-5.712-5.719V200.875a5.717 5.717 0 0 1 5.712-5.713h112.57a5.717 5.717 0 0 1 5.718 5.713z" style="fill:#fff;fill-rule:evenodd;stroke:none" transform="translate(-443.235 -620.585)scale(3.27047)"/><path d="M117.273 215.695c-22.933 22.929-22.933 60.11 0 83.044 22.934 22.927 60.104 22.927 83.038 0 22.933-22.935 22.933-60.115 0-83.044-22.934-22.934-60.104-22.934-83.038 0" style="fill:#017863;fill-opacity:1;fill-rule:evenodd;stroke:none" transform="translate(-443.235 -620.585)scale(3.27047)"/><path d="M158.792 210.68c25.699 0 46.535 20.835 46.535 46.534s-20.836 46.534-46.535 46.534c-25.689 0-46.534-20.835-46.534-46.534s20.845-46.534 46.534-46.534" style="fill:#fff;fill-rule:evenodd;stroke:none" transform="translate(-443.235 -620.585)scale(3.27047)"/><path d="M189.162 288.393v-17.815a39.77 39.77 0 0 0-13.64-28.15 39.74 39.74 0 0 0-25.71-9.743l2.854-7.124a3.286 3.286 0 0 0-1.001-3.95 3.285 3.285 0 0 0-3.908-.044l-24.746 17.666 24.553 17.353a3.27 3.27 0 0 0 3.999.209 3.26 3.26 0 0 0 1.13-4.026l-3.373-7.36a26.88 26.88 0 0 1 18.06 7.066 26.93 26.93 0 0 1 8.64 17.783v18.135z" style="fill:#000;fill-rule:evenodd;stroke:none" transform="translate(-443.235 -620.585)scale(3.27047)"/></svg>