<svg xmlns="http://www.w3.org/2000/svg" xml:space="preserve" width="179.961" height="179.96" viewBox="0 0 152.269 441.336"><path d="M99.468 329.184v-112.01c0-5.998 4.861-10.871 10.864-10.871h112.013c5.998 0 10.87 4.873 10.87 10.87v112.011c0 6.005-4.872 10.865-10.87 10.865H110.332a10.86 10.86 0 0 1-10.864-10.865z" style="fill:#fff;fill-rule:evenodd;stroke:#000;stroke-opacity:1;stroke-width:.59989233;stroke-miterlimit:4;stroke-dasharray:none" transform="translate(-467.88 -672.746)scale(3.27047)"/><path d="M100.944 329.393a9.04 9.04 0 0 0 9.046 9.045h112.57c4.992 0 9.038-4.046 9.038-9.045V216.824a9.04 9.04 0 0 0-9.038-9.039H109.99c-5 0-9.046 4.047-9.046 9.04z" style="fill:#000;fill-rule:evenodd;stroke:none" transform="translate(-467.88 -672.746)scale(3.27047)"/><path d="M104.27 329.393V216.824a5.72 5.72 0 0 1 5.72-5.713h112.57a5.717 5.717 0 0 1 5.711 5.713v112.57a5.72 5.72 0 0 1-5.71 5.718H109.99a5.72 5.72 0 0 1-5.72-5.719" style="fill:#fff;fill-rule:evenodd;stroke:none" transform="translate(-467.88 -672.746)scale(3.27047)"/><path d="M207.88 231.639c-22.935-22.929-60.115-22.929-83.05 0-22.928 22.934-22.928 60.114 0 83.049 22.935 22.927 60.115 22.927 83.05 0 22.927-22.935 22.927-60.115 0-83.05" style="fill:#017863;fill-rule:evenodd;stroke:none;fill-opacity:1" transform="translate(-467.88 -672.746)scale(3.27047)"/><path d="M166.354 226.629c25.7 0 46.536 20.835 46.536 46.534s-20.837 46.534-46.536 46.534c-25.697 0-46.534-20.835-46.534-46.534s20.837-46.534 46.534-46.534" style="fill:#fff;fill-rule:evenodd;stroke:none" transform="translate(-467.88 -672.746)scale(3.27047)"/><path d="M172.024 290.17a21.7 21.7 0 0 1 10.837-19.092l-2.03 4.898a2.705 2.705 0 0 0 3.988 3.443l21.266-15.098-21.417-15.17a2.797 2.797 0 0 0-3.93 3.514l2.453 5.71a33.6 33.6 0 0 0-9.1 4.798 33.8 33.8 0 0 0-7.84 8.205 32 32 0 0 0-6.65-7.437 32.1 32.1 0 0 0-10.213-5.595l2.603-5.832a2.75 2.75 0 0 0-4.217-3.133l-21.28 14.925 21.503 15.313a2.723 2.723 0 0 0 3.815-3.37l-2.366-5.352a22.45 22.45 0 0 1 7.975 7.875 22.37 22.37 0 0 1 3.17 11.333v17.501h11.433z" style="fill:#000;fill-rule:evenodd;stroke:none" transform="translate(-467.88 -672.746)scale(3.27047)"/></svg>