<svg xmlns="http://www.w3.org/2000/svg" xml:space="preserve" width="179.961" height="179.96" viewBox="0 0 152.269 441.336"><path d="M89.423 340.69V228.68c0-5.998 4.862-10.87 10.865-10.87H212.3c5.998 0 10.87 4.872 10.87 10.87v112.01c0 6.005-4.872 10.865-10.87 10.865H100.288a10.86 10.86 0 0 1-10.865-10.864z" style="fill:#fff;fill-rule:evenodd;stroke:#000;stroke-opacity:1;stroke-width:.59989234;stroke-miterlimit:4;stroke-dasharray:none" transform="translate(-435.03 -710.377)scale(3.27047)"/><path d="M90.9 341.035a9.04 9.04 0 0 0 9.045 9.045h112.57c4.992 0 9.038-4.046 9.038-9.045v-112.57a9.04 9.04 0 0 0-9.037-9.038H99.946c-5 0-9.046 4.046-9.046 9.038z" style="fill:#000;fill-rule:evenodd;stroke:none" transform="translate(-435.03 -710.377)scale(3.27047)"/><path d="M94.226 341.035v-112.57a5.72 5.72 0 0 1 5.72-5.712h112.57c3.15 0 5.71 2.56 5.71 5.712v112.57a5.717 5.717 0 0 1-5.71 5.718H99.946a5.72 5.72 0 0 1-5.72-5.718" style="fill:#fff;fill-rule:evenodd;stroke:none" transform="translate(-435.03 -710.377)scale(3.27047)"/><path d="M197.835 243.145c-22.934-22.928-60.114-22.928-83.05 0-22.928 22.934-22.928 60.114 0 83.05 22.936 22.926 60.116 22.926 83.05 0 22.928-22.936 22.928-60.116 0-83.05" style="fill:#c0111e;fill-rule:evenodd;stroke:none;fill-opacity:1" transform="translate(-435.03 -710.377)scale(3.27047)"/><path d="M189.214 251.766c17.247 17.245 18.13 44.667 2.634 62.953l-65.589-65.588c18.283-15.49 45.703-14.612 62.955 2.635m-2.891 68.451c-18.287 15.495-45.714 14.621-62.96-2.63-17.252-17.245-18.129-44.678-2.628-62.96z" style="fill:#fff;fill-rule:evenodd;stroke:none" transform="translate(-435.03 -710.377)scale(3.27047)"/><path d="m133.925 256.797 21.642 21.642h5.774c1.566 0 3.069.618 4.195 1.717a6 6 0 0 1 1.811 4.288v5.775l16.148 16.148v-21.968a22.36 22.36 0 0 0-6.612-15.675 22.3 22.3 0 0 0-15.575-6.49h-18.19l1.784-7.31a2.74 2.74 0 0 0-.952-2.833 2.73 2.73 0 0 0-3.135-.19zm10.635 21.656-17.088-17.088-12.816 9.106 25.936 18.085a2.8 2.8 0 0 0 3.247.017 2.8 2.8 0 0 0 1.137-2.78l-1.334-7.34zm38.892 38.893-16.148-16.149v18.557h16.148z" style="fill:#000;fill-rule:evenodd;stroke:none" transform="translate(-435.03 -710.377)scale(3.27047)"/></svg>