<svg xmlns="http://www.w3.org/2000/svg" width="181.165" height="118.825"><path d="M-1162.423-494.483h181.165v118.825h-181.165z" style="fill:#008460;fill-rule:evenodd;stroke:none" transform="translate(1162.423 494.483)"/><path d="M-1160.423-384.408a6.75 6.75 0 0 0 6.75 6.75h163.664a6.75 6.75 0 0 0 6.751-6.75v-101.325a6.75 6.75 0 0 0-6.751-6.75h-163.665a6.75 6.75 0 0 0-6.749 6.75z" style="fill:#fff;fill-rule:evenodd;stroke:none" transform="translate(1162.423 494.483)"/><path d="M-1159.3-451.758v-33.975q0-1.145.442-2.188a5.6 5.6 0 0 1 1.206-1.789 5.6 5.6 0 0 1 1.789-1.206 5.6 5.6 0 0 1 2.188-.442h163.664q1.147 0 2.189.442 1.01.427 1.788 1.206.78.778 1.207 1.789a5.55 5.55 0 0 1 .441 2.188v33.975zm174.914 1.125v66.226q0 1.145-.441 2.189a5.6 5.6 0 0 1-1.207 1.788 5.6 5.6 0 0 1-1.788 1.206 5.6 5.6 0 0 1-2.189.442h-163.664a5.6 5.6 0 0 1-2.188-.442 5.6 5.6 0 0 1-1.789-1.206 5.6 5.6 0 0 1-1.206-1.788 5.6 5.6 0 0 1-.442-2.189v-66.226z" style="fill:#008460;fill-rule:evenodd;stroke:none" transform="translate(1162.423 494.483)"/><path d="M-1125.699-481.685h-20.249v12.683q.081.65.315 1.277c.175.46.41.91.712 1.337.35.492.77.946 1.246 1.366.55.483 1.176.91 1.855 1.28a24 24 0 0 0 2.691 1.264c1.007.396 2.058.732 3.138 1.002l.167.041.167-.041a24 24 0 0 0 5.829-2.266 10.3 10.3 0 0 0 1.854-1.28 8 8 0 0 0 1.246-1.366c.303-.426.538-.877.71-1.337a5.5 5.5 0 0 0 .317-1.277v-12.683z" style="fill:#fff;fill-rule:evenodd;stroke:none" transform="translate(1162.423 494.483)"/><path d="M-1135.623-463.39c.01.12.072.23.175.293a.36.36 0 0 0 .268.043.264.264 0 0 1-.416.164.57.57 0 0 1-.232.497.64.64 0 0 1-.231-.493.26.26 0 0 1-.238.035.26.26 0 0 1-.177-.205.356.356 0 0 0 .444-.334l-.738.002v-.343l.444.012c0-.065 0-.13-.02-.193a.8.8 0 0 0-.068-.165.406.406 0 0 0-.454-.191.4.4 0 0 0-.216.177.4.4 0 0 0-.045.282.614.614 0 0 1-.386-.779.645.645 0 0 1 .773-.424.8.8 0 0 1 .516.53q.06.18.088.365.03.196.021.394l.173-.004v-.316a4 4 0 0 0-.044-.34 2.6 2.6 0 0 0-.28-.704 1 1 0 0 1-.114-.385 1 1 0 0 1 .136-.582c.04-.069.09-.12.143-.19.054-.072.112-.13.165-.194.043-.05.084-.094.123-.148l.138.16q.074.087.145.175a1.2 1.2 0 0 1 .24.416q.052.18.038.366a1 1 0 0 1-.114.382 3 3 0 0 0-.282.702 3 3 0 0 0-.043.34 1.7 1.7 0 0 0 0 .32l.165.002q-.013-.199.022-.396.03-.185.093-.364a.79.79 0 0 1 .518-.526.653.653 0 0 1 .778.422.635.635 0 0 1-.395.783.38.38 0 0 0-.043-.284.4.4 0 0 0-.22-.181.41.41 0 0 0-.457.195.7.7 0 0 0-.085.353l.442-.004v.338l-.737-.005zm9.481-12.378h-19.361v6.736c.05.406.151.808.3 1.198q.25.654.675 1.254.505.691 1.193 1.288a9.5 9.5 0 0 0 1.78 1.212q1.261.688 2.647 1.227c.991.386 2.024.712 3.086.973a25 25 0 0 0 3.085-.973c.921-.359 1.809-.77 2.649-1.227a9.6 9.6 0 0 0 1.778-1.212 7.8 7.8 0 0 0 1.193-1.288q.425-.6.675-1.254.224-.587.3-1.198z" style="fill:#003f87;fill-rule:evenodd;stroke:none;fill-opacity:1" transform="translate(1162.423 494.483)"/><path d="M-1127.417-480.595v.366q.258.001.516.005v.282a240 240 0 0 0-17.805.417v-.258l.455-.027v-.32q-.229.014-.461.026l-.01-.103q4.505-.294 9.023-.434 4.391-.134 8.787-.115l-.01.163-.492-.001zm-1.078 3.548-.679-2.201-.467-.292a230 230 0 0 0-13.273.27l-.233.189-.367 1.783-.96-.01v-1.767l-.237-.183v-.073a229 229 0 0 1 17.806-.353l.01.106-.361.254.01 2.306zm-12.084-.135-2.06.47h-2.11l7.44-1.386-.386-1.261h.38l.591 1.884h.378l.638-1.922.399-.001-.752 2.264-.94-.033-.083-.276-2.103.732h-2.737l1.865-.46zm8.13-.01h-.277l-.027.475h-3.37l3.5-2.223-.012.2h.09l-.012-.195 3.493 2.218h-3.357zm-1.405-1.467.96-.245h.103l-2.294.8-.196.558-.63.347.782-2.205.165-.002-.621 1.763.194-.09.602-1.685h.162l-.316.872 1.96-.355.014-.004h.031l-1.058.241zm-9.51 1.369.37-1.71.213-.195 2.524-.085-.228.158-.333 1.465zm13.732-.264-.517-1.608-.395-.265.845-.003.388.25.613 2.088zm-6.944-.021-.585-1.792.251-.006.49 1.709-.027.087zm.243-.3-.429-1.5.175-.004.367 1.153zm10.192-3.366h-19.365v5.034h19.365z" style="fill:#af1e2d;fill-rule:evenodd;stroke:none;fill-opacity:1" transform="translate(1162.423 494.483)"/><path d="M-1130.568-480.586v.353a217 217 0 0 1 2.907.004v-.367q-1.45-.001-2.9.01zm-.22.353.01-.35q-1.429.012-2.859.042l.01.338q1.423-.024 2.846-.03zm-3.067.035v-.338q-.925.015-1.851.043l-.858.024.01.33q.449-.014.896-.022.904-.022 1.805-.037zm-5.443-.175-.01.325q1.27-.048 2.541-.084l-.012-.33q-1.262.04-2.523.09zm-.222.333-.01-.324q-1.159.047-2.317.104l.01.322a211 211 0 0 1 2.317-.101m-2.504.109v-.32q-1.032.05-2.059.108v.322q1.029-.059 2.056-.11zm3.609 2.353-.384-.011-1.046.238.46.012zm.401-.099.788-.195-.252-.02-.894.204zm3.471-.868-.427.097.19.023.425-.11zm.572-.088-.165-.004-.263.06.185.007zm1.256 1.262h.254l-.017-.295h-.219zm.029-.474h.197l-.015-.219h-.17zm.016-.291h.162l-.01-.161h-.143zm.015-.233h.133l-.01-.13h-.12l-.01.13zm.012-.204h.11l-.01-.095h-.1z" style="fill:#af1e2d;fill-rule:evenodd;stroke:none;fill-opacity:1" transform="translate(1162.423 494.483)"/><path d="M-1104.444-471.564q-.002-.581-.084-1.06a2.4 2.4 0 0 0-.304-.822 1.54 1.54 0 0 0-.587-.534c-.244-.13-.556-.19-.93-.19s-.685.06-.929.19-.435.305-.58.534q-.215.344-.304.822-.082.479-.084 1.06.002.581.084 1.06.089.48.304.822c.145.229.344.404.587.533.243.13.556.191.93.191s.678-.06.922-.191c.243-.129.442-.304.587-.533q.214-.351.304-.831.083-.48.084-1.051m1.494-.007c0 .602-.077 1.143-.23 1.615a3.2 3.2 0 0 1-.662 1.182 2.8 2.8 0 0 1-1.067.738c-.419.169-.9.252-1.432.252a3.9 3.9 0 0 1-1.44-.252 2.8 2.8 0 0 1-1.068-.738 3.3 3.3 0 0 1-.67-1.182 5.3 5.3 0 0 1-.229-1.615c0-.594.077-1.128.228-1.593.153-.465.374-.862.663-1.18a2.74 2.74 0 0 1 1.076-.74q.627-.251 1.44-.252.81 0 1.44.252a2.7 2.7 0 0 1 1.066.74c.29.318.504.715.656 1.18s.23.999.23 1.593m6.477-1.448c0-.22-.03-.404-.099-.556a.9.9 0 0 0-.273-.35 1 1 0 0 0-.443-.184 2.7 2.7 0 0 0-.58-.053c-.182 0-.358 0-.517.007q-.252.014-.503.039v2.232h1.158q.285.001.526-.053a.95.95 0 0 0 .396-.175.8.8 0 0 0 .244-.352q.09-.214.09-.555zm.107 5.113-.953-2.546c-.045-.106-.092-.19-.144-.228q-.07-.069-.251-.068h-1.174v2.842h-1.425v-7.261a19 19 0 0 1 1.204-.1c.404-.015.815-.023 1.22-.023.364 0 .723.03 1.066.091.343.069.648.183.914.35.268.162.48.39.641.672.159.282.243.64.243 1.081 0 .473-.09.877-.282 1.213-.19.327-.503.587-.937.753v.016q.106.035.175.183c.045.099.076.183.108.251l1.112 2.774zm8.469-3.719q0-.308-.031-.617a3 3 0 0 0-.108-.595 2.2 2.2 0 0 0-.228-.525 1.6 1.6 0 0 0-.359-.42 1.6 1.6 0 0 0-.525-.289 2.3 2.3 0 0 0-.724-.099q-.24-.002-.502.007a5 5 0 0 0-.496.04v5.066c.153.007.29.007.397.007h.357c.358 0 .672-.037.945-.122.282-.083.51-.228.702-.418.182-.2.327-.466.426-.793.1-.335.145-.748.145-1.242zm1.494.023c0 .602-.077 1.127-.23 1.585a3 3 0 0 1-.67 1.151 2.94 2.94 0 0 1-1.106.717q-.663.242-1.53.243h-2.355v-7.27q.25-.022.548-.045.3-.025.61-.039c.214-.007.419-.022.624-.03q.307-.009.58-.007a4.6 4.6 0 0 1 1.478.228 2.8 2.8 0 0 1 1.105.686c.305.305.533.694.7 1.158.16.458.246 1.006.246 1.624zm-27.33 3.696-3.239-4.847h-.023v4.847h-1.395v-7.308h1.365l3.215 4.84h.023v-4.84h1.41v7.308zm37.447 5.346c0 .621.503 1.124 1.126 1.124h18c.62 0 1.125-.503 1.125-1.124v-18c0-.62-.506-1.125-1.126-1.125h-18c-.622 0-1.125.506-1.125 1.126z" style="fill:#fff;fill-rule:evenodd;stroke:none" transform="translate(1162.423 494.483)"/><path d="M-1075.887-462.56c0 .401.326.727.728.727h18c.4 0 .725-.326.725-.727v-18c0-.4-.326-.726-.726-.726h-18a.73.73 0 0 0-.727.727z" style="fill:#008460;fill-rule:evenodd;stroke:none" transform="translate(1162.423 494.483)"/><path d="M-1057.371-469.381h-7.78l3.257-2.952 4.52-.002v2.954zm.944 5.313.01-5.344v-2.947l-.01-.733-5.678.01-4.073 3.726-4.872.42-2.561.375-.348 2.981-.13.144.192 1.387 3.803.028a2.89 2.89 0 0 1 2.854-2.908c1.618-.02 2.964 1.245 2.951 2.87z" style="fill:#fff;fill-rule:evenodd;stroke:none" transform="translate(1162.423 494.483)"/><path d="M-1067.17-466.333a2.245 2.245 0 0 0-2.24 2.243 2.244 2.244 0 0 0 2.24 2.243 2.244 2.244 0 0 0 2.24-2.243 2.245 2.245 0 0 0-2.24-2.243m-4.688-5.837a7.2 7.2 0 0 0 3.245-1.88 7.26 7.26 0 0 0 1.897-3.359h1.076a8.4 8.4 0 0 1-2.24 4.09c-1.135 1.136-2.523 1.911-3.978 2.25zm-1.404-3.111v1.165c1.05-.276 2.019-.895 2.82-1.697a6.2 6.2 0 0 0 1.666-2.978h-1.013a5.7 5.7 0 0 1-1.386 2.245 5 5 0 0 1-2.087 1.265m-1.358-2.891v1.11a4 4 0 0 0 1.82-1.07 4.1 4.1 0 0 0 1.095-1.941h-1.074a3.1 3.1 0 0 1-.75 1.212 2.9 2.9 0 0 1-1.09.69m13.879 2.557v-1.236c.454.131.486.174.533.215a.53.53 0 0 1 .187.407c0 .278-.216.576-.724.614zm-2.1-.744c.062.888.717 1.542 1.756 1.563v.56l.346-.002v-.561c.514 0 1.032-.221 1.324-.513.26-.265.398-.584.398-.979 0-.59-.335-1.095-1.117-1.323l-.605-.181v-1.21c.429.05.668.328.683.685l.914-.03c-.071-.827-.655-1.416-1.597-1.467v-.364h-.348v.362c-1.08.044-1.644.721-1.644 1.454 0 .434.177.768.49.996.262.194.71.282 1.156.421v1.343c-.481-.011-.797-.331-.81-.786l-.942.033zm1.752-1.539c-.173-.049-.69-.137-.69-.564 0-.228.186-.498.69-.546zm17.668-2.385q-.001.563-.142 1.012a1.9 1.9 0 0 1-.447.764q-.304.315-.779.478-.475.165-1.14.165h-1.373v2.63h-1.426v-7.256q.483-.05 1.125-.088.644-.035 1.302-.036.6 0 1.125.11.528.11.917.379.392.271.614.716.223.447.223 1.126m7.351 1.389a6 6 0 0 0-.088-1.055 2.3 2.3 0 0 0-.302-.823 1.47 1.47 0 0 0-.585-.534q-.37-.19-.931-.19-.563 0-.93.19a1.5 1.5 0 0 0-.58.534 2.3 2.3 0 0 0-.303.823 6 6 0 0 0-.088 1.055q0 .584.088 1.062.086.479.303.823.215.344.584.533.37.19.932.19.555 0 .925-.19.369-.19.585-.537c.144-.23.244-.508.303-.825q.086-.48.087-1.056m1.49-.001q.001.908-.228 1.613a3.3 3.3 0 0 1-.666 1.186 2.8 2.8 0 0 1-1.063.735 3.8 3.8 0 0 1-1.433.253 3.8 3.8 0 0 1-1.436-.253 2.84 2.84 0 0 1-1.07-.735 3.25 3.25 0 0 1-.67-1.186q-.23-.705-.229-1.613-.001-.89.227-1.593.225-.7.664-1.183.439-.482 1.071-.735.632-.251 1.443-.251.813 0 1.444.251a2.8 2.8 0 0 1 1.064.735q.43.483.656 1.183.228.703.227 1.593m7.288 3.662-3.237-4.845h-.021v4.845h-1.398v-7.308h1.366l3.217 4.839h.02v-4.84h1.412v7.309zm6.905-6.088v6.088h-1.432v-6.088h-1.924v-1.22h5.286v1.22zm-24.92 14.762h-.038l-1.03 3.186h2.097zm1.93 5.97-.58-1.607h-2.718l-.563 1.608h-1.49l2.608-7.337h1.608l2.653 7.337zm-1.967-8.058-1.82-1.09 1.226-.636 1.397 1.287zm15.318 3.047q0-.352-.072-.585a.8.8 0 0 0-.242-.376 1 1 0 0 0-.435-.205 3 3 0 0 0-.645-.062q-.243 0-.501.01l-.545.026v2.426h1.097q.313 0 .563-.036a1 1 0 0 0 .422-.162.74.74 0 0 0 .266-.371q.092-.25.092-.665m1.44-.037q0 .563-.14 1.012a1.9 1.9 0 0 1-.448.764 1.94 1.94 0 0 1-.779.477q-.474.165-1.14.165h-1.374v2.63h-1.425v-7.256a25 25 0 0 1 2.426-.123q.6 0 1.127.11.526.108.916.38.392.27.614.714.224.446.223 1.127m2.337 5.049v-7.307h4.568v1.205h-3.135v1.726h2.835v1.212h-2.835v1.987h3.238v1.177zm2.141-8.06-.79-.439 1.39-1.272 1.235.63zm7.632 2.09h-.039l-1.03 3.185h2.098zm1.93 5.97-.58-1.608h-2.717l-.563 1.608h-1.492l2.61-7.337h1.608l2.652 7.337zm9.505-3.25q0 .78-.163 1.404-.165.626-.523 1.065-.358.436-.925.671-.566.234-1.362.234a3.6 3.6 0 0 1-1.404-.263 2.9 2.9 0 0 1-1.052-.749 3.4 3.4 0 0 1-.665-1.184 4.9 4.9 0 0 1-.233-1.568q0-.869.236-1.571.237-.7.677-1.194a2.9 2.9 0 0 1 1.063-.756q.625-.264 1.392-.263.436 0 .8.084a3.2 3.2 0 0 1 1.22.566q.253.19.472.394l-.826.959a3.2 3.2 0 0 0-.783-.596 1.8 1.8 0 0 0-.847-.202q-.54 0-.903.202-.361.2-.587.552a2.3 2.3 0 0 0-.321.818 5 5 0 0 0-.095 1q0 .534.087 1.016.087.481.302.847.216.365.578.583.361.213.917.213.855 0 1.24-.499.383-.502.383-1.378H-1008v-1.177h2.96zm2.632 3.25v-7.307h4.567v1.205h-3.135v1.726h2.836v1.212h-2.836v1.987h3.238v1.177zm-42.453-19.658q0-.35-.072-.584a.8.8 0 0 0-.242-.376 1 1 0 0 0-.436-.205 3 3 0 0 0-.645-.062q-.243 0-.501.01l-.544.026v2.426h1.096q.313-.001.562-.037a.96.96 0 0 0 .424-.16.76.76 0 0 0 .266-.373q.091-.248.091-.665zm-75.979 58.477-4.89-.1-1.414-.864-.122-1.303 1.199-1.41.102.072-.816 1.612.067.697 1.096.67 4.44-.161 1.362-.435a2.602 2.602 0 0 1 5.08-.941 2.606 2.606 0 0 1-4.862 1.843zm-1.884-2.399-4.159-2.655 4.376.303 3.643-.881zm-9.932-.184a1.18 1.18 0 0 0-.577 2.232 1.193 1.193 0 0 0 1.326-1.962l.676-.962a2.381 2.381 0 0 1-2.678 3.926 2.376 2.376 0 0 1 1.99-4.296zm-.034.36c.45 0 .816.365.816.814a.814.814 0 1 1-.815-.814m6.137 2.315 6.416.17a3.338 3.338 0 0 0 6.23-1.726 3.324 3.324 0 1 0-6.648.136l-.732.104a4.055 4.055 0 0 1 7.14-2.777l.012-1.808-1.558-1.348-3.156.066a.35.35 0 0 0-.2.045.35.35 0 0 0-.145.174l-.189.567-1.636.363-5.079-2.209-1.975.379 1.472-2.108 2.223.782.133-.34-2.549-.862-1.375 1.58a.18.18 0 0 0-.028-.145.17.17 0 0 0-.125-.066l-1.829-.383-.322.785.37 1.057.49-.074a.12.12 0 0 1 .133.025c.037.04.04.098.013.142l-1.795 2.74a3.47 3.47 0 0 0-1.814-.307 3.5 3.5 0 0 0-1.96.848l.143.145c-1.732 1.497-1.49 4.25.476 5.422 2.052 1.222 4.686-.028 5.036-2.39l.197.025c.095-.658 0-1.33-.265-1.94a3.5 3.5 0 0 0-1.141-1.42l1.69-2.479a.294.294 0 0 1 .472.06l.028.426.53.337-.811.4 1.077 4.676z" style="fill:#fff;fill-rule:evenodd;stroke:none" transform="translate(1162.423 494.483)"/><path d="M-1118.311-422.387a1.33 1.33 0 0 0 2.391-.58zm-.221-1.003 2.22-.752a1.318 1.318 0 0 0-2.22.752m28.41-4.098h-7.915l3.314-3.003 4.598-.002v3.005zm5.669-.032-4.73.002v-2.998l3.587-.002 1.14 2.998zm11.05 5.385-.38-1.508-.166-.002-.754-3.35-5.62-.488-3.626-3.786-11.014.014-4.144 3.793-4.956.425-2.606.383-.354 3.032-.13.148.192 1.41 3.871.03a2.94 2.94 0 0 1 2.903-2.96c1.648-.02 3.016 1.267 3.003 2.92h11.848a2.96 2.96 0 1 1 5.92-.02z" style="fill:#fff;fill-rule:evenodd;stroke:none" transform="translate(1162.423 494.483)"/><path d="M-1082.356-424.387a2.282 2.282 0 0 0 0 4.561 2.283 2.283 0 0 0 2.279-2.281 2.283 2.283 0 0 0-2.28-2.28m-17.759-.002a2.284 2.284 0 0 0 0 4.566 2.285 2.285 0 0 0 2.279-2.283 2.286 2.286 0 0 0-2.28-2.283m-18.124 27.959h-3.029a.35.35 0 0 1-.28-.139.35.35 0 0 1-.068-.3l.56-2.42a.3.3 0 0 1 .1-.146.3.3 0 0 1 .168-.064l2.551-.01v3.078zm16.613 5.629v-11.615l-15.86-.001v2.195l-3.335.026a.956.956 0 0 0-.899.72l-.604 2.607a.55.55 0 0 1-.575.436l-1.688.013a.324.324 0 0 0-.338.34v4.292h-.504v1.061h.933a2.62 2.62 0 0 1 2.61-2.648c1.456-.004 2.637 1.138 2.628 2.6h10.53a2.625 2.625 0 0 1 5.251-.027h1.855z" style="fill:#fff;fill-rule:evenodd;stroke:none" transform="translate(1162.423 494.483)"/><path d="M-1106.105-392.913c-1.17 0-2.12.951-2.12 2.118 0 1.17.95 2.12 2.12 2.12 1.167 0 2.118-.95 2.118-2.12a2.12 2.12 0 0 0-2.118-2.118m-15.779.003a2.12 2.12 0 0 0 0 4.238c1.168 0 2.12-.951 2.12-2.12a2.12 2.12 0 0 0-2.12-2.118m-11.359-5.74c.072 0 .138.024.188.075a.25.25 0 0 1 .072.175v2.844a.23.23 0 0 1-.06.144.27.27 0 0 1-.165.09h-4.78a.24.24 0 0 1-.174-.081.23.23 0 0 1-.057-.153v-2.816c0-.065.028-.126.068-.173a.3.3 0 0 1 .168-.105zm-13.85 3.961h-3.346a.25.25 0 0 1-.186-.076.25.25 0 0 1-.073-.174v-3.503c0-.053.027-.103.06-.145a.27.27 0 0 1 .165-.089h3.572l.18.006c.066 0 .129.03.173.08a.23.23 0 0 1 .057.152v3.472a.27.27 0 0 1-.068.173.3.3 0 0 1-.169.104zm1.61 3.765v-7.748c0-.071.024-.14.076-.187a.25.25 0 0 1 .175-.073h2.844a.26.26 0 0 1 .144.06.27.27 0 0 1 .09.166v7.79c0 .065-.03.127-.083.171a.23.23 0 0 1-.151.058h-2.818a.305.305 0 0 1-.277-.237m11.392-.242c0-.013.01-.027.017-.034q.013-.01.028-.011h.588q.014.003.026.012.015.012.016.032v.448c0 .01-.01.02-.015.028q-.014.01-.024.01h-.59a.05.05 0 0 1-.03-.007q-.013-.011-.016-.028zm-19.579.19v.522h.278v.51h.429v-.505h7.28v.238h3.711v-.238h1.218a2.075 2.075 0 0 1 4.142 0h3.356l.06-.236.017-.07.098-.387.018-.07.873-3.451v-4.711a.86.86 0 0 0-.292-.617.85.85 0 0 0-.503-.205v-.573h-17.693v.573a.87.87 0 0 0-.565.313c-.128.159-.185.405-.182.61l-.826 4.61.839 3.689h-.599v-.153h-.76v.153h-.193v-.195h-.428v.195l-.28-.001z" style="fill:#fff;fill-rule:evenodd;stroke:none" transform="translate(1162.423 494.483)"/><path d="M-1138.683-391.994c-.912 0-1.66.747-1.66 1.663 0 .912.748 1.659 1.66 1.659.917 0 1.662-.747 1.662-1.66 0-.915-.745-1.662-1.662-1.662m-4.061-6.656c.065 0 .129.03.17.08q.05.062.048.138v2.873a.3.3 0 0 1-.056.124.24.24 0 0 1-.153.08h-2.19a.22.22 0 0 1-.138-.071.23.23 0 0 1-.051-.119v-2.883a.2.2 0 0 1 .04-.144.2.2 0 0 1 .137-.078zm-2.602 7.726c0 .005.01.027.053.063a.14.14 0 0 0 .088.037h2.817a.1.1 0 0 0 .063-.024.1.1 0 0 0 .035-.07v-7.788c0-.007-.01-.033-.042-.061-.028-.025-.048-.029-.056-.029h-2.845a.12.12 0 0 0-.08.035.12.12 0 0 0-.034.089zm-7.656-.491h1.222v-.718h-1.222zm.538-1.051h.03v.03h-.201v-.313h.488v.311h-.199v-.167h.088a.046.046 0 0 0 .043-.047.043.043 0 0 0-.043-.044h-.267a.045.045 0 0 0-.044.046c0 .024.02.045.044.045h.089v.033h-.028v.018h-.061v.072h.061zm-.538.232v.068h1.222v-.052a.153.153 0 0 0-.153-.155h-.155v-.435h-.612v.431h-.15a.144.144 0 0 0-.153.143zm0 .908a.16.16 0 0 0 .154.162h.907a.16.16 0 0 0 .108-.039.16.16 0 0 0 .053-.114v-.063h-1.222zm64.102-5.034h-2.402c-.18.005-.307-.18-.266-.346l.368-1.527c.083-.293.227-.332.466-.34h1.833zm7.166 3.612-3.677-.005a.536.536 0 0 1-.538-.536v-5.941l-5.112-.001c-.39-.002-.589.217-.674.52l-.583 2.092a.39.39 0 0 1-.35.331h-1.158c-.554 0-.715.248-.715.547l.01 4.473h-.338v.88h.994c0-.124.015-.256.043-.382a2.064 2.064 0 0 1 2.45-1.584 2.06 2.06 0 0 1 1.629 1.968l6.357-.002-.01-.01a2.03 2.03 0 0 1 .7-1.55v-.001a2.07 2.07 0 0 1 1.354-.521h.055q.033-.001.066.004c.483.028.936.235 1.273.537.424.387.68.95.68 1.541h2.119v-.65l-1.726-1.716-2.053.007v-.395l17.962-.002v1.19l1.314.001a2.08 2.08 0 0 1 1.355-.523l.055.002c.509.012.971.204 1.324.52h1.262v-1.19l1.883.004v-9.279h-28.905v9.279h2.957v.393z" style="fill:#fff;fill-rule:evenodd;stroke:none" transform="translate(1162.423 494.483)"/><path d="M-1091.47-391.97a1.68 1.68 0 0 0-1.983 1.283 1.68 1.68 0 0 0 1.283 1.982 1.68 1.68 0 0 0 1.982-1.283 1.68 1.68 0 0 0-1.282-1.983m10.471-.062a1.68 1.68 0 0 0-1.982 1.282 1.68 1.68 0 0 0 1.283 1.982 1.68 1.68 0 0 0 1.982-1.283 1.68 1.68 0 0 0-1.283-1.98m20.717-.034a1.67 1.67 0 0 0-1.71 1.625 1.67 1.67 0 0 0 1.625 1.709 1.673 1.673 0 0 0 1.71-1.625 1.67 1.67 0 0 0-1.625-1.709" style="fill:#fff;fill-rule:evenodd;stroke:none" transform="translate(1162.423 494.483)"/><path d="M-1044.98-432.59h44.29v13.287h-44.29z" style="fill:#000;fill-rule:evenodd;stroke:none" transform="translate(1162.423 494.483)"/><path d="M-990.007-424.203c0 .28-.03.528-.124.777-.062.25-.187.467-.374.685-.155.217-.403.404-.683.56-.282.156-.654.248-1.059.31v1.09h-1.585v-1.09c-.748-.062-1.494-.341-2.273-.809l.654-1.275c.405.31.809.498 1.214.654.372.155.779.217 1.182.217.467 0 .808-.093 1.058-.249a.89.89 0 0 0 .372-.746c0-.249-.06-.435-.186-.592a2.6 2.6 0 0 0-.685-.404l-1.617-.685c-.312-.124-.56-.28-.778-.404a2.2 2.2 0 0 1-.56-.467c-.155-.186-.28-.373-.342-.591-.092-.217-.124-.436-.124-.715 0-.28.031-.53.124-.778q.093-.327.373-.654a1.76 1.76 0 0 1 .654-.467c.249-.124.559-.217.934-.249v-1.026h1.585v1.026c.344.032.654.094.965.187q.42.141.934.374l-.56 1.338a4 4 0 0 0-.995-.467 4 4 0 0 0-1.059-.156c-.404 0-.715.062-.964.187-.217.155-.342.343-.342.622 0 .094.03.187.06.281a.43.43 0 0 0 .188.217.95.95 0 0 0 .343.218c.156.062.311.155.528.249l1.368.56c.622.25 1.059.56 1.339.933.28.343.435.809.435 1.339" style="fill:#fff;fill-rule:evenodd;stroke:none" transform="translate(1162.423 494.483)"/><path d="M-1044.98-408.572h44.29v13.287h-44.29z" style="fill:#000;fill-rule:evenodd;stroke:none" transform="translate(1162.423 494.483)"/><path d="M-990.007-400.186c0 .281-.03.53-.124.779a1.66 1.66 0 0 1-.374.685c-.155.217-.403.404-.683.559-.282.156-.654.249-1.059.311v1.089h-1.585v-1.089c-.748-.062-1.494-.342-2.273-.808l.654-1.277c.405.311.809.498 1.214.654.372.155.779.218 1.182.218.467 0 .808-.093 1.058-.25a.89.89 0 0 0 .372-.746c0-.248-.06-.435-.186-.591a2.6 2.6 0 0 0-.685-.404l-1.617-.685c-.312-.125-.56-.28-.778-.404a2.2 2.2 0 0 1-.56-.468c-.155-.185-.28-.372-.342-.59a1.8 1.8 0 0 1-.124-.716c0-.28.031-.528.124-.777q.093-.328.373-.653.233-.28.654-.468c.249-.124.559-.217.934-.249v-1.027h1.585v1.027c.344.032.654.094.965.187q.42.14.934.373l-.56 1.338a4 4 0 0 0-.995-.466 4 4 0 0 0-1.059-.156c-.404 0-.715.062-.964.186-.217.157-.342.343-.342.623 0 .093.03.187.06.28a.43.43 0 0 0 .188.218.94.94 0 0 0 .343.217c.156.064.311.157.528.25l1.368.56c.622.249 1.059.56 1.339.932.28.343.435.81.435 1.338m-159.345-13.176h155.017v-1.126h-155.017z" style="fill:#fff;fill-rule:evenodd;stroke:none" transform="translate(1162.423 494.483)"/><path d="m-1027.87-421.577-1.826-3.173h-.025l-1.817 3.173h-1.995l2.818-4.61-2.5-4.255h2.022l1.551 2.987h.027l1.595-2.987h1.986l-2.578 4.38 2.728 4.485zm4.984 1.72h-1.136l.56-3.236h1.818zm8.766-1.72-1.826-3.173h-.026l-1.817 3.173h-1.995l2.819-4.61-2.5-4.255h2.022l1.55 2.987h.029l1.595-2.987h1.986l-2.58 4.38 2.73 4.485h-1.986zm9.07 0-1.826-3.173h-.026l-1.817 3.173h-1.995l2.819-4.61-2.5-4.255h2.022l1.55 2.987h.029l1.595-2.987h1.986l-2.58 4.38 2.73 4.485h-1.986zm-31.889 0-1.825-3.173h-.027l-1.818 3.173h-1.994l2.819-4.61-2.5-4.255h2.021l1.552 2.987h.027l1.595-2.987h1.986l-2.58 4.38 2.73 4.485zm9.069 24.019-1.826-3.173h-.025l-1.817 3.173h-1.995l2.818-4.61-2.5-4.256h2.022l1.551 2.989h.027l1.595-2.989h1.986l-2.578 4.38 2.728 4.486zm4.982 1.72h-1.135l.558-3.237h1.818zm8.768-1.72-1.826-3.173h-.026l-1.817 3.173h-1.995l2.819-4.61-2.5-4.256h2.022l1.55 2.989h.029l1.595-2.989h1.986l-2.58 4.38 2.73 4.486h-1.986zm9.068 0-1.826-3.173h-.026l-1.818 3.173h-1.995l2.819-4.61-2.499-4.256h2.022l1.55 2.989h.029l1.595-2.989h1.986l-2.58 4.38 2.73 4.486zm-31.887 0-1.825-3.173h-.027l-1.818 3.173h-1.994l2.818-4.61-2.5-4.256h2.022l1.551 2.989h.027l1.596-2.989h1.986l-2.58 4.38 2.73 4.486z" style="fill:#ffd520;fill-rule:evenodd;stroke:none;fill-opacity:1" transform="translate(1162.423 494.483)"/><path d="M-1125.935-444.807h-.033l-.894 2.768h1.822zm1.675 5.188-.501-1.397h-2.362l-.489 1.397h-1.296l2.268-6.375h1.395l2.306 6.375zm5.489 0h-1.353l-2.007-6.35h1.321l1.372 4.971h.02l1.365-4.971h1.301zm3.816 0v-6.35h3.968v1.047h-2.724v1.5h2.463v1.054h-2.463v1.727h2.812v1.022zm11.143-.859q-.495.485-1.044.726a3 3 0 0 1-1.21.241q-.762-.001-1.314-.244a2.4 2.4 0 0 1-.911-.683 2.85 2.85 0 0 1-.53-1.045 5 5 0 0 1-.171-1.337q0-.692.18-1.285.18-.594.55-1.032.367-.439.914-.686.546-.248 1.282-.248.66 0 1.188.238.526.239 1.035.74l-.75.839a2.9 2.9 0 0 0-.676-.575 1.5 1.5 0 0 0-.772-.193q-.819 0-1.235.558-.414.56-.415 1.644 0 .47.085.884.085.412.276.72.19.308.505.486.315.177.772.177.456 0 .829-.19a3 3 0 0 0 .752-.578zm9.33-4.43v5.289h-1.246v-5.29h-1.669v-1.06h4.59v1.06zm6.914.85q.001-.292-.085-.486a.75.75 0 0 0-.241-.309.94.94 0 0 0-.382-.158 2.7 2.7 0 0 0-.505-.044 11 11 0 0 0-.883.038v1.943h1.003q.256 0 .458-.044a.8.8 0 0 0 .343-.155.73.73 0 0 0 .216-.303q.076-.19.076-.482m.096 4.439-.832-2.21a.55.55 0 0 0-.12-.202q-.066-.059-.223-.058h-1.017v2.47h-1.237v-6.307q.514-.062 1.045-.085a26 26 0 0 1 1.057-.022q.482 0 .93.082.447.083.793.299t.557.585q.21.367.209.938 0 .617-.248 1.052-.247.436-.812.657v.012q.096.033.151.163.06.128.096.22l.965 2.405zm5.72-5.188h-.033l-.895 2.768h1.824zm1.676 5.188-.502-1.397h-2.362l-.488 1.397h-1.297l2.267-6.375h1.397l2.306 6.375zm7.208 0-2.814-4.21h-.02v4.21h-1.212v-6.35h1.187l2.795 4.204h.018v-4.204h1.226v6.35zm7.81-1.847q0 .52-.177.888-.18.369-.482.6a2 2 0 0 1-.718.339 3.4 3.4 0 0 1-.876.109q-.344 0-.652-.042a3.9 3.9 0 0 1-1.149-.337 6 6 0 0 1-.543-.301l.508-.958q.399.286.838.478.438.194.933.194.197 0 .394-.041a1 1 0 0 0 .35-.143.8.8 0 0 0 .247-.264.8.8 0 0 0 .095-.409.66.66 0 0 0-.111-.38 1.1 1.1 0 0 0-.298-.28q-.188-.12-.436-.213-.246-.09-.514-.18a9 9 0 0 1-.644-.258 2.6 2.6 0 0 1-.581-.355 1.65 1.65 0 0 1-.421-.527q-.163-.315-.163-.772 0-.477.185-.806.184-.33.484-.54.303-.21.689-.302a3.8 3.8 0 0 1 1.843.048q.488.14.964.4l-.406.991a3.7 3.7 0 0 0-.71-.388 2.2 2.2 0 0 0-.801-.145 2 2 0 0 0-.385.034q-.18.037-.32.117a.64.64 0 0 0-.222.22.63.63 0 0 0-.083.333q0 .204.111.342a1 1 0 0 0 .3.245q.186.105.428.19.241.087.508.175.323.108.647.248.323.139.584.357.26.215.423.534.16.322.16.799zm5.454-2.51q0-.304-.063-.508a.7.7 0 0 0-.209-.327.9.9 0 0 0-.38-.177 2.5 2.5 0 0 0-.56-.055q-.21 0-.435.01l-.474.022v2.11h.953q.273-.001.489-.032a.85.85 0 0 0 .368-.14.66.66 0 0 0 .232-.324 1.7 1.7 0 0 0 .08-.579zm1.251-.03q0 .488-.123.878a1.7 1.7 0 0 1-.388.664c-.176.184-.402.32-.676.417a3 3 0 0 1-.992.142h-1.193v2.286h-1.238v-6.307a22 22 0 0 1 2.108-.107q.52 0 .979.095.456.096.796.33.34.236.533.622.195.389.194.98m6.387 1.205q0-.501-.077-.917a2 2 0 0 0-.262-.715 1.27 1.27 0 0 0-.508-.462q-.322-.166-.81-.166t-.806.166q-.318.164-.506.462a2 2 0 0 0-.262.715q-.075.416-.076.917 0 .508.076.925.075.415.262.714.189.297.51.464.32.164.809.164.48 0 .803-.164a1.3 1.3 0 0 0 .508-.468q.187-.3.262-.718.077-.415.077-.917m1.295 0q0 .788-.199 1.4a2.85 2.85 0 0 1-.577 1.032q-.379.42-.924.639a3.3 3.3 0 0 1-1.245.22q-.7 0-1.248-.22a2.5 2.5 0 0 1-.93-.639 2.8 2.8 0 0 1-.581-1.031 4.5 4.5 0 0 1-.2-1.4q0-.775.197-1.385.196-.61.577-1.028t.931-.64a3.4 3.4 0 0 1 1.254-.218q.705 0 1.253.219.55.22.924.64.375.417.572 1.027t.196 1.384m6.332 3.182-2.812-4.21h-.02v4.21h-1.213v-6.35h1.187l2.795 4.204h.018v-4.204h1.226v6.35zm7.545-3.233q-.001-.266-.026-.533a3 3 0 0 0-.095-.514 2 2 0 0 0-.193-.457 1.5 1.5 0 0 0-.315-.37 1.4 1.4 0 0 0-.457-.246 2 2 0 0 0-.629-.09q-.21 0-.435.007a5 5 0 0 0-.428.031v4.408q.203.006.343.006h.311q.465 0 .822-.108.36-.108.603-.365.245-.257.372-.689t.127-1.08m1.296.026q0 .775-.198 1.372a2.6 2.6 0 0 1-.584 1.002 2.5 2.5 0 0 1-.962.62q-.573.212-1.33.213h-2.044v-6.312l.476-.041q.262-.024.532-.035.275-.014.541-.022.265-.01.502-.01.71 0 1.282.197.572.196.965.597.395.399.607 1.002t.213 1.416zm2.285 3.207v-6.35h3.968v1.047h-2.725v1.5h2.464v1.054h-2.464v1.727h2.813v1.022zm11.15-2.579q0 .641-.132 1.14-.129.497-.418.842-.29.343-.762.523-.472.182-1.158.182-.687 0-1.157-.182a1.84 1.84 0 0 1-.76-.523 2.1 2.1 0 0 1-.42-.841 4.7 4.7 0 0 1-.127-1.14v-3.773h1.245v3.652q-.001.368.034.69.037.319.164.558a.9.9 0 0 0 .37.374q.243.137.656.137t.656-.14a.97.97 0 0 0 .368-.378q.126-.238.165-.558a6 6 0 0 0 .038-.683v-3.652h1.238zm5.875-1.86q0-.292-.085-.486a.76.76 0 0 0-.243-.309.94.94 0 0 0-.38-.158 2.7 2.7 0 0 0-.506-.044 11 11 0 0 0-.883.038v1.943h1.004q.254 0 .456-.044a.8.8 0 0 0 .344-.155.73.73 0 0 0 .216-.303q.076-.19.076-.482zm.095 4.439-.833-2.21a.5.5 0 0 0-.12-.203q-.064-.058-.222-.057h-1.017v2.47h-1.238v-6.307q.515-.062 1.045-.085.53-.022 1.057-.022.485 0 .93.082.449.083.795.299t.555.584q.21.368.21.94 0 .615-.249 1.051-.245.436-.812.657v.012q.096.033.152.163.059.128.096.22l.964 2.405zm-118.592-28.449a6 6 0 0 0 2.618.638c.94 0 1.56-.262 1.926-.566.513-.419.838-1.074.838-1.86 0-1.33-1.04-2.394-2.483-2.394a3.3 3.3 0 0 0-1.293.253l.088-.93h3.243l-.01-1.36h-4.43l-.294 3.227 1.476.5a2.85 2.85 0 0 1 1.162-.289c.727 0 1.172.495 1.172 1.028 0 .546-.437 1.112-1.503 1.112-.449 0-1.027-.115-1.818-.525zm-7.64.531h5.368v-1.323l-3.76.002c.29-.579.835-1.075 1.58-1.338l.654-.23c.525-.184.898-.474 1.15-.825.263-.366.363-.695.363-1.068a1.8 1.8 0 0 0-.16-.747c-.228-.508-.768-1.003-1.58-1.213a3.3 3.3 0 0 0-.806-.094c-.91 0-1.94.351-2.823 1.089l.852 1.012c.573-.507 1.217-.738 1.855-.738.744 0 1.278.281 1.278.706 0 .244-.118.48-.665.633l-.343.094a5.5 5.5 0 0 0-.82.344 3.9 3.9 0 0 0-1.059.81 3.75 3.75 0 0 0-.898 1.565 4 4 0 0 0-.182 1.32zm97.305 80.007q0 .489-.124.882-.124.39-.389.665-.263.271-.677.415t-.991.143h-1.197v2.291h-1.241v-6.318q.42-.044.98-.075.56-.034 1.133-.033.52 0 .98.096.456.096.797.33.343.236.534.624.195.387.195.98m4.03-.802h-.032l-.899 2.774h1.826zm1.678 5.198-.503-1.4h-2.366l-.49 1.4h-1.298l2.272-6.388h1.399l2.31 6.388zm6.464-4.448q-.001-.291-.085-.486a.8.8 0 0 0-.244-.309.9.9 0 0 0-.38-.158 2.7 2.7 0 0 0-.507-.046q-.235.001-.448.011-.212.009-.436.027v1.947h1.006q.253 0 .458-.044a.9.9 0 0 0 .344-.155.74.74 0 0 0 .214-.303q.077-.19.078-.484m.096 4.448-.835-2.213a.6.6 0 0 0-.12-.205q-.065-.057-.223-.057h-1.018v2.475h-1.24v-6.318q.514-.063 1.046-.086.528-.022 1.06-.022.482 0 .931.082.448.085.796.3.345.217.556.586.21.369.21.942 0 .617-.247 1.052-.248.435-.816.659v.012q.097.032.154.163l.095.218.966 2.412zm8.634 0v-6.362h3.976v1.05h-2.73v1.501h2.469v1.057h-2.47v1.73h2.82v1.024zm10.323-1.85q0 .52-.177.89-.18.369-.483.601a2.1 2.1 0 0 1-.72.34 3.5 3.5 0 0 1-.878.108q-.345 0-.653-.04a4 4 0 0 1-.595-.126 3.5 3.5 0 0 1-.557-.213 5 5 0 0 1-.543-.3l.509-.964q.4.289.84.481.439.195.935.194.197 0 .395-.04.195-.042.35-.144a.8.8 0 0 0 .249-.263.8.8 0 0 0 .095-.411.66.66 0 0 0-.112-.382 1.1 1.1 0 0 0-.298-.28 2.3 2.3 0 0 0-.437-.213 15 15 0 0 0-.515-.18 9 9 0 0 1-.646-.258 2.6 2.6 0 0 1-.582-.357 1.65 1.65 0 0 1-.422-.528q-.162-.315-.162-.773-.001-.477.184-.808.185-.33.487-.541.301-.21.689-.302.39-.093.794-.092.561 0 1.05.14.49.14.968.4l-.407.993a3.6 3.6 0 0 0-.713-.388 2.1 2.1 0 0 0-.8-.147 2 2 0 0 0-.386.035 1 1 0 0 0-.32.117.66.66 0 0 0-.225.22.64.64 0 0 0-.081.334q0 .205.111.344a1 1 0 0 0 .299.245q.188.105.43.19.241.089.509.177.324.107.648.247t.585.356.423.538.162.8m6.197 0q0 .52-.178.89a1.6 1.6 0 0 1-.484.601 2 2 0 0 1-.718.34 3.5 3.5 0 0 1-.878.108q-.344 0-.652-.04a4 4 0 0 1-.597-.126 3.5 3.5 0 0 1-.556-.213 5 5 0 0 1-.544-.3l.509-.964q.402.289.84.481.44.195.935.194.197 0 .395-.04a1 1 0 0 0 .35-.144.8.8 0 0 0 .249-.263.8.8 0 0 0 .095-.411.66.66 0 0 0-.111-.382 1.1 1.1 0 0 0-.3-.28q-.187-.12-.435-.213a15 15 0 0 0-.515-.18 9 9 0 0 1-.647-.258 2.6 2.6 0 0 1-.581-.357 1.6 1.6 0 0 1-.422-.528 1.7 1.7 0 0 1-.163-.773q0-.477.184-.808.186-.33.487-.541.302-.21.689-.302a3.8 3.8 0 0 1 1.845.048q.49.14.968.4l-.408.993a3.6 3.6 0 0 0-.713-.388 2.1 2.1 0 0 0-.8-.147q-.205.001-.386.035-.18.035-.32.117a.66.66 0 0 0-.225.22.64.64 0 0 0-.08.334q0 .205.11.344a1 1 0 0 0 .299.245q.189.105.43.19.241.089.509.177a8 8 0 0 1 .648.247q.326.14.585.356.261.216.423.538.163.321.162.8m2.1 1.85v-6.362h1.246v6.362zm3.792 0v-6.362h3.976v1.05h-2.73v1.501h2.469v1.057h-2.469v1.73h2.819v1.024zm11.17-2.583q0 .642-.13 1.143a2.1 2.1 0 0 1-.421.842q-.29.344-.764.525-.473.182-1.16.18-.689.002-1.158-.18a1.85 1.85 0 0 1-.763-.525 2.1 2.1 0 0 1-.422-.842 4.8 4.8 0 0 1-.127-1.143v-3.78h1.247v3.66q0 .368.034.689.037.321.163.56a.9.9 0 0 0 .374.375q.243.138.658.138t.654-.14a.94.94 0 0 0 .37-.379q.129-.24.166-.56a6 6 0 0 0 .037-.684v-3.658h1.242zm-55.738-1.78a1.7 1.7 0 0 0-.062-.51.7.7 0 0 0-.21-.327.9.9 0 0 0-.378-.177 2.5 2.5 0 0 0-.564-.055q-.21 0-.436.01-.226.008-.474.022v2.112h.954q.274 0 .49-.033a.84.84 0 0 0 .37-.138.7.7 0 0 0 .231-.325q.08-.217.079-.58z" style="fill:#fff;fill-rule:evenodd;stroke:none" transform="translate(1162.423 494.483)"/></svg>