<svg xmlns="http://www.w3.org/2000/svg" width="604" height="604" viewBox="0 0 604 604"><g transform="translate(0 -392)"><rect width="602" height="602" x="1" y="393" rx="51" ry="51" style="fill:#000;fill-rule:evenodd;stroke:none;stroke-width:.7029;stroke-linecap:round;stroke-linejoin:bevel"/><rect width="600" height="600" x="2" y="394" rx="50" ry="50" style="fill:#fff;fill-rule:evenodd;stroke:none;stroke-width:.700564;stroke-linecap:round;stroke-linejoin:bevel"/><rect width="580" height="580" x="12" y="404" rx="40" ry="40" style="fill:#000;fill-rule:evenodd;stroke:none;stroke-width:.677212;stroke-linecap:round;stroke-linejoin:bevel"/><rect width="550" height="550" x="27" y="419" rx="25" ry="25" style="fill:#fff;fill-rule:evenodd;stroke:none;stroke-width:.642184;stroke-linecap:round;stroke-linejoin:bevel"/><circle cx="302" cy="694" r="260" style="fill:#ee2a2a;fill-opacity:1;fill-rule:evenodd;stroke:none;stroke-width:.656517;stroke-linecap:round;stroke-linejoin:bevel"/><circle cx="302" cy="694" r="206" style="fill:#fff;fill-rule:evenodd;stroke:none;stroke-width:.520164;stroke-linecap:round;stroke-linejoin:bevel"/><path d="M462 759.5V599H241.9v29.8l-46.23.345c-3.033.023-5.93 1.22-8.238 3.185a13.33 13.33 0 0 0-4.233 6.828l-8.392 36.159a7.7 7.7 0 0 1-2.728 4.404 7.67 7.67 0 0 1-5.244 1.641l-23.42.172a4.64 4.64 0 0 0-3.375 1.335c-.897.895-1.315 2.135-1.315 3.395V745.8H132v14.725h13l72-.625 147-.05 72-.35zm-230.5-78.138h-42.027a4.96 4.96 0 0 1-3.909-1.907c-.936-1.201-1.279-2.727-.936-4.176l7.782-33.566c.23-.8.725-1.507 1.372-2.04.669-.535 1.486-.894 2.347-.897l35.371-.133" style="fill:#000;fill-opacity:1;fill-rule:evenodd;stroke:none;stroke-width:.232832"/><path d="M145.035 765.938a36.5 36.5 0 0 1 15.888-36.833 36.5 36.5 0 0 1 40.114 0 36.5 36.5 0 0 1 15.888 36.833L180.98 759.6Zm218.9 0a36.5 36.5 0 0 1 15.888-36.833 36.5 36.5 0 0 1 40.114 0 36.5 36.5 0 0 1 15.888 36.833L399.88 759.6Z" style="fill:#fff;fill-rule:evenodd;stroke:none;stroke-width:1.25162;stroke-linecap:round;stroke-linejoin:bevel"/><circle cx="180.98" cy="759.6" r="29.4" style="fill:#000;fill-rule:evenodd;stroke:none;stroke-width:1.00815;stroke-linecap:round;stroke-linejoin:bevel"/><circle cx="399.88" cy="759.6" r="29.4" style="fill:#000;fill-rule:evenodd;stroke:none;stroke-width:1.00815;stroke-linecap:round;stroke-linejoin:bevel"/><path d="M-294.186 464.278h34v480h-34z" style="fill:#ee2a2a;fill-opacity:1;fill-rule:evenodd;stroke:none;stroke-width:1.06512;stroke-linecap:round;stroke-linejoin:bevel" transform="rotate(-45)"/></g></svg>