<svg xmlns="http://www.w3.org/2000/svg" width="604" height="604" viewBox="0 0 604 604"><path d="M426.678 393 603 569.322v249.356L426.678 995H177.322L1 818.678V569.322L177.322 393Z" style="fill:#000;fill-opacity:1;fill-rule:evenodd;stroke:none;stroke-width:.602" transform="translate(0 -392)"/><path d="M2 818.264V569.736L177.736 394h248.528L602 569.736v248.528L426.264 994H177.736z" style="fill:#fff;fill-opacity:1;fill-rule:evenodd;stroke:none;stroke-width:.6" transform="translate(0 -392)"/><path d="M183.95 979 17 812.05v-236.1L183.95 409h236.1L587 575.95v236.1L420.05 979Z" style="fill:#ee2a2a;fill-opacity:1;fill-rule:evenodd;stroke:none;stroke-width:.57" transform="translate(0 -392)"/><path d="M43.5 769h21.68l10.353-42.139h29.843L115.956 769h21.604l-36.83-150H79.645Zm37.05-63.371 9.676-40.122 9.83 40.122z" style="fill:#fff;fill-opacity:1;fill-rule:evenodd;stroke:none;stroke-width:.423339" transform="translate(0 -392)"/><path d="M178.391 677.664v-37.502h25.5c7.848 0 14.173 4.977 14.173 18.922 0 11.456-4.89 16.802-12.75 18.58zM157.245 769h21.525v-70.267h18.67L217.62 769h22.045l-21.296-74.013c13.08-6.325 20.267-16.408 20.267-36.83 0-29.322-20.598-37.845-29.716-38.697h-51.675Zm138.061-91.336v-37.502h25.5c7.848 0 14.173 4.977 14.173 18.922 0 11.456-4.89 16.802-12.75 18.58zM274.16 769h21.525v-70.267h18.67L334.536 769h22.045l-21.296-74.013c13.08-6.325 20.267-16.408 20.267-36.83 0-29.322-20.598-37.845-29.716-38.697H274.16z" style="fill:#fff;fill-opacity:1;fill-rule:evenodd;stroke:none;stroke-width:.423322" transform="translate(0 -392)"/><path d="M391.065 769h74.78v-21.145h-53.633v-49.046h31.65v-20.93h-31.574v-37.492h51.45v-21.235h-72.673z" style="fill:#fff;fill-opacity:1;fill-rule:evenodd;stroke:none;stroke-width:.423336" transform="translate(0 -392)"/><path d="m413.575 586.8-13.865 20.4h21l6.65-10 6.65 10h21l-13.865-20.4z" style="fill:#fff;fill-opacity:1;fill-rule:evenodd;stroke:none;stroke-width:.423335" transform="translate(0 -392)"/><path d="M533.65 769h-21.23V637.99h-26.85V619h74.93v18.99h-26.85z" style="fill:#fff;fill-opacity:1;fill-rule:evenodd;stroke:none;stroke-width:.423334" transform="translate(0 -392)"/></svg>