<svg xmlns="http://www.w3.org/2000/svg" width="180.439" height="180.439" viewBox="82.992 45.607 528.553 581.984"><path d="M58.534 582.968c0 23.392 18.978 42.366 42.369 42.366h492.702c23.388 0 42.398-18.974 42.398-42.366V90.265c0-23.391-19.01-42.4-42.398-42.4H100.903c-23.391 0-42.369 19.009-42.369 42.4z" style="fill:#fff;fill-opacity:1;fill-rule:evenodd;stroke:#000;stroke-opacity:1;stroke-width:2.58030751;stroke-miterlimit:4;stroke-dasharray:none"/><path d="M68.684 582.97c0 17.796 14.422 32.217 32.219 32.217h492.709c17.776 0 32.217-14.421 32.217-32.217V90.26c0-17.773-14.441-32.215-32.217-32.215h-492.71c-17.796 0-32.218 14.442-32.218 32.215z" style="fill:#003f87;fill-opacity:1;fill-rule:evenodd;stroke:none"/><path d="M170.631 444.404c-3.46 6.344-9.926 10.033-16.205 10.033-10.363 0-20.8-8.443-20.8-26.79 0-9.477 2.03-15.481 4.189-19.08 3.964-6.619 10.13-9.938 16.465-9.938 4.59 0 8.54 1.693 12.02 4.591 2.123 1.772 3.477 3.563 5.201 6.363l12.182-5.894c-3.673-6.769-13.536-18.498-29.757-18.498-8.348 0-17.112 3.626-23.136 9.718-2.968 2.996-5.157 6.654-6.93 10.485-2.255 4.882-4.299 13.39-4.299 22.024 0 13.1 4.607 23.749 10.312 29.982 6.359 6.963 14.706 10.668 24.486 10.668 7.878 0 14.807-2.564 20.847-7.572a33.8 33.8 0 0 0 7.993-9.62zm35.99 22.535h13.954v-35.347h36.136v35.347h14.001V386.4h-14.036v31.16H220.59l-.016-31.176-13.985.016zm88.258 0h59.125v-13.534H308.93V430.48h24.116v-13.65H309.01l-.08-16.83h44.078v-13.551h-58.004zm79.488-.048h14.1v-47.847l22.473 47.137 23.392-49.027v49.72l14.245.017V386.4h-14.698l-22.939 47.912-22.926-47.928-13.71.016zm98.376.048h13.934v-80.555h-13.934zm38.116 0h13.903v-56.274l38.04 56.274h12.175v-80.602h-13.623v54.133l-36.54-54.117-13.955-.016zm-384.29 98.913.08-.006v-52.889h11.39c8.362 0 14.465 2.948 19.17 8.471 2.615 3.048 6.158 9.313 6.158 17.542 0 6.765-1.275 11.116-2.291 13.2-3.493 7.18-10.001 11.809-16.805 12.845-3.492.528-4.602.839-10.516.839h-7.185zm-14.035 13.816h18.855c4.957 0 9.985 0 14.82-1.177 11.276-2.754 19.316-8.773 24.198-16.272 3.512-5.399 6.248-14.034 6.248-22.892 0-13.648-5.28-24.247-13.465-31.141-3.82-3.226-8.264-5.576-13-7.12-4.773-1.573-9.769-2-14.742-2h-22.753zm81.665-80.44v50.138c0 18.106 13.135 31.431 32.014 31.431 10.28 0 17.887-3.463 23.376-9.168 5.157-5.322 8.732-13.276 8.732-23.795v-48.687l-14.11.08v48.187c0 8.552-2.773 13.45-7.139 16.805-3.126 2.415-6.945 3.737-10.811 3.737-4.623 0-9.052-1.774-12.226-4.818-2.48-2.35-4.402-5.576-5.382-11.135-.386-2.093-.386-4.206-.401-6.33l-.08-46.446zm166.317 34.487-.035-20.538h22.103c6.851 0 10.04 2.415 11.73 5.737.807 1.56 1.161 3.072 1.161 4.496 0 2.64-1.244 5.479-3.303 7.345-1.693 1.532-4.914 2.948-8.99 2.948zm-14.115 46.05h14.115V547.75h21.631l13.052 31.968h15.304l-14.32-35.012c8.056-4.556 12.84-12.998 12.84-21.525 0-8.261-4.268-15.885-10.812-20.07-3.464-2.242-8.76-4.012-16.08-4.012h-35.714zm117.88-13.216c-9.68 0-19.445-7.132-19.445-27.34 0-19.992 10.552-26.98 19.19-26.98 7.588 0 19.317 5.492 19.317 27.098 0 19.731-10.168 27.222-19.062 27.222m-.577 14.228c4.076 0 8.104-.77 11.89-2.286 7.41-2.967 13.276-8.233 17.546-17.175 2.233-4.717 4.286-12.805 4.286-21.699 0-9.603-2.145-17.9-4.157-22.174-4.19-8.858-9.894-13.966-17.61-16.962-3.69-1.431-7.62-2.221-11.6-2.221-8.651 0-17.191 3.705-23.137 10.039-2.87 3.056-4.897 6.765-6.543 10.599-1.93 4.56-3.658 12.148-3.658 20.203 0 8.717 1.807 16.466 3.544 20.558 3.772 8.878 9.752 14.853 16.756 18.139 4.221 1.995 8.942 2.979 12.683 2.979m70.903-1.093h14.321v-32.898l33.08-47.736h-16.804l-23.444 33.87-23.554-33.806H501.45l33.158 47.732zM337.192 340.89l15.895.355 12.587-.205 12.54-.15 8.15-.358 8.666-.559 31.337-2.449 6.17-.712 3.925-.56 3.516-.712 3.212-.87 1.933-.709 2.143-.713 3.87-1.94 1.787-1.068.713-.511.866-1.071.354-.504.154-.563v-.512l-.154-.914-.354-1.02-.713-.92-.866-.867-2.142-1.575-2.496-1.429-1.937-.917.205-7.032 1.22-.922 1.58-1.578 1.07-1.22.866-1.63.713-1.733.358-.921.2-1.375v-1.429l-.2-1.626-2.086-4.74v-.717l-.205-.56.205-1.019.354-.917.661-.867.56-.354.712-.204h1.075l4.382.204 1.63-.204.867-.154.512-.508.911-.921.508-1.22.363-.713v-2.142l-.157-.508-.714-1.071-.91-1.067-1.584-1.229-2.446-1.22-1.275-1.067-.508-.717-.358-.866v-1.07l.358-3.572.15-3.866v-1.225l.358-2.142.563-1.783 1.579-3.008 1.425-2.292.87-1.425 2.137-2.803 2.093-2.296 2.649-2.697 2.136-1.736 2.141-1.425 2.806-1.43 3.21-1.578 1.068-.866.714-.713.153-.713.359-1.429-.21-.713-.149-.712-1.576-1.58-.56-.87-.36-1.27v-.714l.206-1.582.153-1.426.56-1.224 1.936-4.587.867-2.496.354-2.087.206-1.276-.36-3.516.154-2.291.206-1.784 1.068-3.52.15-1.42v-1.635l-.355-1.732-.71-2.296-1.077-2.496-.713-1.067-1.218-1.787-1.427-1.375-3.362-3.208-1.38-1.43-1.27-1.937-1.225-2.291-.512-1.425-.359-1.229v-.712l.153-1.221.565-1.579v-.716l-.206-.56-.512-.508-.911-.562-.359-.15-1.222-.209-1.935.21h-1.939l-1.782-.513-2.296-.563-2.497-1.067-3.515-1.937-3.21-1.937-4.586-3.209-3.209-1.937-3.52-1.787-2.496-.863-1.02-.153h-1.067l-2.295.153-2.855.205-1.22.154-2.855.866-1.583.354-1.425-.154-1.43-.2-.66-.362-1.627-.863-2.295-1.937-.866-.563h-.563l-.504-.15-1.229.15-.913.563-.866.512-2.5 2.85-.863.713-1.075.512-.712.559-.508 1.024-.56.2h-1.019l-2.705-.866-2.087-.917-1.94-1.071-4.989-3.362-1.941-.867-2.087-.866-2.142-.358-3.362-.56-1.425-.153h-2.296l-2.142.154-1.728.354-1.634.563-1.374.512-1.989 1.067-1.22 1.225-.712 1.07-.717 1.58-.713.712-.712.2-.662.154-1.07-.354-1.277-.713-.508-.512v-.2l.713-.154 1.071-.712.359-.717.15-.508v-.713l-.355-.712-.512-.713-1.225-.716-1.067-.512-.563-.201h-.358l-.866.2-.713.36-.708.712-.87 1.224-.359.713-.713.512-1.066.2h-.713l-1.43-.2-1.22-.359-.512-.354-.716-.512-.355-.712-.204-.717.204-.866.154-.713.559-.862 1.224-1.788.713-.712v-5.505h-6.016l-.2-1.579.2-1.429.154-.862.358-1.071 2.65-3.874.712-.563.359-.154.716-.354h.56l1.22.154 1.07.354.713.717.512.866.354 1.07v1.43l-.153 1.575-.56 1.988-.507 1.225 3.008-.56 2.441-.512 1.634-.507 1.374-.717 1.276-.917 1.22-1.016.867-1.634.921-1.933.508-2.142.204-1.02.154-1.275-.154-1.068-.204-1.732-.717-1.783-.866-1.788-.713-1.067-1.067-.866-1.224-.713-1.225-.508-2.141-.716-1.426-.358-2.803-.355-2.854-.153-4.076.153-.354.154 1.067-1.733.866-2.5.717-1.783.358-2.087v-2.142l-.154-1.583-.562-1.425-.867-1.579-.866-1.276-1.425-1.374-3.008-2.496-1.276-1.429-1.374-1.732-1.071-1.78-1.224-2.654-1.067-3.004-.56-1.941-.153.154-.563 1.94-.666 2.138-1.066 2.5-1.634 2.8-1.22 1.784-1.938 1.937-3.363 2.85-.866 1.02-.917 1.276-.713 1.732-.358 1.071-.15 1.07v1.068l.15 1.075.358 2.087.56 1.988 1.224 2.803.712 1.225-3.212-.154h-2.441l-2.855.154-1.583.354-2.138.354-1.937.922-1.224.712-1.071.662-1.07 1.07-.714 1.072-.708 1.578-.512 1.784-.154 1.224v2.343l.154 1.225.358 1.067.713 1.937.354 1.07 1.067 1.43 1.024 1.22 1.272.867 1.429.563 2.445.866 3.008.508 1.579.205-.512-1.784-.504-2.142v-1.58l.15-1.425.354-.866.362-.512.713-.358 1.575-.56 1.074-.153.866.354.56.512 1.22 1.43 1.784 2.854.512 1.374.2 1.43v1.932h-6.012v5.658l1.378 1.63.918 1.579.354.866v.713l-.2 1.075-.36.354-.712.713-1.023.358-1.78.508h-1.067l-.866-.354-.921-.512-.713-1.276-.87-.866-.504-.713-.921-.354h-.863l-1.075.56-1.22.712-.918.661-.354.717-.154.559v.512l.355.712.512.713 1.067.512.358.2-.15.154-.92.713-.867.559-.713.153h-.717l-.712-.354-.713-.713-1.07-1.937-.505-.712-1.228-1.071-1.933-1.22-2.142-.87-1.784-.36-1.937-.2-2.138-.154-2.445.154-3.57.56-1.934.507-2.295.717-1.78 1.07-3.37 2.142-1.729 1.22-1.783 1.068-2.142.87-2.65.713-.866.153h-.354l-.359-.153-.716-1.225-.867-.712-.712-.359-.914-.559-2.65-3.004-.712-.512-1.075-.354-1.22-.209-1.075.209-.713.354-2.44 1.937-.922.713-.662.358-1.425.354-1.43.154h-1.22l-.917-.154-3.008-.862-1.937-.358-2.65-.205-1.933-.153h-1.075l-1.933.512-1.941.866-3.564 1.984-3.366 1.937-3.716 2.65-4.383 2.654-2.5 1.22-1.22.56-2.855 1.07-1.43.303-1.732.21h-3.563l-.716.149h-.512l-1.067.917-.359.512-.15.354v.359l.15.716.359 1.22.154.56v1.732l-.359 1.276-.662 1.583-.917 1.78-1.425 1.732-1.224 1.63-4.233 3.72-1.22 1.583-1.272 2.087-1.229 2.496-.712 2.142-.355 1.732v.922l.205 1.575.508 1.936.508 2.292.358 2.5v3.008l-.153 1.575v1.634l.508 2.296.716 2.44 2.292 5.15.362 1.221.2 1.43v1.224l-.2 1.067v.559l-.516.87-1.579 1.78-.354.712v.717l.154 1.224.558 1.067.867.87 1.429.867 4.228 2.137 2.143 1.072.862.712 1.07.866 3.875 3.72 2.65 3.005 1.63 1.941 1.732 2.855 1.63 3.362.866 1.933.154 1.075.204 2.087.154 3.72.354 3.717v1.075l-.153 1.067-.355.717-.559.866-.866.56-2.496 1.373-1.736 1.276-.918.866-.507 1.071-.205.712-.154.508v.717l.154 1.22.559 1.071.512.918.559.512.716.354.713.154.866.204h1.579l2.65-.204h1.783l.713.204.508.355.567.358.504.508.205.716.153.713v.508l-.153 1.276-.71 1.937-1.074 2.138-.354 1.579-.205 1.578v1.075l.205.863.712 1.787.862 1.78 1.075 1.429 1.579 1.732 1.583 1.43.2 7.082-2.854 1.221-1.583.921-1.066.863-1.374 1.224-.922.913-.508.87-.358 1.072v.508l.153.558.358 1.02.564.563 1.22 1.068 1.22.712 2.501 1.228 1.937.866 1.933.914 3.008.866 3.363.717 3.567.712 5.658.713 6.882.713 27.77 2.09 11.366.713 10.6.355 11.874.204h9.882l13.97-.204zM261.92 172.033h-3.93l-4.075.355-3.87.307-4.079.712-4.433 1.075-3.008.914-4.229 1.583-2.65 1.22-2.495 1.579-2.296 1.784-2.138 1.937-1.732 1.937-2.296 3.362-1.78 3.213-1.582 3.362-1.426 4.229-.716 3.567-.713 3.363-.153 2.295v1.937l.153 2.291.56 2.296.307 1.63 2.342 5.095 1.02 3.362 1.783 6.217.918 2.449 1.736 4.075 1.426 2.654 1.578-1.941 1.784-1.78 1.429-1.024 1.579-.913.862-.358 1.276-.154h1.224l.717.154.712.358 1.068.713.358.358.866 1.22.862 2.138 1.634 5.15v1.07l.154 2.092-.359 1.933-.354 2.142-.866 3.004-.563 1.225-3.874-3.158-2.496-2.296-.713-.712-.355-.205h-.153l-.358.205-.713.511-.712.713-.87 1.784-.509 1.933-.358 1.225v1.275l.154 1.22.712 1.43 1.075 1.425.713.662 9.374 1.425 1.225 18.757 2.142.2 3.362.717 2.087.512 1.429.2 3.008.154 1.933.154-.354-18.399 11.517 1.276h-.154l.154-1.783-.154-3.367-.563-1.784-.508-1.578-.918-1.426-.866-1.07-1.07-.867-.867-.358-.354-.15-.866.15-1.634.866-1.425.921-1.225 1.221-1.067 1.579-1.378 2.142-.563.508h-.354l-.512-.154-.56-.508-1.015-1.425-.921-1.784-1.221-2.854-.866-3.162-.56-2.854-.153-2.087-.559-2.65-.153-1.634v-1.728l.354-.918.358-1.224.866-1.425 1.22-1.229 1.635-1.22 1.22-.56 1.071-.354 1.071-.153 1.02.153 1.067.355 1.075.712 2.496 2.142.354.154h.154l.205-.154.307-.559.354-1.583.205-1.425.354-3.162-.2-3.362-.154-3.571-.56-3.512-1.582-7.237-1.58-7.441-1.066-5.658-.362-3.72-.354-3.568v-1.728l.204-3.567.15-1.784.362-1.579.355-1.583 1.066-2.854 1.43-3.162 1.224-2.287 1.067-1.43zm61.153-2.948h-8.512l-8.103.354-8.154.358-5.5.508-4.945.713-6.525 1.275-1.984.512-2.295 7.083-1.43 5.812-1.02 4.075-.712 3.716-.354 2.654v8.15l.508 4.945 2.295 17.529.56 5.15.153 5.095 1.63-1.22 1.015-.867 1.634-.717 1.737-.559 1.425-.153h.862l1.634.354.867.512 1.425 1.067 1.07 1.224.713.918.512 1.07.862 2.091.564 2.497.358 2.295.153 3.362.201 1.933-.2 1.942-.512 2.137-.918 3.004-1.732 4.233-.56 1.272-1.936-2.65-1.225-1.425-1.425-1.583-1.426-1.067-.866-.56-1.075-.357-.712-.154-.866.358-1.071.508-.713.713-.508 1.07-.559 1.784-.713 4.946v.712l.201.512.512 1.067 1.067 1.07 1.22.714 1.076.511 9.224.713 1.426 20.025 7.232.512 8.666.716 7.595.355-1.378-20.183h10.245l.713-1.783.354-1.784.362-2.291-.208-1.378-.355-1.425-.866-2.143-1.075-1.78-.713-.87-1.22-1.07-.866-.508h-.918l-.512.154-.712.354-1.067 1.276-1.225 1.378-2.138 3.004-1.583 2.653-3.004-3.366-2.141-2.803-1.43-2.142-1.22-2.087-.866-2.141-1.63-5.147-.666-2.807-.2-1.626-.359-2.296.205-1.425.153-1.583.355-1.425.512-1.374.917-1.43 1.071-1.22 1.374-1.074 1.63-1.068 1.579-.712 1.582-.508 1.58-.205h1.63l1.578.205 1.229.354 2.134.866 2.142 1.221 1.937 1.43 1.224 1.07-.866-9.225-.563-8.303-.153-4.942v-6.015l.358-11.875 1.224-24.561zm30.348.133 10.45.154 6.217.354 6.165.209 5.658.508 5.296.712 6.067 1.072 3.874.716 1.938 6.37 1.783 6.721 1.067 4.08.716 3.72.304 2.65v8.102l-.508 4.788-1.224 10.091-1.068 7.442-.512 5.146-.204 5.303-1.579-1.224-1.067-.918-1.583-.712-1.78-.512-1.429-.201h-.866l-1.583.354-.917.56-1.43 1.07-1.015 1.225-.713.866-.559 1.071-.866 2.138-.512 2.449-.358 2.291-.205 3.363v3.925l.563 2.138.866 3.008 1.784 4.233.512 1.22 1.933-2.65 1.94-2.295 1.426-1.22.713-.713 1.224-.56.713-.153.712-.208.918.362.661.2.355.359.717.712.558 1.02.512 1.784.71 4.94v.564l-.15.712-.205.513-.713.913-.713.661-1.582.922-.713.354-9.17.713-1.43 19.977-7.283.358-6.37.713-9.887.508 1.425-20.178h-10.296l-.866-2.292-.153-1.43-.355-2.086.154-1.429.354-1.579.866-1.937 1.071-1.783 1.276-1.43.661-.712.918-.355h.866l.56.201.664.358 1.068 1.02 1.275 1.43 2.087 3.208 1.583 2.65 2.342-2.496 2.091-2.65 1.429-2.142 1.426-2.09.507-1.071.918-2.138 1.937-6.524.508-3.005.205-1.582.153-1.426-.153-1.582-.359-1.425-.354-1.426-.713-1.43-1.07-1.22-1.225-1.224-1.426-1.276-1.783-.862-1.579-.512-1.582-.354h-3.005l-2.138.508-1.94.866-2.292 1.067-1.937 1.583-1.276 1.07.921-9.378.508-8.103.205-4.992v-6.17l-.358-11.666zm62.748 2.764h3.921l4.076.359 3.878.508 4.075.712 3.008.563 4.229 1.22 3.008 1.071 2.65 1.225 1.425.56 2.496 1.578 2.295 1.784 2.138 1.937 1.729 1.937 2.295 3.362 1.788 3.367 1.424 3.157 1.427 4.28.867 3.516.71 3.567.153 2.09v1.934l-.154 2.346-.508 2.296-.354 1.575-2.347 5.303-1.018 3.21-1.78 6.169-.87 2.496-1.78 4.075-1.428 2.803-1.58-2.09-1.787-1.78-1.425-1.075-.862-.508-.717-.354-.866-.358-1.272-.201h-1.228l-1.421.559-.512.354-.866.662-.918 1.275-.512 1.225-.913 2.496-1.024 3.72-.205.867v2.142l.363 2.087.354 1.936.866 3.009.56 1.272 3.874-3.213 2.142-1.934 1.066-1.07.154-.154h.358l.717.354.712.717.863 1.579.712 1.937.358 1.224.205 1.276-.205 1.22-.358 1.072-.712 1.22-.863 1.43-.559.507-9.532 1.272-1.075 18.757-2.134.354-3.366.512-2.09.512-3.363.35-2.295.209h-.713l.358-18.399-11.516 1.225h.204l-.204-1.784.204-3.362.15-.867.512-1.787.914-1.374.87-1.276.866-1.067.917-.512.866-.354h.355l.921.354 1.933 1.225 1.378 1.071 1.071 1.224 1.784 2.85.508.513.358.2.354-.2.918-.512.87-1.43 1.067-1.779 1.225-2.803.917-3.21.508-2.806.358-2.65.354-2.138.154-1.583v-.913l-.154-.867-.354-1.783-.713-1.225-1.07-1.22-1.58-1.276-1.228-.661-1.272-.56-1.015-.362h-.922l-.866.21-1.272.507-1.224 1.067-1.784 1.583-.508.205h-.153l-.355-.713-.362-1.583-.354-1.425-.205-3.213v-3.358l.359-3.37.562-3.513 1.375-7.441 1.783-7.441.866-5.658.56-3.516.358-3.72v-1.78l-.205-3.516-.153-1.784-.355-1.579-.358-1.634-1.071-2.803-1.425-3.209-1.225-2.087-1.425-1.787z" style="fill:#fff;fill-opacity:1;fill-rule:evenodd;stroke:none"/></svg>