<svg xmlns="http://www.w3.org/2000/svg" width="179.651" height="158.587" viewBox="0 0 507.016 447.569"><path d="m315 545-80-170 80-170 80 170z" style="fill:none;stroke:#fff;stroke-width:40" transform="translate(920.191 -265.86)"/><path d="m31.675 2.258 443.605.093c16.972 0 29.478 13.873 29.478 29.097 0 4.727-1.21 9.605-3.905 14.242L278.64 430.396c-5.647 9.85-15.762 14.915-25.794 14.915-9.58 0-19.05-4.639-24.56-14.185L6.275 46.726c-2.725-4.788-4.017-9.88-4.017-14.823 0-15.43 12.195-29.614 29.417-29.645z" style="fill:#fff;fill-opacity:1;fill-rule:evenodd;stroke:#000;stroke-opacity:1;stroke-width:2.82222229;stroke-miterlimit:4;stroke-dasharray:none"/><path d="M31.69 12.6c-11.046 0-19.094 9.054-19.094 19.303 0 3.176.807 6.466 2.636 9.67l222.012 384.398c3.494 6.1 9.409 9.027 15.596 9.027 6.605 0 13.157-3.32 16.874-9.757L491.92 40.509c1.775-3.053 2.498-6.133 2.498-9.06 0-9.76-8.079-18.763-19.124-18.79z" style="fill:#c0111e;fill-opacity:1;fill-rule:evenodd;stroke:none"/><path d="M143.807 111.784c-5.892-10.152 1.412-22.934 13.17-22.934l192.402.062c11.688 0 19.252 12.565 13.36 22.782l-96.201 166.564c-5.843 10.156-20.567 10.339-26.458.124z" style="fill:#fff;fill-opacity:1;fill-rule:evenodd;stroke:none"/><path d="M297.03 124.125a51.3 51.3 0 0 0-12.98-11.325 51.7 51.7 0 0 0-16.496-6.562 54.5 54.5 0 0 0-17.404-1.682 53.8 53.8 0 0 0-15.262 3.297l-2.732-7.627a2.44 2.44 0 0 0-2.494-1.626 2.405 2.405 0 0 0-2.098 1.678l-10.56 28.115 29.8 1.364a2.65 2.65 0 0 0 2.374-1.405 2.61 2.61 0 0 0-.275-2.89l-6.332-5.547a47.3 47.3 0 0 1 11.003-1.471 47 47 0 0 1 10.883 1.081 40.5 40.5 0 0 1 12.244 5.22 40.4 40.4 0 0 1 9.605 8.581zm-32.766 90.678a53.5 53.5 0 0 0 16.25-5.578 53.4 53.4 0 0 0 13.885-10.67 53.5 53.5 0 0 0 9.949-14.114 54.3 54.3 0 0 0 4.675-14.876l8.33 1.554a2.51 2.51 0 0 0 2.68-1.536 2.47 2.47 0 0 0-.275-2.381l-19.792-23.416-15.858 25.986a2.7 2.7 0 0 0 .283 2.64 2.7 2.7 0 0 0 2.539 1.036l7.655-2.728a41.3 41.3 0 0 1-3.597 9.198 41.3 41.3 0 0 1-6.615 9.043 41 41 0 0 1-10.342 7.914 40.3 40.3 0 0 1-12.061 4.19zm-62.229-73.66a57.6 57.6 0 0 0-3.307 17.13 56.9 56.9 0 0 0 2.05 17.432 57.5 57.5 0 0 0 7.231 15.461 57.4 57.4 0 0 0 10.683 12.03l-5.58 6.277a2.514 2.514 0 0 0-.052 3.228 2.52 2.52 0 0 0 2.518.865l29.759-4.999-13.822-26.523a2.62 2.62 0 0 0-2.742-1.5 2.66 2.66 0 0 0-2.233 1.958l-1.378 8.054a42 42 0 0 1-6.852-8.712c-1.94-3.256-3.397-6.746-4.403-10.398a43.9 43.9 0 0 1-1.371-12.581 43.7 43.7 0 0 1 2.415-12.83z" style="fill:#000;fill-opacity:1;fill-rule:evenodd;stroke:none"/></svg>