<svg xmlns="http://www.w3.org/2000/svg" width="202.839" height="178.721" viewBox="0 0 572.456 504.391"><path d="m235 375 80-170 80 170-80 170z" style="fill:none;stroke:#fff;stroke-width:40" transform="translate(967.052 -186.348)"/><path d="M7.336 62.202C3.78 56.108 2.258 48.994 2.258 42.39c0-20.826 17.27-40.132 40.638-40.132h486.666c23.872 0 40.636 19.306 40.636 40.132 0 6.604-2.032 13.718-5.588 20.323L321.28 481.302c-8.13 13.716-21.845 20.831-36.066 20.831-13.209 0-25.911-6.607-33.531-18.8z" style="fill:#fff;fill-rule:evenodd;stroke:#000;stroke-opacity:1;stroke-width:2.8222223;stroke-miterlimit:4;stroke-dasharray:none"/><path d="m16.496 57.073 244.382 420.773c5.24 9.024 14.58 13.737 24.553 13.737 10.356 0 20.712-5.116 26.669-15.385l243.498-418.87c2.787-4.861 4.054-9.908 4.054-14.773 0-15.596-12.594-29.755-29.884-29.755H42.831c-17.457 0-30.352 14.287-30.352 29.78 0 4.733 1.227 9.673 4.017 14.493" style="fill:#c0111e;fill-opacity:1;fill-rule:evenodd;stroke:none"/><path d="M159.62 127.711c-6.787-11.71 1.615-26.441 15.185-26.441l221.777.069c13.466 0 22.183 14.486 15.403 26.265L301.092 319.6c-6.749 11.71-23.73 11.92-30.513.142z" style="fill:#fff;fill-rule:evenodd;stroke:none"/></svg>