<svg xmlns="http://www.w3.org/2000/svg" width="180.029" height="224.956" viewBox="0 0 508.081 634.877"><path d="m235 375 80-170 80 170-80 170z" style="fill:none;stroke:#fff;stroke-width:40" transform="translate(705.95 -244.098)"/><path d="M1.693 592.183V42.714c0-22.634 18.345-41.02 41-41.02H465.37c22.635 0 41.018 18.386 41.018 41.02v549.47c0 22.655-18.383 41-41.018 41H42.694c-22.656 0-41-18.345-41-41z" style="fill:#fff;fill-rule:evenodd;stroke:#000;stroke-opacity:1;stroke-width:2.25777795;stroke-miterlimit:4;stroke-dasharray:none"/><path d="M8.752 591.655c0 18.768 15.193 33.962 33.962 33.962H465.37c18.74 0 33.937-15.194 33.937-33.962V42.205c0-18.746-15.197-33.942-33.937-33.942H42.714c-18.769 0-33.962 15.196-33.962 33.941z" style="fill:#000;fill-rule:evenodd;stroke:none"/><path d="M21.244 591.655V42.205c0-11.835 9.612-21.45 21.47-21.45H465.37c11.832 0 21.45 9.615 21.45 21.45v549.45c0 11.857-9.617 21.47-21.45 21.47H42.714c-11.858 0-21.47-9.613-21.47-21.47" style="fill:#fff;fill-rule:evenodd;stroke:none"/><path d="m123.922 501.492-24.478-.038a3.56 3.56 0 0 1-3.582-3.56v-39.557l-34.041-.006c-2.588-.014-3.914 1.443-4.479 3.464l-3.883 13.931c-.138 1.136-1.202 2.16-2.329 2.195h-7.71c-3.69 0-4.768 1.65-4.768 3.644l.055 29.774h-2.246l-.014 5.864h6.618c.021-.83.104-1.704.29-2.551 1.36-6.424 7.086-10.844 13.44-10.844.953 0 1.911.08 2.858.303 6.343 1.326 10.704 6.893 10.86 13.11l42.316-.018-.052-.074c0-.949.08-1.926.282-2.892a13.53 13.53 0 0 1 4.376-7.426l.01-.006c2.422-2.103 5.577-3.472 9.005-3.472.124 0 .248.006.365.006.145.006.297.006.441.02 3.218.187 6.226 1.573 8.475 3.577a14 14 0 0 1 4.52 10.266h14.108v-4.336l-11.486-11.423-13.674.05-.007-2.628 119.587-.014v7.92l8.747.005c2.418-2.106 5.588-3.478 9.016-3.478.124 0 .244.006.362.006 3.386.088 6.473 1.365 8.819 3.464h8.399v-7.92l12.537.023v-61.768h-192.43v61.768h19.693zm79.216-182.529-.01-77.333-105.606-.01.01 14.618-22.2.172a6.36 6.36 0 0 0-5.984 4.802l-4.03 17.35a3.7 3.7 0 0 1-1.31 2.115 3.7 3.7 0 0 1-2.511.793l-11.245.079a2.22 2.22 0 0 0-1.62.644 2.17 2.17 0 0 0-.63 1.63l-.007 28.566-3.359.012-.01 7.058h6.205c-.114-9.684 7.7-17.597 17.387-17.632 9.688-.028 17.553 7.583 17.491 17.319l70.108-.011c0-9.677 7.847-17.508 17.525-17.498 9.58.006 17.332 7.731 17.446 17.315zm-87.681-182.88h11.369l6.825-19.864h21.28l6.784 19.864H173l-23.503-68.64H138.89zm153.145 0h10.78V96.416l15.913 39.667 15.827-39.498v39.498h10.734v-68.64h-10.755l-15.806 39.626-15.872-39.585h-10.821zm-215.194 0h10.78V96.416L80.1 136.083l15.83-39.498v39.498h10.735v-68.64H95.91L80.1 107.069 64.23 67.484H53.408zm347.802 0h10.78V96.416l15.914 39.667 15.829-39.498v39.498h10.735v-68.64h-10.76l-15.804 39.626-15.872-39.585H401.21zm-35.074 390.802h14.012l10.672-33.03 10.46 33.03h13.99l-17.437-55.22 16.337-50.444h-14.012l-9.19 28.53-8.918-28.53h-14.058l15.853 50.507zm0-195.224h14.012l10.672-33.007 10.46 33.007h13.99l-17.437-55.197 16.337-50.443h-14.012l-9.19 28.529-8.918-28.53h-14.058l15.853 50.506zm-57.333 195.224h13.99l10.673-33.03 10.46 33.03h13.99l-17.436-55.22 16.336-50.444h-14.01l-9.192 28.53-8.919-28.53H310.64l15.851 50.507zm0-195.224h13.99l10.673-33.007 10.46 33.007h13.99l-17.436-55.197 16.336-50.443h-14.01l-9.192 28.529-8.919-28.53H310.64l15.851 50.506zm30.213-264.218.107 49.768c.762 10.907 10.735 20.433 22.614 20.433 12.636 0 22.782-9.526 23.266-22.693V67.484h-10.524v47.298c0 6.467-5.75 12.213-12.382 12.213-4.036 0-8.114-2.05-10.376-5.409-1.332-1.967-2.028-3.996-2.135-7.121V67.443zm-157.286 68.64h11.917l11.18-23.161 11.179 23.161h11.92l-17.119-35.505 16.017-33.094h-11.938l-10.104 20.692-9.95-20.733h-11.878l15.892 33.135z" style="fill:#000;fill-rule:evenodd;stroke:none"/><path d="M68.011 304.855c-7.786 0-14.107 6.332-14.107 14.107 0 7.786 6.321 14.119 14.107 14.119s14.118-6.333 14.118-14.119c0-7.775-6.332-14.107-14.118-14.107m105.155 0c-7.786 0-14.118 6.332-14.118 14.107 0 7.786 6.332 14.119 14.118 14.119 7.776 0 14.108-6.333 14.108-14.119 0-7.775-6.332-14.107-14.108-14.107m283.567 24.057 1.1-10.266-.765.888c-1.877 2.219-3.143 2.577-4.18 2.577-1.86 0-3.892-1.46-4.057-4.733v-40.322h8.96v-8.368h-9.172v-21.05l-9.638 6.384v14.707h-6.847v8.327h6.932v40.404c0 11.118 5.983 15.428 10.904 15.428 2.727 0 5.263-1.692 6.763-3.976m-.074 195.581 1.1-10.27-.762.89c-1.901 2.219-3.171 2.579-4.205 2.579-1.859 0-3.866-1.46-4.036-4.731v-40.326h8.961v-8.368h-9.176v-21.05l-9.634 6.385v14.707h-6.847v8.326h6.928v40.407c0 11.116 5.962 15.427 10.908 15.427 2.706 0 5.242-1.69 6.763-3.976M59.161 506.72c-6.019-1.238-11.896 2.58-13.195 8.545-1.236 6.018 2.58 11.895 8.544 13.194 6.019 1.238 11.896-2.58 13.195-8.545 1.236-6.018-2.58-11.895-8.544-13.194m69.594-.511c-6.018-1.235-11.895 2.582-13.194 8.548-1.237 6.018 2.58 11.895 8.544 13.197 6.018 1.235 11.895-2.582 13.194-8.548 1.24-6.018-2.577-11.892-8.544-13.197m138.166-.222c-6.105-.156-11.21 4.695-11.38 10.812-.154 6.103 4.696 11.208 10.815 11.377 6.105.156 11.207-4.695 11.376-10.809.155-6.106-4.696-11.211-10.811-11.38" style="fill:#000;fill-rule:evenodd;stroke:none"/><path d="M92.292 281.432H72.128a2.37 2.37 0 0 1-1.874-.917c-.448-.571-.61-1.299-.448-2.001l3.735-16.11a1.98 1.98 0 0 1 1.784-1.402l16.978-.072zM75.973 477.334H59.988c-1.196.028-2.05-1.21-1.775-2.307l2.45-10.16c.551-1.951 1.509-2.212 3.104-2.269h12.206zm61.271-371.747 7.038-20.605 6.973 20.605z" style="fill:#fff;fill-rule:evenodd;stroke:none"/><path d="M240.456 136.083h10.673v-68.64h-10.673z" style="fill:#000;fill-rule:evenodd;stroke:none"/></svg>