<svg xmlns="http://www.w3.org/2000/svg" width="245.257" height="245.259" viewBox="82.992 45.607 718.422 791.054"><path d="M420.776 827.123 56.21 462.553c-11.835-11.828-11.862-30.992 0-42.85l364.565-364.57c11.831-11.83 31.023-11.83 42.856 0l364.566 364.57c11.857 11.858 11.833 31.022 0 42.85l-364.566 364.57c-11.861 11.857-30.997 11.857-42.856 0" style="fill:#000;fill-rule:evenodd;stroke:none;fill-opacity:1"/><path d="m623.922 395.768 45.43-45.428-45.43-45.4-45.434 45.4zm-181.72-90.86 45.431-45.428-45.43-45.396-45.429 45.396zm272.575 181.72 45.433-45.433-45.433-45.396-45.426 45.396zM351.343 668.342l45.431-45.426-45.431-45.397-45.428 45.397zm181.72-454.294 44.72-44.719-45.398-45.428-44.752 44.72z" style="fill:#ffd520;fill-rule:evenodd;stroke:none;fill-opacity:1"/><path d="m714.777 395.768 44.756-44.751-45.43-45.432-44.752 44.755zM215.732 260.157l44.751 44.75 45.432-45.427-44.75-44.75zm-90.859 90.86 44.755 44.75 45.428-45.427-44.752-44.755zm499.049-46.109 44.752-44.75-45.43-45.429-44.756 44.75zm-317.33-135.61 44.75 44.75 45.432-45.428-44.754-44.75zM623.22 667.535l45.418-45.421-44.769-44.756-45.389 45.413zm90.831-90.806 45.422-45.418-44.765-44.768-45.417 45.421zm-498.224 45.445 45.416 45.418 44.759-44.769-45.417-45.417zm90.804 90.803 45.42 45.417 44.763-44.756-45.416-45.421zm225.754 45.417 45.418-45.417-44.764-44.76-45.422 45.421zM124.963 531.34l45.416 45.413 44.79-44.789-45.42-45.421zM442.202 759.2l45.431-45.425-45.43-45.397-45.429 45.397zm0-545.152 45.431-45.428-45.43-45.396-45.429 45.396zm90.861 90.86 45.425-45.428-45.425-45.396-45.43 45.396zm-90.861 181.72 45.431-45.433-45.43-45.396-45.429 45.396z" style="fill:#ffd520;fill-rule:evenodd;stroke:none;fill-opacity:1"/><path d="m260.483 577.487 45.432-45.434-45.432-45.393-45.427 45.393zm272.58 0 45.425-45.434-45.425-45.393-45.43 45.393zm0-181.719 45.425-45.428-45.425-45.4-45.43 45.4zm90.859 90.86 45.43-45.433-45.43-45.396-45.434 45.396zm-272.579-181.72 45.431-45.428-45.431-45.396-45.428 45.396zm90.859 90.86 45.431-45.428-45.43-45.4-45.429 45.4zm90.861 90.86 45.425-45.433-45.425-45.396-45.43 45.396zm90.859 90.859 45.43-45.434-45.43-45.393-45.434 45.393zM351.343 395.768l45.431-45.428-45.431-45.4-45.428 45.4zm181.72 272.574 45.425-45.426-45.425-45.397-45.43 45.397zm-272.58-272.574 45.432-45.428-45.432-45.4-45.427 45.4zm90.86 90.86 45.431-45.433-45.431-45.396-45.428 45.396zm90.859 90.859 45.431-45.434-45.43-45.393-45.429 45.393zm0 90.855 45.431-45.426-45.43-45.397-45.429 45.397zM260.483 486.628l45.432-45.433-45.432-45.396-45.427 45.396zm90.86 90.859 45.431-45.434-45.431-45.393-45.428 45.393zm-181.715-90.859 45.428-45.433-45.428-45.396-45.432 45.396zM397.44 803.816l23.336 23.307c11.859 11.858 30.995 11.858 42.856 0l23.332-23.307-44.762-44.764zm.012-725.378 44.75 44.754 44.75-44.754-23.308-23.312c-11.833-11.832-31.048-11.832-42.88 0z" style="fill:#ffd520;fill-rule:evenodd;stroke:none;fill-opacity:1"/><path d="M79.516 396.366 56.21 419.702c-11.862 11.859-11.835 31.023 0 42.852l23.305 23.336 44.766-44.762zm725.156.079-44.756 44.75 44.756 44.755 23.344-23.311c11.833-11.833 11.861-31.02 0-42.85z" style="fill:#ffd520;fill-rule:evenodd;stroke:none;fill-opacity:1"/></svg>