<svg xmlns="http://www.w3.org/2000/svg" xml:space="preserve" width="240.879" height="240.88" viewBox="0 0 89.426 97.278"><path d="M40.643 95.526-2.101 52.71c-1.163-1.09-1.744-2.617-1.744-4.071s.581-2.98 1.744-4.07L40.643 1.824C41.733.662 43.259.081 44.713.081s2.98.581 4.07 1.744l42.744 42.743c1.163 1.09 1.744 2.617 1.744 4.071s-.58 2.98-1.744 4.071L48.784 95.453c-1.09 1.163-2.617 1.745-4.07 1.745-1.455 0-2.909-.582-4.071-1.672" style="fill:#ffd520;fill-rule:evenodd;stroke:none;fill-opacity:1"/><path d="M41.278 94.843a4.854 4.854 0 0 0 6.87 0l42.765-42.765c1.9-1.9 1.9-4.971 0-6.87L48.148 2.441a4.855 4.855 0 0 0-6.87 0L-1.487 45.207a4.854 4.854 0 0 0 0 6.871z" style="fill:#000;fill-rule:evenodd;stroke:none"/><path d="M42.542 93.58-.226 50.813a3.07 3.07 0 0 1 0-4.342L42.542 3.7a3.07 3.07 0 0 1 4.342.006l42.765 42.766a3.07 3.07 0 0 1 .004 4.342L46.884 93.579a3.073 3.073 0 0 1-4.342 0z" style="fill:#ffd520;fill-rule:evenodd;stroke:none;fill-opacity:1"/><path d="M28.358 68.993v-30.24A5.71 5.71 0 0 1 34.1 33.01h21.154c3.198 0 5.815 2.544 5.815 5.743v30.24c0 3.198-2.617 5.743-5.815 5.743H34.1c-3.126 0-5.742-2.545-5.742-5.743" style="fill:#fff;fill-rule:evenodd;stroke:none"/><path d="M28.78 68.981a5.325 5.325 0 0 0 5.332 5.332h21.17a5.33 5.33 0 0 0 5.332-5.332V38.738a5.33 5.33 0 0 0-5.332-5.331h-21.17a5.33 5.33 0 0 0-5.331 5.331z" style="fill:#000;fill-rule:evenodd;stroke:none"/><path d="M29.494 68.981V38.738a4.617 4.617 0 0 1 4.618-4.617h21.17a4.62 4.62 0 0 1 4.618 4.617v30.243a4.617 4.617 0 0 1-4.618 4.618h-21.17a4.615 4.615 0 0 1-4.618-4.618" style="fill:#fff;fill-rule:evenodd;stroke:none"/><path d="M44.713 8.16 30.29 21.288a.958.958 0 0 0 .859 1.673l10.524-2.752.017 8.311 3.024-.018 3.025.018.016-8.311 10.524 2.752a.958.958 0 0 0 .859-1.674z" style="fill:#000;fill-rule:evenodd;stroke:none"/><path d="M42.619 36.202a.599.599 0 0 0-.516.906l6.946 12.025a.55.55 0 0 0 .488.283.6.6 0 0 0 .527-.305l6.952-12.036a.6.6 0 0 0 .078-.283.597.597 0 0 0-.598-.588z" style="fill:#c0111e;fill-rule:evenodd;stroke:none;fill-opacity:1"/><path d="m34.39 66.23-1.665-.448a.55.55 0 0 0-.668.83l3.76 5.198 3.737-5.202a.542.542 0 0 0-.617-.835l-1.663.446.003-8.483h-2.884z" style="fill:#000;fill-rule:evenodd;stroke:none"/><path d="m37.294 42.88 1.678.481c.22.08.469.008.614-.177a.544.544 0 0 0 .004-.658l-3.737-5.203-3.76 5.2a.55.55 0 0 0 .668.83l1.731-.464v1.17H37.3z" style="fill:#c0111e;fill-rule:evenodd;stroke:none;fill-opacity:1"/><path d="M46.126 39.305a.477.477 0 0 1 .413-.717l6.018.002c.365 0 .602.393.418.712l-3.01 5.21a.48.48 0 0 1-.828.005z" style="fill:#fff;fill-rule:evenodd;stroke:none"/><path d="M49.947 57.362c.306.37.542.795.693 1.251l2.581-.884a5.1 5.1 0 0 0-.943-1.787zm-11.485-9.304-2.05 1.8q.6.766 1.335 1.402l1.687-2.148a7.6 7.6 0 0 1-.972-1.054m8.722 6.469c.396.21.769.463 1.11.754l1.945-1.979a5.9 5.9 0 0 0-1.698-1.171zm1.454 1.09q.508.513.91 1.11l2.361-1.371a10 10 0 0 0-1.201-1.517zm-10.976-9.231-2.561 1.01c.196.664.509 1.29.924 1.844l2.23-1.652a6 6 0 0 1-.593-1.202M51.037 61.07v3.813h2.761V61.07zM40.06 49.584l-1.73 2.111c.46.497 1.02.903 1.639 1.183l1.235-2.434a3.9 3.9 0 0 1-1.143-.86M37.3 44.573h-2.805c0 .691.125 1.39.368 2.038l2.654-.734c-.132-.427-.183-.858-.216-1.304m13.518 14.534c.132.427.216.87.25 1.317l2.774-.023c0-.692-.127-1.38-.37-2.028zm.218 6.39v6.291h2.761v-6.29zM41.66 50.602l-1.096 2.526c.608.33 1.272.552 1.956.648l.409-2.744a6 6 0 0 1-1.269-.43m3.707 3.416c.478.045.945.18 1.375.396l1.2-2.452a5.1 5.1 0 0 0-1.929-.598zm-2.107-.145q.719.003 1.426.143l.702-2.642a10.4 10.4 0 0 0-1.924-.224z" style="fill:#c0111e;fill-rule:evenodd;stroke:none;fill-opacity:1"/><path d="M43.187 58.089v3.508h1.58v-3.508zm0 10.177v3.508h1.58v-3.508zm0-5.089v3.508h1.58v-3.508z" style="fill:#000;fill-rule:evenodd;stroke:none"/></svg>