<svg xmlns="http://www.w3.org/2000/svg" width="246.999" height="247.001" viewBox="0 0 197.599 197.601"><path d="M95.055 195.857 1.744 102.689C.735 101.536.16 100.24.16 98.801s.575-2.737 1.584-3.89L94.912 1.745C96.063.736 97.359.16 98.8.16c1.439 0 2.735.576 3.887 1.584l93.168 93.168c1.008 1.152 1.584 2.448 1.584 3.889 0 1.439-.576 2.735-1.584 3.888l-93.168 93.168c-1.152 1.007-2.448 1.584-3.887 1.584-1.296 0-2.737-.577-3.745-1.584" style="fill:#ffd520;fill-rule:evenodd;stroke:none;fill-opacity:1"/><path d="M95.964 194.965a4.017 4.017 0 0 0 5.672 0l93.317-93.325a3.99 3.99 0 0 0 0-5.66L101.636 2.645a4.016 4.016 0 0 0-5.672 0L2.639 95.971a4.01 4.01 0 0 0 .006 5.669z" style="fill:#000;fill-rule:evenodd;stroke:none"/><path d="M97.969 192.96 4.639 99.637a1.195 1.195 0 0 1-.006-1.663L97.957 4.65a1.207 1.207 0 0 1 1.68 0l93.323 93.324a1.18 1.18 0 0 1-.006 1.663L99.63 192.96a1.16 1.16 0 0 1-1.662 0" style="fill:#ffd520;fill-rule:evenodd;stroke:none;fill-opacity:1"/><path d="M82.096 33.861v12.157a46.04 46.04 0 0 0 4.48 21.141A45.9 45.9 0 0 0 98.41 82.421a44.3 44.3 0 0 0 15.436 7.948 44.1 44.1 0 0 0 16.366 1.522l-2.723 9.348a3.23 3.23 0 0 0 1.244 3.574c1.139.8 2.67.774 3.784-.07l30.479-21.227-30.793-20.897a3.25 3.25 0 0 0-3.766.313 3.28 3.28 0 0 0-1.078 3.21l2.688 9.356c-3.897.713-7.914.558-11.724-.495a26.4 26.4 0 0 1-11.93-7.096 29.5 29.5 0 0 1-5.835-9.044 29.6 29.6 0 0 1-2.226-10.645V33.87zm33.399 129.725.009-12.147a46.04 46.04 0 0 0-4.487-21.142 45.8 45.8 0 0 0-11.828-15.262 44.4 44.4 0 0 0-15.444-7.957 44.4 44.4 0 0 0-16.357-1.53l2.721-9.331a3.21 3.21 0 0 0-1.243-3.566 3.21 3.21 0 0 0-3.783.053l-30.48 21.227 30.792 20.906a3.25 3.25 0 0 0 3.757-.322 3.25 3.25 0 0 0 1.078-3.21l-2.677-9.347a26.2 26.2 0 0 1 11.722.495 26.3 26.3 0 0 1 11.932 7.096 29.58 29.58 0 0 1 8.052 19.681l.009 14.356z" style="fill:#000;fill-rule:evenodd;stroke:none"/></svg>