<svg xmlns="http://www.w3.org/2000/svg" width="245.649" height="245.65" viewBox="82.992 45.607 719.572 792.315"><path d="m421.009 828.133-364.6-364.597c-12.19-12.192-12.19-31.349 0-43.542l364.6-364.597c12.19-12.193 31.35-12.193 43.542 0L829.15 419.994c12.188 12.193 12.188 31.35 0 43.542l-364.6 364.597c-12.192 12.192-31.353 12.192-43.542 0" style="fill:#ffd520;fill-rule:evenodd;stroke:none;fill-opacity:1"/><path d="M425.65 823.488c9.58 9.58 24.676 9.58 34.256 0L824.503 458.89c9.58-9.579 9.58-24.671 0-34.542L459.906 60.039c-9.58-9.579-24.676-9.579-34.543 0L61.055 424.348c-9.58 9.87-9.58 24.963 0 34.542z" style="fill:#000;fill-rule:evenodd;stroke:none"/><path d="M433.49 815.359 69.18 451.053c-5.225-5.225-5.225-13.35 0-18.579L433.49 67.878a13.51 13.51 0 0 1 18.577 0l364.307 364.596c5.225 5.229 5.225 13.354 0 18.58L452.067 815.358c-5.226 5.225-13.352 5.225-18.577 0" style="fill:#ffd520;fill-rule:evenodd;stroke:none;fill-opacity:1"/><path d="M490.095 731.759h21.19V152.06h-21.19v10.162h1.741l-1.741 1.45v13.063l11.32-11.32v45.283l-11.32-11.32v13.064l5.511 5.512-5.511 5.229v13.06l11.32-11.32v45.282l-11.32-11.32v13.064l5.805 5.516-5.805 5.517v12.772l11.32-11.324v45.287l-11.32-11.324v13.064l5.511 5.516-5.511 5.225v13.355l11.32-11.324v44.995l-11.32-11.32v13.06l5.511 5.516-5.511 5.225v13.064l11.32-11.32v44.992l-11.32-11.03v12.771l1.451 1.161h-1.451zm-17.418 0h17.418V451.343h-17.418zm17.418-579.699h-17.418v10.162h17.418zm0 11.611v13.064l-11.322 11.32 11.322 11.323v13.064l-17.418-17.71v-13.35zm0 59.512v13.06l-11.031 11.323 11.03 11.32v13.063l-17.416-17.71v-13.35zm0 59.799v12.772l-11.322 11.32 11.322 11.32v13.063l-17.418-17.706v-13.064zm0 59.216v13.355l-11.031 11.028 11.03 11.323v13.06l-17.416-17.414v-13.647zm0 59.507v13.064l-11.322 11.32 11.322 11.323v12.77l-17.418-17.416v-13.351zm-32.512 330.054h15.094V451.343h-15.094zm15.094-579.699h-15.094v10.162h15.094zm0 29.321v13.351h-.29l-14.804 14.804v-13.06l8.124-8.422-8.124-8.126v-13.064l14.804 14.805zm0 59.507v13.352l-15.094 15.095v-13.351l8.124-8.418-8.124-8.13v-13.06l14.804 14.804zm0 59.8v13.063l-.29-.292-14.804 14.805V315.49l8.124-8.126-8.124-8.418v-13.064l14.804 14.804zm0 59.215v13.647l-.29-.291-14.804 14.803V375.29l8.418-8.418-8.418-8.417v-13.356l14.804 15.096zm0 59.512v13.35h-.29L457.583 446.7v-12.19l8.124-8.422-8.124-8.126v-13.064l14.804 14.804zm-29.9 312.344h14.806V451.343h-4.935l4.935-4.644V434.51l-14.805 14.511v7.838h9.87v66.765h-9.87v34.254h9.87v66.766h-9.87v34.544h9.87v66.765h-9.87zm14.806-579.699h-14.805v12.773l14.805 15.095v-13.064l-4.649-4.642h4.649zm0 44.416v13.06l-8.419 8.418 8.419 8.422v13.06l-14.805-15.096v-13.06zm0 59.508v13.351l-8.419 8.13 8.419 8.418v13.064l-14.805-14.808v-13.351zm0 59.507v12.773l-8.419 8.417 8.419 8.418v13.355l-14.805-14.804v-13.355zm0 59.8v12.771l-8.419 8.418 8.419 8.418v13.064l-14.805-15.096v-12.772zm-29.61 356.468h14.805v-5.806h-9.58v-66.765h9.58v-34.544h-9.58v-66.766h9.58v-34.254h-9.58V456.86h9.58v-7.838l-14.804-14.51v12.768l4.063 4.064h-4.063zm14.805-579.699h-14.804v10.162h4.645l-4.645 4.355v13.06l14.804-14.804zm0 59.22v13.06l-14.804 14.808v-12.772l8.709-8.422-8.71-8.418v-13.06zm0 59.508v13.351l-14.804 14.517v-12.773l8.418-8.418-8.418-8.417v-12.773l14.804 14.804zm0 59.507v13.355l-14.804 14.804v-13.063l8.709-8.418-8.71-8.418v-12.772zm0 59.799v12.772l-14.804 14.804v-12.772l8.418-8.126-8.418-8.418V375.29zM413.17 731.759h14.804V451.343H413.17zm14.804-579.699H413.17v10.162h14.804zm0 14.517v13.06l-8.418 8.417 8.418 8.422v13.06l-14.804-14.804v-13.35zm0 59.799v12.772l-8.418 8.418 8.418 8.709v12.773L413.17 254.24v-13.06zm0 59.507v12.773l-8.418 8.709 8.418 8.418v12.772l-14.513-14.804h-.292v-13.064zm0 59.508v13.063l-8.418 8.418 8.418 8.418v13.064L413.17 373.55v-13.356zm0 59.507v12.772l-8.418 8.418 8.418 8.422v12.77l-14.804-14.514v-13.064zm-32.51 326.86h17.706V451.344h-17.706zM413.17 152.06h-17.706v10.162h17.706zm0 29.321v13.351l-17.706 17.71v-13.064l11.32-11.324-11.32-11.028v-13.355zm0 59.799v13.06l-17.706 17.418v-12.772l11.32-11.32-11.32-11.032V223.47zm0 59.507v13.064l-17.706 17.997v-13.355l11.32-11.32-11.32-11.032v-13.06zm0 59.507v13.356-.291l-17.706 17.705v-13.06l11.32-11.323-11.32-11.028v-13.064zm0 59.508v13.064l-17.706 17.416v-12.77l11.32-11.324-11.32-11.028v-12.772l17.706 17.706zm-38.9 312.057h21.194V451.343h-1.162l1.162-1.16v-12.771l-11.032 11.029v-44.705l11.032 11.324v-12.772l-5.807-5.808 5.807-5.516v-13.06l-11.032 11.029v-44.704l11.032 11.324v-13.064l-5.516-5.516 5.516-5.225v-13.355l-11.032 11.032v-44.703l11.032 11.32v-13.06l-5.516-5.517 5.516-5.807v-12.772l-11.032 11.032v-44.704l11.032 11.32V223.47l-5.516-5.516 5.516-5.512v-13.064l-11.032 11.032v-44.707l11.032 11.323v-13.355l-1.453-1.449h1.453V152.06H374.27z" style="fill:#000;fill-rule:evenodd;stroke:none"/></svg>