<svg xmlns="http://www.w3.org/2000/svg" xml:space="preserve" width="244.48" height="244.48" viewBox="0 0 90.763 98.732"><path d="M42.765 97.488-2.741 51.983c-.726-.727-1.163-1.672-1.163-2.544q0-1.636 1.09-2.617L42.766 1.17a3.69 3.69 0 0 1 5.234 0l45.578 45.578a3.69 3.69 0 0 1 0 5.234L47.926 97.56q-.982 1.09-2.617 1.09c-.873 0-1.818-.436-2.544-1.163" style="fill:#ffd520;fill-rule:evenodd;stroke:none;fill-opacity:1"/><path d="M43.205 97.06a3.07 3.07 0 0 0 4.345 0l45.545-45.564a3.077 3.077 0 0 0 0-4.35L47.554 1.586a3.083 3.083 0 0 0-4.353 0L-2.34 47.145a3.08 3.08 0 0 0 0 4.35z" style="fill:#000;fill-rule:evenodd;stroke:none"/><path d="m44.288 96.034-45.56-45.542c-.653-.654-.653-1.671-.072-2.289l45.559-45.65c.58-.582 1.67-.546 2.398.036l45.413 45.578c.654.654.654 1.671.072 2.29L46.54 96.106c-.581.618-1.744.618-2.252-.073" style="fill:#ffd520;fill-rule:evenodd;stroke:none;fill-opacity:1"/><path d="m23.465 41.152 43.978-.073c1.6.073 2.763 1.381 2.763 2.762 0 .437-.145.945-.364 1.309L47.816 83.24a2.73 2.73 0 0 1-2.398 1.454c-.873 0-1.745-.436-2.253-1.381L21.138 45.295c-.217-.436-.363-.872-.363-1.38 0-1.455 1.163-2.763 2.69-2.763" style="fill:#fff;fill-rule:evenodd;stroke:none"/><path d="M23.495 42.027c-1.094 0-1.887.897-1.89 1.912.003.314.078.637.26.957l21.984 38.066c.348.604.934.894 1.546.894.653 0 1.303-.329 1.671-.967L69.07 44.79c.175-.301.247-.607.247-.896 0-.967-.8-1.855-1.894-1.861z" style="fill:#c0111e;fill-rule:evenodd;stroke:none;fill-opacity:1"/><path d="m45.563 10.404-14.406 13.11a.956.956 0 0 0 .857 1.672l10.512-2.749.016 8.3 3.02-.017 3.022.017.017-8.3 10.51 2.75a.957.957 0 0 0 .858-1.672z" style="fill:#000;fill-rule:evenodd;stroke:none"/><path d="M34.598 51.85c-.583-1.007.14-2.272 1.305-2.272l19.052.009c1.157-.003 1.906 1.241 1.323 2.253l-9.526 16.494c-.58 1.006-2.039 1.024-2.622.012z" style="fill:#fff;fill-rule:evenodd;stroke:none"/></svg>