<svg xmlns="http://www.w3.org/2000/svg" width="245.541" height="245.433" viewBox="82.992 45.607 719.256 791.617"><path d="M829.36 419.883c11.511 11.508 11.415 32.55 0 43.955l-364.52 364.52c-11.003 11.036-33.06 10.886-43.95 0L56.369 463.839c-12.115-12.115-12.115-31.836 0-43.955l364.52-364.521c12.147-12.147 31.84-12.147 43.95 0z" style="fill:#ffd520;fill-rule:evenodd;stroke:none;fill-opacity:1"/><path d="M824.836 424.462c9.62 9.634 9.62 25.165 0 34.767L460.283 823.815c-9.57 9.571-25.196 9.62-34.818 0L60.944 459.278c-9.603-9.587-9.603-25.245 0-34.832L425.5 59.894c9.587-9.607 25.212-9.556 34.783.015z" style="fill:#000;fill-rule:evenodd;stroke:none"/><path d="M816.766 432.533c5.157 5.155 5.157 13.454 0 18.658l-364.55 364.554c-5.128 5.136-13.506 5.136-18.664 0L69 451.192c-5.122-5.126-5.122-13.504 0-18.659L433.552 67.981c5.126-5.174 13.536-5.142 18.664 0z" style="fill:#ffd520;fill-rule:evenodd;stroke:none;fill-opacity:1"/><path d="M517.151 280.087c-11.809 8.332-20.477 21.073-22.553 35.495l43.772-.02zm-50.537 35.503 14.594.11c2.194-19.927 13.438-37.136 29.533-47.396l-14.16-24.344zm97.918-40.38c-11.68-4.544-24.876-4.769-37.088-.048l24.844 43.03c2.286 3.673-.726 9.28-5.012 8.701l-52.844.016c2.13 26.293 24.183 47.027 51.026 47.027 28.254 0 51.199-22.959 51.199-51.2 0-21.51-13.309-39.955-32.125-47.526m-211.528-2.068c-11.745-2.882-24.312-1.772-34.864 3.607-16.592 8.46-28.258 24.698-28.707 46.097-.614 28.195 22.939 51.196 51.196 51.196 28.258 0 51.2-22.938 51.2-51.196 0-20.123-11.052-37.412-28.872-45.936l-17.414 47.905a5.637 5.637 0 0 1-7.311 3.559 5.653 5.653 0 0 1-3.323-7.32zM545.28 387.495c34.878 0 64.653-28.096 64.653-64.649 0-35.687-28.968-64.653-64.653-64.653-8.878 0-17.32 1.791-25.005 5.027l-18.252-32.254 2.867-6.429c9.474-.528 17.756-8.284 18.816-17.607h-49.425c-3.899-.032-3.899 4.122-1.274 4.93l20.67 9.791-3.866 9.072H379.71c2.418-10.25-2.819-21.655-12.26-26.262-1.82-.897-1.099-4.476 1.87-4.19l23.052 2.277 3.82-10.316-27.227-3.075c-11.036-1.256-19.91 16.481-7.732 24.313 7.056 4.527 9.469 10.358 7.166 16.705l-11.1 30.286c-15.386-4.201-31.915-2.623-45.884 4.543-20.91 10.717-35.652 32.32-35.715 57.842-.098 35.668 28.967 64.65 64.653 64.65 35.684 0 64.65-28.967 64.65-64.65 0-26.053-15.43-48.526-37.668-58.756l3.658-9.165 79.973 67.614c3.69 3.189 8.604 4.8 13.438 4.366l16.353.063c2.14 33.79 30.226 60.527 64.524 60.527M375.466 244.176l80.988 68.681 29.306-71.37H376.4zm-91.73 240.358 101.868-64.67c4.721-2.638 11.182-.839 13.851 3.818l57.1 106.447H276.55v-30.807a19.95 19.95 0 0 1 1.996-8.104 20.2 20.2 0 0 1 5.19-6.684m-29.32 47.897c.275-2.786 4.142-2.512 4.606.113 3.32 17.449 18.076 32.044 35.782 33.818h101.324v18.235H295.5c-24.698-3.044-43.628-26.742-41.085-52.166m202.618-29.319c-3.544-7.963 2.899-18.014 11.551-18.187l110.006-.194 21.058-12.631 24.166.161 7.91 6.12-.129 46.35c-.387 3.112-3.145 5.64-6.253 5.769H471.536zm-37.156 73.442-16.465-30.27c-.58-1.08-.276-4.609 3.689-4.596h214.886v20.928c-.27 11.49-10.055 21.639-21.541 22.348H434.713c-4.492 0-12.886-4.85-14.835-8.41" style="fill:#000;fill-rule:evenodd;stroke:none"/></svg>