<svg xmlns="http://www.w3.org/2000/svg" width="245.269" height="245.26" viewBox="82.992 45.607 718.457 791.058"><path d="M420.285 826.924 56.42 463.06c-12.13-12.095-12.13-31.746 0-43.873L420.285 55.323c12.095-12.095 31.778-12.095 43.874 0l363.863 363.864c12.128 12.127 12.128 31.778 0 43.873L464.16 826.924c-12.132 12.128-31.748 12.128-43.874 0" style="fill:#cdff00;fill-rule:evenodd;stroke:none;fill-opacity:1"/><path d="M424.86 822.408c9.606 9.604 25.113 9.604 34.718 0l363.904-363.904c9.58-9.58 9.608-25.142 0-34.746L459.611 59.883c-9.581-9.58-25.2-9.58-34.779 0L60.956 423.758c-9.602 9.604-9.579 25.166 0 34.746z" style="fill:#000;fill-rule:evenodd;stroke:none;fill-opacity:1"/><path d="M432.911 814.347 69.016 450.452c-5.11-5.113-5.138-13.476 0-18.622l363.895-363.9c5.11-5.11 13.481-5.11 18.614 0l363.896 363.9c5.14 5.146 5.14 13.51 0 18.622L451.525 814.347c-5.133 5.148-13.48 5.148-18.614 0" style="fill:#cdff00;fill-rule:evenodd;stroke:none;fill-opacity:1"/><path d="M451.8 571.246c-4.234 8.435-.468 18.651 8.232 22.324a16.26 16.26 0 0 0 20.772-7.507l94.778-171.667h11.377c1.585 4.862 6.116 8.134 11.245 8.166 5.225-.033 9.821-3.438 11.309-8.43h36.245v-47.987h-16.272l-50.433-72.127c-3.108-4.496-6.644-9.953-12.635-9.72l-41.801 1.622a18 18 0 0 0-7.407 2.543 17.05 17.05 0 0 0-5.156 4.926l-39.85 62.77-35.088 30.29c-5.492 4.567-6.02 12.733-1.291 17.99a12.43 12.43 0 0 0 16.696 1.559l37.41-31.187 22.486-32.908V455.77zm-211.329-.29c-3.571 7.975-.3 17.365 7.477 21.4 8.134 4.23 18.186.956 22.355-7.281l43.023-90.214h30.458l39.652 89.758c3.504 8.261 13.095 12.104 21.363 8.528 8.202-3.573 11.974-13.096 8.434-21.296l-34.427-76.958h18.387l-28.475-103.306 8.434.126c1.953 3.839 5.985 6.186 10.284 6.122 4.264-.102 8.139-2.515 10.02-6.315h26.589v-45.274h-17.23l-31.45-58.334c-1.386-1.886-3.107-3.477-5.123-4.666-2.15-1.291-4.563-2.051-7.114-2.347l-37.266.89c-2.252.166-4.402.898-6.32 2.052-1.952 1.157-3.606 2.842-4.791 4.827l-39.026 64.59-28.541 23.809c-4.926 3.637-6.052 10.547-2.512 15.575 3.74 5.292 11.146 6.351 16.206 2.347l32.407-25.628 17.198-25.993-.032 34.459-50.503 116.836h16.635z" style="fill:#000;fill-rule:evenodd;stroke:none;fill-opacity:1"/><path d="M606.521 589.244c5.193 7.112 15.18 8.632 22.292 3.471 6.805-4.959 8.628-14.385 4.1-21.493l-57.642-81.058v-61.44L538.1 495.985zm-66.769-378.026c-16.381 0-29.682 13.3-29.682 29.687 0 16.383 13.3 29.683 29.682 29.683 16.389 0 29.685-13.3 29.685-29.683 0-16.386-13.296-29.687-29.685-29.687m-197.681 0c-16.382 0-29.686 13.3-29.686 29.687 0 16.383 13.304 29.683 29.686 29.683 16.387 0 29.687-13.3 29.687-29.683 0-16.386-13.3-29.687-29.687-29.687" style="fill:#000;fill-rule:evenodd;stroke:none;fill-opacity:1"/><path d="M573.72 366.306v-36.443l23.38 36.345zm-207.557-20.32.036-18.615 10.914 18.584z" style="fill:#cdff00;fill-rule:evenodd;stroke:none;fill-opacity:1"/></svg>