<svg xmlns="http://www.w3.org/2000/svg" xml:space="preserve" width="111.628" height="111.629" viewBox="0 0 41.442 45.081"><path d="M-1.739 43.21V1.874C-1.739.885-.936.08.051.08h41.337c.988 0 1.792.804 1.792 1.793V43.21c0 .988-.804 1.79-1.792 1.79H.052a1.79 1.79 0 0 1-1.79-1.79" style="fill:#ffd520;fill-opacity:1;fill-rule:evenodd;stroke:none"/><path d="M-1.235 43.24c0 .696.56 1.257 1.256 1.257H41.42c.694 0 1.256-.561 1.256-1.257V1.842c0-.694-.562-1.256-1.256-1.256H.02c-.696 0-1.256.562-1.256 1.256z" style="fill:#000;fill-rule:evenodd;stroke:none"/><path d="M31.865 1.501h9.575a.37.37 0 0 1 .37.37v9.586L27.76 25.49v18.148H13.72v-18.15L-.327 11.456V1.87a.37.37 0 0 1 .37-.369h9.571L20.736 12.64z" style="fill:#ffd520;fill-opacity:1;fill-rule:evenodd;stroke:none"/><path d="m24.078 15.932 3.342 3.342h4.73l3.347-3.347v-4.725L32.15 7.855h-4.73l-3.342 3.343z" style="fill:#fff;stroke:none"/><path d="M14.072 19.185H9.375l-3.32-3.32v-4.698l3.32-3.32h4.697l3.32 3.32v4.698z" style="fill:#fff;fill-rule:evenodd;stroke:none"/><path d="M17.165 15.774v-4.505l-3.188-3.188h-4.5l-3.189 3.188v4.506l3.184 3.183h4.51zm10.368 3.229-3.184-3.183v-4.51l3.183-3.184h4.506l3.188 3.188v4.501l-3.188 3.188z" style="fill:#c0111e;fill-opacity:1;fill-rule:evenodd;stroke:none"/><path d="m9.472 13.554 2.253 2.251-1.093 1.092-.319-.317.774-.775-.564-.563-.474.475-.315-.315.476-.476-.738-.737-.806.805-.317-.316zm1.536-1.535 2.247 2.247-.776.777c-.15.125-.588.306-1.028-.135-.308-.308-.351-.566-.25-.859l-1.432-.792.332-.331 1.36.752.28-.28-1.057-1.056zm1.534-1.535 2.248 2.247-.777.777c-.15.124-.587.306-1.029-.135-.305-.306-.349-.567-.248-.858l-1.432-.792.33-.331 1.361.752.28-.282-1.056-1.055zm1.583-1.583 1.712 2.798-.317.317-2.807-1.702.324-.324.79.474.45-.448-.477-.79zm-6.34 6.34 1.97 1.97.402-.405.286.285-1.126 1.126-.285-.285.404-.403-1.97-1.97zm4.277-1.532-.404.404c-.09.145-.084.3.088.472.21.21.38.189.498.071l.382-.383zm1.535-1.535-.405.405c-.09.145-.084.298.088.471.21.21.38.19.498.071l.383-.384zm-1.738 4.459-.428.428-.498-.108.301-.3.253.04-.043-.26.317-.316zm2.661-6.223-.292.293.75.455zm15.233.9-1.124-1.124-.317.319.806.805-.737.738-.476-.476-.315.314.475.475-.564.564-.774-.774-.317.32 1.091 1.092zm1.535 1.535-.323-.323-1.056 1.056-.28-.28.752-1.36-.331-.331-.793 1.433c-.292-.102-.551-.059-.858.248-.441.44-.26.878-.135 1.028l.777.777zm1.536 1.535-.324-.323-1.056 1.056-.28-.28.751-1.36-.33-.332-.793 1.433c-.292-.101-.552-.058-.859.248-.44.441-.259.88-.134 1.03l.777.776zm1.582 1.583-.326-.326-.789.478-.448-.45.474-.79-.324-.325-1.702 2.808.317.316zm-6.34-6.34-.318-.318-1.97 1.968-.404-.402-.285.284 1.126 1.126.285-.285-.404-.404zm1.531 4.277-.563.564-.383-.383c-.118-.118-.139-.288.071-.497.173-.173.327-.18.471-.088zm1.535 1.535-.563.564-.383-.384c-.118-.117-.139-.287.07-.496.173-.173.327-.18.472-.089zm-4.458-1.738.515-.098-.316-.317-.26.042.04-.252-.3-.3-.107.496zm6.223 2.661-.748.458.455-.75z" style="fill:#fff;fill-rule:evenodd;stroke:none"/></svg>