<svg xmlns="http://www.w3.org/2000/svg" width="120.64" height="120.639" viewBox="0 0 340.473 340.471"><path d="m315 545-80-170 80-170 80 170z" style="fill:none;stroke:#fff;stroke-width:40" transform="translate(915.437 -258.726)"/><path d="M156.012 333.94 6.533 184.46c-3.94-3.81-5.969-9.02-5.969-14.225 0-5.078 2.029-10.414 6.096-14.224L156.012 6.659c3.81-4.062 9.14-6.095 14.224-6.095 5.077.128 10.414 2.033 14.097 6.095l149.48 149.479c4.06 3.683 5.965 9.02 6.095 14.097 0 5.082-2.035 10.415-6.096 14.225L184.457 333.812c-3.807 4.062-9.144 6.094-14.22 6.094-5.211 0-10.415-2.032-14.225-5.967" style="fill:#ffd520;fill-opacity:1;fill-rule:evenodd;stroke:none"/><path d="M158.231 331.934c6.633 6.636 17.371 6.636 24.01 0l149.43-149.427c6.632-6.639 6.632-17.37 0-24.01L182.241 9.07c-6.639-6.635-17.377-6.635-24.01 0L8.801 158.498c-6.638 6.639-6.638 17.37 0 24.009z" style="fill:#000;fill-rule:evenodd;stroke:none"/><path d="M162.648 327.518 13.204 178.087c-4.18-4.183-4.19-10.987-.01-15.172L162.648 13.466c4.188-4.185 10.979-4.161 15.163.021l149.433 149.428c4.205 4.185 4.205 10.99.022 15.172l-149.445 149.43c-4.184 4.187-10.985 4.187-15.173 0" style="fill:#ffd520;fill-opacity:1;fill-rule:evenodd;stroke:none"/><path d="m170.236 31.846-50.4 45.865a3.343 3.343 0 0 0-.505 4.774 3.36 3.36 0 0 0 3.503 1.078l36.777-9.618.056 29.039 10.57-.063 10.569.063.056-29.039 36.77 9.618a3.38 3.38 0 0 0 3.51-1.078 3.35 3.35 0 0 0-.504-4.774z" style="fill:#000;fill-rule:evenodd;stroke:none"/><path d="m91.33 168.421 46.231-46.215h65.284l46.298 46.215v65.384l-46.298 46.214h-65.284L91.33 233.805z" style="fill:#fff;fill-opacity:1;fill-rule:evenodd;stroke:none"/><path d="m95.275 170.056 43.92-43.905h62.02l43.983 43.905v62.115l-43.983 43.902h-62.02l-43.92-43.902z" style="fill:#c0111e;fill-opacity:1;fill-rule:evenodd;stroke:none"/><path d="M112.035 204.165h5.128l-2.581-10.54zm-9.734 16.656 9.501-39.418h5.54l9.676 39.418h-5.68l-2.775-11.074h-7.845l-2.723 11.074zm35.827-24.005h7.08c2.063-.466 3.347-1.872 3.347-4.883 0-3.664-1.662-4.971-3.722-4.971h-6.705zm-5.555 24.005v-39.3h13.577c2.402.22 7.812 2.464 7.812 10.171 0 5.368-1.892 8.012-5.325 9.674l5.597 19.455h-5.797l-5.3-18.466h-4.907v18.466zm35.903-24.005h7.07c2.065-.466 3.35-1.872 3.35-4.883 0-3.664-1.662-4.971-3.722-4.971h-6.698zm-5.558 24.005v-39.3h13.574c2.401.22 7.81 2.464 7.81 10.171 0 5.368-1.891 8.012-5.324 9.674l5.594 19.455h-5.795l-5.302-18.466h-4.9v18.466zm30.721 0v-39.378h19.096v5.578h-13.521v9.855h8.298v5.495h-8.315v12.89h14.09v5.56zm31.898 0V186.39h-7.056v-4.987h19.69v4.987h-7.052v34.43zM199.5 173.134h7.49l3.406 5.286h-5.256l-1.853-2.555-1.895 2.63h-5.545z" style="fill:#fff;fill-opacity:1;fill-rule:evenodd;stroke:none"/></svg>