<svg xmlns="http://www.w3.org/2000/svg" xml:space="preserve" width="244.48" height="244.479"><path d="m-412.05 175.147-90.288 90.288a7.3 7.3 0 0 0-2.16 5.184c0 1.872.72 3.744 2.16 5.183l90.288 90.288a7.3 7.3 0 0 0 5.184 2.16c1.872 0 3.744-.72 5.184-2.16l90.287-90.288a7.3 7.3 0 0 0 2.161-5.183c0-1.873-.72-3.745-2.161-5.184l-90.287-90.288a7.3 7.3 0 0 0-5.184-2.16 7.3 7.3 0 0 0-5.184 2.16" style="fill:#ffd520;fill-rule:evenodd;stroke:none;fill-opacity:1" transform="matrix(1.25 0 0 -1.25 630.823 460.513)"/><path d="M-411.172 176.067a6.08 6.08 0 0 1 8.612 0l90.26 90.26a6.095 6.095 0 0 1 0 8.618l-90.252 90.253a6.11 6.11 0 0 1-8.627 0l-90.253-90.253a6.096 6.096 0 0 1 0-8.618z" style="fill:#000;fill-rule:evenodd;stroke:none" transform="matrix(1.25 0 0 -1.25 630.823 460.513)"/><path d="m-409.18 178.066-90.253 90.258a3.274 3.274 0 0 0 0 4.619l90.258 90.259a3.28 3.28 0 0 0 4.617 0l90.258-90.26a3.267 3.267 0 0 0 0-4.618l-90.258-90.258a3.26 3.26 0 0 0-4.617 0z" style="fill:#ffd520;fill-rule:evenodd;stroke:none;fill-opacity:1" transform="matrix(1.25 0 0 -1.25 630.823 460.513)"/><path d="m-366.527 226.404-10.148 19.942v48.273l10.106 20.551-14.886 8.449-12.595-23.527v-57.784l12.498-24.682zm-80.658 0 15.023-8.778 12.499 24.682v57.784l-12.595 23.527-14.885-8.449 10.105-20.551v-48.273z" style="fill:#000;fill-rule:evenodd;stroke:none" transform="matrix(1.25 0 0 -1.25 630.823 460.513)"/></svg>