<svg xmlns="http://www.w3.org/2000/svg" xml:space="preserve" width="177.561" height="177.56" viewBox="0 0 65.92 71.707"><path d="M-2.813 68.645a2.98 2.98 0 0 0 2.982 2.981h65.584a2.98 2.98 0 0 0 2.98-2.981V3.06a2.98 2.98 0 0 0-2.98-2.98H.169a2.98 2.98 0 0 0-2.982 2.98z" style="fill:#ffd520;fill-rule:evenodd;stroke:none;fill-opacity:1"/><path d="M-1.86 68.641q0 .84.595 1.434.594.594 1.434.594h65.584q.84 0 1.433-.594.593-.593.594-1.434V3.058q0-.84-.594-1.433a1.96 1.96 0 0 0-1.433-.594H.169q-.84 0-1.434.594a1.95 1.95 0 0 0-.595 1.433z" style="fill:#000;fill-rule:evenodd;stroke:none"/><path d="M-.423 68.643q0 .246.175.422a.57.57 0 0 0 .421.175h65.585a.57.57 0 0 0 .42-.175.58.58 0 0 0 .175-.422V3.059a.57.57 0 0 0-.174-.42.57.57 0 0 0-.421-.175H.173a.58.58 0 0 0-.422.175.57.57 0 0 0-.174.42z" style="fill:#ffd520;fill-rule:evenodd;stroke:none;fill-opacity:1"/><path d="M13.238 62.324h2.79c.735 0 1.48 0 2.196-.176 1.668-.407 2.858-1.296 3.582-2.408.518-.8.924-2.078.924-3.389 0-2.018-.781-3.59-1.993-4.612a5.8 5.8 0 0 0-1.926-1.052c-.706-.23-1.445-.293-2.182-.293h-3.367zm13.752-4.792 1.743-4.1 1.742 4.1zm-4.23 4.796h2.189l1.189-2.79h5.192l1.177 2.79h2.176l-5.047-11.924h-1.807zm14.412 0h2.097V52.41h3.33v-2.008h-8.751v2.002l3.33.006zm6.767.002h8.753v-2.003h-6.674V56.93h3.57v-2.019H46.03l-.013-2.493h6.528v-2.006h-8.589zm-28.623-2.05.012-.004v-7.828h1.687c1.237 0 2.14.435 2.838 1.254.384.452.91 1.377.91 2.597 0 1.001-.19 1.645-.338 1.952-.52 1.065-1.482 1.748-2.488 1.9-.516.08-.681.128-1.557.128zM3.088 24.287h2.468l1.483-4.316h4.621l1.475 4.316h2.452L10.482 9.38H8.178zm16.501-8.855v-3.734h3.473c.668 0 1.57.832 1.57 1.834 0 1.062-.79 1.848-1.63 1.9zm-2.318 8.855h2.28V17.75h2.825l2.385 6.536h2.482l-2.556-6.977c1.555-.859 2.26-2.081 2.26-3.682 0-2.273-1.635-4.113-4.296-4.248h-5.38zM32.5 15.432v-3.734h3.47c.669 0 1.571.832 1.571 1.834 0 1.062-.79 1.848-1.63 1.9zm-2.319 8.855h2.28V17.75h2.823l2.386 6.536h2.482l-2.556-6.977c1.555-.859 2.26-2.081 2.26-3.682 0-2.273-1.635-4.113-4.296-4.248h-5.38zm12.909 0h9.107V21.93h-6.76v-4.18h4.3v-2.326h-4.32V11.72h6.28V9.38H43.09zm14.05 0h2.355V11.475h3.345V9.38h-9.07v2.11h3.37zM7.82 17.66l1.53-4.47 1.513 4.472zm1.277 25.647h1.474v-7.06l2.266 7.06h1.305V31.382h-1.484v6.38l-2.046-6.374H9.097zm13.417 0h1.288L25.9 31.394h-1.515l-1.222 6.993-1.228-7.005h-1.514zm4.776 0h1.492V31.382H27.29zm6.238-4.252h.745l-.024 1.985c-.014.71-.38 1.01-.872 1.01-.365 0-.643-.178-.784-.723-.142-.535-.381-2.07-.381-3.949 0-2.122.275-3.93.459-4.296.142-.289.35-.43.706-.43.763 0 .838.903.866 1.007h1.52c-.052-1.152-.308-1.584-.87-2.044a2.46 2.46 0 0 0-1.544-.54c-.934 0-1.79.56-2.14 1.321-.11.244-.35.885-.49 2.784l-.076 1.64c-.024.498-.008 1.649.132 2.986l.19 1.486c.197 1.496 1.218 2.317 2.41 2.317.703 0 1.299-.25 1.785-.762.442-.468.579-.828.597-1.4v-3.888h-2.229zm4.153-7.667.005 9.945c.046 1.1 1.15 2.237 2.531 2.237.636 0 1.196-.208 1.673-.634.486-.43.779-.996.84-1.74v-9.814h-1.502v9.743c0 .517-.414.97-1.034.97-.532 0-.98-.421-1.005-1.03v-9.677zm7.066 11.92h4.471V41.81h-2.986v-4.298h1.878V36.02h-1.884v-3.177h2.879v-1.461h-4.358zm6.322-11.92.006 9.945c.046 1.1 1.15 2.237 2.53 2.237.637 0 1.197-.208 1.674-.634.486-.43.779-.996.84-1.74v-9.814h-1.502v9.743c0 .517-.415.97-1.034.97-.532 0-.98-.421-1.006-1.03v-9.677zm8.575 4.823v-3.344h1.132c.343 0 .903.288.903 1.731 0 .308-.021.942-.353 1.327a.86.86 0 0 1-.603.286zm-1.509 7.096h1.503v-5.592h.842l1.173 5.592h1.545l-1.265-5.98c.579-.303 1.253-1.174 1.253-2.76 0-2.092-1.112-3.073-2.278-3.185h-2.773zm-55.403 0h4.472V41.81H4.218v-4.298h1.878V36.02H4.212v-3.177h2.879v-1.461H2.732zM45.965 5.441 44.51 7.578h2.21l.754-1.049.739 1.018h2.094L48.95 5.44z" style="fill:#000;fill-rule:evenodd;stroke:none"/></svg>