<svg xmlns="http://www.w3.org/2000/svg" xml:space="preserve" width="180.14" height="180.141" viewBox="0 0 66.877 72.749"><path d="M69.732 68.765a3.9 3.9 0 0 1-3.903 3.904H1.053a3.903 3.903 0 0 1-3.908-3.904V3.99A3.91 3.91 0 0 1 1.053.081h64.776a3.903 3.903 0 0 1 3.903 3.908z" style="fill:#ffd520;fill-opacity:1;fill-rule:evenodd;stroke:none"/><path d="M68.921 68.767V3.987A3.093 3.093 0 0 0 65.835.892H1.051a3.1 3.1 0 0 0-3.095 3.095v64.78c0 1.709 1.39 3.09 3.095 3.09h64.784a3.086 3.086 0 0 0 3.086-3.09" style="fill:#000;fill-rule:evenodd;stroke:none"/><path d="M67.488 68.768c0 .914-.737 1.657-1.656 1.657H1.048A1.66 1.66 0 0 1-.61 68.768V3.984a1.66 1.66 0 0 1 1.657-1.656h64.784c.919 0 1.656.745 1.656 1.656z" style="fill:#ffd520;fill-opacity:1;fill-rule:evenodd;stroke:none"/><path d="M48.063 24.589h2.982l3.542-5.592 3.541 5.577h2.993l-5.031-7.951 4.563-7.228H57.7l-3.095 4.895-3.081-4.893-2.975-.002 4.561 7.235zM23.047 63.416h2.23l1.21-2.84h5.287l1.2 2.84h2.217l-5.143-12.144h-1.84zM33.902 9.42v9.45c0 3.41 2.476 5.923 6.033 5.923 1.937 0 3.373-.654 4.407-1.729.974-1.002 1.646-2.502 1.646-4.484V9.403l-2.658.017v9.083c0 1.61-.525 2.533-1.349 3.164a3.345 3.345 0 0 1-4.342-.202c-.467-.446-.826-1.055-1.014-2.101-.071-.395-.071-.79-.073-1.191l-.016-8.753zM5.757 24.582h2.645v-6.72h4.812v-2.545H8.427v-3.355H16.9V9.409H5.799zm13.421.008h11.145v-2.555h-8.499v-4.321h4.545v-2.571H21.84l-.016-3.173h8.31V9.415H19.203zm-5.832 38.822h2.844c.75 0 1.505 0 2.233-.177 1.7-.416 2.914-1.32 3.65-2.456.53-.814.942-2.114.942-3.45 0-2.057-.796-3.658-2.029-4.698a5.9 5.9 0 0 0-1.963-1.071c-.72-.235-1.472-.3-2.223-.3h-3.428zm24.378.004h2.138V53.313h3.39V51.27h-8.915v2.037l3.393.006zm6.893 0h8.918v-2.04h-6.798V57.92h3.636v-2.057h-3.624l-.012-2.538h6.648V51.28h-8.75zm-.532-19.525h1.312l2.137-12.134h-1.542l-1.245 7.121-1.252-7.133h-1.544z" style="fill:#000;fill-rule:evenodd;stroke:none"/><path d="m15.463 61.332.01-.004v-7.975h1.72c1.26 0 2.182.443 2.89 1.276.395.46.93 1.403.93 2.647 0 1.02-.195 1.677-.347 1.988-.528 1.086-1.508 1.782-2.534 1.936-.525.08-.693.132-1.583.132z" style="fill:#ffd520;fill-rule:evenodd;stroke:none;fill-opacity:1"/><path d="M21.474 40.889q-.009.222-.012.444v.25c0 1.484 1.127 2.6 2.581 2.6.579 0 1.18-.211 1.585-.537a2.78 2.78 0 0 0 1.022-2.17c0-1.543-.668-3.352-1.987-4.796l-.861-.892c-.032-.031-.708-.802-.708-1.733 0-.741.386-1.073.862-1.073.39 0 .723.253.84.615.069.21.069.44.1.662h1.511c.104-1.66-1.085-2.838-2.459-2.838-1.322 0-2.437 1.1-2.437 2.516 0 .47.186 1.448.572 2.174.397.756 1.09 1.245 1.64 1.87.849.97 1.348 2.351 1.348 3.412 0 .844-.445 1.219-1.052 1.219-.549 0-1.01-.35-1.03-1.241a5 5 0 0 1 .011-.482zm14.066 3.002h1.53v-5.696h.858l1.197 5.696h1.57l-1.285-6.093c.59-.308 1.276-1.195 1.276-2.812 0-2.128-1.132-3.13-2.32-3.241H35.54zm20.799-2.771c.01.117.016.23.018.348v.101c0 .713-.375 1.032-.86 1.032-.533 0-.778-.325-.902-.793-.05-.184-.245-1.281-.287-2.777v-1.802c0-1.15.271-3.071.389-3.529.121-.46.45-.682.84-.682.463 0 .826.369.826.838h1.56c-.125-1.058-.525-1.638-1.089-2.004a2.5 2.5 0 0 0-1.337-.395 2.38 2.38 0 0 0-2.17 1.452c-.09.208-.349.747-.517 4.016l-.026 2.033c-.004.277.026.553.042.826.182 2.617.446 2.95.686 3.305.474.693 1.256 1.078 1.906 1.078a2.44 2.44 0 0 0 1.99-1.017c.303-.427.49-.878.459-2.03zM8.951 43.891h1.5v-7.19l2.308 7.19h1.33V31.745h-1.512v6.496l-2.081-6.49H8.95zm-6.731 0h4.555v-1.526H3.73v-4.377h1.913v-1.52H3.724v-3.235h2.933v-1.488H2.22zm26.589 0h4.556v-1.526h-3.042v-4.377h1.913v-1.52h-1.92v-3.235h2.932v-1.488h-4.44zm31.293 0h4.555v-1.526h-3.04v-4.377h1.912v-1.52h-1.92v-3.235h2.933v-1.488h-4.44z" style="fill:#000;fill-rule:evenodd;stroke:none"/><path d="m27.355 58.532 1.776-4.174 1.773 4.174zm9.721-21.87v-3.405h1.156c.346 0 .917.293.917 1.763 0 .312-.02.96-.36 1.35a.88.88 0 0 1-.614.292z" style="fill:#ffd520;fill-rule:evenodd;stroke:none;fill-opacity:1"/><path d="M49.133 43.891h1.52V31.745h-1.52z" style="fill:#000;fill-rule:evenodd;stroke:none"/></svg>