<svg xmlns="http://www.w3.org/2000/svg" xml:space="preserve" width="245.269" height="245.26" viewBox="0 0 69.707 64.366"><path d="M32.92 66.177.86 34.115a2.73 2.73 0 0 1 0-3.866L32.92-1.813a2.737 2.737 0 0 1 3.866 0l32.062 32.062a2.73 2.73 0 0 1 0 3.866L36.787 66.177a2.73 2.73 0 0 1-3.866 0" style="fill:#ffd520;fill-rule:evenodd;stroke:none;fill-opacity:1"/><path d="M33.324 65.78a2.16 2.16 0 0 0 3.06 0l32.065-32.066a2.165 2.165 0 0 0 0-3.062L36.386-1.411a2.17 2.17 0 0 0-3.065 0L1.258 30.652a2.166 2.166 0 0 0 0 3.062z" style="fill:#000;fill-rule:evenodd;stroke:none"/><path d="M34.031 65.069 1.968 33.004a1.163 1.163 0 0 1 0-1.64L34.033-.703c.453-.45 1.19-.45 1.64 0l32.065 32.065a1.16 1.16 0 0 1 0 1.641L35.673 65.069a1.16 1.16 0 0 1-1.64 0z" style="fill:#ffd520;fill-rule:evenodd;stroke:none;fill-opacity:1"/><path d="m23.855 36.486 21.985-.022-1.452 5.07c-.21.782.129 1.607.824 2.01a1.8 1.8 0 0 0 1.985-.092l15.51-11.356-15.569-11.235a1.84 1.84 0 0 0-1.999-.12 1.83 1.83 0 0 0-.813 2.164l1.433 4.967-21.944.006 1.463-5.077a1.845 1.845 0 0 0-.795-1.96 1.83 1.83 0 0 0-2.022.017L6.962 32.192l15.539 11.31a1.8 1.8 0 0 0 2.04.113 1.8 1.8 0 0 0 .79-2.064z" style="fill:#000;fill-rule:evenodd;stroke:none"/></svg>