<svg xmlns="http://www.w3.org/2000/svg" xml:space="preserve" width="177.566" height="177.566" viewBox="0 0 65.921 71.709"><path d="M-2.813 68.647a2.983 2.983 0 0 0 2.982 2.982h65.585a2.98 2.98 0 0 0 2.98-2.982V3.06a2.98 2.98 0 0 0-2.98-2.98H.169a2.98 2.98 0 0 0-2.982 2.98z" style="fill:#ffd520;fill-rule:evenodd;stroke:none;fill-opacity:1"/><path d="M-1.86 68.644q0 .839.596 1.433a1.95 1.95 0 0 0 1.433.594h65.585q.84 0 1.432-.594.594-.594.595-1.433V3.058q0-.84-.594-1.433a1.95 1.95 0 0 0-1.433-.593H.169q-.84 0-1.434.593a1.95 1.95 0 0 0-.594 1.433z" style="fill:#000;fill-rule:evenodd;stroke:none"/><path d="M-.423 68.645q0 .246.175.422a.57.57 0 0 0 .421.174H65.76a.57.57 0 0 0 .42-.174.58.58 0 0 0 .176-.422V3.059a.57.57 0 0 0-.175-.42.57.57 0 0 0-.421-.175H.173a.58.58 0 0 0-.422.175.57.57 0 0 0-.174.42z" style="fill:#ffd520;fill-rule:evenodd;stroke:none;fill-opacity:1"/><path d="m46.162 5.796-1.455 2.136h2.21l.755-1.048.738 1.017h2.093l-1.356-2.105zM13.238 62.325h2.791c.735 0 1.478 0 2.195-.176 1.669-.407 2.859-1.296 3.583-2.407.518-.8.924-2.078.924-3.39 0-2.018-.782-3.589-1.993-4.611a5.8 5.8 0 0 0-1.927-1.053c-.705-.23-1.445-.294-2.182-.294h-3.367zm13.753-4.791 1.743-4.1 1.742 4.1zm-4.23 4.796h2.188l1.189-2.79h5.193l1.177 2.79h2.176l-5.048-11.925H27.83zm14.411 0h2.098v-9.92h3.33v-2.007h-8.752v2.002l3.332.006zm6.768.002h8.753v-2.004H46.02v-3.395h3.569v-2.02H46.03l-.011-2.492h6.526v-2.007H43.96zM15.316 60.28l.012-.002V52.45h1.687c1.238 0 2.14.435 2.839 1.254.384.451.91 1.377.91 2.597 0 1.001-.19 1.644-.338 1.952-.52 1.065-1.483 1.748-2.489 1.9-.516.08-.681.128-1.556.128zM3.088 24.286h2.467L7.04 19.97h4.62l1.475 4.316h2.452L10.482 9.379H8.178zM19.59 15.43v-3.735h3.472c.668 0 1.57.833 1.57 1.835 0 1.062-.79 1.848-1.629 1.9zm-2.319 8.855h2.28V17.75h2.826l2.384 6.536h2.483l-2.557-6.977c1.556-.859 2.261-2.081 2.261-3.682 0-2.273-1.635-4.113-4.296-4.248h-5.38zm15.23-8.855v-3.735h3.47c.669 0 1.571.833 1.571 1.835 0 1.062-.79 1.848-1.63 1.9zm-2.32 8.855h2.281V17.75h2.823l2.385 6.536h2.482l-2.556-6.977c1.555-.859 2.261-2.081 2.261-3.682 0-2.273-1.635-4.113-4.296-4.248h-5.38zm12.91 0h9.107v-2.357h-6.76v-4.18h4.301v-2.325h-4.322v-3.705h6.282v-2.34H43.09zm14.05 0h2.355V11.474h3.346V9.379h-9.07v2.11h3.37zM7.821 17.66l1.528-4.472 1.513 4.472zm7.201 25.651h1.831v-8.146l4.586 8.146h1.58V31.386H21.18v7.62l-4.281-7.62h-1.878zm10.68 0h7.245V41.63h-5.384V31.386h-1.86zm8.585 0h7.286v-1.885h-5.408v-3.344h3.44v-1.861h-3.457v-2.962h5.027v-1.873h-6.888zm12.253 0h1.484l3.733-11.925h-1.956l-2.516 8.043-2.523-8.043h-1.967zm6.627 0h7.286v-1.885h-5.408v-3.344h3.441v-1.861H55.03v-2.962h5.026v-1.873h-6.888zm-47.69 0h7.286v-1.885H7.355v-3.344h3.44v-1.861H7.338v-2.962h5.027v-1.873H5.477zm50.7-14.738-1.18 1.698h2.481l1.547-1.698z" style="fill:#000;fill-rule:evenodd;stroke:none"/></svg>