<svg xmlns="http://www.w3.org/2000/svg" xml:space="preserve" width="184.32" height="184.321" viewBox="0 0 68.429 74.437"><path d="M71.352 70.363a3.99 3.99 0 0 1-3.993 3.994H1.076a3.994 3.994 0 0 1-4-3.994V4.08a4.003 4.003 0 0 1 4-4h66.283a3.994 3.994 0 0 1 3.993 4z" style="fill:#ffd520;fill-rule:evenodd;stroke:none;fill-opacity:1"/><path d="M70.522 70.364V4.077A3.164 3.164 0 0 0 67.365.91H1.073a3.173 3.173 0 0 0-3.167 3.167v66.287a3.166 3.166 0 0 0 3.167 3.163h66.292a3.157 3.157 0 0 0 3.157-3.163" style="fill:#000;fill-rule:evenodd;stroke:none"/><path d="M69.056 70.365c0 .935-.755 1.695-1.695 1.695H1.07c-.933 0-1.696-.76-1.696-1.695V4.075A1.7 1.7 0 0 1 1.07 2.38h66.29c.94 0 1.696.762 1.696 1.695z" style="fill:#ffd520;fill-rule:evenodd;stroke:none;fill-opacity:1"/><path d="M49.18 25.133h3.05l3.625-5.721 3.623 5.707h3.064l-5.15-8.135 4.672-7.4h-3.021l-3.165 5.012-3.155-5.007-3.043-.004 4.667 7.405zM23.581 64.858h2.281l1.236-2.906h5.415l1.225 2.906h2.268l-5.26-12.429h-1.885zM34.69 9.612v9.67c0 3.488 2.532 6.06 6.174 6.06 1.982 0 3.453-.668 4.512-1.768.991-1.026 1.682-2.563 1.682-4.589V9.593l-2.723.019v9.293c0 1.65-.536 2.591-1.377 3.24a3.43 3.43 0 0 1-4.441-.208c-.48-.456-.848-1.077-1.04-2.15-.073-.402-.073-.81-.075-1.218l-.017-8.957zM5.89 25.127h2.706V18.25h4.924v-2.606h-4.9v-3.428h8.674V9.602H5.934zm13.734.008h11.404v-2.613h-8.696V18.1h4.653v-2.633h-4.636l-.017-3.246h8.506V9.606H19.65zm-5.969 39.719h2.908c.769 0 1.541 0 2.289-.182 1.738-.427 2.981-1.35 3.733-2.512.543-.833.963-2.166.963-3.533 0-2.105-.814-3.739-2.078-4.803a5.9 5.9 0 0 0-2.007-1.098c-.735-.24-1.504-.309-2.274-.309h-3.51zm28.816-19.971h1.545l3.891-12.427H45.87l-2.623 8.382-2.627-8.382h-2.052zm3.182 19.975h9.125V62.77H47.82v-3.535h3.722V57.13h-3.71l-.012-2.6h6.802v-2.092h-8.948zm-7.053 0h2.187V54.52h3.47v-2.093h-9.123v2.086l3.474.007zm19.17-23.086.045.11.104.242c.859 1.966 2.557 3.026 4.46 3.026.602 0 1-.091 1.284-.21 1.493-.59 2.448-2.04 2.448-3.537 0-.939-.29-1.754-.901-2.509-.59-.727-1.282-1.228-3.022-1.555-.721-.135-1.16-.179-1.448-.404-.255-.199-.436-.557-.436-.974 0-.982.79-1.78 1.818-1.78.946 0 1.472.552 1.795 1.368l1.819-.628c-.524-1.655-1.96-2.705-3.642-2.705-2.021 0-3.77 1.785-3.77 3.726 0 .8.33 1.651.9 2.254.428.454 1.054.841 2.226 1.028.417.07.847.087 1.25.223.904.307 1.474 1.113 1.474 1.958 0 .963-.868 1.823-1.837 1.823-1.127 0-2.186-.655-2.728-2.042zm-46.284 3.111h1.91v-8.487l4.777 8.487h1.649V32.456h-1.915v7.942l-4.463-7.942h-1.958zm-9.165 0h7.597v-1.962H4.279v-3.486h3.588v-1.941H4.26v-3.086H9.5v-1.952H2.32zm46.568 0h7.592v-1.962h-5.635v-3.486h3.586v-1.941h-3.604v-3.086h5.238v-1.952H48.89zm-18.72 0h7.59v-1.962h-5.633v-3.486h3.584v-1.941h-3.602v-3.086h5.236v-1.952h-7.175zm-8.485 0h7.553v-1.75h-5.614V32.455h-1.94z" style="fill:#000;fill-rule:evenodd;stroke:none"/><path d="m15.82 62.723.012-.004V54.56h1.758c1.291 0 2.234.452 2.96 1.305.403.472.95 1.438.95 2.71 0 1.043-.2 1.713-.355 2.032-.539 1.112-1.545 1.825-2.593 1.984-.54.081-.711.131-1.62.131z" style="fill:#ffd520;fill-rule:evenodd;stroke:none;fill-opacity:1"/><path d="m51.617 29.432-1.312 1.889h2.76l1.72-1.89z" style="fill:#000;fill-rule:evenodd;stroke:none"/><path d="m27.987 59.86 1.817-4.272 1.817 4.272z" style="fill:#ffd520;fill-rule:evenodd;stroke:none;fill-opacity:1"/></svg>