<svg xmlns="http://www.w3.org/2000/svg" width="246.15" height="246.144" viewBox="82.992 45.607 721.04 793.911"><path d="M421.5 829.744 56.316 464.566c-12.166-12.14-12.166-31.858 0-44.031L421.499 55.356c12.135-12.139 31.893-12.139 44.028 0L830.71 420.535c12.164 12.173 12.164 31.891 0 44.03l-365.183 365.18c-12.172 12.171-31.857 12.171-44.028 0" style="fill:#ffd520;fill-rule:evenodd;stroke:none;fill-opacity:1"/><path d="M426.086 825.21c9.647 9.64 25.205 9.64 34.852 0l365.215-365.217c9.611-9.61 9.64-25.229 0-34.867L460.963 59.935c-9.611-9.619-25.29-9.619-34.9 0L60.876 425.125c-9.642 9.639-9.615 25.257 0 34.868z" style="fill:#000;fill-rule:evenodd;stroke:none"/><path d="M434.174 817.124 68.964 451.91c-5.131-5.132-5.159-13.524 0-18.686L434.173 68.01c5.126-5.134 13.524-5.134 18.677 0l365.215 365.214c5.152 5.162 5.152 13.554 0 18.686L452.85 817.124c-5.153 5.16-13.524 5.16-18.677 0" style="fill:#ffd520;fill-rule:evenodd;stroke:none;fill-opacity:1"/><path d="M326.53 633.95c-5.186 10.326-.993 22.893 9.327 27.949 10.024 4.969 22.206 1.036 27.517-8.773l122.324-222.142.302-111.27 34.125 55.33-18.53 42.463c-3.588 8.075.04 17.536 8.12 21.123 8.204 3.713 17.925-.216 21.295-8.595l27.557-63.193-70.233-98.698c-1.511-1.988-3.326-3.674-5.446-4.925-2.678-1.6-5.746-2.461-8.85-2.548l-54.295 2.287a16.25 16.25 0 0 0-8.945 3.237 16.3 16.3 0 0 0-4.662 5.575l-52.566 83.45-46.479 38.656c-6.524 5.791-7.3 15.772-1.685 22.505 5.571 6.654 15.422 7.78 22.289 2.508l48.51-40.518 29.888-43.278-.476 149.014z" style="fill:#000;fill-rule:evenodd;stroke:none"/><path d="m438.87 535.54 88.633 122.11c7.386 9.764 21.469 11.276 30.71 3.245 8.333-7.257 9.72-19.7 3.108-28.553l-75.8-104.744.036-78.66zm-.582-369.74c-21.505 0-39.006 17.607-39.058 39.112.052 21.505 17.553 39.006 39.058 39.057 21.454 0 39.113-17.552 39.113-39.057s-17.66-39.113-39.113-39.113" style="fill:#000;fill-rule:evenodd;stroke:none"/></svg>