<svg xmlns="http://www.w3.org/2000/svg" xml:space="preserve" width="246.417" height="246.422"><path d="M-30.44 112.907a7.98 7.98 0 0 1 11.3 0l90.413 90.414c3.117 3.118 3.13 8.185.004 11.302L-19.14 305.04a7.99 7.99 0 0 1-11.3 0l-90.418-90.417c-3.125-3.117-3.113-8.184.004-11.302z" style="fill:#ffd520;fill-rule:evenodd;stroke:none;fill-opacity:1" transform="matrix(1.25 0 0 -1.25 154.197 384.426)"/><path d="M-29.107 114.238a6.1 6.1 0 0 1 8.633 0l90.42 90.423a6.11 6.11 0 0 1 0 8.635l-90.416 90.413c-2.379 2.382-6.263 2.382-8.64 0l-90.418-90.413a6.11 6.11 0 0 1 0-8.635z" style="fill:#000;fill-rule:evenodd;stroke:none" transform="matrix(1.25 0 0 -1.25 154.197 384.426)"/><path d="M-27.105 116.24a3.27 3.27 0 0 1 4.628 0l90.42 90.422a3.28 3.28 0 0 1 0 4.628l-90.42 90.42a3.286 3.286 0 0 1-4.628 0l-90.42-90.42a3.285 3.285 0 0 1 0-4.628l90.416-90.422z" style="fill:#ffd520;fill-rule:evenodd;stroke:none;fill-opacity:1" transform="matrix(1.25 0 0 -1.25 154.197 384.426)"/><path d="M-3.78 229.146c1.004.08 2.404.137 4.792.224 0 0 .005-.007.007-.007.334.015.632 0 .97 0 2.214 0 4.727-.07 7.154-.685 1.884-.372 3.202-.906 3.542-1.043a15.7 15.7 0 0 0 2.491-1.26c.685-.435 1.23-.698 1.522-1.057l1.087-1.148c.258-.302 1.268-1.623 1.48-1.862l1.12-2.17c.086-.15.302-.59.67-1.322.39-.775.615-1.233.667-1.361.134-.396.3-.844.345-1.405l.06-1.614q.112-1.475 1.18-3.26l.651-1.12.896-1.69.004-.004.734-1.297q.23-.533.448-.86l.773-1.177c.023-.128.597-.859 1.078-1.96.373-.852 1.134-1.403 1.716-2.52q.113-.22.761-1.62c.421-.915.665-1.433.714-1.557.07-.212.176-.752.345-1.63 0 0 .008-.01.008-.012l.75-2.657c.206-.332.743-1.45 1.147-2.012.23-.33.695-1.355.765-1.464l.329-1.297c.032-.653.28-1.888.345-2.197.135-.648.028-2.29.028-2.302-.006-.547-.291-2.169-.324-2.554 0-.003-.006.008-.006.005l-.128-1.943v-.017c-.01-.237-.058-.418-.368-.889-.004 0-.427-.164-.43-.164-.519 0-.753.21-1.317.598-.466.321-.786.607-.959.911l-.809 1.422c-.854 1.521-1.47 2.44-1.855 2.807l-1.186 1.134c-3.398 3.252-5.553 5.582-6.486 6.984l-.001.003c-.84 1.247-2.23 4.745-3.278 7.773-.474 1.313-1.723 3.603-2.522 5.466-.157.368-.391.652-.8.652-.367 0-.507-.174-.831-.61-2.301-3.09-3.506-5.254-3.58-6.373 0-.483.297-1.313.876-2.432q.672-1.294.975-1.68l.025-.033q.288-.322 2.948-2.55a.6.6 0 0 1 .28-.135q.65-1.24.673-2.799v-1.926c0-.252.238-.987.457-1.123l.657-1.177.689-1.976.566-1.22c.273-.175 1.1-2.09 1.532-2.986.134-.049 1.19-2.659 1.342-3.053.187-.57.216-2.1.243-2.233-.067-.227.017-1.308-.108-1.702-.344.161-.927.376-1.604.621a.7.7 0 0 1-.161.02.604.604 0 0 1-.617-.592q.002-.075.02-.148c.228-.855.418-1.52.529-1.85l.58-1.814q.141-.437.186-1.218l-8.48-.412q-.07.346-.071.71 0 1.52 1.266 3.31l.95 1.342q.811 1.146 1.322 3.257c.272 1.13.39 1.318.39 2.066 0 .081.016.904.01.968q-.037.59-.431 1.858A26 26 0 0 1 14 182.69q-1.548 3.571-2.982 3.848a2.2 2.2 0 0 1-.916.002q-.726-.13-1.767-1.266-.926-1.01-2.268-2.948l-.002-.002q-1.288-1.887-1.575-3.479l-.317-1.763-.316-1.583H2.99a.78.78 0 0 1-.5-.192c-.123-.118-.17-.367-.17-.53l.592-1.656q.151-1.106.168-1.5v-.006l.087-1.609q.027-.513.082-1.379a2.3 2.3 0 0 0-.608-.447 1.54 1.54 0 0 0-.678-.14q-.474 0-1 .196-.393.15-.542.273l-1.612 1.697c-.003.152-1.14 1.494-1.383 2.095-.08.202-.575 1.615-.605 1.673-.043.083-.293 1.702-.295 1.707l.124 2.07 1.327 2.054c.068.105 1.038 1.33 1.187 1.474 2.33 2.496 4.272 4.537 4.88 5.384.008.032.675 1.637.686 1.67.2.577-.082 2.005-.078 2.01l-.644 1.087-2.004 2.447c-1.346 1.551-2.015 2.708-2.167 2.963l-1.582 2.946-1.23 2.148c-.212-.103-.857-.814-1.782-.993l-.683-.039-.658 1.36q-.142.276-.703.5a3 3 0 0 1-1.11.215q-.293 0-.57-.06l-3.359-1.168-3.906-1.163a67 67 0 0 0-4.434-.9l-1.568-.042-1.099-.039-2.318.281c-.963.18-1.36.281-1.83.375l-1.989.401s-1.366.315-2.301.625l-2.43.655c-.775 0-.928-.7-1.186-1.216-.047-.108-.17-1.347-.194-1.57a26 26 0 0 1-.078-2.064q0-1.324.113-2.842.643-8.672 1.35-12.059a26 26 0 0 1 1.068-3.74q.56-1.507 1.62-3.69v-.003l.735-1.5a.6.6 0 0 0 .044-.25q0-.728-.653-1.576-.624-.81-1.162-.81a.5.5 0 0 0-.255.074q-.688.44-1.108.44a.77.77 0 0 1-.628-.283.57.57 0 0 1-.066-.637q.71-1.358.813-2.227-.382-.044-.868-.122l-.014-.002q-1.13-.2-2.126-.2c-1.277 0-2.149-.042-3.166.04-.594.047-2.572.058-2.827.487l3.43 3.37 1.482 1.501c.753.807 1.219 2.838 1.218 4.957-.056.996-.448 2.61-.496 2.697l-.881 1.58-.004.007q-.11.19-.786 1.718c-.35.792-.655 1.641-.757 1.89-.582 1.134-.883 2.375-1.044 2.783-.067.165-.462 1.625-.5 1.75l-.656 1.563-.557 1.7q-1.337 4.067-2.183 5.126l-1.241 1.85c-.23.341-.366.525-.55.525h-1.666c-.35-.383-.876-1.089-1.324-1.793l-6.673-.12-1.885-.483-1.65-.54c-.814-.222-1.997-1.802-1.914-2.806l.165-1.387c2.55-1.753 3.749-3.077 3.615-3.923a3.5 3.5 0 0 0-1.447-.752v-.207l1.646-.413c2.202-2.918 1.663-6.499 1.584-6.604-.193-.255-.683-.317-.999-.317h-1.999l-.317.19c-.083.048-1.436.89-1.82 1.064-.6.445-1.112 1.105-1.23 1.455l-.75 2.012c-1.815.797-3.249 2.87-2.499 5.806.118.477.184.748.169.843l-.236 1.868c-.532 4.384.015 7.24 1.666 8.548.652.507 1.25.764 1.784.748.684.4 1.95.924 2.231 1.181l1.403 1.226c.299.256.902.874 1.598 1.58 1.063 1.073 1.734 2.014 1.765 3.082l.412 4.08.715 2.595c.026.053.419 2.414.377 2.63l-.064 1.506a6 6 0 0 0-.304 1.04l-1.015 5.13c-.056.268-.192 1.696-.216 1.971l-.112 1.906-.107 5.217-.001.01q-.032.832-.551 1.584a.63.63 0 0 1-.522.268.6.6 0 0 1-.226-.04q-.571-.21-1.405-.509h-.002l-2.064-.744-1.865-.29c-.95-.34-1.649-.771-1.95-1.23l-.933-1.42q-.292-.228-1.355-.636-.78-.3-1.267-.402a.7.7 0 0 1-.318.379.7.7 0 0 1-.239.354.63.63 0 0 1-.43.118 2 2 0 0 0-.162-.007q-.986 0-1.68 1.05a4.1 4.1 0 0 0-.694 2.055l-.004.153q.003 1.221 1.136 3.111 1.963 3.274 2.286 4.595l.002.01q.148.65.196 3.415l.049 1.575q.07.274.137.403l.282.544.006.01q.217.439.277.694.037.147.037.386c0 .551 1.792 2.81 1.755 2.616l.296 1.697.159.674.136.521.213.694c.304 1.002-.251 1.551.373 1.163.197-.122.419-.184.721-.552.39-.476.3-.46.434-.795.067-.17.278-.542.326-.836.02-.133.086-.671.283-.77.085-.044.547-.603.642-.62.784-.135 1.107-.178 2.36-.755a.65.65 0 0 1 .272-.058q.253-.001.435.169.183.169.19.41l.103.53.018.401.104 1.154v1.086l.439.548c.003.277 1.033-1.455 1.255-1.751.374-.498.347-.735.54-1.02l.438-1.17.23-.763a.64.64 0 0 1 .496-.28q.988-.048 1.357-.14l.018-.005 1.45-.32a.7.7 0 0 1 .278 0l.13.028.008-.014c.078-.104 1.753.018 2.95-.228l1.325-.315c4.042-.963-1.507-.178-1.479-.35l2.485-.607c.465-.11 2.282-.875 3.119-1.544l-1.635.202c0-.165 2.259-.967 3.3-1.708l.553-.34c3.23-1.99-2.03.328-1.97.27.122-.116 1.869-1.08 3.213-1.782l1.888-1.122c2.582-1.533-1.89.235-1.492-.222.254-.292.737-.189 1.878-.975l.85-.531c.284-.194 1.352-.785.372-.58l-.819.174c.331-.212 2.514-1.392 3.239-2.378.923-1.263-2.777 1.524-2.532.806l.822-.704.811-.693c.455-.324 1.204-1.08 1.491-1.362.79-.778 1.826-1.843 1.438-1.871-.213-.017-1.156.58-1.653 1.077-1.08 1.084 1.902-3.426 3.898-6.408l11.916 1.972-2.092 11.314-10.959-4.53c-1.413-.587-3.052.026-3.67 1.38-.598 1.348.025 2.916 1.42 3.508l12.133 5.268 10.961 1.776a3.36 3.36 0 0 0 2.517-.474 3.1 3.1 0 0 0 1.374-1.967l3.271-18.359a4.2 4.2 0 0 0-.62-3.04 4.4 4.4 0 0 0-1.356-1.33z" style="fill:#000;fill-rule:evenodd;stroke:none" transform="matrix(1.25 0 0 -1.25 154.197 384.426)"/><path d="M-12.684 264.956c2.576-1.362 3.5-4.463 2.066-6.944-1.424-2.464-4.663-3.348-7.255-1.977-2.575 1.363-3.499 4.464-2.065 6.943 1.423 2.465 4.663 3.35 7.254 1.978" style="fill:#000;fill-rule:evenodd;stroke:none" transform="matrix(1.25 0 0 -1.25 154.197 384.426)"/></svg>