<svg xmlns="http://www.w3.org/2000/svg" xml:space="preserve" width="245.709" height="245.7"><path d="m-27.85 132.026-90.412 90.413c-3.014 3.008-3.014 7.89 0 10.905l90.412 90.413c3.006 3.003 7.896 3.003 10.902 0l90.412-90.413c3.014-3.015 3.014-7.897 0-10.905l-90.412-90.413a7.71 7.71 0 0 0-10.902 0" style="fill:#ffd520;fill-rule:evenodd;stroke:none;fill-opacity:1" transform="matrix(1.25 0 0 -1.25 150.853 407.712)"/><path d="M-26.714 133.149a6.1 6.1 0 0 1 8.63 0l90.422 90.422a6.11 6.11 0 0 1 0 8.636l-90.418 90.416c-2.378 2.379-6.26 2.379-8.639 0l-90.417-90.416a6.11 6.11 0 0 1 0-8.636z" style="fill:#000;fill-rule:evenodd;stroke:none" transform="matrix(1.25 0 0 -1.25 150.853 407.712)"/><path d="m-24.717 135.153-90.416 90.417a3.29 3.29 0 0 0 0 4.633l90.42 90.418a3.28 3.28 0 0 0 4.627 0l90.423-90.418a3.283 3.283 0 0 0 0-4.633l-90.423-90.417a3.27 3.27 0 0 0-4.626 0z" style="fill:#ffd520;fill-rule:evenodd;stroke:none;fill-opacity:1" transform="matrix(1.25 0 0 -1.25 150.853 407.712)"/><path d="m-78.39 238.27.87-.627c.852-.611 2.007-.389 3.03-.248l8.2-.14c1.378-.02 2.705-.547 3.912-1.238 1.506-.87 2.68-2.242 3.511-3.793.064-.127-.011-.267.008-.4.044-.515.273-1.01.604-1.422 1.79-1.41 3.276-3.177 4.452-5.127 1.683-2.8 2.51-6.079 2.61-9.342a3.7 3.7 0 0 1 1.785-1.994c1.22-.617 2.75-.365 3.869.42.347.067.71.086 1.034-.078a17 17 0 0 1-.268-2.325l.185-3.005c.706-2.489.89-5.087.675-7.66-.117-1.51-.236-3.06-.883-4.439a8.93 8.93 0 0 0-3.349-3.76c-.8-.496-1.694-.845-2.586-1.11.096-.26.364-.305.605-.38l6.042.023c.335.012.594.236.85.42.335.26.616.583.843.94.108.191.129.438.269.61l.85.412c.43.203.571.711.755 1.131l.108 4.35.916 6.06c.292.901 1.002 1.626 1.853 2.033.7.044 1.291-.464 1.647-1.067.164-.28.24-.59.292-.915l-.084-3.672c-.025-.565-.132-1.11-.229-1.67-.27-1.684-.482-3.514-1.626-4.788a5 5 0 0 0-.85-.719c-.4-.272-.883-.4-1.271-.69-.323-.249-.628-.549-.844-.916-.008-.172.056-.344.12-.496l7.058.236.216.076c.547.691.894 1.51 1.01 2.381.572.056 1.124.336 1.466.788a2.18 2.18 0 0 1 .452 1.594c-.108.743-.624 1.358-.838 2.057-.292.872-.313 1.811-.292 2.718l.43 3.124a34 34 0 0 1-.151 5.591c.195 1.78 1.434 3.404 3.085 4.115l1.702.336 2.594.16c.862.057 1.737-.107 2.588-.279a21 21 0 0 1 4.34-1.1l4.323-.418 3.77.14c.442-1.348 1.37-2.566 2.672-3.138.56-.248 1.175-.439 1.791-.387a2.13 2.13 0 0 1 .008-1.39c.315-.68 1.027-1.315 1.746-1.087.615.202.947.871 1.023 1.506.582.067 1.2 0 1.726-.256a3.4 3.4 0 0 0 .883-.57c.248-.24.368-.617.668-.809.342-.239.831-.175 1.142.105.152.131.292.315.344.518l.076 1.22c.432.44 1.087.56 1.714.56.516-.205.863-.712 1.003-1.252.084-.787-.056-1.582-.215-2.337a25.5 25.5 0 0 0-1.467-4.967c-.659-1.607-1.37-3.222-2.458-4.56-.615-.712-1.314-1.335-2.12-1.818a7.2 7.2 0 0 0-1.264-.647c-.32-.12-.655-.228-.859-.508-.184-.267-.24-.623-.076-.927l7.045.292c.583.031 1.003.591 1.2 1.131.114.336.158.7.094 1.055a1.1 1.1 0 0 0-.259.723 2.2 2.2 0 0 1 1.714.528c.368.334.615.787.723 1.27l.236 2.146.775 3.317c.767 2.233 1.778 4.407 3.277 6.262a1.33 1.33 0 0 0 1.455.367c.407-.172.647-.583.882-.959 1.003-2.018 1.66-4.225 1.823-6.478v-3.176l-.184-1.347-.787-2.965c-.032-.128-.172-.204-.26-.3a19 19 0 0 0-1.606-1.587 16 16 0 0 0-2.53-1.537.85.85 0 0 1 .007-.736l7.761-.02c.336 0 .616.228.852.44.342.271.647.646.743 1.067-.16.711-.304 1.453-.096 2.166.363.431.687.895.87 1.446.13.396.141.82.11 1.24l-.712 4.32a64 64 0 0 0-.312 7.615l1.187 4.4c.128.463.451.86.56 1.322.151.616.02 1.27-.312 1.802-.348.528-.844.916-1.383 1.207-.592.7-.947 1.571-1.087 2.478l-.044 1.366.907 6.822c.108.818.344 1.626.388 2.457.031.654.02 1.315-.056 1.97.26 1.067-.148 2.166-.624 3.137-.335.71-.699 1.41-.915 2.166a8.7 8.7 0 0 0-.247 3.352c.095.204.191.42.363.548a.79.79 0 0 0 .887.12c.28-.133.42-.412.56-.68a59 59 0 0 0 1.562-8.147l.128-2.822-.128-4.763-.292-3.06c-.03-.268-.15-.484-.159-.732-.036-.42.008-.85.16-1.25.267-.724.895-1.24 1.334-1.855.66-.928 1.24-1.906 1.67-2.949.323-.305.348-.799.323-1.243l-.33-1.378c-.132-.516 0-1.056.171-1.55.256-.692.712-1.348 1.347-1.715.56-.217 1.151-.356 1.734-.184l-.012.108c-.73.895-.927 2.166-.71 3.31l.95 2.081c.116.255.14.535.192.806.312 1.66-.076 3.456-1.119 4.784l-3.309 2.661c-.7.56-1.015 1.487-1.035 2.362 1.842 5.666 1.97 11.98-.196 17.538-.967.971-1.634 2.21-2.153 3.48-.82 1.187-2.078 2.027-3.469 2.415l-4.32.635c-.29.044-.583.164-.875.196-.572.044-1.143-.052-1.714-.152-.567-.108-1.139-.28-1.71-.396-3.968-.755-8.084-.724-12.08-.088l-3.868-.163-4.3-.548-3.017-.129-13.382.421a55.3 55.3 0 0 0-10.83 2.21c-.838.202-1.722.287-2.596.279-1.151-.012-2.282-.303-3.426-.456-2.596-.319-5.237-.267-7.779.324-.883.196-1.79.4-2.61.8-.16.084-.312.159-.463.279.088.4.292.788.595 1.087.364.356.96.475 1.163.938.152.37.12.777-.012 1.132-.14.4-.58.615-.991.68l-.85-.12-2.566-.828c-.289-.1-.56-.239-.86-.208-.227.025-.443.101-.603.28l-1.035 1.638c-.776.844-1.907 1.275-3.05 1.327-.43.02-.874-.064-1.282-.183-.311-.084-.551-.3-.85-.368-.14-.02-.305.036-.433.024-.14 0-.292-.045-.431-.064l-3.03-.025c-1.01.109-2.021.28-3.024.529-.432.107-.863.271-1.307.239-.668-1.65.444-3.773 2.166-4.192.984-.247 2.007.216 3.018.184a5 5 0 0 0 1.561-.348c-1.486-.819-2.756-1.98-3.843-3.284l-2.082-3.073c-1.076-1.602-2.593-2.865-4.212-3.92a9.4 9.4 0 0 0-1.69-.915c-.152-.173-.173-.42-.14-.648.051-.452.248-.871.343-1.302.228-1.016.324-2.07.3-3.106.144-.159.292-.323.455-.483z" style="fill:#000;fill-rule:evenodd;stroke:none" transform="matrix(1.25 0 0 -1.25 150.853 407.712)"/></svg>