<svg xmlns="http://www.w3.org/2000/svg" xml:space="preserve" width="244.48" height="244.48"><path d="m-353.015 381.912-90.287-90.288a7.3 7.3 0 0 1-2.16-5.184c0-1.872.72-3.744 2.16-5.184l90.287-90.288a7.3 7.3 0 0 1 5.184-2.16c1.873 0 3.744.72 5.184 2.16l90.288 90.288a7.3 7.3 0 0 1 2.16 5.184c0 1.872-.72 3.745-2.16 5.184l-90.288 90.288a7.3 7.3 0 0 1-5.184 2.16 7.3 7.3 0 0 1-5.184-2.16" style="fill:#ffd520;fill-opacity:1;fill-rule:evenodd;stroke:none" transform="matrix(1.25 0 0 -1.25 557.028 480.29)"/><path d="M-352.136 380.992a6.08 6.08 0 0 0 8.611 0l90.26-90.26a6.096 6.096 0 0 0 0-8.618l-90.253-90.253a6.11 6.11 0 0 0-8.626 0l-90.252 90.253a6.095 6.095 0 0 0 0 8.618z" style="fill:#000;fill-rule:evenodd;stroke:none" transform="matrix(1.25 0 0 -1.25 557.028 480.29)"/><path d="m-350.145 378.993-90.252-90.258a3.27 3.27 0 0 1 0-4.618l90.258-90.26a3.277 3.277 0 0 1 4.617 0l90.258 90.26a3.267 3.267 0 0 1 0 4.618l-90.258 90.258a3.26 3.26 0 0 1-4.617 0z" style="fill:#ffd520;fill-opacity:1;fill-rule:evenodd;stroke:none" transform="matrix(1.25 0 0 -1.25 557.028 480.29)"/><path d="M-335.159 290.904a40.7 40.7 0 0 1-7.664-12.174 40.7 40.7 0 0 1-2.96-14.314v-40.27h-18.462l.07 40.588a62 62 0 0 0 4.315 20.443 62 62 0 0 0 11.195 18.231l10.135 10.136-21.865 21.854 12.652 12.653 57.898-57.899-12.573-12.57-23.027 23.036z" style="fill:#000;fill-rule:evenodd;stroke:none" transform="matrix(1.25 0 0 -1.25 557.028 480.29)"/></svg>