<svg xmlns="http://www.w3.org/2000/svg" xml:space="preserve" width="244.48" height="244.479" viewBox="0 0 69.483 64.161"><path d="M36.583 65.998 68.66 33.922a2.596 2.596 0 0 0 0-3.683L36.583-1.836a2.596 2.596 0 0 0-3.683 0L.825 30.239a2.594 2.594 0 0 0 0 3.683L32.9 65.998a2.595 2.595 0 0 0 3.683 0" style="fill:#ffd520;fill-opacity:1;fill-rule:evenodd;stroke:none"/><path d="M36.271 65.671a2.16 2.16 0 0 1-3.06 0L1.147 33.605a2.165 2.165 0 0 1 0-3.061L33.21-1.52a2.17 2.17 0 0 1 3.065 0l32.063 32.063a2.166 2.166 0 0 1 0 3.061z" style="fill:#000;fill-rule:evenodd;stroke:none"/><path d="m35.564 64.96 32.063-32.064c.45-.45.452-1.187 0-1.64L35.562-.81a1.165 1.165 0 0 0-1.64 0L1.857 31.255a1.16 1.16 0 0 0 0 1.64l32.065 32.066a1.16 1.16 0 0 0 1.64 0z" style="fill:#ffd520;fill-opacity:1;fill-rule:evenodd;stroke:none"/><path d="m31.063 28.824.003-4.235-4.128 1.107c-.546.2-1.16.021-1.52-.44a1.34 1.34 0 0 1-.012-1.629l9.27-12.907 9.329 12.895a1.362 1.362 0 0 1-1.658 2.06l-4.13-1.114h.002l-.01 25.235h-7.155l.007-13.09a33.1 33.1 0 0 1-6.25 7.868l-2.447-2.315a29 29 0 0 0 2.864-2.974 30 30 0 0 0 2.397-3.297 39.2 39.2 0 0 0 3.439-7.164" style="fill:#000;fill-rule:evenodd;stroke:none"/></svg>