<svg xmlns="http://www.w3.org/2000/svg" width="244.48" height="244.479" viewBox="0 0 689.977 689.973"><path d="M326.701 681.284 8.695 363.273c-5.082-5.077-8.13-11.68-8.13-17.779q.002-11.427 7.62-18.286L326.701 8.185c5.082-5.082 11.682-7.62 18.287-7.62s13.208 2.538 18.288 7.62L681.79 326.701c5.083 5.078 7.623 11.682 7.623 18.287s-2.54 13.208-7.623 18.285L362.77 681.789c-4.573 5.083-10.668 7.62-18.288 7.62-6.098 0-12.698-3.048-17.78-8.125" style="fill:#ffd520;fill-rule:evenodd;stroke:none;fill-opacity:1"/><path d="M329.798 678.546c8.406 8.403 21.975 8.403 30.38 0L678.595 360.13c8.382-8.382 8.407-22 0-30.403L360.205 11.334c-8.383-8.382-22.049-8.382-30.43 0L11.381 329.726c-8.403 8.403-8.382 22.021 0 30.403z" style="fill:#000;fill-rule:evenodd;stroke:none"/><path d="m336.844 671.492-318.41-318.41c-4.472-4.473-4.496-11.79 0-16.293l318.41-318.413c4.492-4.472 11.816-4.472 16.287 0l318.41 318.413c4.498 4.503 4.498 11.82 0 16.294l-318.41 318.41c-4.491 4.504-11.795 4.504-16.287 0" style="fill:#ffd520;fill-rule:evenodd;stroke:none;fill-opacity:1"/><path d="M455.225 305.214v142.388h48.19V305.256l22.351 6.035a8.3 8.3 0 0 0 9.518-1.919 8.294 8.294 0 0 0 .547-10.617l-56.691-78.348-56.339 78.43c-2.194 2.936-2.194 7.011.088 9.902 2.195 2.807 5.91 3.882 9.222 2.68zm-220.98 80.056V242.88h-48.19v142.35l-22.351-6.036a8.3 8.3 0 0 0-9.52 1.92 8.294 8.294 0 0 0-.547 10.615l56.692 78.348 56.334-78.433c2.195-2.935 2.195-7.006-.082-9.903-2.195-2.804-5.908-3.877-9.222-2.674zm98.045 10.008h24.926V294.745H332.29zm0 193.04h24.926V487.784H332.29zm0-385.571h24.926V102.215H332.29z" style="fill:#000;fill-rule:evenodd;stroke:none"/></svg>