<svg xmlns="http://www.w3.org/2000/svg" xml:space="preserve" width="177.564" height="177.564" viewBox="0 0 65.921 71.708"><path d="M-2.813 68.646a2.98 2.98 0 0 0 2.981 2.982h65.586a2.98 2.98 0 0 0 2.98-2.982V3.061a2.98 2.98 0 0 0-2.98-2.98H.168a2.98 2.98 0 0 0-2.981 2.98z" style="fill:#ffd520;fill-rule:evenodd;stroke:none;fill-opacity:1"/><path d="M-1.861 68.648q0 .84.594 1.434.594.593 1.434.594h65.585a1.95 1.95 0 0 0 1.433-.594q.594-.595.594-1.434V3.062q0-.84-.594-1.433a1.96 1.96 0 0 0-1.433-.593H.167q-.84 0-1.434.594a1.95 1.95 0 0 0-.594 1.432z" style="fill:#000;fill-rule:evenodd;stroke:none"/><path d="M-.425 46.994h22.251v22.252h22.273V46.994h22.253V24.72H44.099V2.47H21.826v22.25H-.425z" style="fill:#ffd520;fill-rule:evenodd;stroke:none;fill-opacity:1"/><path d="M36.722 46.996h-7.539l-5.332 5.332v7.55l5.328 5.328h7.548l5.333-5.334v-7.539z" style="fill:#fff;fill-rule:evenodd;stroke:none"/><path d="m25.037 58.626 1.219-5.056h.71l1.242 5.056h-.729l-.356-1.42h-1.006l-.349 1.42zm3.55 0v-5.041h1.743c.308.028 1.003.315 1.003 1.305 0 .687-.243 1.028-.684 1.241l.719 2.495h-.744l-.681-2.369h-.63v2.37zm3.444 0v-5.041h1.742c.308.028 1.003.315 1.003 1.305 0 .687-.243 1.028-.684 1.241l.718 2.495h-.743l-.681-2.369h-.629v2.37zm3.443 0v-5.051h2.45v.715H36.19v1.264h1.065v.706h-1.068v1.655h1.808v.711zm3.786 0V54.21h-.906v-.64h2.526v.64h-.905v4.417zm-3.012-6.148h.961l.437.678h-.674l-.238-.327-.243.337h-.712zm-6.868-5.004-5.052 5.052v7.153l5.048 5.049h7.153l5.053-5.054v-7.143l-5.058-5.057z" style="fill:#c0111e;fill-rule:evenodd;stroke:none;fill-opacity:1"/><path d="M32.744 55.548h.908c.265-.061.43-.242.43-.628 0-.47-.214-.637-.48-.637h-.858zm-3.444 0h.91c.264-.061.429-.242.429-.628 0-.47-.214-.637-.479-.637h-.86zm-3.014.942h.658l-.331-1.353z" style="fill:#c0111e;fill-rule:evenodd;stroke:none;fill-opacity:1"/><path d="M29.192 24.722h7.54l5.331-5.332v-7.55l-5.328-5.328h-7.547l-5.334 5.334v7.539z" style="fill:#fff;fill-rule:evenodd;stroke:none"/><path d="m40.876 13.09-1.22 5.058h-.71l-1.242-5.057h.73l.356 1.42h1.006l.348-1.42zm-3.55 0v5.043h-1.743c-.307-.029-1.003-.315-1.003-1.305 0-.688.243-1.028.684-1.241l-.718-2.496h.744l.68 2.37h.63v-2.37zm-3.44 0v5.043h-1.742c-.308-.029-1.003-.315-1.003-1.305 0-.688.243-1.028.684-1.241l-.719-2.496h.744l.68 2.37h.629v-2.37zm-3.447 0v5.053h-2.45v-.715h1.735v-1.265h-1.066v-.706h1.068v-1.654h-1.808v-.712zm-3.783 0v4.419h.906v.64h-2.526v-.64h.905v-4.418zm3.005 6.147H28.7l-.437-.678h.674l.238.328.243-.338h.712zm6.872 5.007 5.052-5.052v-7.153L36.537 6.99h-7.153l-5.053 5.053v7.143l5.058 5.057z" style="fill:#c0111e;fill-rule:evenodd;stroke:none;fill-opacity:1"/><path d="M33.17 16.168h-.907c-.265.061-.43.241-.43.628 0 .47.213.637.479.637h.859zm3.441 0h-.908c-.265.061-.43.241-.43.628 0 .47.214.637.479.637h.86zm3.017-.944h-.657l.33 1.352z" style="fill:#c0111e;fill-rule:evenodd;stroke:none;fill-opacity:1"/></svg>