<svg xmlns="http://www.w3.org/2000/svg" width="242.438" height="242.441"><path d="M-822.03-162.444c5.864 5.864 15.339 5.864 21.203 0l106.023-106.022c5.854-5.863 5.862-15.353.006-21.202l-106.03-106.022c-5.848-5.863-15.354-5.863-21.202 0l-106.03 106.022c-5.855 5.863-5.847 15.354.007 21.202z" style="fill:#ffde00;fill-rule:evenodd;stroke:none;fill-opacity:1" transform="translate(932.648 400.287)"/><path d="M-819.945-164.528c4.707 4.709 12.326 4.709 17.033 0L-696.89-270.55c4.708-4.707 4.708-12.325 0-17.034l-106.024-106.022c-4.706-4.708-12.325-4.708-17.032 0l-106.023 106.022c-4.708 4.71-4.708 12.327 0 17.034z" style="fill:#000;fill-rule:evenodd;stroke:none;fill-opacity:1" transform="translate(932.648 400.287)"/><path d="M-816.812-167.66c2.97 2.968 7.797 2.968 10.765 0l106.031-106.024a7.614 7.614 0 0 0-.008-10.766l-106.023-106.022c-2.968-2.969-7.796-2.985-10.765-.015l-106.03 106.036c-2.969 2.97-2.969 7.798 0 10.767z" style="fill:#ffde00;fill-rule:evenodd;stroke:none;fill-opacity:1" transform="translate(932.648 400.287)"/><path d="M-864.064-242.69h19.485l-27.47-48.063c-2.774.03-5-2.288-4.85-5.054a4.79 4.79 0 0 1 4.447-4.528l18.726-.037 9.334-16.86c.563-1.005 1.079-1.305 2.197-1.8l13.893-6.096c1.251-.553 1.753-.156 2.593.173l22.692 9.093a4.8 4.8 0 0 1 2.012 1.951l11.108 17.452c.473.983.6 2.122.383 3.201h46.43v3.09h-48.634c-2.032 1.192-5.009.682-6.275-1.275l-10.518-16.284-13.517-5.007 36.975 63.05c1.319 2.345.525 5.607-1.791 7.055h37.455v6.44H-863.38c-9.026 0-14.118-5.818-13.578-13.098 2.976 4.048 7.88 6.597 12.895 6.597m22.687-.008-27.378-47.966 17.498-.007c3.26-.015 4.04-1.29 5.06-3.164l6.956-12.723 10.414 19.065-9.925 16.674c-1.043 1.17-1.477 2.842-1.335 4.402v23.72zm13.118.135v-22.566l10.511-17.227 22.836 39.8zm-15.12-98.223c4.685 0 8.494 3.809 8.494 8.494 0 4.686-3.809 8.493-8.494 8.493-4.686 0-8.493-3.807-8.493-8.493 0-4.685 3.807-8.494 8.493-8.494" style="fill:#000;fill-rule:evenodd;stroke:none;fill-opacity:1" transform="translate(932.648 400.287)"/></svg>