<svg xmlns="http://www.w3.org/2000/svg" width="245.268" height="245.26" viewBox="0 0 196.215 196.208"><path d="m92.667 193.792-90.25-90.25c-3.01-3-3.01-7.874 0-10.882l90.25-90.25c3-3 7.882-3 10.882 0l90.25 90.25c3.008 3.008 3.008 7.882 0 10.882l-90.25 90.25a7.69 7.69 0 0 1-10.882 0" style="fill:#ffd520;fill-rule:evenodd;stroke:none;fill-opacity:1"/><path d="M93.801 192.672a6.08 6.08 0 0 0 8.612 0l90.26-90.26a6.095 6.095 0 0 0 0-8.618L102.42 3.54a6.11 6.11 0 0 0-8.626 0L3.542 93.794a6.096 6.096 0 0 0 0 8.618z" style="fill:#000;fill-rule:evenodd;stroke:none"/><path d="M95.798 190.672 5.541 100.415a3.274 3.274 0 0 1 0-4.62L95.798 5.538a3.28 3.28 0 0 1 4.617 0l90.258 90.259a3.267 3.267 0 0 1 0 4.619l-90.258 90.257a3.26 3.26 0 0 1-4.617 0" style="fill:#ffd520;fill-rule:evenodd;stroke:none;fill-opacity:1"/><path d="M56.204 145.783H75.71v-26.908A39.86 39.86 0 0 1 88.529 92.49a39.86 39.86 0 0 1 26.797-10.483l-5.01 10.92a4.857 4.857 0 0 0 7.607 5.655l36.425-25.742-36.702-26.218a4.875 4.875 0 0 0-5.798.071 4.864 4.864 0 0 0-1.493 5.863l4.233 10.57a58.99 58.99 0 0 0-58.385 56.226z" style="fill:#000;fill-rule:evenodd;stroke:none"/></svg>