<svg xmlns="http://www.w3.org/2000/svg" xml:space="preserve" width="245.268" height="245.26" viewBox="0 0 69.707 64.366"><path d="M36.786 66.177 68.85 34.115a2.73 2.73 0 0 0 0-3.866L36.786-1.813a2.737 2.737 0 0 0-3.866 0L.858 30.249a2.73 2.73 0 0 0 0 3.866L32.92 66.177a2.73 2.73 0 0 0 3.866 0" style="fill:#ffd520;fill-opacity:1;fill-rule:evenodd;stroke:none"/><path d="M36.383 65.78a2.16 2.16 0 0 1-3.059 0L1.258 33.713a2.165 2.165 0 0 1 0-3.062L33.321-1.411a2.17 2.17 0 0 1 3.065 0l32.063 32.063a2.166 2.166 0 0 1 0 3.062z" style="fill:#000;fill-rule:evenodd;stroke:none"/><path d="m35.676 65.069 32.063-32.065c.45-.45.452-1.187 0-1.64L35.674-.703a1.165 1.165 0 0 0-1.64 0L1.969 31.363a1.16 1.16 0 0 0 0 1.641l32.065 32.065a1.16 1.16 0 0 0 1.64 0z" style="fill:#ffd520;fill-opacity:1;fill-rule:evenodd;stroke:none"/><path d="m36.389 36.077-3.678-.006v-.71a2 2 0 0 0-.623-1.485 1.97 1.97 0 0 0-1.424-.562 2.02 2.02 0 0 0-2.011 2.023v.81H17.975v-.776c0-.532-.18-1.032-.558-1.407-.382-.385-.955-.64-1.496-.63a2 2 0 0 0-1.483.617 1.92 1.92 0 0 0-.532 1.423v.779H7.85l-.015-2.904a6 6 0 0 1 .294-1.44l.299.004.722-2.365a.45.45 0 0 0-.064-.382l-.167-.327a8.7 8.7 0 0 1 2.813-.522l22.11-.013c.401 0 .806-.027 1.203.035q.655.101 1.294.277l-.288 1.236.34 2.933zM14.85 31.524l.802-1.366a.34.34 0 0 0-.092-.302.34.34 0 0 0-.26-.097l-4.61-.006a.6.6 0 0 0-.259.054.4.4 0 0 0-.145.126l-.756 1.401a.347.347 0 0 0 .33.43l4.665-.004a.4.4 0 0 0 .17-.058.4.4 0 0 0 .155-.178m6.293 0 .802-1.366a.34.34 0 0 0-.093-.302.34.34 0 0 0-.26-.097l-4.61-.006a.6.6 0 0 0-.258.054.4.4 0 0 0-.146.126l-.755 1.401a.345.345 0 0 0 .33.43l4.664-.004a.4.4 0 0 0 .17-.058.4.4 0 0 0 .156-.178m9.515 0 .802-1.366a.34.34 0 0 0-.093-.302.34.34 0 0 0-.26-.097l-4.61-.006a.6.6 0 0 0-.258.054.4.4 0 0 0-.145.126l-.756 1.401a.345.345 0 0 0 .33.43l4.665-.004a.4.4 0 0 0 .325-.236m.05 2.138a1.648 1.648 0 0 1 0 3.295 1.648 1.648 0 0 1 0-3.295m-14.784 0a1.648 1.648 0 0 1 0 3.295 1.648 1.648 0 0 1 0-3.295M35.98 32.7l-.333-2.619-2.17.002.002 2.62zm-11.101-1.33.002-1.253a.336.336 0 0 0-.355-.358l-1.846.002a.32.32 0 0 0-.225.098.31.31 0 0 0-.096.248l-.006 1.285c-.008.1.027.201.098.275a.34.34 0 0 0 .23.095h1.843a.35.35 0 0 0 .355-.392m8.12 1.325L33 30.097a13 13 0 0 0-1.065 1.431.795.795 0 0 0 .748 1.168zm11.353-3.085.002-3.436-3.35.898a1.09 1.09 0 0 1-1.242-1.677l7.523-10.475 7.57 10.463a1.105 1.105 0 0 1-.074 1.417 1.11 1.11 0 0 1-1.272.254l-3.352-.902h.003l-.008 20.477h-5.807l.007-10.622a27 27 0 0 1-2.445 3.572 26.6 26.6 0 0 1-2.629 2.81l-1.985-1.879a23 23 0 0 0 2.325-2.412 25 25 0 0 0 1.944-2.673q.944-1.547 1.709-3.187.6-1.291 1.081-2.629" style="fill:#000;fill-rule:evenodd;stroke:none"/></svg>