<svg xmlns="http://www.w3.org/2000/svg" width="177.566" height="177.565" viewBox="0 0 142.052 142.052"><path d="M1.413 67.999a4.283 4.283 0 0 0 0 6.055L68 140.639a4.28 4.28 0 0 0 6.054 0l66.586-66.587a4.28 4.28 0 0 0 0-6.052L74.053 1.415A4.28 4.28 0 0 0 68 1.413z" style="fill:#ffd520;fill-rule:evenodd;stroke:none;fill-opacity:1"/><path d="M2.385 68.968a2.8 2.8 0 0 0-.853 2.058q0 1.206.853 2.059l66.586 66.586a2.8 2.8 0 0 0 2.057.851q1.206 0 2.06-.852l66.585-66.586a2.8 2.8 0 0 0 .853-2.058q0-1.206-.853-2.057L73.087 2.383a2.8 2.8 0 0 0-2.059-.853 2.8 2.8 0 0 0-2.057.852z" style="fill:#000;fill-rule:evenodd;stroke:none"/><path d="M3.837 70.42a.82.82 0 0 0-.25.606q0 .356.25.606l66.586 66.588a.82.82 0 0 0 .603.249.83.83 0 0 0 .608-.251L138.22 71.63a.82.82 0 0 0 .251-.605.83.83 0 0 0-.25-.604L71.633 3.836a.83.83 0 0 0-.608-.251.82.82 0 0 0-.603.249z" style="fill:#ffd520;fill-rule:evenodd;stroke:none;fill-opacity:1"/><path d="m54.67 50.669 3.511 1.017a1.14 1.14 0 0 0 1.168-.417c.306-.4.306-.96.002-1.369l-7.8-11.163-7.817 11.06a1.15 1.15 0 0 0-.037 1.305c.246.38.69.584 1.141.52l3.52-.996v15.237a17.8 17.8 0 0 0-7.516-4.06l1.635-3.518a1.13 1.13 0 0 0-.159-1.1 1.08 1.08 0 0 0-1.333-.287l-12.499 5.514 9.417 9.924c.3.31.748.417 1.154.273.457-.157.746-.59.737-1.067l-.216-3.667a11.74 11.74 0 0 1 5.672 3.72c1.815 2.173 3.175 4.933 3.108 7.764l-.01 31.713h6.33zM87.485 67.3q0-1.596.284-3.17.281-1.56.834-3.047a17.9 17.9 0 0 1 3.212-5.446 17.7 17.7 0 0 1 4.1-3.514 17.8 17.8 0 0 1 4.874-2.105l.08-.018-1.618-3.482a1.09 1.09 0 0 1 .158-1.096 1.09 1.09 0 0 1 1.331-.29l12.495 5.51-9.415 9.928c-.21.216-.498.335-.79.335q-.186 0-.367-.064a1.11 1.11 0 0 1-.734-1.048v-.02l.213-3.627-.064.023q-1.61.488-3.018 1.412a11.6 11.6 0 0 0-3.713 3.947q-.504.881-.85 1.836a11.7 11.7 0 0 0-.697 3.907v43.807h-6.315zM74.23 50.627l3.52.997a1.16 1.16 0 0 0 1.135-.52 1.16 1.16 0 0 0-.038-1.304l-7.816-11.062-7.808 11.164a1.14 1.14 0 0 0 .004 1.368c.271.359.73.52 1.164.417l3.52-1.016.008 60.403h6.33zM60.731 85.134h2.054v25.938h-2.054zm18.647 0h2.055v25.938h-2.055z" style="fill:#000;fill-rule:evenodd;stroke:none"/></svg>