<svg xmlns="http://www.w3.org/2000/svg" width="1021.33" height="1021.33" viewBox="0 0 1021.33 1021.33"><g transform="translate(0 442.66)"><rect width="750" height="750" x="-61.992" y="34.181" rx="50" ry="50" style="fill:#fddf12;fill-opacity:1;fill-rule:evenodd;stroke:none;stroke-width:1.09032;stroke-linecap:round" transform="rotate(-45)"/><rect width="730" height="730" x="-51.992" y="44.181" rx="40" ry="40" style="fill:#000;fill-opacity:1;fill-rule:evenodd;stroke:none;stroke-width:1.06124;stroke-linecap:round" transform="rotate(-45)"/><rect width="700" height="700" x="-36.992" y="59.181" rx="25" ry="25" style="fill:#fddf12;fill-opacity:1;fill-rule:evenodd;stroke:none;stroke-width:1.01763;stroke-linecap:round" transform="rotate(-45)"/><path d="m401.267-229.995-1.853 3.814-3.92 29.4c-.616 4.344-3.708 8.362-8.043 8.78-1.852.199-3.606-.418-5.256-1.238-4.946-3.198-8.968-7.635-12.476-12.484-3.4-4.547-6.804-9.286-9.586-14.344-1.65-3.507-3.813-8.77-7.631-7.12l-1.133 1.548 7.629 23.003c1.442 4.338-2.267 8.67-5.775 11.356-4.533 1.338-8.964 2.681-12.575 5.676-1.65 1.547-2.272 3.919-1.65 5.879.826 2.168 3.197 3.088 5.36 3.302 14.43-2.79 29.9-3.616 43.093 2.885 15.26 7.332 25.676 23.01 27.424 39.936l-.098 2.058c-2.888 1.343-6.085 2.06-9.28 2.89-7.942 1.757-15.36 5.572-23.403 6.806-12.992 2.069-26.293.417-38.662 4.75-5.159 1.756-9.796 5.673-10.516 10.941-.21 1.85 0 3.705.826 5.461.824 1.86 3.09 2.682 3.502 4.855.518 2.164-1.03 4.123-.617 6.391.82 3.413 3.297 6.612 6.596 7.95 1.134.517 2.371.615 3.607.929 5.775.622 11.755.623 17.426 2.17 5.363 1.338 10.518 3.397 15.469 6.088l13.398 10.205c-6.183 11.659-10.721 24.357-13.61 37.254-5.462 25.073-3.502 51.177.106 76.559.412 5.978-2.063 12.27-6.187 16.504-3.09 3.305-7.218 5.053-11.239 6.605l-47.941 7.531c-12.37 1.96-23.92 7.117-34.844 13.412l-46.81 30.332c-14.952 9.805-32.482 15.067-47.633 24.25-4.023 3.1-6.19 8.46-4.953 13.518.93 3.71 3.609 6.914 7.015 8.46 4.124 1.857 8.972 1.134 13.196-.103a44.5 44.5 0 0 0 15.466-8.46c2.065-1.756 3.61-4.132 5.77-5.881 1.858-1.551 4.335-2.376 6.601-2.889 9.897-2.476 17.53-9.7 25.467-16.098 12.68-10.524 28.043-17.542 43.817-22.082a160 160 0 0 1 25.984-4.642c16.084-1.756 32.474-.72 48.762-1.237 7.943-.414 15.88-1.756 23.719-1.24 2.266 1.035 2.882 4.232 1.748 6.399-3.399 3.098-7.938 4.33-12.266 5.779-5.98 2.064-12.168 3.815-18.043 6.191-14.748 6.084-28.15 14.86-40.625 24.762l-64.85 58.399c-7.317 6.605-16.287 12.069-19.691 21.357-1.134 3.099-.31 7.016 2.166 9.285 1.958 1.86 4.742 2.372 7.42 2.065 6.6-1.652 13.095-4.334 19.076-7.635 2.475-1.548 5.054-2.891 7.426-4.643 3.196-2.58 5.978-5.987 9.693-7.947 1.336-.616 2.983-.72 4.432-1.547 1.238-.722 2.161-1.754 3.197-2.785 7.11-15.165 18.146-27.963 31.031-38.488 16.496-13.31 36.7-21.666 57.118-26.928l41.033-7.944c11.755-2.267 22.06-8.977 30.515-17.228 1.959-2.066 3.61-4.542 6.188-5.781 16.803 6.397 34.95 8.768 52.785 7.529 28.974-1.545 56.295-13.72 81.762-27.234 14.637-5.467 32.784-7.118 44.021 3.61 6.084 9.904 12.886 20.428 23.2 25.997 7.629 4.13 17.106 4.44 25.566 1.967 8.146-2.582 15.263-8.153 21.754-13.828l4.539-1.448c12.167 0 25.36 2.065 33.502 11.147l5.16 9.803 10 36.111c2.475 8.77 7.425 17.125 15.67 20.736l17.014 5.057c3.503 1.029 5.565 4.229 8.552 5.984 3.097 1.96 7.634 2.065 10.522-.105 4.125-3.094 4.324-9.698 1.338-14.03-1.03-1.443-2.882-2.477-4.328-3.716-3.713-2.885-7.63-5.466-11.96-7.426-3.608-5.78-7.739-11.455-12.58-16.201-3.712-3.61-7.936-6.91-10.515-11.553a41.2 41.2 0 0 1-3.301-7.947l-5.254-31.983c-.825-4.648-2.991-9.391-6.808-12.484-5.264-2.89-10.412-5.572-15.77-7.844-2.063-.826-4.847-1.345-5.88-3.404-1.547-3.303 2.37-5.986 5.362-7.633 2.778-1.343 5.776-2.892 8.868-3.305 5.362-.72 10.517 1.752 14.433 5.467 8.454 12.485 19.481 23.32 31.549 32.297 4.433 2.995 9.28 4.744 14.54 5.467h18.964c2.376.104 4.95-.82 6.396-2.885 2.058-3.305 1.332-7.95-1.341-10.94-4.126-1.959-8.867-2.272-13.405-3.609-1.336-.414-2.475-1.034-3.091-2.373-1.551-3.303-2.167-7.018-4.538-9.802-1.133-1.24-2.37-2.374-3.816-3.303-14.637-4.542-28.454-12.589-38.35-24.143-5.67-6.501-10.21-14.029-14.021-21.773-5.055-5.775-13.41-7.426-20.621-5.367-9.692 2.895-17.733 9.604-24.026 17.443-3.195 3.917-5.257 8.562-8.662 12.277l-.308-.209c-.925-12.376-2.988-24.656-6.905-36.414l-11.242-26.113c6.501-7.938 10.523-17.33 12.48-27.342 3.3-16.916-1.236-35.075-11.544-49.002-1.447 15.782-4.543 31.363-11.242 45.697l-5.772 11.358c-1.034 1.651-1.546 3.715-2.992 5.058l-17.838-4.54-6.803-.624L519.732 1.634c-14.02 1.03-28.145-.308-41.963-2.676-10.62-3.098-17.935-13.524-18.662-24.357 2.685-21.97 2.789-44.362-.412-66.033l.313-5.264c6.288.413 12.781-.301 19.068-1.854 5.777-1.337 11.756-3.716 15.16-8.566 3.093-4.128 3.916-10.106.615-13.932-1.336-1.541-3.089-2.465-4.949-2.988-1.958-.308-3.917.204-5.77.418-8.455 1.129-16.396 4.228-24.85 5.461l-.407-.414c.406-.408.72-.716 1.133-1.129 3.504-2.79 7.42-5.365 10.824-8.459a124.7 124.7 0 0 0 30.103-39.623c5.67-11.758 11.86-25.386 7.22-37.865l-3.093-.723c-2.476 1.129-4.022 3.508-5.568 6.09-1.65 6.5-3.922 13-8.146 18.467-1.545 1.86-4.537 3.5-6.7 2.168-1.754-.831-2.375-3.1-2.06-5.059l7.42-19.187c1.956-4.85 1.648-10.427.824-15.684-.93-1.866-3.3-2.477-5.258-1.756-2.784 3.198-4.225 7.328-5.771 11.352-2.27 5.361-4.125 11.14-5.88 16.81-1.854 4.547-6.804 7.849-11.755 7.436-2.266-.309-4.532-1.04-6.39-2.168-3.197-3.1-6.287-6.6-8.56-10.53-4.224-7.007-6.182-15.16-10.202-22.283-1.446-1.954-4.645-2.268-6.293-.617l-1.442 4.332c.824 8.152.204 16.822-3.816 24.04-1.855 3.72-4.02 7.326-7.42 9.907-2.062 1.86-5.055 2.577-7.426 1.338-3.092-1.96-3.197-6.088-3.197-9.699-.204-12.589 3.302-25.178.931-37.662z" style="fill:#000;fill-opacity:1;fill-rule:evenodd;stroke:none;stroke-width:.522381"/><path d="M442.022-176.832a28.3 28.3 0 0 0-8.976 1.158l-1.65 3.92c-.309 1.756-.105 3.501-.413 5.158-.516 2.785-1.65 5.674-2.888 8.145.308.314.615.314 1.027.209 3.61-1.244 7.636-1.96 11.552-1.338l2.06 1.541.415 5.884-3.196 13.31c-.825 1.54-1.549 3.714-.103 5.057 1.028.82 2.474.82 3.502.203 1.341-.622 1.238-2.482 1.65-4.029.21-1.541.824-2.883 1.133-4.226 1.342-4.535 1.547-9.285 3.197-13.82 2.062-1.761 6.29-1.855 6.702 1.129l1.135 7.434c.93.925 2.06 1.443 3.299 1.338 1.336 0 2.371-1.029 3.093-1.959 2.578-2.785 4.124-6.093 5.154-9.489-.106-.83-.52-1.447-.932-2.174-1.75-3.913-4.223-7.524-7.315-10.309-5.104-4.472-11.766-6.942-18.446-7.142" style="fill:#fddf12;fill-opacity:1;fill-rule:evenodd;stroke:none;stroke-width:.52233"/></g></svg>