<svg xmlns="http://www.w3.org/2000/svg" width="81.8" height="104.12" viewBox="0 0 230.857 293.85"><path d="m395 375-80 170-80-170 80-170z" style="fill:none;stroke:#fff;stroke-width:40" transform="translate(733.978 -348.864)"/><path d="M1.129 252.59V41.26c0-22.35 17.78-40.13 40.131-40.13h147.827c22.352 0 40.64 17.78 40.64 40.132V252.59c0 22.352-18.288 40.132-40.64 40.132H41.26c-21.846 0-40.132-17.78-40.132-40.132z" style="fill:#fff;fill-opacity:1;fill-rule:evenodd;stroke:#000;stroke-opacity:1;stroke-width:1.12888892;stroke-miterlimit:4;stroke-dasharray:none"/><path d="M4.085 252.508c0 20.61 16.65 37.257 37.255 37.257h147.949c20.581 0 37.26-16.648 37.26-37.257V41.161c0-20.581-16.679-37.259-37.26-37.259H41.339c-20.604 0-37.254 16.678-37.254 37.259z" style="fill:#000;fill-opacity:1;fill-rule:evenodd;stroke:none"/><path d="M9.07 252.508V41.161c0-17.815 14.435-32.27 32.27-32.27h147.949c17.819 0 32.272 14.455 32.272 32.27v211.347c0 17.837-14.453 32.272-32.272 32.272H41.339c-17.834 0-32.27-14.435-32.27-32.272" style="fill:#fff;fill-opacity:1;fill-rule:evenodd;stroke:none"/><path d="M100.792 23.436c-2.415 0-4.175 1.98-4.175 4.22a4.2 4.2 0 0 0 .572 2.112l48.535 84.036c.766 1.334 2.06 1.974 3.412 1.974a4.22 4.22 0 0 0 3.686-2.132l48.581-84.109a3.97 3.97 0 0 0 .547-1.98c0-2.133-1.77-4.1-4.18-4.108z" style="fill:#c0111e;fill-opacity:1;fill-rule:evenodd;stroke:none"/><path d="m43.29 233.285-11.638-3.136a3.85 3.85 0 0 0-4.416.882 3.85 3.85 0 0 0-.252 4.925l26.28 36.322 26.11-36.358a3.785 3.785 0 0 0-.031-4.596 3.79 3.79 0 0 0-4.282-1.235l-11.624 3.115.024-59.28H43.307l-.024 59.361z" style="fill:#000;fill-opacity:1;fill-rule:evenodd;stroke:none"/><path d="m63.581 70.1 11.728 3.366a3.82 3.82 0 0 0 4.289-1.237c1.047-1.344 1.047-3.239.027-4.6L53.511 31.27 27.232 67.603a3.84 3.84 0 0 0 4.668 5.802L44 70.169v8.178h19.613z" style="fill:#c0111e;fill-opacity:1;fill-rule:evenodd;stroke:none"/><path d="M125.3 45.12c-1.288-2.22.307-5.013 2.884-5.013l42.058.013c2.551 0 4.21 2.746 2.921 4.982l-21.029 36.411c-1.28 2.219-4.501 2.26-5.792.028z" style="fill:#fff;fill-opacity:1;fill-rule:evenodd;stroke:none"/><path d="M152.004 171.31a27 27 0 0 1 4.84 8.741l18.041-6.177a35.8 35.8 0 0 0-6.59-12.488zM71.74 106.287l-14.325 12.585a71.3 71.3 0 0 0 9.333 9.797l11.785-15.016a53.3 53.3 0 0 1-6.794-7.366m60.957 45.21a43 43 0 0 1 7.75 5.267l13.6-13.825a41 41 0 0 0-11.867-8.188zm10.16 7.62a53 53 0 0 1 6.354 7.75l16.506-9.577a71.3 71.3 0 0 0-8.396-10.605zM66.151 94.601l-17.9 7.06a40.8 40.8 0 0 0 6.46 12.887l15.578-11.544a42.6 42.6 0 0 1-4.138-8.403m93.469 102.616v26.653h19.297v-26.653zm-76.705-80.264L70.82 131.706a35.7 35.7 0 0 0 11.451 8.27l8.63-17.011a26.9 26.9 0 0 1-7.986-6.012M63.626 81.934h-19.61c0 4.83.876 9.711 2.574 14.242l18.545-5.13c-.916-2.983-1.274-5.994-1.509-9.112m94.47 101.567a42.3 42.3 0 0 1 1.75 9.204l19.382-.162c0-4.83-.882-9.641-2.586-14.171zm1.524 44.659v43.966h19.297V228.16zM94.091 124.069l-7.658 17.65a40.5 40.5 0 0 0 13.67 4.532l2.856-19.177a42.3 42.3 0 0 1-8.868-3.005m25.907 23.872a27.1 27.1 0 0 1 9.608 2.766l8.382-17.138a35.4 35.4 0 0 0-13.476-4.173zm-14.731-1.016a52.3 52.3 0 0 1 9.97 1.002l4.91-18.464a72.6 72.6 0 0 0-13.45-1.567z" style="fill:#c0111e;fill-opacity:1;fill-rule:evenodd;stroke:none"/><path d="M104.76 176.39v24.514h11.04v-24.515zm0 71.12v24.514h11.04v-24.515zm0-35.56v24.514h11.04v-24.515z" style="fill:#000;fill-opacity:1;fill-rule:evenodd;stroke:none"/></svg>