<svg xmlns="http://www.w3.org/2000/svg" width="180.7" height="180.699"><path d="M199.996 894.626v-159.83c0-5.324 4.306-9.64 9.63-9.64h159.83c5.315 0 9.64 4.326 9.64 9.64v159.83c0 5.325-4.315 9.63-9.64 9.63h-159.83a9.62 9.62 0 0 1-9.63-9.63z" style="fill:#fff;fill-rule:evenodd;stroke:#000;stroke-opacity:1" transform="translate(-199.196 -724.357)"/><path d="M203.17 894.627a6.453 6.453 0 0 0 6.456 6.455H369.46a6.46 6.46 0 0 0 6.456-6.455V734.792a6.464 6.464 0 0 0-6.456-6.455H209.626a6.46 6.46 0 0 0-6.456 6.455z" style="fill:#008460;fill-rule:evenodd;stroke:none" transform="translate(-199.196 -724.357)"/><path d="m294.474 815.16 2.347 2.076.173 14.557c.423-.038.846.113 1.17.391.27.242.453.567.521.922l.045 6.361c-.03.34-.166.657-.393.89-.264.317-.648.5-1.048.521l-8.052.016.007 8.195c-.007.34-.15.664-.392.896a1.3 1.3 0 0 1-.814.385l-6.498-.022a1.35 1.35 0 0 1-.982-.346 1.26 1.26 0 0 1-.407-.891v-8.301h-47.797v8.3a1.26 1.26 0 0 1-.4.892 1.38 1.38 0 0 1-.989.346l-6.498.022a1.32 1.32 0 0 1-.814-.385 1.32 1.32 0 0 1-.393-.896l.007-8.195-8.043-.016a1.47 1.47 0 0 1-1.057-.521 1.46 1.46 0 0 1-.393-.89l.046-6.361c.067-.355.249-.68.52-.922.325-.278.747-.43 1.178-.391l.166-14.557 2.565-2.264 5.493-18.844a122 122 0 0 1 15.237-2.701c4.61-.52 9.251-.77 13.892-.746l6.354.015c4.77-.047 9.553.211 14.3.731a121 121 0 0 1 15.236 2.701l4.776 16.377 9.154-14.995h14.866v43.42l-16.45-.029-.053-7.916c0-.016.09-.679-.272-1.509-.408-.943-1.44-1.336-1.44-1.314l-.145-12.488 16.156-.069v-17.877h-11.545z" style="fill:#fff;fill-rule:evenodd;stroke:none" transform="translate(-199.196 -724.357)"/><path d="m231.16 814.616.006-.022 1.192-1.716 5.746-2.682.42-.974h6.046l.412.982 5.747 2.674 1.221 1.738h33.882l-2.082-16.29c-.053-.298-.226-.539-.458-.731a1.3 1.3 0 0 0-.712-.248h-52.567c-.255.014-.51.089-.713.248-.23.192-.404.433-.464.732l-2.075 16.289z" style="fill:#008460;fill-rule:evenodd;stroke:none" transform="translate(-199.196 -724.357)"/><path d="m331.306 845.756 11.285-21.38.068-21.264-4.264 6.177-6.923 5.78a2.313 2.313 0 0 1-2.94-3.567l6.64-5.516 7.493-11.908a2.31 2.31 0 0 1 1.942-1.258l7.748-.327a2.6 2.6 0 0 1 2.034 1.067l10.026 14.082-3.93 9.017a2.281 2.281 0 1 1-4.199-1.781l2.644-6.064-4.869-7.896-.044 15.877-17.453 31.697a2.97 2.97 0 0 1-3.927 1.25 2.96 2.96 0 0 1-1.33-3.986" style="fill:#fff;fill-rule:evenodd;stroke:none" transform="translate(-199.196 -724.357)"/><path d="m347.326 831.716 6.663-12.358v11.224l10.81 14.947a3.014 3.014 0 0 1-4.825 3.61zm0-52.741c3.063 0 5.581 2.512 5.581 5.581s-2.518 5.574-5.58 5.574a5.586 5.586 0 0 1-5.575-5.574c0-3.069 2.505-5.58 5.574-5.58m-105.839 20.32c2.43 0 4.43 1.994 4.43 4.43s-2 4.424-4.43 4.424a4.433 4.433 0 0 1-4.424-4.424c0-2.436 1.988-4.43 4.424-4.43" style="fill:#fff;fill-rule:evenodd;stroke:none" transform="translate(-199.196 -724.357)"/></svg>