<svg xmlns="http://www.w3.org/2000/svg" xml:space="preserve" width="90.961" height="81.078" viewBox="0 0 90.961 81.078"><path fill="#fff" d="M86.883.75H4.076C2.242.75.75 2.654.75 4.994v71.09c0 2.34 1.492 4.244 3.326 4.244h82.807c1.835 0 3.328-1.904 3.328-4.244V4.994c0-2.34-1.493-4.244-3.328-4.244"/><path d="M86.883 0H4.076C1.829 0 0 2.24 0 4.994v71.089c0 2.754 1.829 4.995 4.076 4.995h82.807c2.249 0 4.078-2.241 4.078-4.994V4.994C90.961 2.24 89.132 0 86.883 0m3.328 76.084c0 2.34-1.493 4.244-3.328 4.244H4.076c-1.834 0-3.326-1.904-3.326-4.244V4.994C.75 2.654 2.242.75 4.076.75h82.807c1.835 0 3.328 1.904 3.328 4.244z"/><path d="M87.37 69.169H3.588a.397.397 0 0 1-.397-.397V7.428c0-2.512 1.672-4.555 3.727-4.555h77.123c2.055 0 3.727 2.043 3.727 4.555v61.344c0 .22-.178.397-.398.397m-83.385-.794h82.988V7.428c0-2.074-1.314-3.761-2.933-3.761H6.918c-1.617 0-2.933 1.687-2.933 3.761z"/><path fill="#fff" d="M85.766 72.436c0 2.168-1.408 3.926-3.146 3.926H8.34c-1.738 0-3.146-1.758-3.146-3.926V8.643c0-2.169 1.408-3.926 3.146-3.926h74.279c1.738 0 3.146 1.757 3.146 3.926v63.793z"/><path d="M82.619 76.736H8.34c-1.941 0-3.521-1.93-3.521-4.301V8.643c0-2.372 1.58-4.301 3.521-4.301h74.279c1.941 0 3.521 1.93 3.521 4.301v63.792c.001 2.372-1.579 4.301-3.521 4.301M8.34 5.092c-1.528 0-2.771 1.593-2.771 3.551v63.792c0 1.959 1.243 3.551 2.771 3.551h74.279c1.527 0 2.771-1.592 2.771-3.551V8.643c0-1.958-1.244-3.551-2.771-3.551z"/><path d="M84.398 71.402c0 2.061-1.338 3.729-2.986 3.729H9.547c-1.65 0-2.986-1.67-2.986-3.729V9.678c0-2.061 1.336-3.729 2.986-3.729h71.865c1.648 0 2.986 1.669 2.986 3.729z"/><path fill="#f3901d" d="M54.611 24.639V38.71l1.528 1.481v-.001.001l1.523-1.481V24.639l-1.523-1.48zm.616 17.134-.614.598v14.068l.508.495 1.018.987 1.523-1.482V42.371l-1.523-1.482zm21.565.125 1.396-1.358-1.516-1.474h-10.5l-1.52 1.474 1.52 1.476h10.5zM65.82 24.639l-1.525-1.479-1.522 1.478V38.71l1.522 1.481 1.525-1.481zm11.203 17.732v14.068l1.524 1.483 1.523-1.483V42.371l-1.523-1.483zm-.351-18.088 1.516-1.472-1.516-1.476h-10.5l-1.518 1.476 1.518 1.472zm-10.5 32.512-1.52 1.476 1.52 1.473h10.5l1.516-1.473-1.516-1.476zm-53.72 3.989c.375-.455.801-.948.845-1.749v-5.859c0-2.551-.861-2.984-1.7-3.766-1.389-1.291-1.18-3.121-1.103-5.484.213-6.552.46-10.499.485-16.62.003-.78.636-1.417 1.417-1.417s1.417.637 1.417 1.417l.486 9.934.644-.016c.102-4.537.31-9.115.31-13.65a1.42 1.42 0 0 1 1.417-1.416c.779 0 1.415.637 1.415 1.416q-.001.02.005.041l.195 13.622h.656c.184-5.14.551-10.394.551-15.528 0-.78.637-1.416 1.415-1.416a1.42 1.42 0 0 1 1.418 1.416v.018l.305 15.51h.859L23.64 23.5a1.413 1.413 0 0 1 1.414-1.342 1.42 1.42 0 0 1 1.417 1.383l.7 18.266c-.006.338.296.59.633.59.192 0 .628-.137.967-.656l3.202-4.638c1.212-1.702 2.829-2.038 4.725-1.321-1.175 2.209-3.6 7.656-6.06 10.716-1.297 2.028-5.648 4.062-5.648 6.672v5.342c0 1.099 1.084 2.341 1.036 2.274z"/></svg>