<svg xmlns="http://www.w3.org/2000/svg" xml:space="preserve" width="90.961" height="81.078" viewBox="0 0 90.961 81.078"><path fill="#f1f2f2" d="M86.883.75H4.076C2.242.75.75 2.654.75 4.994v71.09c0 2.34 1.492 4.243 3.326 4.243h82.807c1.835 0 3.328-1.903 3.328-4.243V4.994c0-2.34-1.493-4.244-3.328-4.244"/><path d="M86.883 0H4.076C1.829 0 0 2.241 0 4.994v71.09c0 2.753 1.829 4.993 4.076 4.993h82.807c2.249 0 4.078-2.24 4.078-4.993V4.994C90.961 2.241 89.132 0 86.883 0m3.328 76.084c0 2.34-1.493 4.243-3.328 4.243H4.076c-1.834 0-3.326-1.903-3.326-4.243V4.994C.75 2.654 2.242.75 4.076.75h82.807c1.835 0 3.328 1.904 3.328 4.244z"/><path d="M87.37 69.17H3.588a.397.397 0 0 1-.397-.397V7.428c0-2.511 1.672-4.555 3.727-4.555h77.123c2.055 0 3.727 2.043 3.727 4.555v61.345c0 .22-.178.397-.398.397m-83.385-.795h82.987V7.428c0-2.074-1.314-3.761-2.932-3.761H6.918c-1.617 0-2.933 1.687-2.933 3.761z"/><path fill="#fff" d="M85.766 72.437c0 2.168-1.408 3.926-3.146 3.926H8.34c-1.738 0-3.146-1.758-3.146-3.926V8.644c0-2.169 1.408-3.926 3.146-3.926h74.279c1.738 0 3.146 1.757 3.146 3.926v63.793z"/><path d="M82.619 76.738H8.34c-1.941 0-3.521-1.93-3.521-4.301V8.644c0-2.372 1.58-4.301 3.521-4.301h74.279c1.941 0 3.521 1.93 3.521 4.301v63.793c.001 2.371-1.579 4.301-3.521 4.301M8.34 5.092c-1.528 0-2.771 1.593-2.771 3.551v63.793c0 1.958 1.243 3.551 2.771 3.551h74.279c1.528 0 2.771-1.593 2.771-3.551V8.644c0-1.958-1.243-3.551-2.771-3.551z"/><path d="M84.399 71.404c0 2.059-1.338 3.729-2.987 3.729H9.547c-1.65 0-2.986-1.67-2.986-3.729V9.678c0-2.061 1.336-3.73 2.986-3.73h71.865c1.649 0 2.987 1.669 2.987 3.73z"/><path fill="#fff" fill-rule="evenodd" d="M25.336 20.293a2.97 2.97 0 0 0-2.963 2.962 2.97 2.97 0 0 0 2.963 2.965 2.97 2.97 0 0 0 2.963-2.965 2.97 2.97 0 0 0-2.963-2.962m8.972 18.682-6.216-4.142c-.288-1.215-1.478-6.605-3.869-7.854-2.369-1.568-11.1 4.865-11.15 4.918v9.383l1.893-.33.741-7.489 2.139-.429c-1.558 4.029-2.131 7.912-1.234 10.472l-3.786 15.472 2.551 1.811 5.515-14.32 2.551 2.716 3.54 10.782 3.374-1.234-3.045-11.359-3.539-6.336 1.355-4.678 1.443 1.879 6.749 2.223z" clip-rule="evenodd"/></svg>