<svg xmlns="http://www.w3.org/2000/svg" width="179.509" height="179.511"><path d="M-1167.495-424.68v-159.75c0-5.04 4.14-9.18 9.18-9.18h159.749c5.041 0 9.18 4.14 9.18 9.18v159.75c0 5.04-4.139 9.18-9.18 9.18h-159.749c-5.04 0-9.18-4.14-9.18-9.18z" style="fill:#fff;fill-rule:evenodd;stroke:#000;stroke-opacity:1;stroke-width:.8;stroke-miterlimit:4;stroke-dasharray:none" transform="translate(1168.195 594.31)"/><path d="M-1164.688-424.75a6.44 6.44 0 0 0 6.443 6.444h159.614a6.44 6.44 0 0 0 6.438-6.444v-159.613a6.437 6.437 0 0 0-6.438-6.438h-159.614a6.437 6.437 0 0 0-6.443 6.438z" style="fill:#008460;fill-rule:evenodd;stroke:none" transform="translate(1168.195 594.31)"/><path d="m-1122.995-549.143 30.579 114.154 10.87-34.09-6.427-1.996a140.6 140.6 0 0 1 14.66-34.145 141.4 141.4 0 0 1 22.184-28.257l19.558 17.69a141 141 0 0 0-18.062 23.85 141 141 0 0 0-13.193 28.793l-6.022-1.892a308 308 0 0 0-6.355 18.265 301 301 0 0 0-5.24 18.85h-27.735l-31.491-116.662-8.559 4.943a3.18 3.18 0 0 1-3.75-.073 3.16 3.16 0 0 1-1.024-3.716l13.289-35.21 29.246 23.777a3.244 3.244 0 0 1 .866 4.06 3.225 3.225 0 0 1-3.396 1.67z" style="fill:#fff;fill-rule:evenodd;stroke:none" transform="translate(1168.195 594.31)"/><path d="m-1039.247-543.744-23.053-4.9c.789-3.676-1.565-7.283-5.243-8.06-3.636-.768-7.213 1.535-8.031 5.172l-4.686-1 6.252-29.378 40.126 8.516-1.183 5.557 8.415 1.859c.545.13 1.04.454 1.374.898.325.415.496.9.515 1.415l.122 6.91c.01.333.12.656.333.918.222.274.535.446.889.506l4.263.93q.367.077.567.383c.13.192.17.435.11.667l-2.04 9.607h16.436v3.789h-15.901l-.091.414-1.93-.414h-1.797a5.49 5.49 0 0 1-6.365 3.707 5.48 5.48 0 0 1-4.08-3.707h-60.805v-3.79z" style="fill:#fff;fill-rule:evenodd;stroke:none" transform="translate(1168.195 594.31)"/><path d="M-1023.409-544.075h1.342a6.77 6.77 0 0 0-4.977-4.396c-3.413-.74-6.768 1.156-7.837 4.396h1.376c1.003-2.367 3.585-3.785 6.194-3.23a5.48 5.48 0 0 1 3.902 3.23" style="fill:#008460;fill-rule:evenodd;stroke:none" transform="translate(1168.195 594.31)"/><path d="M-1067.9-555.315c2.958.63 4.853 3.55 4.226 6.501a5.493 5.493 0 0 1-6.507 4.221 5.49 5.49 0 0 1-4.216-6.501c.63-2.952 3.544-4.848 6.496-4.221" style="fill:#fff;fill-rule:evenodd;stroke:none" transform="translate(1168.195 594.31)"/><path d="M-1040.181-520.98c-1.758 1.968-3.395 3.696-5.01 5.778l5.525 5.15c1.687-2.03 3.222-3.999 5.092-5.868zm-10.92-10.082c-1.879 1.799-3.466 3.586-5.122 5.536l5.313 4.99c1.718-2.07 3.274-3.798 5.172-5.667zm1.86 20.619a347 347 0 0 0-3.91 5.576l6.224 4.555c1.242-1.727 2.433-3.454 3.616-5.162z" style="fill:#c0111e;fill-opacity:1;fill-rule:evenodd;stroke:none" transform="translate(1168.195 594.31)"/><path d="m-1051.04-520.254-4.406 5.577 5.962 4.828 4.343-5.13zm-26.102 25.898c-1 2.273-2.049 4.446-3.02 6.679l6.789 3.242a115 115 0 0 1 2.99-6.425zm15.442-25.017a241 241 0 0 0-4.384 5.829l6.031 4.354 4.233-5.536z" style="fill:#c0111e;fill-opacity:1;fill-rule:evenodd;stroke:none" transform="translate(1168.195 594.31)"/><path d="M-1060.04-509.544a137 137 0 0 0-3.931 6.051l6.587 4.284a105 105 0 0 1 3.647-5.496z" style="fill:#c0111e;fill-opacity:1;fill-rule:evenodd;stroke:none" transform="translate(1168.195 594.31)"/><path d="M-1069.761-507.743c-1.333 2.192-2.687 4.394-4.021 6.637l6.658 3.767c1.242-2.091 2.445-4.15 3.638-6.183zm2.521 10.888a109 109 0 0 1-3.425 6.648l6.758 3.476a49.5 49.5 0 0 1 3.272-6.061zm-6.211 12.511a88 88 0 0 0-2.505 6.586l7.284 2.648c.696-1.98 1.444-3.96 2.242-5.92zm9.901-2.52a72 72 0 0 0-2.758 6.274l6.93 3.171c.849-1.938 1.818-4.05 2.797-5.93zm-19.8 7.02c-.829 2.374-1.606 4.89-2.416 7.324l7.113 2.294a57 57 0 0 1 2.344-6.92z" style="fill:#c0111e;fill-opacity:1;fill-rule:evenodd;stroke:none" transform="translate(1168.195 594.31)"/><path d="M-1057.25-498.654c-1.344 1.889-2.567 3.878-3.586 5.95l6.727 3.808c1.041-1.807 3.162-5.304 3.142-5.313z" style="fill:#c0111e;fill-opacity:1;fill-rule:evenodd;stroke:none" transform="translate(1168.195 594.31)"/><path d="m-1034.629-558.112 7.663 1.628a.91.91 0 0 0 .78-.194.94.94 0 0 0 .339-.723l-.123-6.421a.73.73 0 0 0-.174-.428.74.74 0 0 0-.383-.252l-6.45-1.4z" style="fill:#008460;fill-rule:evenodd;stroke:none" transform="translate(1168.195 594.31)"/><path d="M-1069.04-474.444c-.83 2.183-1.557 4.334-2.354 6.576l7.04 2.152c.749-2.08 1.414-3.9 2.142-5.919z" style="fill:#c0111e;fill-opacity:1;fill-rule:evenodd;stroke:none" transform="translate(1168.195 594.31)"/><path d="m-1082.54-536.543 2.536-2.727 3.545 2.04 1.93 2.485-4.618 1.424zm63.089.899 8.536-2.273-1.03 3.112-5.526 1.223zm-52.109 0 4.464-3.283 2.324 3.637-5.333 1.676zm61.109 7.2 3.081 1.8-1.837 3.19-3.132.81-1.638-.588 2.102-2.192zm-15.3 0 1.92.374 1.707-1.818 1.91 4.464-6.92.779 2.433-2.597zm-15.299-9 1.949-.566.07-.758 1.8-.443 2.334 2.383-4.628 2.577-.889-2.537zm7.2 5.491.999.019 3.606 1.141-.465.85-5.929 1.657zm-16.2-4.59 1.333-2.86 5.202 2.172-1.405 1.556-2.413-.97zm29.79 3.6 1.364.302.635 1.232 3.315 2.678-1.668.606-2.958-2.13zm-40.591-2.701 1.727-3.263 3.557-.848-.193.768.646.433zm39.601 14.4 3.818.587-3.444 4.606-.99-.193-.688-3.787zm14.399-12.51 2.122-1.768 2.284 2.748-2.951.93zm-61.199 4.41 2.536-3.364.747.313-.446 6.123-2.202-.768z" style="fill:#fff;fill-rule:evenodd;stroke:none" transform="translate(1168.195 594.31)"/></svg>