<svg xmlns="http://www.w3.org/2000/svg" width="175.986" height="175.986" viewBox="0 0 496.672 496.672"><path d="m315 205 80 170-80 170-80-170z" style="fill:none;stroke:#fff;stroke-width:40" transform="translate(652.59 -226.399)"/><path d="M1.693 473.495c0 11.881 9.605 21.484 21.487 21.484h450.294c11.853 0 21.505-9.603 21.505-21.484V23.2c0-11.858-9.652-21.508-21.505-21.508H23.18c-11.882 0-21.487 9.65-21.487 21.508z" style="fill:#fff;fill-rule:evenodd;stroke:#000;stroke-opacity:1;stroke-width:2.25777768;stroke-miterlimit:4;stroke-dasharray:none"/><path d="M11.66 473.492V23.198c0-6.343 5.154-11.524 11.524-11.524h450.294c6.343 0 11.522 5.181 11.522 11.524v450.294c0 6.367-5.18 11.521-11.522 11.521H23.184c-6.37 0-11.524-5.154-11.524-11.521" style="fill:#000;fill-rule:evenodd;stroke:none"/><path d="M70.237 435.074h72.884v-100.54c2.85-37.751 20.003-73.005 47.897-98.588 27.33-25.077 63.032-39.026 100.126-39.17l-18.725 40.803a18.14 18.14 0 0 0 6.263 22.317c6.794 4.69 15.906 4.217 22.17-1.157l136.122-96.208-137.166-97.965a18.2 18.2 0 0 0-21.66.27c-6.738 5.105-9.026 14.186-5.58 21.9l15.82 39.501a220.28 220.28 0 0 0-142.538 54.009 220.4 220.4 0 0 0-75.613 156.066z" style="fill:#fff;fill-rule:evenodd;stroke:none"/></svg>