<svg xmlns="http://www.w3.org/2000/svg" width="175.986" height="175.986" viewBox="0 0 496.672 496.672"><path d="m235 375 80-170 80 170-80 170z" style="fill:none;stroke:#fff;stroke-width:40" transform="translate(824.37 -214.333)"/><path d="M1.693 473.495c0 11.881 9.605 21.484 21.487 21.484h450.294c11.853 0 21.505-9.603 21.505-21.484V23.2c0-11.858-9.652-21.508-21.505-21.508H23.18c-11.882 0-21.487 9.65-21.487 21.508z" style="fill:#fff;fill-rule:evenodd;stroke:#000;stroke-opacity:1;stroke-width:2.25777764;stroke-miterlimit:4;stroke-dasharray:none"/><path d="M11.66 473.492V23.198c0-6.343 5.154-11.524 11.524-11.524h450.294c6.343 0 11.522 5.181 11.522 11.524v450.294c0 6.367-5.18 11.521-11.522 11.521H23.184c-6.37 0-11.524-5.154-11.524-11.521" style="fill:#000;fill-rule:evenodd;stroke:none"/><path d="M192.665 32.279v40.449c-.695 24.322 4.403 48.472 14.938 70.42 9.357 19.52 22.762 36.86 39.381 50.789 15.234 12.164 32.722 21.139 51.428 26.5 17.663 5.091 36.167 6.803 54.462 5.091l-9.059 31.04c-1.333 4.458.317 9.267 4.142 11.93 3.792 2.667 8.886 2.609 12.594-.2l101.494-70.682-102.535-69.612c-3.969-2.342-8.982-1.908-12.513 1.072-3.096 2.608-4.515 6.749-3.588 10.714l8.919 31.13c-12.974 2.373-26.32 1.822-39.033-1.681-15.117-4.141-28.838-12.337-39.729-23.627-8.25-8.775-14.851-18.965-19.426-30.113-4.637-11.21-7.122-23.224-7.383-35.416V32.28zm111.759 431.678v-40.453a152.8 152.8 0 0 0-14.914-70.39 152.7 152.7 0 0 0-39.38-50.819 147.9 147.9 0 0 0-51.426-26.496 148 148 0 0 0-54.494-5.096l9.092-31.04c1.305-4.461-.317-9.236-4.141-11.93a10.78 10.78 0 0 0-12.623.203l-101.496 70.68 102.564 69.611c3.969 2.346 8.95 1.912 12.481-1.072 3.129-2.604 4.52-6.749 3.593-10.682l-8.891-31.13a87.2 87.2 0 0 1 39.03 1.65c15.117 4.172 28.814 12.337 39.732 23.63 8.25 8.774 14.855 18.966 19.43 30.114 4.634 11.236 7.121 23.251 7.383 35.415v47.805z" style="fill:#fff;fill-rule:evenodd;stroke:none"/></svg>