<svg xmlns="http://www.w3.org/2000/svg" xml:space="preserve" width="179.961" height="179.96" viewBox="0 0 152.269 441.336"><path d="M91.383 313.496v-112.01c0-5.999 4.862-10.871 10.865-10.871H214.26c5.998 0 10.87 4.872 10.87 10.87v112.011c0 6.005-4.872 10.865-10.87 10.865H102.248a10.86 10.86 0 0 1-10.865-10.865z" style="fill:#fff;fill-rule:evenodd;stroke:#000;stroke-opacity:1;stroke-width:.59989234;stroke-miterlimit:4;stroke-dasharray:none" transform="translate(-441.44 -621.438)scale(3.27047)"/><path d="M92.86 313.705a9.04 9.04 0 0 0 9.046 9.045h112.57c4.991 0 9.038-4.046 9.038-9.045V201.136a9.04 9.04 0 0 0-9.038-9.04h-112.57c-5 0-9.046 4.048-9.046 9.04z" style="fill:#000;fill-rule:evenodd;stroke:none" transform="translate(-441.44 -621.438)scale(3.27047)"/><path d="M96.186 313.705V201.136a5.72 5.72 0 0 1 5.72-5.713h112.57a5.717 5.717 0 0 1 5.71 5.713v112.57a5.72 5.72 0 0 1-5.71 5.718h-112.57a5.72 5.72 0 0 1-5.72-5.719" style="fill:#fff;fill-rule:evenodd;stroke:none" transform="translate(-441.44 -621.438)scale(3.27047)"/><path d="M199.795 215.95c-22.934-22.928-60.114-22.928-83.05 0-22.928 22.935-22.928 60.115 0 83.05 22.936 22.927 60.116 22.927 83.05 0 22.928-22.935 22.928-60.115 0-83.05" style="fill:#017863;fill-opacity:1;fill-rule:evenodd;stroke:none" transform="translate(-441.44 -621.438)scale(3.27047)"/><path d="M158.27 210.94c25.699 0 46.535 20.836 46.535 46.535s-20.836 46.534-46.535 46.534-46.534-20.835-46.534-46.534 20.836-46.535 46.534-46.535" style="fill:#fff;fill-rule:evenodd;stroke:none" transform="translate(-441.44 -621.438)scale(3.27047)"/><path d="m163.804 241.008 6.48 1.746a2.14 2.14 0 0 0 2.457-.49 2.144 2.144 0 0 0 .142-2.742l-14.63-20.218-14.533 20.237a2.106 2.106 0 0 0 2.402 3.247l6.47-1.735v54.525h11.216v-54.57z" style="fill:#000;fill-rule:evenodd;stroke:none" transform="translate(-441.44 -621.438)scale(3.27047)"/></svg>