<svg xmlns="http://www.w3.org/2000/svg" width="175.986" height="175.986" viewBox="0 0 496.672 496.672"><path d="m315 205 80 170-80 170-80-170z" style="fill:none;stroke:#fff;stroke-width:40" transform="translate(652.59 -226.399)"/><path d="M494.979 473.495c0 11.881-9.605 21.484-21.487 21.484H23.199c-11.854 0-21.506-9.603-21.506-21.484V23.2c0-11.858 9.652-21.508 21.506-21.508h450.293c11.882 0 21.487 9.65 21.487 21.508z" style="fill:#fff;fill-rule:evenodd;stroke:#000;stroke-width:2.25777769;stroke-miterlimit:4;stroke-opacity:1;stroke-dasharray:none"/><path d="M485.012 473.492V23.198c0-6.343-5.154-11.524-11.524-11.524H23.194c-6.343 0-11.521 5.181-11.521 11.524v450.294c0 6.367 5.178 11.521 11.521 11.521h450.294c6.37 0 11.524-5.154 11.524-11.521" style="fill:#000;fill-rule:evenodd;stroke:none"/><path d="M426.435 435.074h-72.884v-100.54c-2.85-37.751-20.002-73.005-47.897-98.588-27.33-25.077-63.032-39.026-100.125-39.17l18.724 40.803a18.14 18.14 0 0 1-6.263 22.317c-6.794 4.69-15.906 4.217-22.17-1.157L59.699 162.53l137.167-97.965a18.2 18.2 0 0 1 21.659.27c6.738 5.105 9.026 14.186 5.581 21.9l-15.82 39.501a220.28 220.28 0 0 1 142.537 54.009 220.4 220.4 0 0 1 75.613 156.066z" style="fill:#fff;fill-rule:evenodd;stroke:none"/></svg>