<svg xmlns="http://www.w3.org/2000/svg" width="113.38" height="151.063" viewBox="0 0 319.984 426.332"><path d="m235 375 80-170 80 170-80 170z" style="fill:none;stroke:#fff;stroke-width:40" transform="translate(941.091 -161.424)"/><path d="M1.129 408.122c0 9.44 7.638 17.081 17.081 17.081h283.542c9.444 0 17.103-7.641 17.103-17.081V18.248c0-9.43-7.673-17.12-17.103-17.12H18.21c-9.443 0-17.081 7.69-17.081 17.12z" style="fill:#fff;fill-rule:evenodd;stroke:#000;stroke-opacity:1;stroke-width:1.12888897;stroke-miterlimit:4;stroke-dasharray:none"/><path d="M4.67 407.92V18.025c0-7.462 6.05-13.53 13.533-13.53H301.76c7.468 0 13.547 6.068 13.547 13.53V407.92c0 7.479-6.079 13.525-13.547 13.525H18.203c-7.482 0-13.532-6.046-13.532-13.525" style="fill:#000;fill-rule:evenodd;stroke:none"/><path d="M10.947 407.919c0 4.007 3.252 7.25 7.256 7.25h283.56c3.997 0 7.256-3.243 7.256-7.25V18.017c0-3.993-3.26-7.252-7.256-7.252H18.203c-4.004 0-7.256 3.259-7.256 7.252z" style="fill:#fff;fill-rule:evenodd;stroke:none"/><path d="M189.611 243.068c-5.076-5.35-8.59-12.048-10.989-19.055-1.824-5.285-6.756-30.158-6.756-54.288 0-8.065.554-19.875 1.884-32.546 3.101-30.014 7.356-47.976 24.903-58.839 7.147-4.43 15.54-7.034 23.982-7.034 17.134 0 31.661 8.805 39.726 23.695 1.213 2.239 11.465 22.913 11.465 65.89 0 5.024-1.95 54.292-13.68 74.377-7.088 12.168-22.063 21.111-37.748 21.111-12.964 0-24.687-5.219-31.192-11.716zM81.266 147.46c4.226-1.454 8.685-2.04 13.155-2.04 16.595 0 50.504 8.709 50.504 57.743 0 19.461-7.091 33.049-18.556 42.475-9.356 7.692-17.632 10.883-31.51 10.883-8.95 0-16.81-2.153-24.667-6.894-14.181-8.544-23.95-22.596-23.95-51.783 0-48.383 22.857-94.995 60.367-124.289l15.685 19.141c-13.91 9.419-29.386 27.823-36.954 45.014l-1.594 3.634a317 317 0 0 0-2.48 6.115" style="fill:#000;fill-rule:evenodd;stroke:none"/><path d="M205.384 222.066c3.432 5.874 9.017 9.305 16.457 9.305 8.593 0 15.889-4.554 20.143-16.75 2.745-7.878 7.176-29.948 7.176-54.618 0-8.003-.501-16.003-1.506-23.978-2.713-24.312-7.624-30.568-11.254-34.11-3.658-3.586-8.798-5.622-13.917-5.622-7.585 0-14.704 4.254-18.786 15.544-2.504 6.91-7.376 29.8-7.376 55.966 0 29.72 6.935 50.278 7.824 51.962zm-128.461.176c4.671 6.232 11.822 9.598 18.525 9.598 12.936 0 24.895-9.684 24.895-30.417 0-21.445-11.84-31.457-25.012-31.457-8.24 0-15.596 4.162-19.999 10.986-2.307 3.573-4.25 8.8-4.25 19.052 0 10.687 2.36 17.012 4.603 20.378z" style="fill:#fff;fill-rule:evenodd;stroke:none"/><path d="M36.749 353.633V309.35h6.974l10.26 25.539 10.19-25.563h6.954v44.306h-6.94v-25.496l-10.205 25.496-10.276-25.61v25.61zm212.189 0V309.35h6.981l10.255 25.539 10.189-25.563h6.956v44.306h-6.925v-25.496l-10.22 25.496-10.28-25.61v25.61zm-86.741 0V309.35h6.981l10.248 25.539 10.196-25.563h6.956v44.306h-6.928v-25.496l-10.224 25.496-10.276-25.61v25.61zm-60.392 0v-44.306h6.974l15.907 28.312v-28.312h6.822v44.306h-5.863l-17.039-30.263v30.263zm106.433-44.306h6.822v30.348c.074 2.012.515 3.324 1.373 4.589 1.467 2.18 4.095 3.5 6.71 3.5 4.272 0 7.983-3.703 7.983-7.886v-30.527h6.798v30.634c-.318 8.5-6.869 14.656-15.021 14.656-7.663 0-14.104-6.15-14.595-13.195zm-64.83 44.306v-44.306h6.89v44.306zm-60.388 0v-44.306h6.885v44.306z" style="fill:#000;fill-rule:evenodd;stroke:none"/></svg>