<svg xmlns="http://www.w3.org/2000/svg" width="180.028" height="224.971" viewBox="0 0 508.078 634.919"><path d="m395 375-80 170-80-170 80-170z" style="fill:none;stroke:#fff;stroke-width:40" transform="translate(995.287 -27.006)"/><path d="M1.693 592.187V42.738c0-22.658 18.342-41.045 40.997-41.045h422.677c22.613 0 41.017 18.387 41.017 41.045v549.449c0 22.659-18.383 41.039-41.017 41l-422.677.039c-22.655-.04-40.997-18.38-40.997-40.997z" style="fill:#fff;fill-rule:evenodd;stroke:#000;stroke-opacity:1;stroke-width:2.25777795;stroke-miterlimit:4;stroke-dasharray:none"/><path d="M9.259 591.68c0 18.767 15.196 33.94 33.961 33.94h422.657c18.743 0 33.937-15.173 33.937-33.94V42.227c0-18.769-15.194-33.94-33.937-33.94H43.22c-18.744 0-33.961 15.171-33.961 33.94z" style="fill:#000;fill-rule:evenodd;stroke:none"/><path d="M21.75 591.68V42.228c.021-11.834 9.616-21.47 21.47-21.47h422.657c11.832 0 21.449 9.636 21.449 21.47v549.41c0 11.878-9.596 21.512-21.45 21.512H43.22c-11.854-.042-21.47-9.634-21.449-21.512z" style="fill:#fff;fill-rule:evenodd;stroke:none"/><path d="m306.474 511.585 2.663 2.663c10.862 10.862 30.43 19.569 52.074 19.569 26.183 0 51.177-14.92 63.017-35.25 19.59-33.517 22.842-115.764 22.842-124.157 0-71.743-17.117-106.252-19.145-110.014-13.462-24.853-37.726-39.54-66.315-39.54-14.095 0-28.106 4.33-40.043 11.727-29.294 18.156-36.394 48.142-41.572 98.224-2.219 21.157-3.149 40.895-3.149 54.357 0 40.276 8.24 81.805 11.286 90.618 3.993 11.684 9.867 22.884 18.342 31.803M62.117 448.42a30 30 0 0 0-.293 3.104v3.401c0 17.755 9.209 40.157 23.668 54.144 16.712 16.083 35.65 23.315 55.58 23.315 45.117 0 83.22-35.634 83.22-88.847 0-35.397-14.435-59.213-35.103-72.485 14.835-15.321 26.817-43.49 26.817-71.785 0-40.239-31.592-72.237-73.16-72.237-35.209 0-65.788 25.787-71.262 65.326l42.457 4.586c.486-16.275 12.765-28.55 30.073-28.55 17.411 0 30.726 13.122 30.726 30.727 0 25.335-11.434 41.313-21.745 46.784-5.62 2.918-9.216 4.396-26.331 3.7v40.975h25.001c8.027 0 20.26 6.911 25.59 20.12 1.73 4.247 4.438 14.707 4.438 32.247 0 34.13-17.753 48.373-39.498 48.373-13.06 0-23.52-5.26-31.361-15.681-4.438-5.917-7.648-14.284-7.393-27.217z" style="fill:#000;fill-rule:evenodd;stroke:none"/><path d="m332.805 476.526-2.07-3.846c-1.478-2.811-13.06-37.13-13.06-86.73 0-43.681 8.136-81.912 12.322-93.446 6.804-18.83 18.7-25.935 31.359-25.935 8.54 0 17.12 3.408 23.226 9.364 6.065 5.916 14.263 16.382 18.786 56.951a318 318 0 0 1 2.515 40.048c0 41.166-7.394 78.003-11.98 91.169-7.102 20.37-19.28 27.957-33.623 27.957-12.427 0-21.746-5.704-27.475-15.532" style="fill:#fff;fill-rule:evenodd;stroke:none"/><path d="M115.964 143.218h11.369l6.828-19.865h21.28l6.783 19.865h11.307l-23.523-68.64h-10.61zm285.778 0h10.756V103.55l15.935 39.667 15.808-39.495v39.495h10.735v-68.64l-10.757-.021-15.807 39.646-15.875-39.58H401.72l.02 68.595zm-347.825 0h10.777V103.55l15.913 39.667 15.83-39.495v39.495h10.714l.02-68.64H96.417l-15.809 39.625-15.868-39.58H53.918zm215.195 0h10.776V103.55l15.913 39.646 15.83-39.474v39.495h10.735v-68.64h-10.755l-15.81 39.625-15.872-39.58h-10.817zm70.414-68.64.107 49.771c.762 10.904 10.711 20.433 22.612 20.433 12.636 0 22.782-9.53 23.262-22.696l.025-47.463H375.01l-.02 47.294c0 6.466-5.747 12.213-12.382 12.213-4.036 0-8.114-2.05-10.376-5.406-1.333-1.97-2.03-4-2.133-7.124V74.578h-10.57zm-157.289 68.64h11.917l11.179-23.158 11.18 23.158h11.92l-17.116-35.502 16.016-33.093h-11.937L205.312 95.31l-9.973-20.732h-11.88l15.893 33.138z" style="fill:#000;fill-rule:evenodd;stroke:none"/><path d="m137.75 112.725 7.039-20.605 6.976 20.605z" style="fill:#fff;fill-rule:evenodd;stroke:none"/><path d="M240.962 143.218h10.694l-.021-68.64h-10.673z" style="fill:#000;fill-rule:evenodd;stroke:none"/></svg>