<svg xmlns="http://www.w3.org/2000/svg" width="181.536" height="226.51" viewBox="0 0 512.334 639.262"><path d="m235 375 80-170 80 170-80 170z" style="fill:none;stroke:#fff;stroke-width:40" transform="translate(1323.626 364.89)"/><path d="M2.28 594.685c-.02 23.403 18.917 42.319 42.274 42.319H467.74c23.36 0 42.316-18.916 42.337-42.32l-.023-550.11c0-23.358-18.955-42.316-42.315-42.316H44.553c-23.378 0-42.295 18.958-42.295 42.316v550.11h.02z" style="fill:#fff;fill-rule:evenodd;stroke:#000;stroke-opacity:1;stroke-width:3.10444473;stroke-miterlimit:4;stroke-dasharray:none"/><path d="M10.576 594.686c0 18.792 15.213 33.983 34 33.983H467.74c18.768 0 33.98-15.19 33.98-33.983V44.574c0-18.79-15.212-33.98-33.98-33.98H44.575c-18.765 0-34 15.19-34 33.98z" style="fill:#000;fill-rule:evenodd;stroke:none"/><path d="M23.102 594.647c-.02 11.889 9.605 21.491 21.473 21.537H467.74c11.871 0 21.477-9.648 21.477-21.537V44.574c0-11.848-9.627-21.494-21.477-21.494H44.575c-11.868 0-21.473 9.646-21.494 21.494v550.112z" style="fill:#fff;fill-rule:evenodd;stroke:none"/><path d="M55.493 145.26h10.79v-39.71l15.93 39.711 15.847-39.546v39.546h10.728l.021-68.723H98.04l-15.826 39.67-15.889-39.625H55.493zm83.933-30.534 7.042-20.626 6.986 20.626zM117.61 145.26h11.383l6.835-19.888h21.304l6.79 19.888h11.321l-23.547-68.723h-10.621zm66.353 0h11.934l11.193-23.189 11.19 23.19h11.933l-17.14-35.547 16.041-33.132h-11.957L207.07 97.294l-9.987-20.757H185.19l15.91 33.177zm58.8 0h10.701l-.02-68.723h-10.68zm28.178 0h10.794v-39.71l15.93 39.69 15.85-39.525v39.546h10.746V76.537h-10.766l-15.83 39.67-15.89-39.625h-10.834zm70.5-68.723.108 49.827c.76 10.921 10.727 20.464 22.639 20.464 12.65 0 22.807-9.543 23.294-22.727l.02-47.519h-10.538l-.02 47.35c0 6.476-5.753 12.23-12.396 12.23-4.04 0-8.125-2.053-10.39-5.416-1.334-1.967-2.03-4-2.136-7.131V76.537zm62.29 68.723H414.5v-39.71l15.956 39.711 15.822-39.546v39.546h10.75V76.537l-10.771-.02-15.826 39.69-15.889-39.625h-10.829zM65.394 511.007a46 46 0 0 0 2.811 3.26l3.852 3.552c12.254 11.32 32.838 19.89 57.02 19.89 55.118 0 97.265-46.698 97.265-116.393 0-54.758-36.284-87.891-79.344-87.891-15.19 0-26.152 3.62-33.176 7.847l2.077-65.46h97.624v-42.061H75.464l-5.481 154.92 42.505 5.033c3.263-3.594 6.14-7.598 9.926-10.66 7.172-5.716 16.292-9.183 25.431-9.183 19 0 37.98 15.952 37.98 47.159 0 24.144-8.507 46.443-16.144 56.511-9.585 12.446-25.198 19.809-39.46 19.809-15.593 0-30.404-7.807-36.543-15.067zm267.332-31.99-2.07-3.853c-1.485-2.811-13.081-37.179-13.081-86.832 0-43.735 8.148-82.01 12.337-93.561 6.814-18.852 18.707-25.96 31.398-25.96 8.548 0 17.138 3.404 23.252 9.371 6.078 5.922 14.263 16.399 18.81 57.02a322 322 0 0 1 2.519 40.098c0 41.215-7.405 78.094-11.998 91.274-7.109 20.398-19.294 27.993-33.662 27.993-12.44 0-21.768-5.715-27.505-15.55m-26.365 35.101 2.67 2.66c10.852 10.876 30.469 19.597 52.131 19.597 26.215 0 51.245-14.937 63.095-35.292 19.597-33.56 22.85-115.905 22.85-124.305 0-71.83-17.117-106.385-19.146-110.147-13.48-24.884-37.765-39.591-66.397-39.591-14.13 0-28.141 4.34-40.093 11.744-29.324 18.177-36.435 48.2-41.62 98.344-2.219 21.179-3.152 40.941-3.152 54.417 0 40.33 8.23 81.905 11.296 90.728 4 11.701 9.88 22.916 18.366 31.845" style="fill:#000;fill-rule:evenodd;stroke:none"/></svg>