<svg xmlns="http://www.w3.org/2000/svg" width="200.197" height="266.948" viewBox="0 0 565.002 753.385"><path d="m315 205 80 170-80 170-80-170z" style="fill:none;stroke:#fff;stroke-width:40" transform="translate(1230.4 415.893)"/><path d="m1.693 720.425.776 7.12 2.322 6.656 3.714 5.726 4.798 4.953 5.885 3.563 6.501 2.476 7.123.773H532.19l7.123-.773 6.501-2.476 5.885-3.563 4.797-4.953 3.715-5.726 2.321-6.657.777-7.119V32.805l-.777-7.12-2.32-6.501-3.716-5.88-4.797-4.799-5.885-3.718-6.501-2.321-7.123-.773H32.812l-7.123.773-6.501 2.321-5.885 3.718-4.798 4.798-3.714 5.881-2.322 6.502-.776 7.119z" style="fill:#fff;fill-rule:evenodd;stroke:#000;stroke-opacity:1;stroke-width:2.25777799;stroke-miterlimit:4;stroke-dasharray:none"/><path d="m9.126 720.425.773 6.188 2.325 5.729 3.866 4.957 4.957 3.866 5.574 2.325 6.19.772H532.19l6.191-.772 5.574-2.325 4.957-3.866 3.866-4.957 2.321-5.73.777-6.187V32.805l-.777-6.188-2.32-5.574-3.867-4.956-4.957-3.867-5.574-2.325-6.191-.772H32.812l-6.191.772-5.574 2.325-4.957 3.867-3.866 4.956-2.325 5.574-.773 6.188z" style="fill:#000;fill-rule:evenodd;stroke:none"/><path d="m20.426 720.425.31 3.246 1.239 2.942 2.014 2.635 2.632 2.011 2.938 1.238 3.253.462H532.19l3.253-.462 2.938-1.238 2.632-2.01 2.014-2.636 1.239-2.942.31-3.246V32.805l-.31-3.246-1.239-2.942-2.014-2.632-2.632-2.014-2.938-1.238-3.253-.307H32.812l-3.253.307-2.938 1.238-2.632 2.014-2.014 2.632-1.239 2.942-.31 3.246z" style="fill:#fff;fill-rule:evenodd;stroke:none"/><path d="M67.642 465.314H195.04v75.54h43.963V465.16h19.812v-41.332H239.16V227.39h-44.43L67.643 435.903zm308.666 21.83-2.166-4.029-.462-1.238-.776-2.011-1.087-3.097-1.08-4.022-1.396-4.801-1.39-5.73-1.394-6.501-1.393-7.274-1.238-7.892-1.242-8.668-.924-9.288-.777-9.91-.465-10.527-.31-10.989.155-9.133.31-8.979.62-8.823.622-8.357.769-8.209.931-7.74.928-7.426 1.083-6.967 1.238-6.505 1.087-6.036 1.235-5.42 1.086-4.797 1.083-4.18 1.083-3.56.931-2.787 3.405-7.895 3.87-6.346 4.49-4.953 4.954-3.87 5.26-2.477 5.418-1.549 5.73-.462 8.977 1.235 8.358 3.253 7.278 5.418 2.166 2.322 2.32 2.942 2.481 3.714 2.321 4.647 2.477 5.88 2.166 7.43 2.166 9.133 2.014 11.144 1.7 13.163.932 8.512.776 8.357.614 8.517.31 8.512.156 8.513-.156 8.667-.31 8.516-.459 8.206-.62 8.206-.777 7.736-.772 7.433-.928 7.274-1.087 6.657-1.083 6.502-1.083 5.88-1.238 5.42-1.083 4.952-1.083 4.333-1.087 3.718-.924 3.094-3.563 8.516-4.18 6.812-4.643 5.415-5.263 4.029-5.57 2.783-6.04 1.549-6.347.466-9.288-1.087-7.896-3.253-6.656-5.104zm-27.866 37.15 2.787 2.784 4.18 3.719 4.798 3.556 5.264 3.252 5.884 2.939 6.347 2.476 6.812 2.018 6.967 1.545 7.274.928 7.585.31 6.967-.31 6.813-.928 6.653-1.545 6.346-2.173 6.347-2.473 5.884-3.097 5.726-3.56 5.263-4.025 4.957-4.336 4.332-4.642 4.025-4.953 3.408-5.26 2.787-5.422 2.628-6.036 2.477-6.502 2.166-7.123 2.014-7.27 1.704-7.744 1.7-7.895 1.394-7.892 1.238-8.05 1.238-7.895.932-7.895.927-7.585.618-7.278.62-6.812.466-6.343.466-5.88.307-5.268.152-4.487.155-3.56.155-2.787v-1.855l-.155-12.231-.462-11.61-.773-10.834-.931-10.22-1.083-9.444-1.394-8.823-1.393-8.05-1.545-7.43-1.552-6.656-1.7-6.036-1.546-5.419-1.552-4.643-1.39-4.18-1.394-3.408-1.086-2.783-1.08-2.166-.776-1.708-.465-.924-3.405-5.884-3.87-5.416-4.335-5.111-4.488-4.643-4.956-4.18-5.26-3.87-5.574-3.25-5.73-2.941-6.035-2.322-6.347-1.859-6.498-1.238-6.812-.928-6.816-.31-7.426.465-7.433 1.083-7.274 1.856-6.967 2.476-6.809 2.943-6.502 3.714-4.953 3.253-4.49 3.556-4.18 3.873-3.716 4.026-3.56 4.332-3.097 4.646-2.786 4.953-2.477 5.108-2.321 5.57-2.015 5.885-1.855 6.036-1.545 6.501-1.553 6.816-1.234 7.12-1.242 7.584-1.083 7.895-.928 8.202-.928 8.671-.776 8.358-.776 8.05-.614 7.895-.465 7.585-.31 7.123-.156 6.653-.155 6.346-.156 5.574.156 9.134.465 9.133.466 8.978.769 8.823.931 8.513.928 8.206 1.083 7.743 1.087 7.27 1.238 6.658 1.083 5.884 1.083 5.263 1.087 4.333.924 3.56.776 2.476 2.787 7.433 3.249 7.119 3.874 6.812 4.332 6.502zm-224.3-100.467 70.743-116.099v116.1zm18.423-308.204 11.454-26.935 11.455 26.935zm-27.711 31.425h14.397l7.74-18.263h34.053l7.744 18.263h14.241L159.9 68.721h-11.765zm84.056 0h15.48l18.267-28.793 18.267 28.793h15.324l-25.855-41.024 23.53-37.303h-15.32l-15.946 25.23-15.794-25.23h-15.321l23.53 37.303zm74.923 0h13.621V68.721h-13.62zm25.386 0h13.776v-46.595l21.826 45.974 22.755-47.83v48.451h13.78V68.721h-14.243l-22.292 46.591-22.288-46.59h-13.314zm83.284-78.172v48.758l.769 7.122 2.173 6.657 3.4 5.574 4.802 4.643 5.73 3.56 6.656 2.169 7.585.772 9.133-1.083 7.426-3.097 6.04-4.643 4.49-6.036 2.943-7.74 1.08-9.443V68.72l-13.621.155v46.747l-.932 7.278-2.321 5.263-3.715 3.867-3.252 2.014-3.556 1.238-3.715.31-4.34-.465-4.02-1.545-3.56-2.632-2.167-2.632-1.862-3.407-1.235-4.798-.155-2.015-.155-2.01v-2.166l-.156-45.047zm73.37 78.172h13.78v-46.595l21.826 45.974 22.755-47.83v48.451h13.78V68.721h-14.242l-22.293 46.591-22.292-46.59h-13.313zm-418.884 0h13.776v-46.595l21.674 45.974 22.755-47.83v48.451h13.78V68.721H94.727l-22.289 46.591-22.136-46.59H36.989zM113.926 700.3h57.429v-15.636h-42.256v-18.267h23.065l-.156-15.635H129.1v-13.155h41.173l-.152-15.639h-56.194zm116.565-23.376-2.787 3.56-3.097 2.942-3.25 1.859-2.014.617-2.17.466-2.165.155-8.513-2.321-4.953-4.49-1.704-2.788-1.856-4.025-1.241-4.95-.31-6.35.775-8.357 2.015-6.502 2.787-4.646 3.866-3.714 4.49-2.17 4.644-.769 3.563.462 3.56 1.238 3.403 2.166 1.86 1.55 1.545 1.703 1.397 2.014 13.465-6.967-4.642-5.884-5.419-4.643-6.191-3.404-6.502-2.17-6.812-.617-8.671 1.235-7.892 3.407-6.502 5.264-3.56 4.953-3.248 6.812-2.173 8.357-.77 9.755.618 9.444 2.014 8.202 2.784 6.657 3.408 5.263 6.653 6.036 8.054 3.87 9.285 1.238 7.74-.776 6.964-2.628 6.501-4.336 3.253-2.938 2.787-3.253 2.321-3.715zm43.032 23.375h15.17v-62.692H309.9v-15.639h-57.587v15.64l21.209.154zm45.201 0h57.429v-15.635h-42.415l.156-18.267h22.909v-15.635h-22.91v-13.155h41.177l-.155-15.639h-56.19zm69.66-78.33v47.836l.927 7.274 2.325 6.657 3.712 5.881 4.8 4.953 5.885 3.715 6.498 2.321 7.123.776 7.119-.776 6.502-2.321 5.88-3.87 4.802-4.798 3.715-5.88 2.32-6.813.773-7.274v-47.682h-15.17v47.682l-2.165 8.202-5.73 5.884-8.046 2.166-8.05-2.166-5.726-5.729-2.17-8.202v-47.837zm94.117 35.45v-19.501l22.448-.156 4.642 1.39 3.404 3.408 1.394 4.953-1.238 4.953-3.405 3.563-4.797 1.235zm-15.17 42.88h15.17v-27.09l18.112-.155 12.23 27.245h16.87l-13.465-30.028 7.12-5.73 4.645-7.743 1.7-9.285-.927-6.812-2.477-6.036-3.87-5.264-5.108-4.025-6.04-2.476-6.498-.932h-37.461zM35.289 683.426l5.57 6.346 6.506 4.953 7.27 3.715 7.74 2.321 7.589.776 5.263-.31 4.953-1.235 4.802-1.859 8.047-6.04 4.797-7.429 1.704-8.357-.928-6.347-2.787-6.194-4.642-5.26-6.347-4.336-8.205-3.097-11.303-2.943-4.798-1.855-2.476-2.166-.621-2.17.776-2.476 2.942-2.011 5.88-.931 3.874.155 3.556.931 3.253 1.238 2.938 1.7 2.787 2.015 2.322 2.321 12.696-10.371-4.642-4.336-5.419-3.715-5.422-2.938-5.26-1.863-4.798-1.08-4.646-.31-7.585.931-7.274 2.939-6.036 4.643-4.184 6.194-1.545 7.585 1.855 8.047 4.798 6.191 6.195 4.184 6.502 2.321 12.537 3.25 3.87 1.396 2.632 1.546 1.549 1.545 1.086 1.552.459 1.7.31 1.704-1.7 4.488-4.646 3.408-7.274 1.393-6.036-.928-7.123-3.252-8.36-6.347z" style="fill:#000;fill-rule:evenodd;stroke:none"/></svg>