<svg xmlns="http://www.w3.org/2000/svg" width="64.769" height="80.762" viewBox="0 0 182.791 227.929"><path d="m315 205 80 170-80 170-80-170z" style="fill:none;stroke:#fff;stroke-width:40" transform="translate(1143.957 143.142)"/><path d="M1.129 211.752c0 8.31 6.739 15.048 15.048 15.048h150.444c8.31 0 15.041-6.738 15.041-15.048V16.177c0-8.31-6.731-15.048-15.041-15.048H16.177c-8.31 0-15.048 6.738-15.048 15.048z" style="fill:#fff;fill-rule:evenodd;stroke:#000;stroke-opacity:1;stroke-width:1.12888899;stroke-miterlimit:4;stroke-dasharray:none"/><path d="M4.147 211.741q0 4.987 3.528 8.515t8.512 3.528h150.444q4.986 0 8.51-3.528 3.524-3.526 3.524-8.515V16.167q0-4.988-3.524-8.513-3.524-3.529-8.51-3.528H16.187q-4.985 0-8.512 3.528-3.529 3.528-3.528 8.513z" style="fill:#000;fill-rule:evenodd;stroke:none"/><path d="M8.643 211.73q-.001 3.118 2.204 5.319c1.472 1.471 3.242 2.208 5.32 2.208h150.447q3.111-.002 5.312-2.204 2.206-2.206 2.205-5.322V16.156q0-3.12-2.205-5.323-2.2-2.205-5.312-2.204H16.167c-2.078 0-3.848.737-5.32 2.204q-2.204 2.208-2.204 5.323z" style="fill:#fff;fill-rule:evenodd;stroke:none"/><path d="m49.856 41.12 2.505-7.335 2.484 7.334zm-7.755 10.855h4.048l2.43-7.073h7.575l2.415 7.073h4.024L54.22 27.542h-3.775zm23.592 0h4.241l3.98-8.244 3.978 8.244h4.245l-6.095-12.64 5.702-11.779h-4.251l-3.586 7.366-3.552-7.38h-4.227l5.656 11.793zm20.902 0H90.4l-.006-24.433h-3.8zm10.022 0h3.837V37.853l5.664 14.115 5.633-14.053v14.06h3.82V27.542h-3.827l-5.626 14.104-5.65-14.09h-3.851zm25.062-24.433.039 17.715c.272 3.882 3.813 7.273 8.05 7.273 4.496 0 8.107-3.39 8.283-8.08l.007-16.894h-3.748l-.007 16.836c0 2.302-2.047 4.348-4.407 4.348-1.436 0-2.89-.73-3.696-1.926-.472-.7-.72-1.423-.758-2.535V27.542zm22.146 24.433h3.83V37.853l5.671 14.122 5.626-14.06v14.06h3.824V27.542l-3.83-.007-5.627 14.112-5.65-14.09h-3.851zm-123.81 0h3.838V37.853l5.663 14.122 5.637-14.06v14.06h3.814l.007-24.433h-3.828l-5.63 14.104-5.65-14.09h-3.85zm-.217 111.345h42.86v25.38h14.797v-25.43h6.635v-13.905h-6.58v-65.98H62.558l-42.76 70.032zm102.519 7.314-.74-1.367c-.528-1.003-4.648-13.216-4.648-30.875 0-15.548 2.897-29.153 4.389-33.263 2.422-6.704 6.649-9.233 11.158-9.233 3.042 0 6.092 1.217 8.269 3.339 2.163 2.105 5.074 5.825 6.687 20.27.596 4.738.895 9.499.895 14.253 0 14.659-2.632 27.768-4.265 32.46-2.528 7.245-6.866 9.949-11.968 9.949-4.427 0-7.744-2.04-9.777-5.533m-9.378 12.482.948.947c3.868 3.859 10.831 6.97 18.541 6.97 9.32 0 18.214-5.32 22.431-12.55 6.963-11.938 8.124-41.218 8.124-44.198 0-25.535-6.091-37.824-6.808-39.16-4.792-8.844-13.429-14.07-23.609-14.07-5.02 0-10.005 1.543-14.252 4.172-10.425 6.46-12.954 17.136-14.797 34.964-.785 7.531-1.123 14.552-1.123 19.345 0 14.338 2.935 29.12 4.02 32.26 1.42 4.158 3.507 8.147 6.525 11.32m-74.134-33.752 23.801-39.015v39.015z" style="fill:#000;fill-rule:evenodd;stroke:none"/></svg>