<svg xmlns="http://www.w3.org/2000/svg" width="179.977" height="239.819" viewBox="0 0 507.937 676.822"><path d="m315 545-80-170 80-170 80 170z" style="fill:none;stroke:#fff;stroke-width:40" transform="translate(1307.772 374.59)"/><path d="M1.693 648V28.879c0-14.973 12.134-27.186 27.134-27.186h450.26c14.971 0 27.156 12.213 27.156 27.186v619.12c0 15.001-12.157 27.13-27.157 27.13H28.826c-14.999 0-27.133-12.129-27.133-27.13z" style="fill:#fff;fill-rule:evenodd;stroke:#000;stroke-opacity:1;stroke-width:2.257778;stroke-miterlimit:4;stroke-dasharray:none"/><path d="M7.323 647.523c0 11.874 9.605 21.48 21.487 21.48h450.293c11.853 0 21.505-9.606 21.505-21.48V28.355c0-11.848-9.652-21.484-21.505-21.484H28.81c-11.882 0-21.487 9.636-21.487 21.484z" style="fill:#000;fill-rule:evenodd;stroke:none"/><path d="M17.29 647.506V28.348c0-6.346 5.153-11.52 11.523-11.52h450.294c6.343 0 11.522 5.174 11.522 11.52v619.158c0 6.371-5.179 11.522-11.522 11.522H28.813c-6.37 0-11.524-5.15-11.524-11.522" style="fill:#fff;fill-rule:evenodd;stroke:none"/><path d="m164.912 541.865 2.153 2.53C175.832 554.708 191.663 563 209.167 563c21.164 0 41.383-14.2 50.94-33.518 15.83-31.901 18.462-110.144 18.462-118.12 0-68.246-13.836-101.074-15.483-104.636-10.872-23.637-30.475-37.628-53.595-37.628-11.413 0-22.727 4.141-32.377 11.176-23.682 17.25-29.428 45.775-33.62 93.436-1.785 20.122-2.543 38.876-2.543 51.685 0 38.312 6.653 77.816 9.13 86.216 3.224 11.116 7.978 21.755 14.83 30.254m172.052 0 2.157 2.53C347.884 554.708 363.714 563 381.219 563c21.163 0 41.384-14.2 50.952-33.518 15.832-31.901 18.464-110.144 18.464-118.12 0-68.246-13.832-101.074-15.48-104.636-10.876-23.637-30.494-37.628-53.611-37.628-11.416 0-22.726 4.141-32.378 11.176-23.682 17.25-29.425 45.775-33.618 93.436-1.788 20.122-2.546 38.876-2.546 51.685 0 38.312 6.653 77.816 9.13 86.216 3.225 11.116 7.979 21.755 14.831 30.254" style="fill:#000;fill-rule:evenodd;stroke:none"/><path d="m186.199 508.513-1.67-3.662c-1.196-2.67-10.57-35.316-10.57-82.51 0-41.555 6.587-77.902 9.963-88.875 5.502-17.931 15.113-24.684 25.36-24.684 6.91 0 13.845 3.235 18.782 8.92 4.899 5.632 11.527 15.565 15.186 54.173a356 356 0 0 1 2.036 38.08c0 39.179-5.978 74.213-9.691 86.74-5.743 19.357-15.58 26.596-27.19 26.596-10.045 0-17.572-5.447-22.206-14.778m172.058 0-1.676-3.662c-1.196-2.67-10.571-35.316-10.571-82.51 0-41.555 6.587-77.902 9.964-88.875 5.504-17.931 15.113-24.684 25.358-24.684 6.91 0 13.846 3.235 18.782 8.92 4.9 5.632 11.529 15.565 15.187 54.173a355 355 0 0 1 2.042 38.08c0 39.179-5.983 74.213-9.697 86.74-5.74 19.357-15.576 26.596-27.185 26.596-10.048 0-17.576-5.447-22.204-14.778" style="fill:#fff;fill-rule:evenodd;stroke:none"/><path d="M110.459 167.637h11.65l6.998-20.36h21.807l6.97 20.36h11.579L145.36 97.28h-10.866zm296.897 0h11.046V126.97l16.323 40.666 16.21-40.484v40.484h11.02V97.28h-11.048l-16.182 40.597-16.295-40.556h-11.074zm-360.966 0h11.052V126.97l16.323 40.666 16.223-40.484v40.484h11.003V97.28H89.946l-16.181 40.597-16.282-40.556H46.39zm223.221 0h11.046V126.97l16.323 40.666 16.209-40.484v40.484h11.017V97.28H313.16l-16.181 40.597-16.296-40.556H269.61zM68.831 557.03h33.376V275.349H79.48c-5.216 8.244-11.241 13.69-25.831 17.873v30.813H68.83zM342.727 97.28l.097 51.009c.788 11.186 11.02 20.953 23.187 20.953 12.947 0 23.347-9.777 23.855-23.275V97.322H379.06v48.476c0 6.642-5.884 12.523-12.679 12.523-4.152 0-8.318-2.095-10.64-5.557-1.365-2.015-2.083-4.096-2.18-7.29V97.281zm-163.821 70.357h12.212l11.47-23.737 11.468 23.737h12.213l-17.563-36.401 16.423-33.914h-12.241l-10.342 21.205L192.34 97.28h-12.17l16.295 33.955z" style="fill:#000;fill-rule:evenodd;stroke:none"/><path d="m132.807 136.372 7.203-21.108 7.149 21.108z" style="fill:#fff;fill-rule:evenodd;stroke:none"/><path d="M239.763 167.637h10.949V97.28h-10.949z" style="fill:#000;fill-rule:evenodd;stroke:none"/></svg>