<svg xmlns="http://www.w3.org/2000/svg" xml:space="preserve" width="435.219" height="543" viewBox="-0.999 0 435.219 543"><path d="M.005 37.086C.894 17.844 16.197.99 36.09.99h361.03c19.117 0 36.096 18.342 36.096 36.096v468.818c0 19.48-16.792 36.084-36.096 36.084H36.09c-19.892 0-36.084-16.367-36.084-36.084z" style="fill:#fff;fill-opacity:1;fill-rule:evenodd;stroke:#000;stroke-width:2.00045133;stroke-linecap:butt;stroke-linejoin:miter;stroke-miterlimit:1;stroke-opacity:1;stroke-dasharray:none"/><path d="M101.29 137.321c0 3.526.476 7.777.476 11.365 0 45.048 16.916 99.898 38.596 138.982 12.728 28.619 35.496 49.236 53.9 73.191 14.34 14.34 31.37 35.02 38.596 53.9 14.766 23.893 22.168 67.402 19.73 95.009h49.473c0-37.946-7.114-76.968-23.73-111.325-13.503-19.83-21.092-41.46-39.009-59.389-15.716-22.467-36.87-38.483-51.45-63.764-22.83-33.758-38.545-87.357-38.545-128.53v-9.439l28.144 7.89c10.164 2.688 14.94-7.827 10.402-14.279L125.009 44.35l-62.74 86.582c-6.876 9.44 2.576 16.792 11.353 14.278zm268.586-57.888H241.823l6.338 115.739c1.55 16.19 8.777 36.57 14.879 46.01 6.039 9.44 7.589 10.565 11.352 15.291 5.802 7.352 20.73 19.78 31.132 19.78h2.989c8.727-2.751 15.24-7.415 21.742-13.266 5.501-5.026 13.99-14.753 17.817-21.805 3.875-7.051 6.926-12.428 8.902-19.304 3.288-8.777 5.076-17.33 5.976-26.706zm45.41 426.334c0 9.74-8.301 18.216-18.228 18.216H36.038c-9.264 0-18.228-8.364-18.228-18.216V36.949c0-9.69 9.027-18.23 18.229-18.23h361.019c9.564 0 18.229 10.215 18.229 18.23zm10.403 0c0 15.353-12.965 29.156-28.631 29.156H36.038c-15.54 0-28.68-13.99-28.68-29.156V36.949c0-15.967 12.727-28.682 28.68-28.682h361.02c15.903 0 28.631 14.216 28.631 28.682z" style="fill:#000;fill-opacity:1;fill-rule:evenodd;stroke:none"/></svg>