<svg xmlns="http://www.w3.org/2000/svg" width="181.313" height="226.24" viewBox="0 0 511.704 638.5"><path d="m315 205 80 170-80 170-80-170z" style="fill:none;stroke:#fff;stroke-width:40" transform="translate(862.555 -125.552)"/><path d="M2.258 593.997c0 23.354 18.893 42.245 42.244 42.245H467.18c23.33 0 42.266-18.891 42.266-42.245V44.522c0-23.33-18.937-42.264-42.266-42.264H44.502c-23.351 0-42.244 18.934-42.244 42.264z" style="fill:#fff;fill-rule:evenodd;stroke:#000;stroke-opacity:1;stroke-width:2.25777784;stroke-miterlimit:4;stroke-dasharray:none"/><path d="M10.67 593.997c0 18.997 15.342 34.343 34.341 34.343h422.676c18.976 0 34.34-15.346 34.34-34.343V44.522c0-18.975-15.364-34.34-34.34-34.34H45.011c-19 0-34.34 15.365-34.34 34.34z" style="fill:#000;fill-rule:evenodd;stroke:none"/><path d="M488.884 593.995c0 11.73-9.467 21.195-21.197 21.195H45.009c-11.706 0-21.195-9.465-21.195-21.195V44.522c0-11.706 9.49-21.194 21.195-21.194h422.678c11.73 0 21.197 9.488 21.197 21.194z" style="fill:#fff;fill-rule:evenodd;stroke:none"/><path d="m380.901 495.522 9.27-24.268a8.26 8.26 0 0 1 7.153-6.572c3.965-.49 7.714 1.962 8.895 5.768l30.048 91.895-96.504-.554c-3.648.06-6.952-2.35-7.961-5.88-.965-3.401.347-7.063 3.29-9.025l20.143-16.323-111.459-80.93 25.562-35.14 111.577 81.015zM104.419 192.251h42.35V181.6h-30.22v-73.88h-12.13zm59.765 0h12.086V107.72h-12.086zm68.554-28.573h9.257v9.047c0 5.808-4.354 9.91-9.701 9.91-2.429 0-4.861-.846-6.615-2.514-1.585-1.523-3.087-3-4.734-12.978-1.185-7.08-1.65-13.06-1.65-17.835 0-2.577 1.144-22.296 4.989-27.557 1.65-2.24 4.733-3.845 8.158-3.845 5.26 0 9.87 4.5 9.636 10.818h11.75c-.633-13.99-10.314-22.697-21.851-22.697-5.916 0-12.068 2.601-16.568 7.99-2.136 2.576-3.317 4.733-4.437 8.578-1.754 6.215-3.317 16.23-3.317 27.368 0 23.437 5.388 33.624 8.726 37.596 3.107 3.697 9.594 6.932 16.44 6.932 6.15 0 11.624-2.408 16.147-8.072 2.935-3.659 4.565-7.376 5.03-14.373v-20.33h-21.26zm52.259 28.573h11.75V137.01l25.106 55.242h9.256v-84.49h-11.833v49.747l-22.4-49.789h-11.88zm80.96 0h42.14v-11.92h-30.22v-27.643h17.834v-11.79h-17.794v-21.135h28.995v-11.958h-40.954zM66.328 349.286v-60.524h8.03c5.367 0 10.08 3.256 11.916 9.808 1.292 4.648 2.412 12.447 2.412 19.989 0 15.427-3.363 24.474-3.803 25.235-1.565 2.705-5.137 5.092-9.047 5.492zm-11.88 12.008 22.783-.089c6.91-.504 14.941-5.75 18.259-11.878 1.84-3.4 5.178-12.974 5.178-30.703 0-20.774-4.461-29.755-9.405-34.891-4.038-4.183-8.768-6.508-15.975-6.973h-20.88zm100.942-35.717 5.45-22.614 5.536 22.614zm-20.88 35.717h12.216l5.832-23.756h16.819l5.96 23.756h12.175l-20.753-84.534H154.88zm82.333-51.482V288.68h14.37c4.416 0 7.989 2.79 7.989 10.652 0 6.463-2.77 9.467-7.186 10.48zm-11.92 51.482h12.13v-39.607h10.525l11.37 39.607h12.426l-12.003-41.719c7.376-3.572 11.43-9.257 11.43-20.753 0-16.526-11.62-21.342-16.756-21.807h-29.122zm88.863-51.482V288.68h14.37c4.416 0 7.989 2.79 7.989 10.652 0 6.463-2.77 9.467-7.186 10.48zm-11.92 51.482h12.13v-39.607h10.525l11.369 39.607h12.426l-12.002-41.719c7.376-3.572 11.434-9.257 11.434-20.753 0-16.526-11.624-21.342-16.76-21.807h-29.122zm76.966 0h42.14v-11.922h-30.22v-27.644h17.837V309.94h-17.794v-21.132h28.995v-11.961h-40.96zh87.197v-73.84h15.13V276.76h-42.223v10.693h15.13v73.84zm12.742-104.02h16.062l7.302 11.331h-11.271l-3.972-5.474-4.06 5.643h-11.893zM116.56 276.577h16.233l-10.277 17.253h-11.342z" style="fill:#000;fill-rule:evenodd;stroke:none"/></svg>