<svg xmlns="http://www.w3.org/2000/svg" width="181.22" height="241.161"><path d="M-1192.577-353.087a9.7 9.7 0 0 0 9.709 9.71h160a9.71 9.71 0 0 0 9.71-9.71v-219.931c0-5.365-4.346-9.72-9.71-9.72h-160c-5.375 0-9.71 4.355-9.71 9.72z" style="fill:#fff;fill-rule:evenodd;stroke:#000;stroke-opacity:1;stroke-width:1.2;stroke-miterlimit:4;stroke-dasharray:none" transform="translate(1193.477 583.638)"/><path d="M-1016.47-414.488v61.393a6.373 6.373 0 0 1-6.367 6.369h-159.996a6.37 6.37 0 0 1-6.373-6.369v-219.94a6.377 6.377 0 0 1 6.373-6.37h159.996c3.51 0 6.367 2.863 6.367 6.37z" style="fill:#008460;fill-rule:evenodd;stroke:none" transform="translate(1193.477 583.638)"/><path d="M-1061.737-471.788v-53.836h-13.826v-7.343h-44.656v7.343h-29.481v53.836zm-36.36-48.975c-11.164-.005-20.27 9.101-20.266 20.264 0 11.165 9.102 20.27 20.265 20.265 11.165.005 20.27-9.1 20.265-20.265 0-11.163-9.1-20.27-20.265-20.264m0 2.917c-9.555 0-17.348 7.793-17.348 17.347 0 9.556 7.793 17.348 17.347 17.348s17.348-7.792 17.348-17.348c0-9.554-7.793-17.347-17.347-17.347m44.73-33.862-19.37 19.595 4.344 4.276 19.371-19.6zm-99.72-.27 19.37 19.595-4.345 4.276-19.372-19.6zm100.44 107.46-19.37-19.595 4.344-4.276 19.372 19.6zm-99.72.269 19.37-19.594-4.345-4.276-19.371 19.599zm27.36 13.23 13.75-23.865-5.244-2.996-13.751 23.83zm43.56-.088-13.751-23.868 5.244-2.995 13.752 23.829zm-43.56-135.272 13.75 23.868-5.244 2.995-13.751-23.83zm43.56.09-13.751 23.867 5.244 2.996 13.752-23.83zm-73.588 191.014h4.66v-29.97h-4.66zm17.117 0h4.735v-25.76h6.728v-4.21h-18.237v4.24h6.774zm17.148 0h18.307v-4.736h-13.586v-8.406h8.646v-4.675h-8.69v-7.45h12.63v-4.703h-17.307zm24.82-7.509.105.27.255.585c2.069 4.74 6.163 7.293 10.75 7.293 1.458 0 2.412-.22 3.096-.504 3.606-1.424 5.904-4.921 5.904-8.529 0-2.26-.694-4.228-2.172-6.052-1.42-1.754-3.092-2.963-7.283-3.748-1.74-.328-2.803-.427-3.491-.973-.62-.485-1.055-1.343-1.055-2.348 0-2.366 1.903-4.29 4.386-4.29 2.283 0 3.546 1.329 4.326 3.298l4.39-1.515c-1.268-3.995-4.73-6.528-8.782-6.528-4.879 0-9.09 4.306-9.09 8.991 0 1.928.794 3.977 2.169 5.435 1.028 1.09 2.541 2.023 5.363 2.472 1.01.17 2.044.208 3.012.54 2.183.74 3.557 2.68 3.557 4.723 0 2.324-2.087 4.393-4.425 4.393-2.717 0-5.276-1.579-6.578-4.921zm26.594 0 .105.27.255.585c2.066 4.74 6.164 7.293 10.748 7.293 1.459 0 2.412-.22 3.098-.504 3.607-1.424 5.904-4.921 5.904-8.529 0-2.26-.694-4.228-2.174-6.052-1.417-1.754-3.09-2.963-7.282-3.748-1.738-.328-2.801-.427-3.493-.973-.618-.485-1.053-1.343-1.053-2.348 0-2.366 1.905-4.29 4.386-4.29 2.282 0 3.547 1.329 4.326 3.298l4.392-1.515c-1.27-3.995-4.73-6.528-8.782-6.528-4.88 0-9.092 4.306-9.092 8.991 0 1.928.795 3.977 2.167 5.435 1.031 1.09 2.544 2.023 5.365 2.472 1.01.17 2.043.208 3.014.54 2.182.74 3.555 2.68 3.555 4.723 0 2.324-2.089 4.393-4.426 4.393-2.717 0-5.273-1.579-6.577-4.921zm27.593 7.51h18.31v-4.737h-13.592v-8.406h8.647v-4.675h-8.692v-7.45h12.634v-4.703h-17.307zm-131.115 0h3.732l9.38-29.97h-4.914l-6.324 20.212-6.338-20.213h-4.945z" style="fill:#fff;fill-rule:evenodd;stroke:none" transform="translate(1193.477 583.638)"/></svg>