<svg xmlns="http://www.w3.org/2000/svg" xml:space="preserve" width="97.664" height="162.501" viewBox="0 0 36.258 65.626"><path d="M-1.511 58.998a6.545 6.545 0 0 0 6.546 6.547h26.187a6.547 6.547 0 0 0 6.547-6.547V6.628A6.55 6.55 0 0 0 31.222.08H5.035A6.547 6.547 0 0 0-1.51 6.627z" style="fill:#008460;fill-rule:evenodd;stroke:none"/><path d="M-1.318 58.998V6.628A6.354 6.354 0 0 1 5.035.273h22.72V65.35H5.036a6.35 6.35 0 0 1-6.353-6.353" style="fill:#fff;fill-rule:evenodd;stroke:none"/><path d="M26.025 29.518H.427V58.98a4.616 4.616 0 0 0 4.616 4.615h20.982zM.427 27.584h25.598V1.994H5.043A4.616 4.616 0 0 0 .427 6.61z" style="fill:#008460;fill-rule:evenodd;stroke:none"/><path d="M5.997 51.517v-1.875l9.496-12.894h3.113v11.97h1.846v2.77h-1.846v4.9h-3.063v-4.87zm5.599-30.733-.002-8.892h2.51v.518a3.25 3.25 0 0 1 2.412-.598 3.24 3.24 0 0 1 1.835.938c.43-.324.918-.57 1.436-.723a4.5 4.5 0 0 1 1.584-.17 3.355 3.355 0 0 1 2.894 3.293v5.648h-2.44v-5.44a1.352 1.352 0 0 0-2.686-.028v5.459h-2.442V15.31a1.35 1.35 0 0 0-2.621-.206l.002 5.68zm-9.393.022V9.75l2.426-.95v5.514l2.157-2.415h3.15L7.52 14.744l2.42 6.066H7.288l-1.544-3.9-1.12 1.22v2.676z" style="fill:#fff;fill-rule:evenodd;stroke:none"/><path d="M10.132 48.729h5.39v-7.316z" style="fill:#008460;fill-rule:evenodd;stroke:none"/></svg>