<svg xmlns="http://www.w3.org/2000/svg" width="604" height="604" viewBox="0 0 604 604"><g transform="translate(0 -392)"><rect width="602" height="602" x="1" y="393" rx="51" ry="51" style="fill:#000;fill-rule:evenodd;stroke:none;stroke-width:.7029;stroke-linecap:round;stroke-linejoin:bevel"/><rect width="600" height="600" x="2" y="394" rx="50" ry="50" style="fill:#fff;fill-rule:evenodd;stroke:none;stroke-width:.700564;stroke-linecap:round;stroke-linejoin:bevel"/><rect width="580" height="580" x="12" y="404" rx="40" ry="40" style="fill:#000;fill-rule:evenodd;stroke:none;stroke-width:.677212;stroke-linecap:round;stroke-linejoin:bevel"/><rect width="550" height="550" x="27" y="419" rx="25" ry="25" style="fill:#fff;fill-rule:evenodd;stroke:none;stroke-width:.642184;stroke-linecap:round;stroke-linejoin:bevel"/><circle cx="302" cy="694" r="260" style="fill:#ee2a2a;fill-opacity:1;fill-rule:evenodd;stroke:none;stroke-width:.982978;stroke-linecap:round;stroke-linejoin:bevel"/><circle cx="302" cy="694" r="231" style="fill:#fff;fill-rule:evenodd;stroke:none;stroke-width:.873338;stroke-linecap:round;stroke-linejoin:bevel"/><path d="M64.198 646.5A242.5 242.5 0 0 1 302 451.5a242.5 242.5 0 0 1 237.802 195Zm475.604 95A242.5 242.5 0 0 1 302 936.5a242.5 242.5 0 0 1-237.802-195Z" style="fill:#ee2a2a;fill-opacity:1;fill-rule:evenodd;stroke:none;stroke-width:.916816;stroke-linecap:round;stroke-linejoin:bevel"/></g></svg>