<svg xmlns="http://www.w3.org/2000/svg" width="604" height="904" viewBox="0 0 604 904"><g transform="translate(0 208)"><rect width="602" height="902" x="1" y="-207" rx="51" ry="51" style="fill:#000;fill-rule:evenodd;stroke:none;stroke-width:1.61882;stroke-linecap:round;stroke-linejoin:bevel"/><rect width="600" height="900" x="2" y="-206" rx="50" ry="50" style="fill:#fff;fill-rule:evenodd;stroke:none;stroke-width:1.61434;stroke-linecap:round;stroke-linejoin:bevel"/><rect width="580" height="880" x="12" y="-196" rx="40" ry="40" style="fill:#000;fill-rule:evenodd;stroke:none;stroke-width:1.56948;stroke-linecap:round;stroke-linejoin:bevel"/><rect width="550" height="850" x="27" y="-181" rx="25" ry="25" style="fill:#fff;fill-rule:evenodd;stroke:none;stroke-width:1.50207;stroke-linecap:round;stroke-linejoin:bevel"/><path d="M109 511h16.17v-28.71l19.304-.083L157.531 511h17.882l-14.293-31.812c8.655-4.588 14.31-13.813 14.31-24.116 0-14.979-11.921-27.07-26.553-27.07H109Zm119.873-15.382c-13.378-.237-18.135-15.435-18.135-25.013 0-8.84 3.301-16.615 6.603-20.392 3.505-3.998 7.382-5.6 11.226-5.6 10.905 0 18.051 12.077 18.051 24.912 0 6.696-1.575 12.563-4.013 16.833-3.843 6.712-8.72 9.19-13.732 9.26m-.018 16.612c4.014 0 9.146-1.164 13.718-3.56 1.557-.825 20.878-11.047 20.878-39.061 0-9.158-2.421-17.877-5.67-23.698-6.996-12.598-18.376-18.705-29.01-18.705-7.74 0-15.868 3.241-22.709 10.357-7.027 7.353-12.174 19.431-12.174 32.585 0 22.364 14.293 42.082 34.967 42.082m53.257-84.227v50.73c.017 18.656 15.02 33.445 33.191 33.445 18.237 0 33.207-14.942 33.207-33.612v-.034l-.05-50.53h-16.19l.017 50.547c.017 9.58-7.672 17.204-16.984 17.204-9.384 0-17.021-7.608-17.004-17.068l.07-50.682zM383.646 511H399.8v-66.421l22.489.067-.018-16.645h-61.248l-.017 16.627 22.606.052zm51.155 0H496v-16.531l-45.11-.05.052-19.345 24.502-.069-.07-16.476-24.418.066v-13.966l43.824-.034-.085-16.595h-59.894zm-309.645-45.49-.035-20.594 23.91-.084c5.402-.015 10.058 4.454 10.058 10.305 0 5.667-4.418 10.324-9.989 10.339" style="fill:#000;fill-opacity:1;fill-rule:evenodd;stroke:none;stroke-width:.633741"/><path d="M133.284 637h61.225v-16.542l-45.13-.05.05-19.344 24.516-.066-.07-16.476-24.429.066v-13.96l43.845-.034-.087-16.592h-59.92zm96.548-45.497-.034-20.59 23.92-.083c5.404-.019 10.062 4.451 10.062 10.303 0 5.664-4.42 10.32-9.993 10.337zM213.705 637h16.142v-28.718l19.314-.087L262.221 637h17.89l-14.299-31.82c8.659-4.587 14.317-13.81 14.317-24.114 0-14.974-11.927-27.065-26.563-27.065H213.67zm89.718 0h16.282l-.052-46.71L341.88 637l22.243-46.78.017 46.78h16.247l-.084-83h-16.96l-21.48 45.108-21.43-45.107H303.56zm101.968 0h61.226v-16.542l-45.13-.05.05-19.344 24.513-.066-.067-16.476-24.432.066v-13.96l43.845-.034-.085-16.592h-59.92zm80.386 0H547v-16.542l-45.13-.05.05-19.344 24.515-.066-.069-16.476-24.429.066v-13.96l43.845-.034-.085-16.592h-59.92zm-412.362 0-.066-34.535 25.446-.019-.018-16.745-25.411.084-.034-15.16 44.943-.033-.07-16.592H57v83" style="fill:#000;fill-opacity:1;fill-rule:evenodd;stroke:none;stroke-width:.633816"/><path d="m428.9 531.9-10.46 15h22l13.72-15" style="fill:#000;fill-opacity:1;fill-rule:evenodd;stroke:none;stroke-width:.634108"/><circle cx="302" cy="103" r="260" style="fill:#ee2a2a;fill-opacity:1;fill-rule:evenodd;stroke:none;stroke-width:.982978;stroke-linecap:round;stroke-linejoin:bevel"/><circle cx="302" cy="103" r="231" style="fill:#fff;fill-rule:evenodd;stroke:none;stroke-width:.873338;stroke-linecap:round;stroke-linejoin:bevel"/><path d="M64.198 55.5A242.5 242.5 0 0 1 302-139.5a242.5 242.5 0 0 1 237.802 195Zm475.604 95A242.5 242.5 0 0 1 302 345.5a242.5 242.5 0 0 1-237.802-195Z" style="fill:#ee2a2a;fill-opacity:1;fill-rule:evenodd;stroke:none;stroke-width:.916816;stroke-linecap:round;stroke-linejoin:bevel"/></g></svg>