<svg xmlns="http://www.w3.org/2000/svg" width="180.41" height="45.68" viewBox="82.992 45.607 528.469 147.335"><path d="M58.538 167.75V71.086c0-12.773 10.159-23.222 22.935-23.222h531.509c12.773 0 22.932 10.45 22.932 23.222v96.662c0 12.773-10.16 22.935-22.932 22.935H81.472c-12.775 0-22.934-10.162-22.934-22.935z" style="fill:#fff;fill-opacity:1;fill-rule:evenodd;stroke:#000;stroke-opacity:1;stroke-width:1.93523063;stroke-miterlimit:4;stroke-dasharray:none"/><path d="M202.385 54.14v130.75h410.66c9.378 0 16.978-7.6 16.978-16.978V71.118c0-9.374-7.6-16.977-16.978-16.977zm-7.122 130.749V54.14H81.516c-9.382 0-16.97 7.603-16.97 16.977v96.793c0 9.379 7.588 16.978 16.97 16.978z" style="fill:#008460;fill-opacity:1;fill-rule:evenodd;stroke:none"/><path d="M78.858 170.652V68.432h102.223v102.22z" style="fill:#fff;fill-opacity:1;fill-rule:evenodd;stroke:none"/><path d="m134.012 142.496 15.496.122.075-7.114-9.296.078a15.25 15.25 0 0 1 1.796-7.398 8.5 8.5 0 0 1 4.083-3.681 8.6 8.6 0 0 1 5.516-.433 8.33 8.33 0 0 1 4.618 3.787 8.3 8.3 0 0 1 .886 5.981 13.37 13.37 0 0 0 7.772-7.28 13.4 13.4 0 0 0 .52-9.15 13.77 13.77 0 0 0-7.284-8.04 13.73 13.73 0 0 0-9.052-.835 16.5 16.5 0 0 0-7.012 4.395 16.7 16.7 0 0 0-3.854 6.665 41.4 41.4 0 0 0-1.957 7.627 40.7 40.7 0 0 0-.453 8.307l-3.465-.063a60 60 0 0 1 .087-6.709 60 60 0 0 1 .91-7.13 59 59 0 0 1 2.4-7.398 59 59 0 0 1 3.529-7.347 20.9 20.9 0 0 0 2.366-8.02 20.7 20.7 0 0 0-.764-7.678 26 26 0 0 0-2.079-4.61 26 26 0 0 0-2.953-4.142c-1.015-1.237-2.047-2.457-3.075-3.678a486 486 0 0 0-2.89-3.334c-.823 1.114-1.697 2.043-2.582 3.102-1.115 1.343-2.347 2.544-3.465 4.048-1.11 1.484-2.162 2.555-3.008 3.992a21.6 21.6 0 0 0-2.032 4.61 20.5 20.5 0 0 0-.835 7.627 20.6 20.6 0 0 0 2.378 8.083 54.4 54.4 0 0 1 3.576 7.359 55 55 0 0 1 2.338 7.441q.662 3.539.906 7.127c.153 2.208.185 4.429.094 6.634l-3.63.086a44 44 0 0 0-.437-8.264 43.4 43.4 0 0 0-1.839-7.67 17 17 0 0 0-3.827-6.622 16.85 16.85 0 0 0-7.024-4.504 13.55 13.55 0 0 0-9.024.791 13.53 13.53 0 0 0-7.217 8.083 12.936 12.936 0 0 0 8.103 16.371 8.4 8.4 0 0 1 .957-5.921 8.42 8.42 0 0 1 4.543-3.733 8.44 8.44 0 0 1 5.639.468c1.65.745 3.015 2 3.905 3.58a14.5 14.5 0 0 1 1.394 3.464c.347 1.32.496 2.67.453 4.036l-9.335-.252-.012 7.193 15.517-.05a7.54 7.54 0 0 1-3.615 6.165 7.54 7.54 0 0 1-5.713.878 5.57 5.57 0 0 0 3.721 4.307 5.58 5.58 0 0 0 5-.748c0 2.122.496 4.217 1.46 6.11a13.4 13.4 0 0 0 3.399 4.241 12.1 12.1 0 0 0 3.547-4.217 12.25 12.25 0 0 0 1.32-6.209 5.542 5.542 0 0 0 8.745-3.465 7.66 7.66 0 0 1-5.651-.905 7.67 7.67 0 0 1-3.689-6.126z" style="fill:#008460;fill-opacity:1;fill-rule:evenodd;stroke:none"/><path d="M261.889 154.713c-2.106.926-5.028 1.603-8.67 1.603-3.536 0-6.784-.756-10.902-3.036-4.878-2.709-9.406-8.58-10.686-13.182l-1.807-6.603c-1.13-4.878-1.83-11.051-1.83-15.752 0-15.607 3.862-24.329 6.61-27.93 4.78-6.269 11.792-9.643 19.32-9.643 8.229 0 15.23 4.024 19.406 11.414 1.58 2.787 3.666 8.67 4.316 13.622l.94 7.241c.237 2.37.363 4.74.363 7.11 0 17.718-4.788 25.868-8.63 29.558l2.799 3.838-8.229 5.898zM297.04 81.95h11.15v49.628c.115 3.284.843 5.43 2.249 7.505 2.397 3.559 6.685 5.72 10.965 5.72 6.989 0 13.06-6.059 13.06-12.898V81.989h11.115v50.105c-.516 13.887-11.23 23.946-24.565 23.946-12.532 0-23.06-10.051-23.871-21.564zm296.908 55.022 10.212 4.24c-1.455 3.851-5.12 8.532-8.446 10.84-3.375 2.346-8.93 4.138-13.499 4.138-7.6 0-14.728-3.54-18.667-8.453-3.475-4.308-8.156-13.89-8.156-30.388v-.677c0-8.253 2.423-17.233 6.16-23.78 4.532-7.93 12.06-12.332 20.865-12.332 14.74 0 21.005 11.926 21.929 16.245l-10.511 3.472c-1.206-4.563-6.326-8.603-11.958-8.603-12.858 0-15.236 19.86-15.236 25.502 0 23.371 8.712 27.84 15.336 27.84 3.94 0 7.842-1.984 10.374-5.571l.694-.98a20 20 0 0 0 .903-1.493m-165.671 17.426V81.95h28.474c9.822.339 17.978 8.784 17.978 18.202 0 6.84-3.939 13.174-9.974 16.147 6.902 2.972 11.66 10.201 11.66 17.953 0 10.387-8.523 19.38-18.255 20.08zm-62.567 0V81.95h41.837v11.383h-30.53v18.001h21.014v11.3h-20.915v20.324h32.868v11.441zm129.831 0V81.95h41.837v11.383h-30.532v18.001h21.001v11.3h-20.9v20.324h32.855v11.441z" style="fill:#fff;fill-opacity:1;fill-rule:evenodd;stroke:none"/><path d="m248.329 135.744 8.15-5.835 7.004 9.713c1.717-2.437 2.883-5.508 3.186-8.044l.791-6.701c.086-1.063.15-2.272.15-4.177 0-4.74-.441-9.481-1.233-14.15-1.177-7.013-3.047-9.773-4.638-11.34-2.382-2.343-4.854-3.551-8.579-3.551-4.366 0-8.205 2.346-10.11 5.91-1.399 2.582-3.544 9.122-3.544 19.733 0 12.446 2.551 19.206 4.193 21.89 2.343 3.84 6.8 5.848 10.248 5.509l.729-.075zm191.176 7.362h16.521c5.758-.212 9.209-4.228 9.209-8.654 0-6.362-5.766-11.859-10.437-11.859h-15.293z" style="fill:#008460;fill-opacity:1;fill-rule:evenodd;stroke:none"/><path d="M383.077 64.409h18.808l-10.213 11.213h-16.387z" style="fill:#fff;fill-opacity:1;fill-rule:evenodd;stroke:none"/><path d="M439.655 111.408h13.296c5.797-.492 10.377-5.457 10.377-10.788 0-4.394-2.952-7.288-6.904-7.288h-16.769z" style="fill:#008460;fill-opacity:1;fill-rule:evenodd;stroke:none"/></svg>