<svg xmlns="http://www.w3.org/2000/svg" width="179.669" height="179.671"><path d="M-1166.055-432.62V-597.5c0-3.78 3.06-6.84 6.75-6.84h164.88c3.78 0 6.84 3.06 6.84 6.84v164.88c0 3.69-3.06 6.75-6.84 6.75h-164.88c-3.69 0-6.75-3.06-6.75-6.75z" style="fill:#fff;fill-rule:evenodd;stroke:#000;stroke-opacity:1;stroke-width:.8;stroke-miterlimit:4;stroke-dasharray:none" transform="translate(1166.655 604.94)"/><path d="M-1163.236-432.645a3.953 3.953 0 0 0 3.956 3.955h164.895a3.95 3.95 0 0 0 3.949-3.955V-597.54a3.95 3.95 0 0 0-3.949-3.95h-164.895a3.953 3.953 0 0 0-3.956 3.95z" style="fill:#008460;fill-rule:evenodd;stroke:none" transform="translate(1166.655 604.94)"/><path d="M-1021.295-477.143v19.132a616 616 0 0 0-57.411 3.787 614 614 0 0 0-51.988 8.133l-.833-2.996zm-50.26-2.007-5.024 1.924c-1.542-3.876-5.9-5.808-9.806-4.314a7.61 7.61 0 0 0-4.386 9.852l-28.522 10.951c-1.5-3.969-5.889-5.835-9.827-4.312-3.927 1.525-5.879 5.96-4.322 9.886l-2.519.967-1.103-2.868 1.366-.53-4.462-11.62a.97.97 0 0 1 0-.767.95.95 0 0 1 .56-.51l4.566-1.796c.377-.12.687-.362.896-.712a1.64 1.64 0 0 0 .207-1.06l-1.076-7.69a2.7 2.7 0 0 1 .313-1.645 2.74 2.74 0 0 1 1.371-1.236l9.015-3.54-2.298-5.94 42.973-16.502 12.073 31.463zm4.68-26.64-1.827-1.219 42.079-16.266 1.836 1.137zm13.5 5.04-1.726-1.157 38.576-15.323 1.817 1.106zm-30.042-43.25c-11.617 0-18.225-9.483-18.225-19.864 0-5.017 1.629-9.726 4.032-12.992 3.28-4.448 7.886-6.989 14.481-6.989 12.262 0 17.946 10.841 17.946 19.81 0 8.617-5.161 20.034-18.234 20.034m35.887-12.993 7.588.055c-.104 3.727 2.32 6.786 8.229 6.786 6.082 0 7.912-2.748 7.912-5.171 0-.703-.297-1.679-.942-2.494-1.249-1.568-3.244-1.834-4.629-2.194l-7.629-1.911c-6.573-1.643-9.234-5.531-9.234-10.3 0-6.158 4.557-11.704 14.48-11.704 5.452 0 9.462 1.81 11.582 3.754 2.061 1.86 3.451 4.371 3.766 8.486l-7.439-.072a6.17 6.17 0 0 0-1.777-4.068c-1.074-1.074-3.08-1.973-5.684-1.973-5.337 0-7.179 2.58-7.179 4.755 0 .962.326 1.764.982 2.463.543.582.83.916 3.486 1.597l8.881 2.247c6.435 1.61 9.366 5.901 9.366 10.593 0 6.333-4.758 12.22-15.726 12.22-10.886 0-16.033-6.161-16.033-13.07m-103.573.001 7.592.055c-.108 3.727 2.314 6.786 8.224 6.786 6.085 0 7.912-2.748 7.912-5.171 0-.703-.297-1.679-.943-2.494-1.25-1.568-3.24-1.834-4.628-2.194l-7.624-1.911c-6.577-1.643-9.24-5.531-9.24-10.3 0-6.158 4.561-11.704 14.487-11.704 5.444 0 9.454 1.81 11.58 3.754 2.062 1.86 3.447 4.371 3.768 8.486l-7.44-.072a6.2 6.2 0 0 0-1.782-4.068c-1.074-1.074-3.076-1.973-5.685-1.973-5.331 0-7.176 2.58-7.176 4.755 0 .962.325 1.764.981 2.463.544.582.832.916 3.484 1.597l8.883 2.247c6.432 1.61 9.37 5.901 9.37 10.593 0 6.333-4.76 12.22-15.726 12.22-10.891 0-16.037-6.161-16.037-13.07m92.328 63.085-1.889-1.066 24.98-9.82 2.152 1.067zm-10.619-5.76-1.738-.924 24.777-9.78 2.05 1.108z" style="fill:#fff;fill-rule:evenodd;stroke:none" transform="translate(1166.655 604.94)"/><path d="M-1083.24-550.344c3.004-.035 5.418-1.258 7.307-3.857 1.637-2.233 2.847-5.585 2.847-9.65 0-9.379-5.369-13.67-10.32-13.67-4.978 0-10.323 4.273-10.323 13.647 0 3.457 1.448 13.53 10.488 13.53" style="fill:#008460;fill-rule:evenodd;stroke:none" transform="translate(1166.655 604.94)"/><path d="M-1128.656-463.818a6.13 6.13 0 0 1 7.933 3.527c1.222 3.157-.362 6.723-3.537 7.94-3.157 1.222-6.705-.376-7.927-3.533-1.21-3.162.362-6.724 3.531-7.934m42.66-16.379c3.158-1.216 6.724.38 7.933 3.525 1.222 3.169-.38 6.731-3.537 7.945-3.157 1.216-6.724-.372-7.934-3.541-1.214-3.148.369-6.714 3.538-7.93" style="fill:#fff;fill-rule:evenodd;stroke:none" transform="translate(1166.655 604.94)"/><path d="m-1122.52-477.13-3.203-8.34-6.894 2.69a.78.78 0 0 0-.39.342.9.9 0 0 0-.12.501l.997 7.125c.045.319.222.585.502.76.27.159.603.18.9.069z" style="fill:#008460;fill-rule:evenodd;stroke:none" transform="translate(1166.655 604.94)"/><path d="M-1006.934-552.807a4.19 4.19 0 0 1 4.176 4.177 4.19 4.19 0 0 1-4.176 4.177 4.19 4.19 0 0 1-4.178-4.177 4.19 4.19 0 0 1 4.178-4.177m-50.401 0a4.19 4.19 0 0 1 4.177 4.177 4.19 4.19 0 0 1-4.177 4.177 4.19 4.19 0 0 1-4.177-4.177 4.19 4.19 0 0 1 4.177-4.177m-52.56 0a4.19 4.19 0 0 1 4.177 4.177 4.19 4.19 0 0 1-4.177 4.177 4.19 4.19 0 0 1-4.177-4.177 4.19 4.19 0 0 1 4.177-4.177" style="fill:#fff;fill-rule:evenodd;stroke:none" transform="translate(1166.655 604.94)"/></svg>