<svg xmlns="http://www.w3.org/2000/svg" width="244.066" height="244.056"><path d="m-49.98-214.184-74.4-74.175-1.05-1.2-.6-1.2-.375-1.65-.225-1.425.225-1.35.375-1.65.6-1.2 1.05-1.2 74.4-74.25 1.2-.975 1.2-.6 1.65-.375 1.425-.225 1.425.225 1.575.375 1.2.6 1.2.975 74.475 74.25.975 1.2.6 1.2.45 1.65.15 1.35-.15 1.425-.45 1.425-.6 1.425-.975 1.2-74.475 74.175-1.2 1.05-1.2.6-1.575.375-1.425.225-1.425-.225-1.65-.375-1.2-.6z" style="fill:#e15421;fill-opacity:1;fill-rule:evenodd;stroke:none" transform="translate(963.998 -47.91)"/><path d="m-49.155-215.16 1.2.826.975.6 1.2.375h2.475l1.2-.375.975-.6 1.275-.825 74.175-74.025.825-1.2.6-.975.375-1.2v-2.475l-.375-1.2-.6-.975-.825-1.2-74.175-74.025-1.275-.825-.975-.6-1.2-.375h-2.475l-1.2.375-.975.6-1.2.825-74.25 74.025-.825 1.2-.6.975-.375 1.2v2.475l.375 1.2.6.975.825 1.2z" style="fill:#1f1a17;fill-opacity:1;fill-rule:evenodd;stroke:none" transform="translate(963.998 -47.91)"/><path d="m-47.355-216.81-74.4-74.174-.45-.6-.375-.6-.225-.825-.15-.825.15-.75.225-.825.375-.6.45-.6 74.4-74.25 1.2-.75.825-.225.825-.225.75.225.825.225 1.2.75 74.475 74.25.75 1.2.225.825.225.75-.45 1.65-.75 1.2-74.475 74.175-.6.45-.6.375-.825.225-.75.225-1.65-.45-.6-.375z" style="fill:#e15421;fill-opacity:1;fill-rule:evenodd;stroke:none" transform="translate(963.998 -47.91)"/><path d="M-54.63-275.46v.6l61.05-7.274-.225-2.175-55.35 8.025 45.9-12.675-.45-2.025-46.05 14.1 47.925-21.15-1.05-2.25zm-38.85-5.85h31.575v5.85l.15.226.225.15.45.225h4.2l.45-.225.375-.375v-5.625h5.25l.375-.225.45-.225.225-.15v-4.875l-.45-.375-.225-.225h-.6v-9.45l-1.8-1.65-3.45-12.3-2.625-.6-2.4-.375-2.4-.45-2.7-.375-2.4-.225-2.25-.15h-13.5l-2.475.15-2.175.225-2.475.375-2.625.45-2.4.375-2.625.6-3.45 12.3-1.8 1.65v9.45h-.45l-.375.225-.225.375-.15.225v4.65l.15.15.45.225.375.225h5.25v5.625l.225.225.225.15.375.225h4.275l.375-.225.225-.15.15-.225.225-.375z" style="fill:#1f1a17;fill-opacity:1;fill-rule:evenodd;stroke:none" transform="translate(963.998 -47.91)"/><path d="M-58.305-298.41h-39l1.425-10.724v-.225l.225-.15.375-.225h35.175l.375.375v.225z" style="fill:#e15421;fill-opacity:1;fill-rule:evenodd;stroke:none" transform="translate(963.998 -47.91)"/><path d="M16.095-302.91h-.15l-.45-.15h-.75l-.225.15-.225.226-.15.45-.225.15-.825.825-.375.225-.45.375-.375.225-.225.15-.375.225v1.425l.375.6.45.6.15.6.6.375.825.825.45.225h.375l.375-.225.45-.15.375-.45.825-.825.225-.375.375-.6.225-.6.375-.225.225-.375.375-.45.45-.75-.225-.45-.225-.15-.375-.45-.6-.375zm-4.8 19.8.375.376.45.225h.375l.225.225.975-.225h.225l.375-.375.225-.45.375-.15.225-.45.375-.225.825-.975.225-.6v-2.025l-.45-2.4-.15-.45-.45-.15h-.75l-1.425.375-.45-.225h-.375l-.375.225-.45.225-.825.975v.825l-.15.825-.225.6-.375.375-.225 1.05v.75l.375.45.225.15zm-20.85-17.324h.6l.6-.225.45-.225.6-.15 1.2-1.2h.375v-.225l.225-.225v-.375l-.225-.45v-.375l-.15-.225-.225-.15-.6-.45h-.6l-.6-.15-.6-.225h-1.65l-1.2.225h-.45l-.6.6v.375l.225.825v.6l-.225.225v.375l.225.225.225.15.15.45.225.15 1.425.45zm13.575 14.1.15-.225v-.15l.225-.225-.225-.45.225-1.95v-.6l-.225-.45-.375-.375h-.6l-.225-.225h-.375l-.225-.225h-.375l-.225.225-.225.375-.15.45-.45.375-.375.225-.6.225-.45.375-.15.375-.225.225v1.2l.225.825.375.225H.12l.225.15h.45l.375.45.375.15h.6l.45.225zm-3.45-6.45.225-.225h.375l.225-.15.15-.225.825-.825.45-.825.15-.75.825-1.275.225-.15v-.825l-.6-.225h-.225l-.225-.15-.6-.225-.375.225-.6.375-.45.375-.375.45-.225.6-.225.375-.375.45-.375.15-.225.225-.375.825v1.2l.15.225h.225l.225.15h.375zm.825-15.75h.375l.375-.225.225-.15h.225l.225-.225h.975l.375-.225.45-.75v-1.05l-.225-.6-.225-.375-.75-.45-.45-.15h-1.2l-.375.15-1.425.825-.225.225H-.48l-.15.225-.225.15v1.425l.225.375.15.45.45.15.375.225zm6.075 5.474v-.6l-.225-.45-.225-.6-.6-.6-1.65-.6H2.82l-.45.6-.375.6v1.426l.15.825.675.6.6.225h.375l.6.15h.6l.45-.15h.6l.15-.225.225-.225.225-.15zm2.4 11.1.225-.224.15-.375.225-.45.225-.6-.225-.375v-.6l-.375-.6-.45-.45-.375-.15-.6-.225-.45.225h-.15l-.45.15-.15.45-.45.375v.6l-.6.6-.375.45-.45.375v.825l.45.75.6.225h.6l.375-.225.6-.375.825-.225zm11.1.976.225-.375.225-.6v-.6l-.225-.825-.225-.6v-.225l-.375-.375-.45-.225-.6-.375-.6-.225h-.375v.225h-.225l-.825 1.2-.15.15-.225.45-.225.375v1.05l.225.15.225.225.15.225v.15l.825.825.45.225.6.225h.6z" style="fill:#1f1a17;fill-opacity:1;fill-rule:evenodd;stroke:none" transform="translate(963.998 -47.91)"/><path d="m-850.188 288.362-110.2-110.194a11.57 11.57 0 0 1-3.41-8.235 11.6 11.6 0 0 1 3.403-8.213l110.207-110.205a11.55 11.55 0 0 1 8.224-3.404c2.984 0 5.956 1.126 8.224 3.404l110.206 110.194a11.56 11.56 0 0 1 3.402 8.212c0 2.985-1.138 5.957-3.408 8.236l-110.2 110.205a11.58 11.58 0 0 1-8.224 3.405 11.58 11.58 0 0 1-8.224-3.405" style="fill:#ef7b00;fill-rule:evenodd;stroke:none;fill-opacity:1" transform="translate(963.998 -47.91)"/><path d="M-848.772 286.947a9.62 9.62 0 0 0 13.616 0l110.194-110.205c3.765-3.754 3.765-9.853 0-13.618L-835.156 52.93c-3.764-3.765-9.853-3.751-13.616 0l-110.194 110.206a9.626 9.626 0 0 0-.01 13.618l110.2 110.193z" style="fill:#000;fill-rule:evenodd;stroke:none" transform="translate(963.998 -47.91)"/><path d="m-846.267 284.44-110.194-110.192a6.103 6.103 0 0 1-.01-8.618l110.2-110.194a6.09 6.09 0 0 1 8.607 0l110.192 110.194c2.375 2.384 2.375 6.233 0 8.606L-837.66 284.44a6.09 6.09 0 0 1-8.607 0" style="fill:#ef7b00;fill-rule:evenodd;stroke:none;fill-opacity:1" transform="translate(963.998 -47.91)"/><path d="M-896.593 217.53a5.44 5.44 0 0 0 5.206 5.03 5.456 5.456 0 0 0 5.518-4.172l3.084-53.054 21.13 28.344-2.526 24.06a5.52 5.52 0 0 0 4.875 5.402 5.53 5.53 0 0 0 5.964-4.11l2.702-25.063a5.23 5.23 0 0 0-.85-4.565l-18.178-25.207 41.243 26.957a132 132 0 0 0-8.871 14.959 133 133 0 0 0-7.268 17.154h55.486l24.629-24.557-32.474-23.757a15.4 15.4 0 0 0-5.385-1.77 15.3 15.3 0 0 0-7.121.734 31.7 31.7 0 0 0-8.779 4.763 31.5 31.5 0 0 0-7.308 7.95l-22.745-15.145-2.949-50.405a3.16 3.16 0 0 0-.59-2.195 3.1 3.1 0 0 0-1.293-1.067l-11.161-6.965a3.93 3.93 0 0 0-1.978-.632 3.87 3.87 0 0 0-1.946.456l-27.287 10.465a2.6 2.6 0 0 0-1.305 1.346c-.3.715-.26 1.522.083 2.205l8.345 16.926-3.189 4.442a9.3 9.3 0 0 0-.963 1.945c-.321.86-.519 1.75-.6 2.66zm39.958-105.48c4.131 3.965 10.685 3.83 14.66-.28 3.995-4.13 3.871-10.714-.269-14.7-4.142-4.068-10.819-3.954-14.816.27-3.952 4.17-3.767 10.766.425 14.71" style="fill:#000;fill-rule:evenodd;stroke:none" transform="translate(963.998 -47.91)"/><path d="m-883.994 135.27-4.224-9.246 15.404-6.604zm20.25 22.05 6.625-16.958 1.543 26.089-6.243-4.06a9.2 9.2 0 0 0-.569-2.65 9.5 9.5 0 0 0-1.356-2.421" style="fill:#ef7b00;fill-rule:evenodd;stroke:none;fill-opacity:1" transform="translate(963.998 -47.91)"/></svg>