<svg xmlns="http://www.w3.org/2000/svg" width="179.227" height="224.171"><path d="M-1179.416-82.376v-194.687c0-8.028 6.5-14.543 14.527-14.543h149.767c8.013 0 14.534 6.515 14.534 14.543v194.687c0 8.028-6.514 14.541-14.534 14.527l-149.767.014c-8.028-.014-14.527-6.513-14.527-14.526z" style="fill:#ef7b00;stroke:none;fill-opacity:1" transform="translate(1179.616 291.806)"/><path d="M-1176.735-82.556c0 6.65 5.385 12.026 12.034 12.026h149.76c6.641 0 12.025-5.376 12.025-12.026v-194.688c0-6.65-5.384-12.026-12.025-12.026h-149.76c-6.642 0-12.034 5.376-12.034 12.026z" style="fill:#000;fill-rule:evenodd;stroke:none" transform="translate(1179.616 291.806)"/><path d="M-1172.309-82.556v-194.688c.01-4.193 3.407-7.607 7.608-7.607h149.76c4.192 0 7.6 3.414 7.6 7.607V-82.57c0 4.209-3.4 7.623-7.6 7.623h-149.76c-4.2-.015-7.608-3.414-7.6-7.623l-.01.015z" style="fill:#ef7b00;fill-rule:evenodd;stroke:none;fill-opacity:1" transform="translate(1179.616 291.806)"/><path d="m-1072.127-110.936.944.944c3.841 3.848 10.782 6.933 18.45 6.933 9.28 0 18.137-5.286 22.33-12.49 6.933-11.876 8.087-41.018 8.087-43.992 0-25.421-6.058-37.649-6.777-38.982-4.77-8.806-13.366-14.01-23.497-14.01-5.002 0-9.96 1.535-14.19 4.155-10.377 6.434-12.894 17.059-14.73 34.804-.785 7.497-1.114 14.49-1.114 19.26 0 14.272 2.913 28.987 4 32.11 1.414 4.14 3.495 8.108 6.497 11.268m-85.279-1.1c.313.404.651.786.994 1.152l1.365 1.258c4.335 4.006 11.621 7.039 20.18 7.039 19.505 0 34.422-16.525 34.422-41.192 0-19.378-12.843-31.105-28.08-31.105-5.377 0-9.256 1.28-11.741 2.78l.733-23.17h34.55v-14.886h-48.859l-1.94 54.826 15.043 1.784c1.154-1.274 2.172-2.689 3.513-3.774 2.538-2.022 5.765-3.25 9-3.25 6.725 0 13.44 5.647 13.44 16.69 0 8.544-3.008 16.437-5.712 20.002-3.391 4.402-8.918 7.008-13.965 7.008-5.519 0-10.76-2.763-12.931-5.33z" style="fill:#000;fill-rule:evenodd;stroke:none" transform="translate(1179.616 291.806)"/><path d="m-1062.797-123.359-.734-1.362c-.523-.996-4.626-13.156-4.626-30.731 0-15.478 2.882-29.024 4.365-33.111 2.411-6.672 6.62-9.19 11.112-9.19 3.025 0 6.066 1.208 8.23 3.318 2.149 2.096 5.046 5.805 6.656 20.18.592 4.718.892 9.458.892 14.19 0 14.586-2.622 27.639-4.245 32.304-2.517 7.217-6.83 9.906-11.914 9.906-4.404 0-7.706-2.021-9.736-5.504" style="fill:#ef7b00;fill-rule:evenodd;stroke:none;fill-opacity:1" transform="translate(1179.616 291.806)"/><path d="M-1138.926-241.46h4.028l2.42-7.038h7.54l2.404 7.038h4.006l-8.335-24.321h-3.76zm101.26 0h3.811v-14.055l5.646 14.055 5.602-13.994v13.994h3.803v-24.321l-3.811-.007-5.601 14.048-5.625-14.025h-3.833l.01 24.306zm-123.245 0h3.818v-14.055l5.639 14.055 5.609-13.994v13.994h3.796l.01-24.321h-3.81l-5.602 14.04-5.623-14.024h-3.834v24.305zm76.25 0h3.818v-14.055l5.639 14.048 5.609-13.987v13.994h3.804v-24.321h-3.811l-5.602 14.04-5.624-14.024h-3.833zm24.95-24.321.038 17.635c.27 3.864 3.795 7.24 8.012 7.24 4.477 0 8.072-3.376 8.242-8.042l.01-16.817h-3.728l-.01 16.758c0 2.29-2.037 4.327-4.388 4.327-1.43 0-2.875-.726-3.676-1.915-.473-.699-.72-1.418-.756-2.525v-16.661zm-55.732 24.321h4.222l3.961-8.205 3.961 8.205h4.224l-6.064-12.58 5.675-11.725h-4.23l-3.573 7.33-3.534-7.346h-4.21l5.632 11.742z" style="fill:#000;fill-rule:evenodd;stroke:none" transform="translate(1179.616 291.806)"/><path d="m-1131.206-252.264 2.493-7.301 2.472 7.3z" style="fill:#ef7b00;fill-rule:evenodd;stroke:none;fill-opacity:1" transform="translate(1179.616 291.806)"/><path d="M-1094.635-241.46h3.789l-.01-24.321h-3.782v24.321z" style="fill:#000;fill-rule:evenodd;stroke:none" transform="translate(1179.616 291.806)"/></svg>