<svg xmlns="http://www.w3.org/2000/svg" width="244.066" height="244.056"><path d="m-1312.773-423.523-110.2-110.193a11.6 11.6 0 0 1-3.41-8.235c0-2.974 1.133-5.946 3.404-8.213l110.206-110.205a11.55 11.55 0 0 1 8.224-3.405c2.979 0 5.956 1.127 8.224 3.405l110.206 110.194a11.56 11.56 0 0 1 3.402 8.211c0 2.985-1.138 5.958-3.408 8.236l-110.2 110.205a11.58 11.58 0 0 1-8.224 3.405 11.58 11.58 0 0 1-8.224-3.405" style="fill:#ef7b00;fill-opacity:1;fill-rule:evenodd;stroke:none" transform="translate(1426.583 663.974)"/><path d="M-1311.357-425.026a9.62 9.62 0 0 0 13.616 0l110.2-110.206c3.76-3.753 3.76-9.854-.01-13.619l-110.195-110.194c-3.764-3.763-9.853-3.751-13.616 0l-110.194 110.207a9.63 9.63 0 0 0-.01 13.619l110.2 110.193z" style="fill:#000;fill-opacity:1;fill-rule:evenodd;stroke:none" transform="translate(1426.583 663.974)"/><path d="m-1308.852-427.533-110.2-110.193a6.1 6.1 0 0 1 0-8.619l110.2-110.194a6.09 6.09 0 0 1 8.607 0l110.192 110.194a6.087 6.087 0 0 1 .01 8.608l-110.2 110.204a6.094 6.094 0 0 1-8.607 0z" style="fill:#ef7b00;fill-opacity:1;fill-rule:evenodd;stroke:none" transform="translate(1426.583 663.974)"/><path d="m-1295.73-583.455 10.279-2.747a95 95 0 0 1 0 6.624 96 96 0 0 1-1.843 15.763 45 45 0 0 1-5.264 11.396 45.3 45.3 0 0 1-8.657 9.98 246 246 0 0 0-13.17 9.343 249 249 0 0 0-6.45 5.051 67 67 0 0 0-6.73 7.318 67 67 0 0 0-4.63 6.692 59.7 59.7 0 0 0-5.842 14.451 59.4 59.4 0 0 0-1.9 15.96v17.874h17.395v-15.06a44.7 44.7 0 0 1 1.63-14.984 44.9 44.9 0 0 1 6.122-13.113 39 39 0 0 1 5.534-6.285 38 38 0 0 1 6.334-4.667l6.15-4.098a84 84 0 0 0 5.922-4.484 82 82 0 0 0 5.496-4.994v67.685h17.749v-120.607l11.185 2.921a3.35 3.35 0 0 0 3.751-1.089c.953-1.243.935-2.99-.078-4.194l-23.631-32.772-23.189 32.714a3.346 3.346 0 0 0-.386 4.06 3.36 3.36 0 0 0 4.222 1.262z" style="fill:#000;fill-opacity:1;fill-rule:evenodd;stroke:none" transform="translate(1426.583 663.974)"/></svg>