<svg xmlns="http://www.w3.org/2000/svg" width="166.6" height="165.325"><path d="m-1380.382-508.084 75.3-74.7.975-1.275.675-1.2.375-1.65.225-1.425-.225-1.425-.375-1.575-.675-1.2-.975-1.275-75.3-74.7-1.275-1.05-1.2-.6-1.65-.375-1.425-.225-1.425.225-1.65.375-1.2.6-1.275 1.05-75.3 74.7-.975 1.275-.675 1.2-.375 1.575-.225 1.425.225 1.425.375 1.425.675 1.425.975 1.275 75.3 74.7 1.275 1.05 1.2.6 1.65.375 1.425.225 1.425-.225 1.65-.375 1.2-.6z" style="fill:#ef7b00;fill-opacity:1;fill-rule:evenodd;stroke:none" transform="translate(1469.232 670.96)"/><path d="m-1381.207-509.134-1.275.825-.975.6-1.275.225-1.2.225-1.2-.225-1.275-.225-.975-.6-1.275-.825-75.075-74.7-.825-1.05-.6-.975-.45-1.2v-2.475l.45-1.2.6-1.2.825-1.05 75.075-74.55 1.275-.75.975-.675 1.275-.375 1.2-.225 1.2.225 1.275.375.975.675 1.275.75 75.075 74.55.825 1.05.6 1.2.45 1.2v2.475l-.45 1.2-.6.975-.825 1.05z" style="fill:#000;fill-opacity:1;fill-rule:evenodd;stroke:none" transform="translate(1469.232 670.96)"/><path d="m-1383.082-510.934 75.3-74.55.45-.6.375-.825.225-.6.225-.825-.225-.75-.225-.825-.375-.6-.45-.675-75.3-74.7-.6-.6-.6-.225-.825-.375h-1.65l-.825.375-.6.225-.6.6-75.3 74.7-.45.675-.375.6-.225.825-.225.75.225.825.225.6.375.825.45.6 75.3 74.55.6.6.6.45.825.15h1.65l.825-.15.6-.45z" style="fill:#ef7b00;fill-opacity:1;fill-rule:evenodd;stroke:none" transform="translate(1469.232 670.96)"/><path d="M-1395.532-567.184v-6.9h67.5l-14.7 14.85h-89.475v-7.95z" style="fill:#000;fill-opacity:1;fill-rule:evenodd;stroke:none" transform="translate(1469.232 670.96)"/><path d="m-1369.732-589.084-38.925 10.35 1.65 6.675v.825l-.375.225-.45.15-5.325 1.425h-.375l-.225-.15-.375-.225-.225-.45-1.875-6.45-6.3 1.575h-.675l-.375-.15-.375-.225-.225-.375-1.425-5.1.15-.6.225-.225.225-.375.6-.225-3.075-11.775 1.65-2.475.225-16.425 3.075-1.425 2.85-1.425 3.075-1.425 2.85-1.2 2.85-1.05 2.85-.975 2.925-.825 2.85-.825 5.325-1.425 2.85-.6 2.85-.825 2.85-.375 2.7-.6 3.225-.45 3.3-.15 3.3-.225 3.225-.225 8.625 14.025 2.625 1.2 3.3 11.775h1.05l.375.45.225.375 1.425 5.1v.375l-.225.45-.15.375-.45.225-6.525 1.8 1.8 6.525v.375l-.15.45-.225.15-.45.45-5.25 1.2h-.825l-.45-.225-.225-.375z" style="fill:#000;fill-opacity:1;fill-rule:evenodd;stroke:none" transform="translate(1469.232 670.96)"/><path d="m-1419.082-598.684 48.075-12.75-5.325-12.825-.15-.225-.225-.15-.45-.225h-.375l-42.6 11.4-.375.15-.225.225-.225.375v.225z" style="fill:#ef7b00;fill-opacity:1;fill-rule:evenodd;stroke:none" transform="translate(1469.232 670.96)"/></svg>