<svg xmlns="http://www.w3.org/2000/svg" width="161.125" height="158.95"><path d="m-49.98-214.184-74.4-74.175-1.05-1.2-.6-1.2-.375-1.65-.225-1.425.225-1.35.375-1.65.6-1.2 1.05-1.2 74.4-74.25 1.2-.975 1.2-.6 1.65-.375 1.425-.225 1.425.225 1.575.375 1.2.6 1.2.975 74.475 74.25.975 1.2.6 1.2.45 1.65.15 1.35-.15 1.425-.45 1.425-.6 1.425-.975 1.2-74.475 74.175-1.2 1.05-1.2.6-1.575.375-1.425.225-1.425-.225-1.65-.375-1.2-.6z" style="fill:#e15421;fill-opacity:1;fill-rule:evenodd;stroke:none" transform="translate(1166.986 162.058)"/><path d="m-49.155-215.16 1.2.826.975.6 1.2.375h2.475l1.2-.375.975-.6 1.275-.825 74.175-74.025.825-1.2.6-.975.375-1.2v-2.475l-.375-1.2-.6-.975-.825-1.2-74.175-74.025-1.275-.825-.975-.6-1.2-.375h-2.475l-1.2.375-.975.6-1.2.825-74.25 74.025-.825 1.2-.6.975-.375 1.2v2.475l.375 1.2.6.975.825 1.2z" style="fill:#1f1a17;fill-opacity:1;fill-rule:evenodd;stroke:none" transform="translate(1166.986 162.058)"/><path d="m-47.355-216.81-74.4-74.174-.45-.6-.375-.6-.225-.825-.15-.825.15-.75.225-.825.375-.6.45-.6 74.4-74.25 1.2-.75.825-.225.825-.225.75.225.825.225 1.2.75 74.475 74.25.75 1.2.225.825.225.75-.45 1.65-.75 1.2-74.475 74.175-.6.45-.6.375-.825.225-.75.225-1.65-.45-.6-.375z" style="fill:#e15421;fill-opacity:1;fill-rule:evenodd;stroke:none" transform="translate(1166.986 162.058)"/><path d="M-54.63-275.46v.6l61.05-7.274-.225-2.175-55.35 8.025 45.9-12.675-.45-2.025-46.05 14.1 47.925-21.15-1.05-2.25zm-38.85-5.85h31.575v5.85l.15.226.225.15.45.225h4.2l.45-.225.375-.375v-5.625h5.25l.375-.225.45-.225.225-.15v-4.875l-.45-.375-.225-.225h-.6v-9.45l-1.8-1.65-3.45-12.3-2.625-.6-2.4-.375-2.4-.45-2.7-.375-2.4-.225-2.25-.15h-13.5l-2.475.15-2.175.225-2.475.375-2.625.45-2.4.375-2.625.6-3.45 12.3-1.8 1.65v9.45h-.45l-.375.225-.225.375-.15.225v4.65l.15.15.45.225.375.225h5.25v5.625l.225.225.225.15.375.225h4.275l.375-.225.225-.15.15-.225.225-.375z" style="fill:#1f1a17;fill-opacity:1;fill-rule:evenodd;stroke:none" transform="translate(1166.986 162.058)"/><path d="M-58.305-298.41h-39l1.425-10.724v-.225l.225-.15.375-.225h35.175l.375.375v.225z" style="fill:#e15421;fill-opacity:1;fill-rule:evenodd;stroke:none" transform="translate(1166.986 162.058)"/><path d="M16.095-302.91h-.15l-.45-.15h-.75l-.225.15-.225.226-.15.45-.225.15-.825.825-.375.225-.45.375-.375.225-.225.15-.375.225v1.425l.375.6.45.6.15.6.6.375.825.825.45.225h.375l.375-.225.45-.15.375-.45.825-.825.225-.375.375-.6.225-.6.375-.225.225-.375.375-.45.45-.75-.225-.45-.225-.15-.375-.45-.6-.375zm-4.8 19.8.375.376.45.225h.375l.225.225.975-.225h.225l.375-.375.225-.45.375-.15.225-.45.375-.225.825-.975.225-.6v-2.025l-.45-2.4-.15-.45-.45-.15h-.75l-1.425.375-.45-.225h-.375l-.375.225-.45.225-.825.975v.825l-.15.825-.225.6-.375.375-.225 1.05v.75l.375.45.225.15zm-20.85-17.324h.6l.6-.225.45-.225.6-.15 1.2-1.2h.375v-.225l.225-.225v-.375l-.225-.45v-.375l-.15-.225-.225-.15-.6-.45h-.6l-.6-.15-.6-.225h-1.65l-1.2.225h-.45l-.6.6v.375l.225.825v.6l-.225.225v.375l.225.225.225.15.15.45.225.15 1.425.45zm13.575 14.1.15-.225v-.15l.225-.225-.225-.45.225-1.95v-.6l-.225-.45-.375-.375h-.6l-.225-.225h-.375l-.225-.225h-.375l-.225.225-.225.375-.15.45-.45.375-.375.225-.6.225-.45.375-.15.375-.225.225v1.2l.225.825.375.225H.12l.225.15h.45l.375.45.375.15h.6l.45.225zm-3.45-6.45.225-.225h.375l.225-.15.15-.225.825-.825.45-.825.15-.75.825-1.275.225-.15v-.825l-.6-.225h-.225l-.225-.15-.6-.225-.375.225-.6.375-.45.375-.375.45-.225.6-.225.375-.375.45-.375.15-.225.225-.375.825v1.2l.15.225h.225l.225.15h.375zm.825-15.75h.375l.375-.225.225-.15h.225l.225-.225h.975l.375-.225.45-.75v-1.05l-.225-.6-.225-.375-.75-.45-.45-.15h-1.2l-.375.15-1.425.825-.225.225H-.48l-.15.225-.225.15v1.425l.225.375.15.45.45.15.375.225zm6.075 5.474v-.6l-.225-.45-.225-.6-.6-.6-1.65-.6H2.82l-.45.6-.375.6v1.426l.15.825.675.6.6.225h.375l.6.15h.6l.45-.15h.6l.15-.225.225-.225.225-.15zm2.4 11.1.225-.224.15-.375.225-.45.225-.6-.225-.375v-.6l-.375-.6-.45-.45-.375-.15-.6-.225-.45.225h-.15l-.45.15-.15.45-.45.375v.6l-.6.6-.375.45-.45.375v.825l.45.75.6.225h.6l.375-.225.6-.375.825-.225zm11.1.976.225-.375.225-.6v-.6l-.225-.825-.225-.6v-.225l-.375-.375-.45-.225-.6-.375-.6-.225h-.375v.225h-.225l-.825 1.2-.15.15-.225.45-.225.375v1.05l.225.15.225.225.15.225v.15l.825.825.45.225.6.225h.6z" style="fill:#1f1a17;fill-opacity:1;fill-rule:evenodd;stroke:none" transform="translate(1166.986 162.058)"/><path d="m-1091.786-5.408-72.825-71.85-.975-1.2-.6-1.35-.45-1.35-.15-1.425.15-1.35.45-1.35.6-1.35.975-1.2 72.825-71.85 1.2-.975 1.425-.6 1.35-.375 1.425-.225 1.35.225 1.425.375 1.35.6 1.2.975 72.825 71.85 1.05 1.2.525 1.35.45 1.35.15 1.35-.15 1.425-.45 1.35-.525 1.35-1.05 1.2-72.825 71.85-1.2.975-1.35.6-1.425.375-1.35.15-1.425-.15-1.35-.375-1.425-.6z" style="fill:#ef7b00;fill-opacity:1;fill-rule:evenodd;stroke:none" transform="translate(1166.986 162.058)"/><path d="m-1090.811-6.383 1.05.75.975.6 1.2.225 1.2.15 1.125-.15 1.2-.225.975-.6 1.05-.75 72.825-71.85.825-.975.6-.975.375-1.2v-2.325l-.375-1.2-.6-1.125-.825-.975-72.825-71.7-1.05-.75-.975-.6-1.2-.375-1.125-.225-1.2.225-1.2.375-.975.6-1.05.75-72.825 71.7-.825.975-.6 1.125-.375 1.2v2.325l.375 1.2.6.975.825.975z" style="fill:#000;fill-opacity:1;fill-rule:evenodd;stroke:none" transform="translate(1166.986 162.058)"/><path d="m-1089.161-8.183-72.9-71.625-.375-.6-.375-.75-.225-.825-.225-.6.45-1.5.75-1.2 72.9-71.85.6-.6.75-.15.6-.45h1.575l.6.45.825.15.6.6 72.825 71.85.375.6.45.6.15.75.225.75-.225.6-.15.825-.45.75-.375.6-72.825 71.625-.6.6-.825.375-.6.225h-1.575l-.6-.225-.75-.375z" style="fill:#ef7b00;fill-opacity:1;fill-rule:evenodd;stroke:none" transform="translate(1166.986 162.058)"/><path d="m-1060.061-49.358 8.1-35.7 4.575 29.625.15.6.225.6.375.375.6.375.375.45.6.15.6.225h.6l.825-.225.6-.15.375-.45.6-.375.375-.6.225-.375.15-.6v-.75l-4.35-33.375-.375-1.35-.6-1.425-.75-1.125-1.05-.975-21.525-19.725-.6-.375-.825-.45-.6-.15-.975-.225-.6.225-.75.15-.6.225-.45.6-2.775 2.925-4.35 9-10.5-4.95-.975-.15h-.75l-.825.6-.6.75-.375.75.15.975.45.825.75.75 12.3 5.85.6.45.375.15h.6l.6-.15.375-.225.6-.225.45-.375.15-.375 4.2-8.025 15.375 19.725-7.65 34.8v1.35l.15.6.375.525.825.825.6.375.6.225h1.8l.6-.45.525-.15.45-.375.375-.6zm-31.725-4.275-15.45-59.4h7.575v-5.625h-24.375v5.625h11.25l-16.425 60.15h3.975l12.45-42.525 1.05 34.725h4.35l.15-33.75 11.325 40.8zm9.525-71.7h-1.2l-1.2.45-.975.525-.75.825-.825.975-.6.975-.375 1.125v2.4l.375 1.125.6.975.825.975.75.825.975.6 1.2.375h2.55l1.2-.375 1.05-.6.975-.825.75-.975.6-.975.225-1.125.15-1.2-.15-1.2-.225-1.125-.6-.975-.75-.975-.975-.825-1.05-.525-1.2-.45z" style="fill:#000;fill-opacity:1;fill-rule:evenodd;stroke:none" transform="translate(1166.986 162.058)"/></svg>