<svg xmlns="http://www.w3.org/2000/svg" width="107.725" height="159.55"><path d="M-1380.176-507.143v1.725l.675 1.725.6 1.275 1.125 1.275 1.275 1.05 1.35.9 1.725.375 1.8.225h90.225l1.8-.225 1.725-.375 1.35-.9 1.275-1.05 1.125-1.275.6-1.275.675-1.725v-145.5l-.675-1.725-.6-1.275-1.125-1.275-1.275-1.05-1.35-.9-1.725-.45-1.8-.15h-90.225l-1.8.15-1.725.45-1.35.9-1.275 1.05-1.125 1.275-.6 1.275-.675 1.725z" style="fill:#000;fill-opacity:1;fill-rule:evenodd;stroke:none" transform="translate(1380.376 657.943)"/><path d="M-1272.851-594.068v25.8l-53.55-53.025-53.775 53.025v-25.8l53.775-52.725z" style="fill:#ef7b00;fill-opacity:1;fill-rule:evenodd;stroke:none" transform="translate(1380.376 657.943)"/><path d="M-1272.851-565.268v25.5l-53.55-52.8-53.775 52.8v-25.5l53.775-52.8z" style="fill:#fff;fill-opacity:1;fill-rule:evenodd;stroke:none" transform="translate(1380.376 657.943)"/><path d="M-1272.851-536.543v25.5l-53.55-52.725-53.775 52.725v-25.5l53.775-52.8z" style="fill:#ef7b00;fill-opacity:1;fill-rule:evenodd;stroke:none" transform="translate(1380.376 657.943)"/><path d="M-1281.176-498.818h-8.1l-37.125-36.45-37.2 36.45h-8.475l-1.575-.15-1.5-.45-1.35-.675-1.275-1.05-.9-1.05-.825-1.5-.45-1.5-.225-1.5v-1.35l53.55-52.725 53.775 52.725v2.625l-.675 1.5-.6 1.5-1.125 1.275-1.125.825-1.5.9-1.5.45zm-99-123.75 35.625-35.025h36.075l35.625 35.025v25.5l-53.775-52.8-53.55 52.8z" style="fill:#fff;fill-opacity:1;fill-rule:evenodd;stroke:none" transform="translate(1380.376 657.943)"/><path d="m-1360.526-498.818 34.125-33.225 33.9 33.225zm87.675-126.75-32.55-32.175h24l1.8.15 1.5.45 1.35.9 1.275.825 1.125 1.05.825 1.5.45 1.35.225 1.65zm-99.225-32.175h24.45l-32.55 32.175v-24.075l.225-1.725.45-1.275.6-1.5 2.25-2.1 3-1.35z" style="fill:#ef7b00;fill-opacity:1;fill-rule:evenodd;stroke:none" transform="translate(1380.376 657.943)"/></svg>