<svg xmlns="http://www.w3.org/2000/svg" width="179.444" height="224.44"><path d="M-1145.326-119.44v-194.923c0-8.036 6.508-14.558 14.544-14.558h149.946c8.023 0 14.554 6.522 14.554 14.558v194.923c0 8.036-6.524 14.559-14.554 14.544l-149.946.015c-8.036-.015-14.544-6.523-14.544-14.544z" style="fill:#ef7b00;fill-rule:evenodd;stroke:none;fill-opacity:1" transform="translate(1145.526 329.121)"/><path d="M-1142.732-119.531c0 6.657 5.39 12.04 12.047 12.04h149.94c6.65 0 12.04-5.383 12.04-12.04v-194.922c0-6.657-5.39-12.04-12.04-12.04h-149.94c-6.65 0-12.047 5.383-12.047 12.04z" style="fill:#000;fill-rule:evenodd;stroke:none" transform="translate(1145.526 329.121)"/><path d="M-1138.3-119.53v-194.923c.01-4.197 3.411-7.617 7.615-7.617h149.94c4.198 0 7.61 3.42 7.61 7.617v194.906c0 4.214-3.403 7.632-7.61 7.632h-149.94c-4.204-.015-7.616-3.418-7.608-7.632l-.01.016z" style="fill:#ef7b00;fill-rule:evenodd;stroke:none;fill-opacity:1" transform="translate(1145.526 329.121)"/><path d="m-1040.467-147.99.945.943c3.853 3.855 10.795 6.944 18.472 6.944 9.288 0 18.158-5.293 22.356-12.505 6.951-11.89 8.105-41.07 8.105-44.045 0-25.45-6.074-37.695-6.794-39.029-4.773-8.816-13.38-14.027-23.523-14.027-5.002 0-9.973 1.537-14.209 4.16-10.39 6.44-12.908 17.08-14.746 34.846-.787 7.506-1.118 14.507-1.118 19.283 0 14.29 2.926 29.02 4.004 32.147 1.417 4.146 3.502 8.12 6.508 11.283m-67.045 5.563h14.694v-3.306c0-28.422 12.7-64.497 25.662-81.605 1.117-1.483 2.504-2.743 3.725-4.145v-15.902h-57.516v15.009h39.569l-.84 1.26c-3.793 6.507-7.36 13.156-10.443 20.046l-6.193 15.062c-3.635 10.308-6.768 24.32-7.977 37.365l-.681 12.175c-.015 1.35-.015 2.7 0 4.04" style="fill:#000;fill-rule:evenodd;stroke:none" transform="translate(1145.526 329.121)"/><path d="m-1031.127-160.427-.734-1.365c-.524-.996-4.632-13.174-4.632-30.768 0-15.496 2.886-29.058 4.37-33.151 2.415-6.68 6.635-9.198 11.125-9.198 3.029 0 6.074 1.206 8.239 3.321 2.152 2.099 5.061 5.81 6.665 20.203.601 4.724.892 9.47.892 14.208 0 14.604-2.622 27.671-4.25 32.341-2.52 7.228-6.838 9.919-11.927 9.919-4.41 0-7.715-2.025-9.748-5.51" style="fill:#ef7b00;fill-rule:evenodd;stroke:none;fill-opacity:1" transform="translate(1145.526 329.121)"/><path d="M-1104.896-278.687h4.033l2.422-7.047h7.549l2.406 7.047h4.011l-8.343-24.35h-3.764zm101.382 0h3.816v-14.071l5.651 14.07 5.608-14.012v14.013h3.809v-24.35l-3.817-.006-5.607 14.063-5.63-14.041h-3.837l.01 24.334zm-123.393 0h3.824v-14.071l5.645 14.07 5.614-14.012v14.013h3.802l.01-24.35h-3.817l-5.607 14.057-5.63-14.042h-3.84zm76.341 0h3.824v-14.071l5.645 14.064 5.616-14.006v14.013h3.808v-24.35h-3.815l-5.61 14.057-5.63-14.042h-3.838zm24.98-24.349.038 17.655c.27 3.868 3.802 7.25 8.023 7.25 4.482 0 8.081-3.382 8.252-8.054l.01-16.837h-3.732l-.01 16.778c0 2.294-2.039 4.333-4.392 4.333-1.433 0-2.878-.728-3.682-1.918-.472-.698-.719-1.418-.757-2.528v-16.68h-3.748zm-55.799 24.349h4.228l3.966-8.217 3.965 8.217h4.23l-6.073-12.594 5.682-11.74h-4.236l-3.575 7.338-3.539-7.353h-4.214l5.637 11.755z" style="fill:#000;fill-rule:evenodd;stroke:none" transform="translate(1145.526 329.121)"/><path d="m-1097.167-289.505 2.497-7.31 2.474 7.31z" style="fill:#ef7b00;fill-rule:evenodd;stroke:none;fill-opacity:1" transform="translate(1145.526 329.121)"/><path d="M-1060.55-278.687h3.792l-.01-24.35h-3.784v24.35z" style="fill:#000;fill-rule:evenodd;stroke:none" transform="translate(1145.526 329.121)"/></svg>