<svg xmlns="http://www.w3.org/2000/svg" width="354.731" height="355.02"><path d="m-49.98-214.184-74.4-74.175-1.05-1.2-.6-1.2-.375-1.65-.225-1.425.225-1.35.375-1.65.6-1.2 1.05-1.2 74.4-74.25 1.2-.975 1.2-.6 1.65-.375 1.425-.225 1.425.225 1.575.375 1.2.6 1.2.975 74.475 74.25.975 1.2.6 1.2.45 1.65.15 1.35-.15 1.425-.45 1.425-.6 1.425-.975 1.2-74.475 74.175-1.2 1.05-1.2.6-1.575.375-1.425.225-1.425-.225-1.65-.375-1.2-.6z" style="fill:#e15421;fill-opacity:1;fill-rule:evenodd;stroke:none" transform="translate(1012.059 34.556)"/><path d="m-49.155-215.16 1.2.826.975.6 1.2.375h2.475l1.2-.375.975-.6 1.275-.825 74.175-74.025.825-1.2.6-.975.375-1.2v-2.475l-.375-1.2-.6-.975-.825-1.2-74.175-74.025-1.275-.825-.975-.6-1.2-.375h-2.475l-1.2.375-.975.6-1.2.825-74.25 74.025-.825 1.2-.6.975-.375 1.2v2.475l.375 1.2.6.975.825 1.2z" style="fill:#1f1a17;fill-opacity:1;fill-rule:evenodd;stroke:none" transform="translate(1012.059 34.556)"/><path d="m-47.355-216.81-74.4-74.174-.45-.6-.375-.6-.225-.825-.15-.825.15-.75.225-.825.375-.6.45-.6 74.4-74.25 1.2-.75.825-.225.825-.225.75.225.825.225 1.2.75 74.475 74.25.75 1.2.225.825.225.75-.45 1.65-.75 1.2-74.475 74.175-.6.45-.6.375-.825.225-.75.225-1.65-.45-.6-.375z" style="fill:#e15421;fill-opacity:1;fill-rule:evenodd;stroke:none" transform="translate(1012.059 34.556)"/><path d="M-54.63-275.46v.6l61.05-7.274-.225-2.175-55.35 8.025 45.9-12.675-.45-2.025-46.05 14.1 47.925-21.15-1.05-2.25zm-38.85-5.85h31.575v5.85l.15.226.225.15.45.225h4.2l.45-.225.375-.375v-5.625h5.25l.375-.225.45-.225.225-.15v-4.875l-.45-.375-.225-.225h-.6v-9.45l-1.8-1.65-3.45-12.3-2.625-.6-2.4-.375-2.4-.45-2.7-.375-2.4-.225-2.25-.15h-13.5l-2.475.15-2.175.225-2.475.375-2.625.45-2.4.375-2.625.6-3.45 12.3-1.8 1.65v9.45h-.45l-.375.225-.225.375-.15.225v4.65l.15.15.45.225.375.225h5.25v5.625l.225.225.225.15.375.225h4.275l.375-.225.225-.15.15-.225.225-.375z" style="fill:#1f1a17;fill-opacity:1;fill-rule:evenodd;stroke:none" transform="translate(1012.059 34.556)"/><path d="M-58.305-298.41h-39l1.425-10.724v-.225l.225-.15.375-.225h35.175l.375.375v.225z" style="fill:#e15421;fill-opacity:1;fill-rule:evenodd;stroke:none" transform="translate(1012.059 34.556)"/><path d="M16.095-302.91h-.15l-.45-.15h-.75l-.225.15-.225.226-.15.45-.225.15-.825.825-.375.225-.45.375-.375.225-.225.15-.375.225v1.425l.375.6.45.6.15.6.6.375.825.825.45.225h.375l.375-.225.45-.15.375-.45.825-.825.225-.375.375-.6.225-.6.375-.225.225-.375.375-.45.45-.75-.225-.45-.225-.15-.375-.45-.6-.375zm-4.8 19.8.375.376.45.225h.375l.225.225.975-.225h.225l.375-.375.225-.45.375-.15.225-.45.375-.225.825-.975.225-.6v-2.025l-.45-2.4-.15-.45-.45-.15h-.75l-1.425.375-.45-.225h-.375l-.375.225-.45.225-.825.975v.825l-.15.825-.225.6-.375.375-.225 1.05v.75l.375.45.225.15zm-20.85-17.324h.6l.6-.225.45-.225.6-.15 1.2-1.2h.375v-.225l.225-.225v-.375l-.225-.45v-.375l-.15-.225-.225-.15-.6-.45h-.6l-.6-.15-.6-.225h-1.65l-1.2.225h-.45l-.6.6v.375l.225.825v.6l-.225.225v.375l.225.225.225.15.15.45.225.15 1.425.45zm13.575 14.1.15-.225v-.15l.225-.225-.225-.45.225-1.95v-.6l-.225-.45-.375-.375h-.6l-.225-.225h-.375l-.225-.225h-.375l-.225.225-.225.375-.15.45-.45.375-.375.225-.6.225-.45.375-.15.375-.225.225v1.2l.225.825.375.225H.12l.225.15h.45l.375.45.375.15h.6l.45.225zm-3.45-6.45.225-.225h.375l.225-.15.15-.225.825-.825.45-.825.15-.75.825-1.275.225-.15v-.825l-.6-.225h-.225l-.225-.15-.6-.225-.375.225-.6.375-.45.375-.375.45-.225.6-.225.375-.375.45-.375.15-.225.225-.375.825v1.2l.15.225h.225l.225.15h.375zm.825-15.75h.375l.375-.225.225-.15h.225l.225-.225h.975l.375-.225.45-.75v-1.05l-.225-.6-.225-.375-.75-.45-.45-.15h-1.2l-.375.15-1.425.825-.225.225H-.48l-.15.225-.225.15v1.425l.225.375.15.45.45.15.375.225zm6.075 5.474v-.6l-.225-.45-.225-.6-.6-.6-1.65-.6H2.82l-.45.6-.375.6v1.426l.15.825.675.6.6.225h.375l.6.15h.6l.45-.15h.6l.15-.225.225-.225.225-.15zm2.4 11.1.225-.224.15-.375.225-.45.225-.6-.225-.375v-.6l-.375-.6-.45-.45-.375-.15-.6-.225-.45.225h-.15l-.45.15-.15.45-.45.375v.6l-.6.6-.375.45-.45.375v.825l.45.75.6.225h.6l.375-.225.6-.375.825-.225zm11.1.976.225-.375.225-.6v-.6l-.225-.825-.225-.6v-.225l-.375-.375-.45-.225-.6-.375-.6-.225h-.375v.225h-.225l-.825 1.2-.15.15-.225.45-.225.375v1.05l.225.15.225.225.15.225v.15l.825.825.45.225.6.225h.6z" style="fill:#1f1a17;fill-opacity:1;fill-rule:evenodd;stroke:none" transform="translate(1012.059 34.556)"/><path d="M-850.087 313.829c8.582 8.58 22.5 8.58 31.08 0l155.34-155.338a21.85 21.85 0 0 0 6.14-11.957v-7.138a21.9 21.9 0 0 0-6.15-11.976L-819.018-27.92c-8.582-8.582-22.488-8.582-31.06 0l-155.35 155.339c-8.57 8.581-8.582 22.487 0 31.071z" style="fill:#ef7b00;fill-rule:evenodd;stroke:none;fill-opacity:1" transform="translate(1012.059 34.556)"/><path d="M-846.995 310.717q5.146 5.147 12.432 5.147 7.284 0 12.431-5.147l155.344-155.343q5.146-5.146 5.142-12.427-.002-7.28-5.15-12.428L-822.139-24.825q-5.148-5.146-12.424-5.147-7.278 0-12.424 5.147l-155.344 155.344q-5.147 5.148-5.15 12.428-.001 7.28 5.143 12.427z" style="fill:#000;fill-rule:evenodd;stroke:none" transform="translate(1012.059 34.556)"/><path d="M-842.335 306.048q3.216 3.214 7.771 3.216 4.555-.001 7.771-3.216l155.343-155.345q3.214-3.213 3.214-7.764-.001-4.552-3.223-7.77L-826.8-20.174q-3.216-3.216-7.763-3.216t-7.764 3.216L-997.67 135.169q-3.219 3.218-3.22 7.77t3.213 7.764z" style="fill:#ef7b00;fill-rule:evenodd;stroke:none;fill-opacity:1" transform="translate(1012.059 34.556)"/><path d="M-882.285 104.32h26.84v-6.943h-19.92v-12.32h12.678v-6.854h-12.745V67.29h18.525v-6.91h-25.378zm43.492 0h5.457l13.76-43.94h-7.209l-9.262 29.642-9.298-29.641h-7.242zm22.688 0h26.84v-6.943h-19.92v-12.32h12.678v-6.854h-12.745V67.29h18.525v-6.91h-25.378zm32.4 0h26.84v-6.943h-19.922v-12.32h12.677v-6.854h-12.743V67.29h18.525v-6.91h-25.378zm-128.567 0h26.695v-6.195h-19.843V60.381h-6.852zm46.76 59.293 12.98-.045c5.156-.39 9.409-2.813 12.042-6.371 2.333-3.125 4.42-8.684 4.42-15.525 0-2.6-.29-5.045-.882-7.545-2.288-9.675-8.515-14.15-14.876-14.463h-13.684zm35.044 0h26.84v-6.953h-19.92v-12.32h12.677v-6.853h-12.744v-10.914h18.514v-6.909h-25.367zm-28.17-6.93v-30.178h6.24c3.103 0 6.316 1.83 8.192 7.075.748 2.088 1.329 5.234 1.329 8.225 0 4.287-1.205 8.282-2.468 10.47-1.53 2.623-4.162 4.263-7.253 4.408zm52.912-108.121-4.304 6.196h9.054l5.645-6.196zm-73.2 166.511-.3-.525c-.749-1.284-2.3-5.603-2.3-12.634 0-9.754 2.366-12.766 2.713-13.246 1.282-1.775 3.558-2.959 5.847-2.959 3.583 0 7.489 1.931 8.415 12.689l.168 3.561c-.347 10.345-2.4 12.935-3.494 13.994-1.361 1.33-3.315 2.122-5.234 2.122-2.365 0-4.687-1.283-5.815-3.002m-4.452 5.279.457.48c2.054 2.165 6.128 3.995 9.933 3.995 4.03 0 8.448-2.143 11.137-5.648 1.664-2.164 4.13-7.689 4.13-17.209 0-9.318-2.355-14.93-3.85-17.018-2.746-3.83-6.886-5.96-11.496-5.96-3.939 0-7.7 1.685-10.266 4.575-2.278 2.556-4.934 7.78-4.934 18.002 0 11.439 2.59 16.204 4.889 18.783m31.258 3.582h6.743v-30.011l16.885 30.011h5.826v-43.949h-6.775v28.08l-15.759-28.08h-6.92zm42.924-6.931v-30.176h6.238c3.103 0 6.317 1.83 8.192 7.075.749 2.087 1.329 5.233 1.329 8.225 0 4.286-1.195 8.28-2.468 10.468-1.528 2.623-4.162 4.263-7.253 4.408zm-6.875 6.931 12.979-.045c5.156-.39 9.409-2.812 12.042-6.372 2.333-3.125 4.42-8.683 4.42-15.524 0-2.601-.291-5.045-.882-7.545-2.288-9.675-8.515-14.15-14.876-14.463h-13.683zm33.882-11.015c.045.134.1.268.157.401l.367.85c3.036 6.952 9.04 10.69 15.759 10.69 2.142 0 3.537-.312 4.542-.736 5.29-2.086 8.66-7.21 8.66-12.5 0-3.315-1.026-6.205-3.19-8.872-2.076-2.568-4.532-4.342-10.67-5.492-2.556-.49-4.117-.635-5.123-1.427-.915-.715-1.55-1.975-1.55-3.449 0-3.471 2.788-6.282 6.438-6.282 3.338 0 5.19 1.94 6.34 4.83l6.44-2.22c-1.866-5.86-6.942-9.575-12.88-9.575-7.155 0-13.325 6.317-13.325 13.18 0 2.835 1.16 5.837 3.18 7.968 1.507 1.597 3.728 2.97 7.858 3.628 1.484.256 3.001.312 4.419.791 3.203 1.084 5.212 3.93 5.212 6.931 0 3.404-3.059 6.44-6.485 6.44-3.984 0-7.734-2.322-9.642-7.222zm-134.235 11.015h6.92v-19.23h12.678v-6.829h-12.7V186.87h19.82v-6.885h-26.718z" style="fill:#000;fill-rule:evenodd;stroke:none" transform="translate(1012.059 34.556)"/></svg>