<svg xmlns="http://www.w3.org/2000/svg" width="245.269" height="245.26" viewBox="0 0 692.202 692.178"><path d="m315 205 80 170-80 170-80-170z" style="fill:none;stroke:#fff;stroke-width:40" transform="translate(1068.956 84.258)"/><path d="M326.907 683.655 8.525 365.273c-10.614-10.583-10.614-27.778 0-38.39L326.907 8.503c10.584-10.583 27.807-10.583 38.39 0L683.68 326.884c10.612 10.611 10.612 27.806 0 38.39l-318.383 318.38c-10.615 10.612-27.779 10.612-38.39 0" style="fill:#ffd520;fill-opacity:1;fill-rule:evenodd;stroke:none"/><path d="M330.935 679.753a21.394 21.394 0 0 0 30.333 0l318.414-318.467c8.385-8.333 8.406-21.948 0-30.354L361.289 12.492c-8.404-8.383-21.997-8.383-30.379 0L12.518 330.931c-8.406 8.406-8.406 22.02 0 30.354z" style="fill:#000;fill-rule:evenodd;stroke:none"/><path d="M337.956 672.65 19.57 354.24c-4.475-4.473-4.496-11.79 0-16.294L337.956 19.533c4.54-4.472 11.796-4.472 16.287 0l318.388 318.413c4.52 4.503 4.52 11.821 0 16.294L354.243 672.65c-4.516 4.505-11.747 4.505-16.287 0" style="fill:#ffd520;fill-opacity:1;fill-rule:evenodd;stroke:none"/><path d="m346.1 63.954-100.68 91.623c-2.966 2.318-3.417 6.642-1.01 9.532a6.7 6.7 0 0 0 7.008 2.143l73.457-19.21.117 58.012 21.108-.124 21.111.124.113-58.012 73.459 19.21a6.71 6.71 0 0 0 7.01-2.143c2.406-2.89 1.954-7.214-1.013-9.532z" style="fill:#000;fill-rule:evenodd;stroke:none"/><path d="M220.833 512.412V242.007c0-11.131 9.005-20.26 20.136-20.26h207.995c11.13 0 20.26 9.129 20.26 20.26v270.405c0 11.133-9.007 20.263-20.26 20.263H240.969c-11.131 0-20.136-9.13-20.136-20.263" style="fill:#fff;stroke:none"/><path d="M224.584 512.165c0 9.253 7.504 16.76 16.637 16.76h207.99c9.257 0 16.76-7.507 16.76-16.76V241.759c0-9.257-7.503-16.76-16.76-16.76H241.22c-9.133 0-16.637 7.503-16.637 16.76z" style="fill:#000;fill-rule:evenodd;stroke:none"/><path d="M230.713 512.165V241.759c0-5.877 4.754-10.631 10.508-10.631h207.99c5.88 0 10.632 4.754 10.632 10.631v270.406a10.624 10.624 0 0 1-10.632 10.632H241.22c-5.754-.13-10.508-4.755-10.508-10.632" style="fill:#fff;fill-rule:evenodd;stroke:none"/><path d="m370.795 472.767 1.25 1.248c5.379 5.38 15.006 9.631 25.639 9.631 12.883 0 25.266-7.253 31.02-17.261 9.75-16.507 11.253-57.03 11.253-61.158 0-35.27-8.378-52.281-9.38-54.031-6.629-12.258-18.51-19.51-32.642-19.51-7.003 0-13.882 2.126-19.763 5.754-14.383 9.005-17.886 23.764-20.387 48.275-1.125 10.382-1.626 20.137-1.626 26.765 0 19.763 4.127 40.273 5.63 44.651 1.873 5.754 4.879 11.258 9.006 15.636m-120.197-31.144c-.124.498-.124 1.002-.124 1.503v1.75c0 8.752 4.503 19.759 11.63 26.638 8.259 7.881 17.512 11.508 27.393 11.508 22.138 0 40.896-17.636 40.896-43.776 0-17.509-7.003-29.143-17.26-35.772 7.383-7.504 13.261-21.385 13.261-35.144 0-19.887-15.634-35.645-36.022-35.645-17.384 0-32.394 12.758-35.144 32.27l20.885 2.25c.251-8.001 6.38-14.132 14.886-14.132s15.13 6.505 15.13 15.134c0 12.379-5.625 20.26-10.755 22.888-2.749 1.5-4.5 2.25-13.005 1.877v20.136h12.382c3.876 0 10.004 3.5 12.633 10.005.75 2 2.125 7.126 2.125 15.886 0 16.76-8.757 23.763-19.385 23.763-6.504 0-11.634-2.628-15.51-7.754-2.125-2.879-3.752-7.006-3.628-13.385z" style="fill:#000;fill-rule:evenodd;stroke:none"/><path d="m383.799 455.505-1.122-1.877c-.628-1.372-6.382-18.383-6.382-42.774 0-21.509 4.004-40.146 6.004-45.9 3.376-9.257 9.254-12.756 15.512-12.756 4.251 0 8.379 1.75 11.377 4.628 3.002 2.875 7.13 8.001 9.26 27.89.875 6.63 1.25 13.131 1.25 19.763 0 20.26-3.627 38.393-5.881 44.898-3.5 10.005-9.504 13.759-16.51 13.759-6.128 0-10.757-2.879-13.508-7.63" style="fill:#fff;fill-rule:evenodd;stroke:none"/><path d="M277.115 291.537h5.63l3.252-9.88H296.5l3.376 9.88h5.505l-11.506-33.893h-5.254zm140.582 0h5.253V271.9l7.878 19.637 7.757-19.51v19.51h5.376v-33.893h-5.376l-7.757 19.51-7.878-19.51h-5.253zm-171.099 0h5.25V271.9l7.883 19.637 7.752-19.51v19.51h5.253v-33.893h-5.253l-7.752 19.51-7.882-19.51h-5.25zm105.811 0h5.252V271.9l7.878 19.513 7.758-19.386v19.51h5.252v-33.893h-5.252l-7.758 19.51-7.878-19.51h-5.252zm34.642-33.893v24.512c.378 5.378 5.38 10.132 11.13 10.132 6.259 0 11.261-4.754 11.512-11.255v-23.389h-5.13v23.39c0 3.124-2.875 6-6.128 6-2.003 0-4.004-.999-5.129-2.749-.624-.878-1.002-1.877-1.002-3.503v-23.138zm-77.294 33.893h5.881l5.502-11.506 5.502 11.506h5.88l-8.505-17.508 7.879-16.385h-5.878l-4.878 10.253-5.002-10.253h-5.753l7.754 16.385z" style="fill:#000;fill-rule:evenodd;stroke:none"/><path d="m287.87 276.403 3.377-10.129 3.504 10.129z" style="fill:#fff;fill-rule:evenodd;stroke:none"/><path d="M338.652 291.537h5.25v-33.893h-5.25z" style="fill:#000;fill-rule:evenodd;stroke:none"/></svg>