<svg xmlns="http://www.w3.org/2000/svg" width="177.462" height="177.565" viewBox="0 0 500.838 501.129"><path d="m395 375-80 170-80-170 80-170z" style="fill:none;stroke:#fff;stroke-width:40" transform="translate(1010.412 -80.26)"/><path d="M235.92 494.616a20.23 20.23 0 0 0 13.952 5.948h.793a20.2 20.2 0 0 0 13.952-5.948l229.706-229.693c7.916-7.91 7.948-20.791.011-28.718L264.617 6.51c-7.927-7.927-20.76-7.927-28.697 0L6.214 236.205a20.13 20.13 0 0 0-5.65 10.955v6.76a20.27 20.27 0 0 0 5.66 11.003z" style="fill:#ffd520;fill-rule:evenodd;stroke:none;fill-opacity:1"/><path d="M239.33 491.276a15.446 15.446 0 0 0 21.887 0l229.71-229.753c6.051-6.012 6.065-15.848 0-21.908L261.238 9.883c-6.07-6.043-15.878-6.043-21.928 0L9.615 239.615c-6.06 6.06-6.06 15.896 0 21.908z" style="fill:#000;fill-rule:evenodd;stroke:none"/><path d="M244.394 486.148 14.704 256.444c-3.229-3.238-3.24-8.526 0-11.775l229.69-229.701c3.28-3.229 8.51-3.229 11.758 0l229.693 229.701c3.26 3.249 3.26 8.537 0 11.775L256.152 486.149c-3.258 3.25-8.478 3.25-11.758 0" style="fill:#ffd520;fill-rule:evenodd;stroke:none;fill-opacity:1"/><path d="M158.908 368.4c0 11.218 9.074 20.291 20.295 20.291h142.124c11.207 0 20.302-9.073 20.302-20.292V180.591c0-11.207-9.095-20.302-20.302-20.302H179.203c-11.22 0-20.295 9.095-20.295 20.302z" style="fill:#fff;fill-rule:evenodd;stroke:none"/><path d="M164.899 368.389V180.59c0-7.897 6.405-14.311 14.314-14.311h142.114c7.896 0 14.311 6.414 14.311 14.31V368.39c0 7.905-6.415 14.315-14.311 14.315H179.213c-7.91 0-14.314-6.41-14.314-14.315m-3.593.011c0 9.899 7.996 17.896 17.897 17.896h142.124c9.888 0 17.908-7.997 17.908-17.896v-187.81c0-9.887-8.02-17.907-17.908-17.907H179.203c-9.901 0-17.897 8.02-17.897 17.907zM250.272 46.71l-72.63 66.098c-2.143 1.671-2.466 4.792-.73 6.88a4.83 4.83 0 0 0 5.054 1.544l52.992-13.86.087 41.854 15.227-.09 15.23.09.087-41.854 52.992 13.86a4.83 4.83 0 0 0 5.054-1.544c1.737-2.088 1.413-5.209-.73-6.88z" style="fill:#000;fill-rule:evenodd;stroke:none"/><path d="m207.15 200.813 2.597-7.613 2.58 7.613zm-8.062 11.28h4.203l2.518-7.339h7.87l2.514 7.338h4.176l-8.692-25.37h-3.918zm24.516 0h4.406l4.134-8.558 4.14 8.557h4.397l-6.325-13.126 5.918-12.233h-4.416l-3.725 7.655-3.686-7.665h-4.386l5.878 12.243zm21.696 0h3.949v-25.37H245.3zm10.394 0h3.98v-14.66l5.887 14.66 5.857-14.597v14.596h3.972v-25.37h-3.99l-5.839 14.64-5.867-14.629h-4zm26.031-25.37.039 18.397c.285 4.03 3.968 7.551 8.364 7.551 4.672 0 8.417-3.52 8.6-8.385v-17.553h-3.897v17.48c0 2.398-2.122 4.52-4.572 4.52-1.498 0-3.004-.75-3.834-2.001-.5-.72-.751-1.481-.793-2.629v-17.38zm22.983 25.37h3.99v-14.66l5.887 14.66 5.846-14.597v14.596h3.969v-25.37h-3.979l-5.836 14.64-5.877-14.629h-4zm-128.56 0h3.978v-14.66l5.888 14.66 5.856-14.597v14.596h3.97v-25.37h-3.99l-5.836 14.64-5.87-14.629h-3.997zm1.002 112.378h43.38v25.687h14.973V324.42h6.721v-14.066h-6.66v-66.79h-15.137l-43.277 70.89zm105.082 7.41-.751-1.388c-.53-1.016-4.703-13.38-4.703-31.247 0-15.747 2.925-29.51 4.438-33.665 2.456-6.79 6.731-9.35 11.3-9.35 3.073 0 6.16 1.23 8.364 3.383 2.191 2.132 5.137 5.898 6.77 20.516.61 4.792.906 9.612.906 14.424 0 14.831-2.663 28.102-4.317 32.853-2.556 7.327-6.942 10.07-12.11 10.07-4.478 0-7.837-2.06-9.897-5.595m-9.491 12.63.964.955c3.907 3.91 10.963 7.044 18.759 7.044 9.433 0 18.435-5.37 22.7-12.687 7.055-12.082 8.233-41.713 8.233-44.742 0-25.845-6.173-38.282-6.893-39.628-4.854-8.954-13.595-14.246-23.899-14.246-5.085 0-10.128 1.564-14.424 4.223-10.556 6.54-13.116 17.34-14.973 35.389-.802 7.624-1.14 14.731-1.14 19.585 0 14.507 2.966 29.47 4.062 32.646 1.443 4.213 3.552 8.244 6.61 11.462m-76.354-34.157 24.092-39.502v39.502z" style="fill:#000;fill-rule:evenodd;stroke:none"/></svg>