<svg xmlns="http://www.w3.org/2000/svg" width="245.268" height="245.26" viewBox="0 0 692.202 692.178"><path d="m315 545-80-170 80-170 80 170z" style="fill:none;stroke:#fff;stroke-width:40" transform="translate(1060.019 21.015)"/><path d="M326.907 683.655 8.525 365.273c-10.614-10.583-10.614-27.778 0-38.39L326.907 8.503c10.584-10.583 27.807-10.583 38.39 0L683.68 326.884c10.612 10.611 10.612 27.806 0 38.39l-318.383 318.38c-10.615 10.612-27.779 10.612-38.39 0" style="fill:#ffd520;fill-rule:evenodd;stroke:none;fill-opacity:1"/><path d="M330.935 679.753a21.394 21.394 0 0 0 30.333 0l318.414-318.467c8.385-8.333 8.406-21.948 0-30.354L361.289 12.492c-8.404-8.383-21.997-8.383-30.379 0L12.518 330.931c-8.406 8.406-8.406 22.02 0 30.354z" style="fill:#000;fill-rule:evenodd;stroke:none"/><path d="M337.956 672.65 19.57 354.24c-4.475-4.473-4.496-11.79 0-16.294L337.956 19.533c4.54-4.472 11.796-4.472 16.287 0l318.388 318.413c4.52 4.503 4.52 11.821 0 16.294L354.243 672.65c-4.516 4.505-11.747 4.505-16.287 0" style="fill:#ffd520;fill-rule:evenodd;stroke:none;fill-opacity:1"/><path d="m346.1 63.954-100.68 91.623c-2.966 2.318-3.417 6.642-1.01 9.532a6.7 6.7 0 0 0 7.008 2.143l73.457-19.21.117 58.012 21.108-.124 21.111.124.113-58.012 73.459 19.21a6.71 6.71 0 0 0 7.01-2.143c2.406-2.89 1.954-7.214-1.013-9.532z" style="fill:#000;fill-rule:evenodd;stroke:none"/><path d="M221.422 512.394c0 11.469 9.35 20.698 20.819 20.698h207.555a20.646 20.646 0 0 0 20.694-20.698V242.38c0-11.465-9.225-20.815-20.694-20.815H242.241c-11.593 0-20.82 9.35-20.82 20.815z" style="fill:#fff;fill-rule:evenodd;stroke:none"/><path d="M225.535 512.394c0 9.229 7.476 16.584 16.706 16.584h207.555c9.226 0 16.58-7.355 16.58-16.584V242.38c0-9.219-7.354-16.702-16.58-16.702H242.241c-9.23 0-16.706 7.483-16.706 16.702z" style="fill:#000;fill-rule:evenodd;stroke:none"/><path d="M231.647 512.394c0 5.733 4.737 10.47 10.594 10.47h207.555c5.733 0 10.47-4.737 10.47-10.47V242.38c0-5.856-4.737-10.594-10.47-10.594H242.241a10.586 10.586 0 0 0-10.594 10.594z" style="fill:#fff;fill-rule:evenodd;stroke:none"/><path d="M292.229 282.025v-5.236h3.366l-3.366-10.098v-8.599h2.494l11.593 33.655h-5.609l-3.241-9.722zm18.324 9.722h5.86l5.485-11.344 5.484 11.344h5.857l-8.35-17.449 7.854-16.206h-5.857l-4.988 10.098-4.861-10.098h-5.864l7.855 16.206zm28.922 0h5.24v-33.655h-5.24zm13.84 0h5.232V272.3l7.73 19.447 7.729-19.32v19.32h5.358v-33.655h-5.358l-7.73 19.444-7.73-19.444h-5.23zm34.403-33.655.123 24.43c.378 5.36 5.236 9.973 11.095 9.973 6.234 0 11.215-4.613 11.47-11.093v-23.31h-5.236v23.182c0 3.242-2.745 5.984-6.11 5.984-1.993 0-3.987-.995-5.112-2.614-.62-1.003-.995-1.995-.995-3.494v-23.058zm30.664 33.655h5.238V272.3l7.853 19.447 7.726-19.32v19.32h5.242v-33.655H439.2l-7.726 19.444-7.853-19.444h-5.238zm-170.784 0h5.24V272.3l7.851 19.447 7.73-19.32v19.32h5.234v-33.655h-5.233l-7.73 19.444-7.852-19.444h-5.24zl44.63-33.655v8.599l-3.49 10.098h3.49v5.236h-5.236l-3.366 9.722h-5.612l11.597-33.655h2.618zm150.093 191.977v-20.57c6.731-.244 12.46-3.987 15.83-13.71 2.25-6.484 5.859-24.556 5.859-44.753 0-6.615-.37-13.092-1.242-19.7-2.247-19.938-6.233-25.053-9.229-27.925-2.988-2.865-7.105-4.614-11.218-4.614v-20.566c14.087.127 25.93 7.235 32.533 19.45 1.002 1.867 9.352 18.822 9.352 54.103 0 4.113-1.495 44.5-11.221 60.956-5.73 9.973-17.826 17.202-30.664 17.329M252.462 471.26c.376.621.875 1.122 1.371 1.62l1.871 1.742c5.984 5.61 16.082 9.726 27.922 9.726 27.051 0 47.746-22.814 47.746-57.09 0-26.804-17.828-43.137-38.895-43.137-7.48 0-12.843 1.746-16.333 3.862l1.002-32.159h47.994v-20.568h-67.817l-2.618 76.039 20.818 2.367c1.623-1.743 2.99-3.612 4.865-5.232 3.49-2.744 7.979-4.49 12.464-4.49 9.35 0 18.7 7.856 18.7 23.184 0 11.846-4.24 22.814-7.982 27.68-4.734 6.113-12.337 9.722-19.32 9.722-7.728 0-14.962-3.74-17.952-7.356zl145.23-139.374v20.566h-.125c-6.233 0-12.093 3.492-15.458 12.724-2.12 5.61-6.11 24.434-6.11 45.872 0 24.433 5.732 41.26 6.484 42.633l.995 1.87c2.864 4.861 7.358 7.73 13.465 7.73.247 0 .497-.128.748-.128v20.57h-.25c-10.595 0-20.194-4.243-25.556-9.598l-1.365-1.376c-4.117-4.357-6.985-9.84-8.982-15.579-1.372-4.364-5.486-24.684-5.486-44.503 0-6.61.501-16.33 1.623-26.677 2.49-24.684 5.86-39.39 20.32-48.244 5.86-3.738 12.714-5.86 19.696-5.86z" style="fill:#000;fill-rule:evenodd;stroke:none"/></svg>