<svg xmlns="http://www.w3.org/2000/svg" width="245.709" height="245.702" viewBox="82.992 45.607 719.748 792.482"><path d="M420.892 828.33 56.37 463.81c-12.15-12.12-12.15-31.8 0-43.95L420.892 55.338c12.115-12.115 31.835-12.115 43.95 0L829.363 419.86c12.148 12.15 12.148 31.83 0 43.95l-364.52 364.52c-12.152 12.152-31.805 12.152-43.951 0" style="fill:#ffd520;fill-rule:evenodd;stroke:none;fill-opacity:1"/><path d="M425.475 823.806c9.622 9.624 25.156 9.624 34.779 0l364.561-364.561c9.596-9.594 9.624-25.18 0-34.807L460.282 59.905c-9.598-9.595-25.236-9.595-34.835 0L60.917 424.438c-9.626 9.627-9.594 25.213 0 34.807z" style="fill:#000;fill-rule:evenodd;stroke:none"/><path d="M433.518 815.732 68.99 451.179c-5.122-5.12-5.146-13.5 0-18.653L433.542 67.969c5.142-5.122 13.529-5.122 18.646 0l364.553 364.557c5.144 5.153 5.144 13.533 0 18.653L452.188 815.732c-5.141 5.157-13.504 5.157-18.646 0z" style="fill:#ffd520;fill-rule:evenodd;stroke:none;fill-opacity:1"/><path d="M405.418 428.136c5.351.169 10.623-2.13 14.131-6.186l55.644-87.505-1.25 141.937-58.993 143.61c-5.725 11.337-.5 25.17 11.288 29.895 11.166 4.475 23.833-1.004 28.224-12.164l98.624-231.285.375-88.214 17.522 30.769.04 65.724c-.335 8.485 6.435 15.51 14.926 15.552 8.402.04 15.215-6.858 15.046-15.26l-.335-79.186-44.691-67.354c-4.637-6.73-13.333-10.202-21.324-8.528l-47.575 8.114c-5.854 1.044-11.16 4.595-14.385 9.572l-81.232 127.807c-2.213 5.185-1.965 11.291.839 16.225l-107.365 201.05c-1.921 3.435-.63 7.741 2.842 9.535 3.387 1.758 7.528.42 9.28-2.971z" style="fill:#000;fill-rule:evenodd;stroke:none"/><path d="M555.9 637.534c11.958 27.883 53.433 10.156 41.26-17.772l-44.19-101.596-.665-93.275L508.7 527.238zm-58.75-458.559c-19.752 0-35.802 16.056-35.802 35.802 0 19.749 16.05 35.805 35.802 35.805 19.747 0 35.797-16.056 35.797-35.805 0-19.746-16.05-35.802-35.797-35.802" style="fill:#000;fill-rule:evenodd;stroke:none"/></svg>