<svg xmlns="http://www.w3.org/2000/svg" width="245.709" height="245.702" viewBox="82.992 45.607 719.748 792.482"><path d="M420.892 828.33 56.37 463.81c-12.15-12.12-12.15-31.8 0-43.95L420.892 55.338c12.115-12.115 31.835-12.115 43.95 0L829.363 419.86c12.148 12.15 12.148 31.83 0 43.95l-364.52 364.52c-12.152 12.152-31.805 12.152-43.951 0" style="fill:#ffd520;fill-rule:evenodd;stroke:none;fill-opacity:1"/><path d="M425.475 823.806c9.622 9.624 25.156 9.624 34.779 0l364.561-364.561c9.596-9.594 9.624-25.18 0-34.807L460.282 59.905c-9.598-9.595-25.236-9.595-34.835 0L60.917 424.438c-9.626 9.627-9.594 25.213 0 34.807z" style="fill:#000;fill-rule:evenodd;stroke:none"/><path d="M433.542 815.732 68.989 451.179c-5.122-5.12-5.146-13.5 0-18.653L433.542 67.969c5.118-5.122 13.505-5.122 18.646 0l364.553 364.557c5.144 5.153 5.144 13.533 0 18.653L452.188 815.732c-5.141 5.157-13.504 5.157-18.646 0" style="fill:#ffd520;fill-rule:evenodd;stroke:none;fill-opacity:1"/><path d="m499.178 445.554 54.892 78.233a26.17 26.17 0 0 0 12.82 8.648l81.026 22.126c10.733 3.133 21.885-3.484 24.187-14.426 2.294-10.559-4.572-20.912-15.196-22.936l-75.067-19.195-84.65-152.464 35.342 10.733 31.883 57.988c3.52 8.291 13.381 11.811 21.364 7.666a15.39 15.39 0 0 0 6.306-21.293l-35.58-64.401c-2.298-5.403-7.108-9.584-12.789-11.186l-76.95-21.013c-6.58-.662-13.276.626-19.09 3.658l-25.926 17.705c-4.603 3.17-7.985 8.19-9.134 13.765l-10.627 47.255-65.973 7.386c-8.953.524-15.85 8.119-15.54 17.111.35 9.863 9.166 17.182 18.887 15.788l75.52-8.854c7.529-1.292 14.076-6.792 16.623-14.08l5.26-19.757 28.263 35.616-67.115 34.955c-3.52 2.056-6.627 4.737-9.237 7.805L328 540.797c-6.024 8.083-4.594 19.48 3.244 25.819 8.12 6.592 20.073 5.265 26.557-2.927l55.862-72.76zm-271.412-3.374c-22.643 0-41.16 18.421-41.21 41.108.05 22.69 18.567 41.212 41.21 41.212s41.16-18.521 41.207-41.212c-.047-22.687-18.564-41.108-41.207-41.108m177.652-194.992c-16.965.07-30.8 13.84-30.8 30.872 0 16.965 13.835 30.8 30.8 30.8 17.037 0 30.805-13.835 30.872-30.8 0-17.032-13.835-30.872-30.872-30.872" style="fill:#000;fill-rule:evenodd;stroke:none"/></svg>